<svg width="277" height="128" viewBox="0 0 277 128" fill="none" xmlns="http://www.w3.org/2000/svg">
<path fill-rule="evenodd" clip-rule="evenodd" d="M125.898 101.305C126.321 100.794 126.751 100.288 127.185 99.7864L127.26 100.059C127.283 100.129 127.296 100.18 127.311 100.24C127.333 100.324 127.36 100.426 127.424 100.625C127.587 101.192 127.751 101.702 127.969 102.268L128.132 102.665C128.159 102.693 128.187 102.764 128.227 102.871C128.268 102.977 128.323 103.118 128.405 103.288C128.677 103.855 128.95 104.422 129.277 104.932C129.44 105.186 129.617 105.441 129.794 105.696C129.971 105.951 130.149 106.206 130.312 106.461C130.584 106.858 131.129 107.425 131.565 107.878C132.056 108.331 132.546 108.784 133.091 109.181C133.636 109.577 134.181 109.974 134.726 110.314C135.271 110.654 135.816 110.937 136.688 111.277C138.323 111.957 140.122 112.297 141.92 112.354C142.792 112.354 143.719 112.297 144.155 112.24C144.7 112.184 145.299 112.07 145.844 111.9C146.989 111.617 148.079 111.164 149.114 110.654C149.305 110.541 149.441 110.47 149.564 110.406C149.686 110.342 149.795 110.286 149.932 110.201C150.041 110.116 150.163 110.045 150.286 109.974C150.408 109.903 150.531 109.832 150.64 109.747C150.785 109.634 150.936 109.527 151.088 109.42C151.391 109.206 151.694 108.992 151.948 108.728C152.039 108.652 152.111 108.589 152.172 108.537C152.293 108.432 152.366 108.369 152.439 108.331L152.711 108.048C152.82 107.963 152.915 107.864 153.011 107.764C153.106 107.665 153.201 107.566 153.31 107.481C153.392 107.368 153.488 107.269 153.583 107.17C153.678 107.07 153.774 106.971 153.855 106.858L154.128 106.518C154.186 106.438 154.25 106.358 154.316 106.276C154.438 106.124 154.567 105.965 154.673 105.781L155 105.271L155.327 104.818L155.708 104.195C155.992 103.715 156.161 103.38 156.304 103.094C156.38 102.942 156.45 102.803 156.526 102.665L156.962 101.759L157.452 100.625C157.48 100.597 157.493 100.569 157.507 100.54C157.52 100.512 157.534 100.484 157.561 100.455C157.582 100.434 157.595 100.412 157.606 100.394C157.624 100.364 157.637 100.342 157.67 100.342L157.725 100.285L157.834 100.116L157.887 100.004C157.968 100.06 157.976 100.065 157.888 100.002L157.887 100.004C157.162 99.5035 150.571 94.8761 153.855 97.1693H153.91L154.291 97.2825L157.561 98.3025L158.379 98.5858L158.76 98.6991L158.815 98.5858C159.196 98.0758 159.564 97.5517 159.932 97.0275C159.996 96.9368 160.059 96.846 160.123 96.7552C160.159 96.78 160.196 96.8047 160.232 96.8293C161.54 97.6792 163.011 98.3025 164.592 98.7557C166.172 99.1523 167.753 99.2657 169.17 99.2089C169.469 99.1815 169.71 99.1584 169.907 99.1387C170.872 100.81 172.281 102.648 174.238 104.252C175.085 105.029 176.161 105.69 177.291 106.233C177.254 106.446 177.218 106.673 177.181 106.915C177.126 107.198 177.072 107.651 177.072 107.991C177.017 108.331 177.017 108.728 177.017 109.407C177.017 110.087 177.017 110.314 177.072 111.391C177.087 111.543 177.101 111.681 177.113 111.811C177.188 112.603 177.235 113.088 177.562 114.45C177.944 115.923 178.271 117.056 179.524 119.266C180.451 120.966 182.304 123.232 184.538 124.819C186.446 126.292 189.498 127.425 191.078 127.652C193.203 128.048 194.675 128.048 195.765 127.935C196.891 127.848 197.442 127.728 198.03 127.601C198.21 127.561 198.394 127.521 198.599 127.482C199.525 127.255 199.798 127.142 200.343 126.915C200.514 126.844 200.663 126.784 200.798 126.73C201.093 126.612 201.317 126.522 201.542 126.405C201.869 126.292 202.25 126.065 202.414 125.952L203.068 125.612L203.558 125.329C203.813 125.177 203.97 125.077 204.127 124.976C204.206 124.926 204.285 124.875 204.376 124.819C205.248 124.195 205.738 123.799 206.12 123.459C206.501 123.119 206.828 122.836 207.101 122.609C207.646 122.099 208.027 121.703 208.408 121.306C208.542 121.167 208.663 121.034 208.777 120.909C208.988 120.678 209.177 120.47 209.39 120.286C209.807 119.852 210.171 119.419 210.519 119.004C210.671 118.823 210.821 118.645 210.97 118.473L212.278 116.943L212.823 116.32L213.096 116.037C216.202 112.807 219.199 109.577 222.142 106.405C223.614 104.818 225.086 103.231 226.502 101.589C226.856 101.164 227.224 100.753 227.592 100.342C227.96 99.9315 228.328 99.5203 228.682 99.0957C228.953 98.7712 229.239 98.4384 229.535 98.0943C230.015 97.5372 230.52 96.9497 231.025 96.3193C232.552 94.4497 233.914 92.5799 235.168 90.8236C235.395 90.495 235.62 90.1701 235.843 89.8484C236.497 88.9053 237.134 87.9879 237.744 87.0799C237.845 87.4403 237.949 87.8193 238.056 88.2173C238.219 88.6533 238.332 89.0272 238.447 89.4053C238.6 89.9116 238.756 90.4258 239.037 91.1069C239.037 91.3101 238.865 90.9329 238.742 90.6617C238.624 90.404 238.551 90.2422 238.71 90.767C238.88 91.0708 239.073 91.635 239.292 92.2774C239.562 93.0723 239.874 93.987 240.236 94.6764L240.181 94.9597C240.271 95.2635 240.269 95.172 240.265 95.0511C240.26 94.8877 240.253 94.671 240.471 95.3029L239.854 93.4865C240.005 93.6815 240.129 93.9303 240.298 94.2696C240.375 94.4232 240.461 94.5955 240.563 94.7897C240.506 94.5122 240.349 94.0199 240.196 93.5431C239.913 92.6565 239.647 91.8233 240.072 92.5233V92.6366C240.145 92.5612 240.387 93.1151 240.589 93.5768C240.69 93.8075 240.781 94.0153 240.835 94.1098H240.781L241.326 95.0163C240.944 94.3931 241.38 96.0362 241.435 95.8661C241.672 96.0851 241.616 95.9869 241.508 95.7949C241.392 95.5892 241.215 95.2761 241.271 95.1296C241.326 95.0163 241.762 96.0362 241.98 96.6028L242.143 96.4894C242.334 96.9144 242.293 96.9144 242.266 96.9144C242.239 96.9144 242.225 96.9144 242.47 97.3393L242.307 96.3195C242.837 97.3932 242.8 97.1559 242.754 96.8556C242.705 96.5379 242.645 96.1499 243.233 97.1693C243.266 97.5038 243.393 97.7002 243.559 97.9564C243.674 98.1342 243.808 98.3409 243.942 98.6424L244.432 98.3025C244.591 98.5085 244.634 98.8045 244.646 98.8852C244.648 98.8987 244.65 98.9061 244.65 98.9061C244.65 98.9061 244.65 98.8947 244.65 98.8691C244.944 99.25 244.793 98.8369 244.68 98.5253C244.625 98.3736 244.578 98.2459 244.596 98.2459C244.74 98.4601 244.83 98.4798 244.927 98.5014C245.086 98.5366 245.266 98.5762 245.74 99.4924C246.228 99.8801 245.961 99.3413 245.709 98.835C245.483 98.3796 245.27 97.9508 245.631 98.2459C245.892 98.6523 245.866 98.7478 245.845 98.8234C245.823 98.9061 245.807 98.9651 246.176 99.379L246.34 98.8691C246.391 98.976 246.461 99.1116 246.535 99.2546C246.758 99.6894 247.018 100.194 246.91 100.181C246.902 100.178 246.893 100.175 246.885 100.172C246.889 100.174 246.893 100.176 246.897 100.178C246.902 100.18 246.906 100.181 246.91 100.181C247.431 100.37 248.143 100.891 248.883 101.432C249.308 101.742 249.742 102.06 250.155 102.325C251.299 103.118 252.335 103.572 252.389 102.609C252.929 103.1 252.947 103.243 252.972 103.457C252.988 103.588 253.007 103.745 253.152 104.025C253.043 103.118 253.697 103.402 254.515 103.798L254.635 103.861C255.373 104.246 256.218 104.687 256.477 104.365L255.823 103.628C257.294 104.308 258.003 103.968 258.602 103.458C258.72 103.348 258.834 103.229 258.947 103.109C259.357 102.68 259.773 102.244 260.455 102.155L259.855 101.872C259.427 101.345 259.36 101.021 259.297 100.713C259.272 100.591 259.248 100.471 259.201 100.342C259.295 100.411 259.431 100.532 259.582 100.665C260.048 101.078 260.66 101.62 260.618 101.192C260.518 101.14 260.413 101.098 260.305 101.056C260.063 100.961 259.81 100.861 259.583 100.626C260.945 100.965 261.817 100.456 262.635 99.8323C263.016 99.4924 263.398 99.1523 263.779 98.7557C264.161 98.4158 264.542 98.0758 265.087 97.8493C265.414 96.546 266.177 95.5828 266.995 94.6196C267.812 93.6564 268.575 92.6932 268.684 91.5601C268.63 91.9001 266.559 90.8236 267.104 90.8236C269.066 91.2768 269.011 90.9369 268.848 90.5403C268.836 90.5194 268.825 90.4985 268.813 90.4775C268.6 90.0979 268.377 89.6994 269.72 89.8604C269.404 89.1569 269.835 88.8029 270.271 88.4446C270.362 88.37 270.453 88.2954 270.537 88.2173C271.028 87.764 271.3 87.2541 270.047 86.2343L271.137 86.5741C271.467 86.5741 271.337 86.4701 271.171 86.3373C271.063 86.2514 270.94 86.1534 270.919 86.0643L271.191 86.1775C271.468 86.0339 271.352 85.7445 271.248 85.4868C271.148 85.2364 271.059 85.0157 271.355 84.9878L270.156 84.5912C270.13 84.4596 270.34 84.4869 270.506 84.5085C270.698 84.5332 270.833 84.5507 270.483 84.3079L271.082 84.4778L269.992 83.8547C271.225 84.2491 271.138 83.9761 271.049 83.6994C270.985 83.4991 270.92 83.297 271.355 83.3447C271.316 83.2883 271.267 83.2227 271.214 83.1508C270.892 82.7166 270.397 82.0499 270.864 81.7581C271.604 81.9121 271.917 81.7004 272.246 81.4776C272.402 81.3723 272.562 81.2643 272.772 81.1916C272.663 80.3985 272.554 79.3219 273.153 78.5287L271.736 78.2454L271.682 78.0187C271.749 78.0305 271.81 78.0397 271.864 78.048C272.074 78.0802 272.195 78.0987 272.281 78.1888C273.17 78.2811 272.98 78.0891 272.787 77.8944C272.626 77.7309 272.462 77.5655 272.935 77.5655C272.086 77.4552 272.248 77.5358 272.451 77.6372C272.56 77.6918 272.682 77.7524 272.663 77.7922C271.954 77.8488 270.646 77.3388 271.409 77.2256L271.736 77.2822L271.028 76.9423C271.573 77.0555 271.981 77.0981 272.39 77.1405C272.799 77.183 273.208 77.2256 273.753 77.3388C273.707 77.0075 273.376 76.6563 273.05 76.3102C272.596 75.8277 272.15 75.3551 272.499 74.9592C273.014 75.1052 273.047 75.0109 273.084 74.9004C273.134 74.7538 273.194 74.5794 274.407 74.9026C274.021 74.563 273.538 74.5261 272.94 74.4805C272.441 74.4424 271.861 74.3981 271.191 74.1661C271.209 74.1282 271.161 74.0778 271.116 74.0317C271.028 73.9394 270.955 73.8637 271.464 73.9394C271.695 74.0194 271.998 74.0492 272.272 74.076C272.579 74.1063 272.849 74.1327 272.935 74.2226L272.826 73.8828C272.959 73.8828 273.164 73.9577 273.324 74.0163C273.361 74.0296 273.395 74.0421 273.426 74.0527C272.848 73.6234 273.257 73.411 273.655 73.2037C274.047 73.0004 274.428 72.8022 273.862 72.4096C273.48 72.3245 273.412 72.367 273.344 72.4096C273.276 72.452 273.208 72.4945 272.826 72.4096C272.046 71.9589 272.507 71.9065 272.958 71.8553C273.357 71.81 273.748 71.7657 273.262 71.4464L274.298 71.7297C274.17 71.6786 274.035 71.6295 273.905 71.582C273.315 71.3666 272.83 71.189 273.589 71.0498C274.4 71.1597 274.572 71.2935 274.755 71.4356C274.855 71.5131 274.958 71.5931 275.17 71.6731C275.224 71.503 275.006 70.9364 273.807 70.9364C273.528 70.7296 274.064 70.704 274.5 70.6831C274.661 70.6755 274.809 70.6685 274.897 70.6531C274.782 70.6333 274.641 70.6413 274.482 70.6503C274.188 70.667 273.834 70.687 273.48 70.5398C274.107 70.3537 274.219 70.0146 274.329 69.6797C274.353 69.6069 274.377 69.5341 274.407 69.4632C274.734 69.52 275.17 69.5766 275.333 69.5766C274.587 69.3826 274.87 69.3784 275.323 69.3718C275.796 69.3647 276.453 69.3549 276.314 69.1234C276.199 68.684 275.941 68.1952 275.68 67.6994C275.2 66.7887 274.708 65.8543 275.061 65.1572C273.638 64.8123 273.412 64.5101 273.162 64.1763C273.125 64.1263 273.087 64.0758 273.044 64.0241L275.279 64.194L274.57 63.8541C274.86 63.829 274.968 63.8818 275.074 63.9335C275.207 63.9985 275.338 64.0621 275.824 63.9675L274.461 63.7408C274.767 63.762 274.928 63.6643 275.089 63.5663C275.359 63.4023 275.631 63.2374 276.587 63.6274L276.696 62.4377C276.749 62.2984 276.302 62.2277 275.905 62.1647C275.495 62.0997 275.137 62.0429 275.442 61.9277C275.775 61.9277 275.882 61.957 276.014 61.9933C276.142 62.0283 276.294 62.0699 276.696 62.0977C277.584 61.6808 276.364 61.3578 275.157 61.0383C274.068 60.7498 272.989 60.4642 273.48 60.1147L273.753 60.1713C273.419 60.0766 273.305 59.9643 273.212 59.8737C273.139 59.8016 273.08 59.7432 272.935 59.7181C271.815 59.7181 272.119 59.775 272.536 59.8531C272.951 59.9309 273.479 60.0298 272.826 60.1147C271.824 60.0551 271.604 59.9645 271.408 59.8835C271.23 59.8102 271.072 59.745 270.374 59.7181C270.82 59.6109 270.552 59.5264 270.266 59.4358C270.098 59.3827 269.924 59.3277 269.883 59.2648C270.441 59.1592 270.563 59.0169 270.681 58.8778C270.817 58.718 270.95 58.5625 271.736 58.4716C271.535 58.4145 271.192 58.3574 270.824 58.2961C270.095 58.1747 269.265 58.0365 269.229 57.8484C269.929 57.7676 270.283 57.7891 270.521 57.8036C270.784 57.8196 270.905 57.827 271.191 57.6783L270.101 57.6217C270.236 57.4353 270.481 57.4405 270.837 57.4483C270.914 57.4499 270.995 57.4518 271.082 57.4518C271.105 57.3556 270.835 57.3004 270.573 57.2468C270.218 57.1742 269.88 57.105 270.319 56.9418L271.355 57.1117C271.014 56.9349 271.073 56.827 271.166 56.6533C271.193 56.6046 271.222 56.5506 271.246 56.4886C271.9 56.4886 271.845 56.6585 271.627 56.7151C272.641 56.6449 272.125 56.5529 271.639 56.466C271.341 56.413 271.054 56.3616 271.137 56.3187C270.964 56.3187 270.824 56.3468 270.669 56.3784C270.384 56.4362 270.044 56.5053 269.338 56.4318C269.426 56.3631 269.203 56.2946 268.992 56.2296C268.68 56.1337 268.395 56.0462 269.175 55.9786L270.21 56.1485C269.897 56.0264 269.633 55.9702 269.443 55.9298C269.105 55.8577 269.004 55.8361 269.284 55.582H269.883C268.948 55.4324 269.2 55.2583 269.51 55.043C269.67 54.9322 269.846 54.8104 269.883 54.6755L270.156 54.7321C269.988 54.6824 269.706 54.6328 269.451 54.5878C269.124 54.5303 268.841 54.4807 268.902 54.4488C268.248 54.6188 267.976 54.6188 266.886 54.6188C267.791 54.4763 267.246 54.3768 266.621 54.2624C266.004 54.1497 265.309 54.0226 265.85 53.8255C266.45 53.8255 267.213 53.9389 266.559 54.0522C267.003 54.0795 267.432 54.1 267.839 54.1197C269.129 54.1819 270.201 54.2334 270.864 54.4488C270.428 54.2789 270.156 54.109 270.973 54.109L269.229 54.0522C269.194 53.9786 269.227 53.9289 269.255 53.8877C269.27 53.8653 269.284 53.8454 269.284 53.8255C268.821 53.8016 268.427 53.8387 268.073 53.8722C267.592 53.9175 267.185 53.956 266.777 53.8255C266.407 53.6716 267.344 53.6483 267.745 53.6493L267.758 53.6556C268.002 53.6556 267.933 53.6498 267.745 53.6493C267.422 53.4989 267.013 53.4627 266.714 53.4363C266.355 53.4045 266.154 53.3866 266.45 53.2024C266.501 53.2202 266.563 53.2379 266.619 53.2539C266.686 53.2733 266.745 53.2899 266.765 53.3011C266.752 53.3059 266.737 53.3108 266.722 53.3157C266.773 53.3157 266.782 53.3103 266.765 53.3011C266.98 53.2229 267.008 53.1328 267.035 53.0435C267.088 52.8741 267.139 52.7084 268.466 52.6358C268.957 52.6358 269.556 52.6358 269.393 52.7491H269.066C269.765 52.8529 269.732 52.814 269.674 52.7468C269.618 52.6816 269.54 52.5898 270.083 52.576C270.2 52.5868 270.349 52.5888 270.537 52.579C270.352 52.5736 270.203 52.573 270.083 52.576C269.522 52.5236 269.703 52.2664 269.883 52.1258L268.63 52.1824C266.711 51.983 267.357 51.9698 268.41 51.9485C269.451 51.9272 270.89 51.8979 270.646 51.6726C270.196 51.5262 270.123 51.5613 270.031 51.6061C269.945 51.6478 269.841 51.698 269.393 51.6158C269.471 51.5343 269.669 51.4676 269.863 51.4021C270.208 51.2857 270.54 51.1741 270.156 50.9927C270.227 50.9762 270.303 50.9571 270.386 50.9368C270.868 50.8168 271.561 50.6444 272.772 50.596C272.525 50.526 272.583 50.4077 272.642 50.2892C272.725 50.1197 272.81 49.9495 272.009 49.9161C271.45 50.1007 271.743 50.175 272.028 50.2472C272.355 50.3301 272.672 50.4104 271.682 50.6528L270.265 50.596C270.286 50.483 270.187 50.37 270.09 50.2605C269.945 50.0957 269.806 49.939 270.101 49.8028C269.829 49.8595 269.447 49.9161 269.175 49.8595C268.966 49.7295 268.63 49.6409 268.319 49.5589C267.817 49.4265 267.38 49.3111 267.649 49.0663C268.637 48.9768 268.711 49.0989 268.778 49.2101C268.796 49.2399 268.813 49.2689 268.848 49.293C269.394 49.1351 269.349 49.0828 269.267 48.989C269.202 48.9145 269.115 48.8138 269.284 48.613C269.827 48.5565 269.815 48.6269 269.802 48.7045C269.788 48.7827 269.773 48.868 270.319 48.8396L269.942 48.4478C270.007 48.447 270.078 48.4455 270.156 48.4431H269.938L269.942 48.4478C269.129 48.4583 269.32 48.3495 269.558 48.2134C269.752 48.1027 269.977 47.9739 269.72 47.8764C269.68 47.4264 268.391 47.3605 267.102 47.2945C266.607 47.2692 266.111 47.2438 265.687 47.1965C266.123 47.0957 266.56 47.0397 266.958 46.9886L267.104 46.9699C266.559 47.121 266.668 47.121 266.946 47.121C267.086 47.121 267.267 47.121 267.431 47.1399C267.213 46.9699 269.229 46.5167 269.992 46.5733C269.703 46.4227 269.444 46.4963 269.175 46.5726C268.938 46.64 268.693 46.7096 268.412 46.6299L268.521 46.1767C268.281 46.2206 268.089 46.2646 267.923 46.3027C267.445 46.4118 267.179 46.4728 266.613 46.3466C266.41 46.2198 266.449 46.1245 266.505 45.9901C266.524 45.9444 266.545 45.8942 266.559 45.8368C266.746 45.8368 266.996 45.8038 267.234 45.7725C267.621 45.7216 267.976 45.6749 267.976 45.78C268.303 45.6101 268.357 45.4402 267.431 45.4402C267.049 45.5988 266.834 45.5353 266.568 45.457C266.265 45.3676 265.897 45.2589 265.142 45.4402L265.959 45.1001C265.959 45.1232 266.059 45.1276 266.165 45.1321C266.321 45.1389 266.492 45.1463 266.395 45.2135C267.385 45.0553 266.78 45.0351 266.269 45.0181C266.049 45.0107 265.845 45.004 265.796 44.9869C265.889 44.9479 265.964 44.8889 266.043 44.8259C266.195 44.7057 266.365 44.5708 266.722 44.5336C266.341 44.477 266.613 44.2503 267.322 44.1369C267.164 44.0712 266.877 44.1199 266.568 44.1725C266.345 44.2104 266.111 44.2503 265.905 44.2503L265.959 43.7971C266.187 43.7656 266.52 43.7164 266.89 43.662C267.847 43.5208 269.048 43.3438 269.284 43.3438C268.974 43.3208 268.531 43.363 268.116 43.4024C267.508 43.4604 266.962 43.5122 266.995 43.3438C267.717 43.3169 268.012 43.2012 268.319 43.0808C268.66 42.9469 269.017 42.8071 269.992 42.7773C271.082 42.494 271.028 42.0406 270.592 41.8706C269.938 41.9003 269.788 41.9916 269.617 42.0962C269.459 42.1922 269.284 42.2993 268.684 42.3806C268.414 42.0995 267.433 42.0834 266.579 42.0692C266.157 42.0623 265.765 42.0559 265.507 42.018C265.446 41.813 265.43 41.5707 265.415 41.3189C266.421 40.9859 267.22 40.5748 266.995 40.3409C266.684 40.387 266.391 40.4896 266.069 40.6026C265.862 40.6752 265.643 40.7518 265.399 40.8209C265.377 40.5912 265.323 40.3727 265.189 40.1815C265.455 40.0421 265.591 39.9476 265.045 40.0165C265.03 40.0029 265.015 39.9897 264.999 39.9769L265.888 39.6766C265.928 39.6726 265.97 39.6674 266.014 39.661L266.94 39.3211L265.888 39.6766C265.469 39.7182 265.21 39.6345 265 39.5665C264.874 39.5261 264.766 39.491 264.651 39.491C263.801 39.3349 264.282 39.1311 265.084 38.7919C265.13 38.7724 265.177 38.7523 265.225 38.732C265.252 38.7207 265.278 38.7094 265.305 38.6978C265.029 38.8024 264.577 38.9555 264.145 39.0675L264.27 38.981L265.578 38.1878C265.665 37.7782 265.12 38.1364 264.478 38.6162C264.523 38.5598 264.53 38.509 264.537 38.4611C264.554 38.3464 264.568 38.2486 265.087 38.1312C265.07 38.0945 265.132 38.034 265.191 37.9768C265.307 37.8648 265.41 37.7649 264.878 37.8782L265.778 37.6778C265.933 37.6465 266.101 37.6089 266.286 37.5646L265.778 37.6778C264.452 37.9471 264.188 37.7624 263.917 37.5729C263.857 37.5309 263.797 37.4888 263.725 37.4513C265.175 37.1101 265.087 37.04 264.97 36.9474C264.855 36.8554 264.711 36.7414 266.014 36.3181C264.999 36.5819 264.786 36.4818 264.583 36.3865C264.394 36.2974 264.213 36.2125 263.398 36.4315C263.273 36.3011 264.331 35.938 265.103 35.6734C265.338 35.5928 265.547 35.5212 265.687 35.4683L264.924 35.5816C265.464 35.3359 265.67 35.0467 265.877 34.7545C266.005 34.575 266.133 34.3943 266.341 34.2218L264.542 34.5617L265.305 34.2218C265.159 34.2599 265.025 34.2723 264.888 34.285C264.619 34.3101 264.341 34.336 263.943 34.5617L263.997 34.3917C262.911 34.757 262.911 34.6942 262.91 34.5795C262.91 34.4985 262.909 34.3917 262.526 34.3917C262.798 34.2218 263.234 34.0517 263.507 34.0517C263.507 33.9757 263.924 33.7979 264.379 33.6034C264.542 33.5336 264.711 33.4617 264.866 33.3918C264.939 33.3651 264.996 33.3395 265.033 33.3152C264.98 33.3403 264.924 33.3659 264.866 33.3918C264.625 33.4811 264.204 33.5847 263.72 33.7037C262.655 33.9661 261.282 34.304 260.836 34.7316C260.073 35.0149 259.474 35.0717 259.801 34.7884L261.436 34.0517L259.637 34.5617C259.449 34.529 259.714 34.3449 259.994 34.1516C260.198 34.0104 260.409 33.8643 260.455 33.7684C260.618 33.8818 263.725 32.862 263.561 32.4088C263.774 32.5191 264.239 32.4384 264.643 32.3682C264.862 32.3303 265.063 32.2954 265.196 32.2954C265.251 32.1821 265.36 32.0687 266.123 31.9554C265.806 31.8732 265.553 31.937 265.333 31.9926C265.099 32.0517 264.903 32.1016 264.706 31.9554C266.177 31.3888 266.613 31.0489 266.995 30.4824L266.014 31.2189C265.85 31.2755 265.687 31.3322 265.578 31.3322C265.469 31.5021 265.251 31.6155 264.706 31.8422C264.706 31.7977 264.405 31.8403 264.091 31.8846C263.745 31.9335 263.384 31.9845 263.393 31.9239C263.464 31.8809 263.539 31.8349 263.616 31.7854C263.462 31.8555 263.396 31.8991 263.393 31.9239C262.364 32.5411 261.91 32.507 261.517 32.4773C261.186 32.4524 260.898 32.4306 260.346 32.8054C259.91 32.9753 259.746 32.8054 260.455 32.4088C261.16 32.2755 261.563 31.9661 261.986 31.6416C262.071 31.5766 262.157 31.5106 262.246 31.4455C262.291 31.4147 262.336 31.3837 262.379 31.3531C262.407 31.3335 262.435 31.3142 262.462 31.2952C262.627 31.187 262.807 31.0838 263.016 30.9922C262.847 31.0363 262.661 31.1571 262.462 31.2952C262.387 31.3445 262.316 31.3949 262.246 31.4455C261.992 31.6199 261.72 31.7883 261.436 31.8422C261.317 31.7593 261.72 31.435 262.095 31.1335C262.234 31.0221 262.369 30.9138 262.471 30.8222L262.798 30.7656L263.289 30.1423C263.02 30.2715 262.798 30.4333 262.599 30.5782C262.275 30.8147 262.013 31.0058 261.708 30.9356C261.824 30.8394 261.802 30.7737 261.781 30.7085C261.751 30.6199 261.722 30.532 262.035 30.369C262.412 30.2248 262.816 30.036 263.195 29.8592C263.859 29.5495 264.443 29.277 264.651 29.349C264.636 29.3373 264.62 29.3236 264.602 29.309C264.368 29.1149 263.913 28.7367 262.798 29.6323L262.744 29.4058C262.712 29.4351 262.678 29.4668 262.643 29.5C262.619 29.523 262.593 29.5471 262.567 29.5717C262.056 30.0554 261.285 30.7848 260.945 30.4824L261.218 30.3122L260.019 30.5957L260.673 30.029C260.346 30.2557 259.964 30.369 259.964 30.2557C260.106 30.1506 260.21 30.061 260.313 29.9725C260.487 29.8228 260.657 29.6761 261 29.4624C260.757 29.2094 260.209 29.5441 259.823 29.7799C259.776 29.8082 259.733 29.8349 259.692 29.859C259.528 29.7457 259.746 29.5192 260.564 29.0658C260.582 28.9378 260.542 28.8216 260.501 28.7001C260.415 28.445 260.321 28.1666 260.727 27.7061C260.312 27.7349 260.262 27.8077 260.178 27.9318C260.097 28.0517 259.983 28.2198 259.474 28.4426C260.509 27.4794 260.509 26.9694 260.128 26.7429C259.939 26.612 259.623 26.5379 259.317 26.4659C259.092 26.4131 258.872 26.3614 258.711 26.2895C257.861 27.2613 257.806 27.2382 257.713 27.1988C257.632 27.165 257.524 27.1193 256.864 27.6744C257.026 27.5084 257.163 27.2886 257.305 27.0634C257.372 26.9561 257.44 26.8475 257.512 26.7429C257.73 26.3463 258.003 25.9496 258.493 25.9496L258.003 25.8363C258.3 25.2697 258.597 25.1714 258.894 25.073C258.914 25.0666 258.933 25.0604 258.952 25.0538C258.963 25.0503 258.973 25.0467 258.984 25.043C259.31 24.9298 259.692 24.7597 260.128 23.9099C259.91 23.74 259.256 24.0798 258.711 24.3631C258.166 24.6466 257.73 24.8165 257.785 24.2499C258.391 23.6472 258.232 23.6537 258.055 23.6613C257.865 23.6692 257.654 23.6781 258.33 22.9467C258.678 22.6648 258.806 22.7264 258.93 22.7857C258.98 22.8098 259.029 22.8333 259.093 22.8333L259.201 22.4935C258.82 21.8136 258.384 22.2102 257.948 22.7768C257.86 22.8909 257.77 23.0142 257.678 23.1411C257.31 23.6445 256.901 24.205 256.422 24.4765C255.869 24.285 256.446 23.3241 256.868 22.6208C256.945 22.4921 257.017 22.3719 257.076 22.2668C257.131 21.9269 256.586 21.8701 256.204 22.2102C256.695 21.8701 256.804 22.2668 256.64 22.7768C256.477 23.3433 256.095 24.0232 255.714 24.4765C256.095 23.5133 255.823 23.3433 255.441 23.4567C255.06 23.57 254.569 24.0798 254.297 24.4199C254.297 25.5823 254.349 25.6632 254.453 25.8247L254.46 25.8363C254.545 25.925 254.631 26.014 254.506 26.6208C254.406 26.3852 254.299 26.158 254.187 25.9496C253.642 24.8731 252.934 23.8531 252.171 22.9467C251.408 22.0968 250.427 21.1902 249.337 20.4537C248.247 19.7171 247.048 19.1507 245.904 18.8106C245.054 18.5509 244.617 18.4817 244.004 18.3847C243.949 18.3757 243.892 18.3668 243.833 18.3574C243.179 18.244 242.525 18.1874 241.871 18.244C241.162 18.244 240.508 18.3006 240.399 18.3574C240.263 18.3857 240.127 18.3998 239.991 18.414C239.854 18.4281 239.718 18.4423 239.582 18.4706L238.764 18.6407C238.492 18.6973 238.165 18.8106 238.001 18.8672C237.865 18.8957 237.742 18.9381 237.62 18.9805C237.497 19.0232 237.375 19.0656 237.238 19.0939C237.131 19.1385 237.032 19.1744 236.938 19.2084C236.794 19.2606 236.662 19.3086 236.53 19.3772L236.094 19.6039C235.822 19.717 235.549 19.8871 235.386 20.0005L234.95 20.227C234.623 20.4537 234.514 20.5103 234.296 20.6237L233.86 20.9069L233.533 21.1336L233.315 21.3036L233.151 21.4735L232.24 22.1753C231.415 21.2945 230.439 20.431 229.391 19.7172C229.205 19.5779 228.997 19.4408 228.777 19.3076C228.763 19.2551 228.75 19.2027 228.737 19.1505C232.715 13.0882 207.918 0.793259 206.937 6.79899L206.61 6.96893L206.174 7.13902L205.302 7.53548C205.003 7.67712 204.717 7.80463 204.431 7.93196C204.144 8.05946 203.858 8.18711 203.558 8.32875C203.322 8.4517 203.075 8.56404 202.831 8.67487C202.514 8.81937 202.201 8.96168 201.923 9.12202C201.567 9.32783 201.211 9.53179 200.858 9.73373C199.267 10.6444 197.742 11.517 196.582 12.3515C196.487 12.4152 196.393 12.4778 196.299 12.5396C195.781 11.9279 195.219 11.3497 194.62 10.8217C192.822 9.23537 190.86 8.15881 189.171 7.53548C187.7 7.03881 187.37 6.98021 187.061 6.92513C186.911 6.89852 186.766 6.87276 186.5 6.79899C185.901 6.68564 185.301 6.62904 184.702 6.57228C183.503 6.51569 182.249 6.57246 181.05 6.7424C180.451 6.85558 179.851 6.96909 179.306 7.13902C178.652 7.30896 178.216 7.4789 178.271 7.4789C177.453 7.76218 176.636 8.10207 175.818 8.55546L175.437 8.78198L174.292 9.57524C174.211 9.63183 174.116 9.70238 174.021 9.77296L174.019 9.77414C173.924 9.84471 173.829 9.91528 173.747 9.97186L173.638 10.0286C173.257 10.4818 173.039 10.7651 172.984 10.9918C172.821 11.3883 173.257 11.3883 173.802 11.3317C173.851 11.3317 173.911 11.3202 173.977 11.3076C174.058 11.2923 174.148 11.2751 174.238 11.2751L174.456 11.2184H174.51L174.728 11.0484L175.219 10.7651C175.546 10.5384 175.927 10.3119 176.309 10.1418L177.072 9.74518C177.208 9.68859 177.358 9.61786 177.508 9.54695C177.658 9.47621 177.808 9.4053 177.944 9.34871C178.107 9.29195 178.257 9.23536 178.407 9.17877C178.557 9.12202 178.707 9.06542 178.87 9.00867L179.197 8.89532C179.306 8.86703 179.402 8.83874 179.497 8.81044C179.592 8.78214 179.688 8.75368 179.797 8.72539C180.004 8.66374 180.228 8.61893 180.459 8.57245C180.653 8.53371 180.852 8.4938 181.05 8.44209C181.922 8.27216 182.794 8.21541 183.666 8.21541C184.538 8.21541 185.41 8.32874 186.228 8.44209C186.33 8.4687 186.432 8.48286 186.529 8.49617C186.638 8.51116 186.74 8.52531 186.827 8.55546C186.892 8.56674 186.938 8.57349 186.975 8.57904C187.006 8.58359 187.031 8.58729 187.055 8.59184C187.145 8.60902 187.233 8.63933 187.644 8.78198C188.789 9.12186 190.097 9.632 191.46 10.4819C192.664 11.2121 193.914 12.2306 194.956 13.4046C194.786 13.5104 194.62 13.6126 194.457 13.7113C194.261 13.8132 194.065 13.9353 193.881 14.0534C193.317 13.443 192.7 12.8893 192.059 12.4082C191.078 11.6716 190.043 11.105 189.116 10.6518C188.299 10.2552 186.882 9.91528 186.882 9.91528C186.307 9.75225 185.682 9.69347 185.104 9.63907L185.029 9.632C183.721 9.51865 182.358 9.57524 181.105 9.85853C180.778 9.91528 180.451 9.97186 180.178 10.0852C179.96 10.1418 179.415 10.3119 179.415 10.3119L179.088 10.4251C178.956 10.4938 178.824 10.5416 178.68 10.5938C178.586 10.6279 178.487 10.6637 178.38 10.7085C178.12 10.8098 177.841 10.9514 177.577 11.0853C177.398 11.1759 177.226 11.263 177.072 11.3317L176.254 11.8417L175.927 12.0116L175.6 12.2382L175.491 12.2949L175.437 12.3515V12.4082L175.382 12.5214C174.741 13.0029 174.129 13.5448 173.567 14.0424C173.343 14.2413 173.126 14.4332 172.918 14.6114C172.785 14.3491 172.645 14.0869 172.494 13.8247C172.397 13.6731 172.305 13.5217 172.211 13.3686C171.991 13.0066 171.765 12.6365 171.458 12.2382C169.932 10.0852 167.698 8.04547 165.3 6.7424C164.755 6.40236 164.047 6.11907 163.556 5.94913L162.739 5.60925C162.194 5.38256 161.594 5.21264 160.995 5.09929C159.796 4.816 158.597 4.64605 157.398 4.64605H155.926C155.49 4.64605 155 4.70264 154.564 4.7594C154.448 4.78938 154.332 4.80353 154.208 4.81869C154.099 4.83199 153.983 4.84597 153.855 4.87258L153.528 4.92934L152.929 5.04269C152.548 5.15588 152.112 5.26922 151.785 5.32597C151.594 5.38256 151.39 5.4533 151.185 5.52404C150.981 5.59495 150.776 5.66585 150.586 5.72243C150.478 5.76723 150.379 5.80311 150.285 5.83713C150.141 5.88934 150.009 5.93718 149.877 6.00573L149.332 6.23241L148.896 6.45911L148.297 6.7424L147.207 7.30896L146.335 7.81878C146.244 7.87553 146.147 7.93213 146.05 7.98888C145.856 8.10207 145.662 8.21557 145.517 8.32875C144.591 8.95208 143.61 9.57523 142.792 10.0852C142.643 10.1938 142.502 10.2941 142.368 10.3891C142.012 10.6413 141.707 10.8583 141.43 11.105C141.103 11.3883 140.83 11.6716 140.667 11.8983C140.285 12.4082 140.067 12.8049 139.849 13.2013L139.843 13.2136C139.177 12.9053 138.478 12.6747 137.778 12.5214C136.743 12.2949 135.762 12.1816 134.726 12.2382C134.59 12.2382 134.468 12.2525 134.345 12.2666C134.222 12.2808 134.1 12.2949 133.963 12.2949L133.636 12.3515C133.534 12.3781 133.432 12.3922 133.335 12.4055C133.226 12.4207 133.124 12.4347 133.037 12.4648C132.766 12.5051 132.467 12.6026 132.18 12.6964C132.063 12.7345 131.948 12.772 131.838 12.8049C131.603 12.8744 131.369 12.9655 131.147 13.0518C131.008 13.1057 130.874 13.1577 130.748 13.2013L130.639 13.2581H130.53L130.367 13.3147C130.149 13.3715 129.944 13.4422 129.74 13.5131C129.536 13.5838 129.331 13.6547 129.113 13.7113C128.241 13.9946 127.369 14.3346 126.334 14.8445C125.357 15.3255 124.332 16.0083 123.075 16.845L122.846 16.9976C122.41 17.1109 121.81 17.2808 121.211 17.4508C121.011 17.5074 120.811 17.5704 120.611 17.6333C120.212 17.7592 119.812 17.8851 119.412 17.9608C118.213 18.244 117.123 18.3574 116.578 17.7908C115.815 18.4707 114.889 19.2072 113.799 20.0005C113.398 20.2924 112.981 20.5767 112.565 20.8618C111.849 21.3512 111.129 21.8432 110.475 22.3801C109.385 23.1734 108.403 23.9665 107.586 24.7597C106.823 25.4962 106.278 26.2329 106.06 26.8561C106.769 26.4594 107.368 26.063 107.859 25.7229C108.349 25.3831 108.839 25.043 109.221 24.6464C109.797 24.1337 110.279 23.6209 110.739 23.1325C110.888 22.9733 111.036 22.8163 111.183 22.6634C111.783 21.9835 112.437 21.3602 113.417 20.6804C113.908 20.3404 114.453 20.0005 115.161 19.6605C115.488 19.4905 115.87 19.3206 116.251 19.1505C116.633 18.9805 117.069 18.8106 117.559 18.6407C117.178 19.4339 116.851 20.227 116.524 21.0769C114.069 22.6956 111.58 24.8786 109.349 26.8367C107.518 28.4428 105.86 29.8974 104.534 30.7655C105.243 30.5389 105.679 30.5955 105.57 31.1055C104.316 32.4086 103.336 33.5419 102.464 34.5617C101.97 35.1773 101.516 35.7721 101.079 36.3463C100.79 36.7234 100.51 37.0919 100.23 37.4513C99.5198 38.3577 98.8117 39.2643 97.9398 40.1709C97.0678 41.0774 96.0319 42.0972 94.7797 43.1737C94.0159 43.0038 94.3978 42.2673 95.2157 41.3041C95.8877 40.512 96.8547 39.5665 97.7529 38.6885C97.9463 38.4989 98.1381 38.3122 98.3217 38.1312C96.6416 39.1016 95.8008 39.8228 94.9419 40.6506C95.0599 40.4623 95.1714 40.2676 95.2812 40.0749C95.455 39.7699 95.6254 39.4698 95.8139 39.2077C95.9237 39.0376 96.0319 38.8677 96.0876 38.6978C96.1958 38.4714 96.3056 38.2442 96.4138 38.0744L96.5777 37.6778C96.6318 37.5929 96.6728 37.5079 96.7137 37.423C96.7547 37.3379 96.7957 37.2529 96.8498 37.168L96.9596 36.8847L97.1219 36.5447C97.1628 36.419 97.2104 36.301 97.2579 36.1851C97.3366 35.9875 97.4153 35.7957 97.4497 35.5815L97.5579 35.2982C97.5693 35.2626 97.5808 35.2296 97.5923 35.1981C97.6332 35.0784 97.6677 34.9795 97.6677 34.845C97.6873 34.7239 97.7136 34.6098 97.7382 34.498C97.7857 34.2959 97.8316 34.1005 97.8316 33.8818C97.8316 33.7881 97.848 33.6946 97.8627 33.6104C97.8742 33.5417 97.8857 33.4794 97.8857 33.4286V32.6919C97.8857 32.0687 97.8857 31.3888 97.7758 30.7655C97.7218 30.4256 97.6677 30.1423 97.5579 29.859C97.5038 29.7458 97.4497 29.5193 97.3956 29.293C97.3399 29.0663 97.2317 28.8391 97.1219 28.6125C96.74 27.7627 96.2499 26.9128 95.65 26.2329C95.4877 26.063 95.3238 25.8929 95.2157 25.7229C95.1599 25.6664 95.0927 25.6096 95.0239 25.553C94.9567 25.4962 94.8878 25.4397 94.8338 25.3829C94.56 25.1564 94.2879 24.9297 94.0159 24.7597C93.47 24.3631 92.8177 24.0232 92.2178 23.7965L91.89 23.6266L91.672 23.5698C91.5098 23.5133 91.3458 23.4567 91.1819 23.4567L90.2001 23.2866C90.1198 23.2866 90.0379 23.2724 89.9559 23.2583C89.874 23.2441 89.792 23.23 89.7101 23.23H88.9479C88.7758 23.23 88.6053 23.2455 88.4431 23.2603C88.2939 23.2738 88.1513 23.2866 88.0202 23.2866L87.04 23.5133C86.9761 23.5133 86.9679 23.5326 86.9614 23.5488C86.9581 23.5602 86.9532 23.5698 86.9302 23.5698L86.8761 23.6266L86.604 23.7965L86.0582 24.0798C85.8681 24.1649 85.6911 24.2639 85.5141 24.3631C85.3371 24.4623 85.16 24.5615 84.9683 24.6464C84.588 24.8163 84.2602 24.9864 83.8783 25.213C83.7734 25.2677 83.6636 25.3283 83.5488 25.391C83.3063 25.523 83.0473 25.6643 82.7883 25.7795C82.3523 26.0237 81.8541 26.2464 81.346 26.4741C81.028 26.6163 80.7051 26.7603 80.3904 26.9128C79.5184 27.3093 78.5924 27.7059 77.5024 28.1593L79.9003 27.4794C78.5923 28.2725 77.6663 28.8392 77.0123 29.2925C76.3583 29.7457 75.8682 30.0857 75.4863 30.4256C75.2257 30.6383 75.0028 30.8446 74.7783 31.0779C74.9323 30.114 75.0733 29.1651 75.2142 28.2162L75.9223 27.8193L76.3042 27.6494C76.3403 27.6305 76.3829 27.6116 76.4255 27.5926C76.5091 27.5549 76.5943 27.5171 76.6304 27.4794C76.5763 27.1961 76.6845 26.6294 76.7943 26.2329C76.9025 25.8363 76.8484 25.4963 76.1944 25.7229L76.6845 25.2697L77.5565 24.3631C77.2844 23.9665 77.2303 23.5698 77.6122 22.8333C77.6564 22.7629 77.7024 22.673 77.7548 22.5677C77.8302 22.419 77.9203 22.2393 78.0482 22.0401C78.1023 21.9269 78.1564 21.8134 78.2662 21.7002L78.3744 21.5303L78.5383 21.247C78.6464 21.0203 78.7022 20.907 78.8644 20.4537C78.8923 20.3687 78.9202 20.2695 78.9464 20.1704C78.9742 20.0712 79.0021 19.972 79.0284 19.8872C79.0284 19.8304 79.0824 19.6039 79.1382 19.4338C79.1677 19.3418 79.1808 19.2498 79.1955 19.1488C79.2086 19.0632 79.2218 18.9713 79.2463 18.8672C79.3004 18.6407 79.3004 18.4706 79.3004 18.3006V17.4508C79.3004 17.1109 79.2463 16.7709 79.1922 16.431C79.1382 16.0909 79.0824 15.8077 78.8644 15.3544C78.7022 14.9014 78.4842 14.5049 78.2662 14.1085C78.2121 14.0234 78.1433 13.924 78.0744 13.8248C78.0072 13.7258 77.9384 13.6263 77.8843 13.5414C77.7204 13.3714 77.6122 13.2015 77.5024 13.0316C77.0123 12.465 76.3583 12.0116 75.7043 11.6716L75.4863 11.5584L74.9963 11.3883C74.8586 11.3528 74.7225 11.2948 74.598 11.2426C74.5259 11.2118 74.457 11.1828 74.3964 11.1618C74.18 11.1052 73.9604 11.0482 73.7965 10.9918L73.4703 10.9351C73.2523 10.8785 72.9802 10.8785 72.7622 10.8785H71.6165C71.5624 10.8785 71.4526 10.8785 71.3985 10.9351C71.3166 10.9351 71.2494 10.9492 71.1805 10.9634C71.1133 10.9775 71.0445 10.9918 70.9626 10.9918C70.8544 10.9918 70.7446 11.0484 70.6364 11.105C70.5938 11.116 70.5495 11.1269 70.5036 11.1382C70.3135 11.1857 70.0922 11.2403 69.8726 11.3317C69.3284 11.5584 68.7285 11.8983 68.0745 12.4082C67.5287 12.3515 67.8024 11.7283 68.3466 11.1618C67.5844 11.5217 67.5927 11.0811 67.6025 10.581C67.6074 10.3266 67.6123 10.0569 67.5173 9.86947C67.514 9.83545 67.5009 9.81255 67.4746 9.80193C67.491 9.82298 67.5042 9.84555 67.5173 9.86947C67.5369 10.1459 66.8256 11.1587 65.9765 12.3685C65.8258 12.5843 65.67 12.8062 65.5127 13.0314C65.4651 13.1008 65.4176 13.1702 65.3701 13.2396L65.3685 13.2418C64.3228 14.7589 63.3032 16.2385 65.0226 15.7511C65.0226 15.8083 65.0095 15.8728 64.9833 15.9431L64.1507 15.8644C63.9867 15.8078 63.8228 15.7511 63.7688 15.6945C63.5508 15.7511 63.3327 15.6945 62.7328 15.4678C62.7525 15.4486 62.5624 15.3181 62.3411 15.1653C62.0018 14.9315 61.5888 14.6456 61.7265 14.626C61.8035 14.6427 61.8855 14.6589 61.9707 14.6745C61.8412 14.6349 61.7625 14.6208 61.7265 14.626C61.2921 14.5334 60.9742 14.429 60.7316 14.3197C60.9742 14.0648 61.2085 13.8163 61.4298 13.5801C61.4478 13.5608 61.4659 13.5412 61.4839 13.522C61.6576 13.5518 61.8363 13.5929 62.0248 13.6547C61.892 13.5757 61.7068 13.538 61.497 13.508C61.5839 13.4151 61.6707 13.3243 61.7527 13.2359L61.9707 13.3714L62.7328 13.2581C62.4231 13.1431 62.1411 13.1121 61.892 13.0893C61.9822 12.9944 62.0707 12.9026 62.1559 12.8147C62.3624 12.8824 62.5722 12.947 62.7771 13.0098C63.5032 13.2325 64.1523 13.4314 64.2588 13.6547C64.2555 13.6359 64.2506 13.6135 64.2457 13.5882C64.1949 13.3096 64.0785 12.6821 62.6788 12.5782L62.7886 12.3517C62.7345 12.3517 62.6771 12.3522 62.6181 12.3532C62.6378 12.3335 62.6591 12.3139 62.6788 12.2949C62.6427 12.3176 62.6083 12.3373 62.5755 12.354C62.5345 12.3547 62.4935 12.3555 62.4493 12.3565C62.4083 12.3574 62.3641 12.3582 62.3214 12.3591C62.3264 12.3414 62.3362 12.32 62.3526 12.2949C62.4559 12.078 62.8099 11.6532 63.4622 10.8714L63.5507 10.7651C62.723 11.4759 62.228 11.9645 61.8773 12.3611C61.5019 12.3545 61.1381 12.3197 60.9184 12.1991C60.9463 12.1265 60.9676 12.0608 60.984 12.0012L61.0446 12.0116L60.9889 11.9828C61.0872 11.5838 60.9135 11.4713 60.6086 11.445C60.6053 11.4528 60.6021 11.4605 60.5988 11.4685C60.2841 11.3944 60.0169 11.2578 60.0628 11.1618C60.2595 11.1845 60.4038 11.1889 60.5464 11.1934C60.7627 11.2003 60.979 11.2071 61.3708 11.2751C61.3708 10.9405 60.7889 10.8076 60.3464 10.706C60.2628 10.6873 60.1858 10.6696 60.1169 10.6518C60.0628 10.4253 60.3906 10.4253 61.2626 10.6518C61.3462 10.5652 61.3888 10.4573 61.4314 10.3461C61.5314 10.0936 61.638 9.824 62.2428 9.74535C61.9084 9.48396 61.8297 9.50535 61.6953 9.54257C61.5659 9.57794 61.3855 9.62779 60.8807 9.46207C62.2968 9.46207 62.5706 9.06544 62.4608 8.61221C62.3952 8.36952 62.1854 8.08437 61.9822 7.80884C61.8543 7.63402 61.7281 7.4629 61.6429 7.30896C60.4021 7.45583 60.3726 7.38964 60.3316 7.29179C60.2956 7.21027 60.2513 7.10652 59.4859 7.08598C59.7596 7.05785 60.0563 6.9541 60.3759 6.84177C60.4169 6.82762 60.4578 6.8133 60.4988 6.79899C60.9348 6.62905 61.3708 6.57246 61.7527 6.85574L61.4806 6.45911C62.1034 6.24286 62.3804 6.38771 62.6886 6.54922C62.7033 6.55697 62.7181 6.5647 62.7328 6.57245C62.7509 6.57835 62.7673 6.58441 62.7853 6.59048C63.1017 6.70197 63.4868 6.83806 64.3145 6.5157C64.2654 6.25886 63.6769 6.09515 63.1213 5.94021C63.0639 5.92421 63.0082 5.90838 62.9508 5.89255C62.3526 5.72261 61.9166 5.55251 62.2968 5.15588C63.1344 5.12876 63.0181 5.03645 62.8738 4.92277C62.7197 4.79932 62.5329 4.65061 63.4967 4.53271C63.9638 4.53271 64.013 4.67722 64.0638 4.82172C64.0834 4.87966 64.1031 4.93743 64.1507 4.98594L64.4768 4.81599C64.5866 4.02273 64.0408 4.02274 63.3868 4.19284C63.3541 4.20093 63.3196 4.20917 63.2852 4.21742C62.5968 4.38348 61.7757 4.58121 61.1528 4.41936C60.8381 3.90534 61.8215 3.58416 62.6034 3.32833C62.7689 3.27393 62.9263 3.22257 63.0607 3.17289C63.2754 2.99436 63.0836 2.71007 62.7525 2.56994C62.6902 2.53238 62.5952 2.5056 62.4608 2.49297C62.5657 2.50509 62.664 2.53238 62.7525 2.56994C62.9722 2.70131 62.7869 2.96539 62.4067 3.22964C61.9707 3.51293 61.2069 3.7962 60.6627 3.85279C61.5347 3.39957 61.4806 3.05953 61.0987 2.94635C60.7184 2.77725 60.0694 2.83234 59.6875 2.88876C59.6481 2.84177 59.6104 2.79478 59.5727 2.74796C59.5039 2.6629 59.4367 2.57802 59.3548 2.49297C59.0269 2.15309 58.7008 1.81305 58.4287 1.64311C58.3549 1.59208 58.2845 1.54105 58.214 1.49069C57.973 1.31739 57.7436 1.15149 57.4469 1.01978C57.1748 0.849846 56.9027 0.736504 56.629 0.623154C56.0308 0.396629 55.7029 0.283279 55.2669 0.16993L54.9408 0.113342L54.7228 0.0565872C54.6408 0.0565872 54.5589 0.0424347 54.4769 0.0282898C54.395 0.0141449 54.313 0 54.2311 0H52.869C52.5969 0 51.8331 0.0565872 51.289 0.226692C51.0431 0.269135 50.8907 0.311569 50.7366 0.354179C50.6858 0.368324 50.635 0.382477 50.5809 0.396622C50.4711 0.424919 50.376 0.453209 50.281 0.481506C50.1859 0.509972 50.0892 0.538269 49.981 0.566566C49.327 0.793259 48.7812 1.01978 48.401 1.24648L48.0731 1.41643L47.8011 1.58636C47.6371 1.69971 47.4191 1.81305 47.2552 1.86964C46.6013 2.26627 46.003 2.6629 45.4572 3.05953C44.3672 3.8528 43.3871 4.70265 42.4053 5.55251C40.0286 7.73692 37.7602 10.1479 35.6573 12.3845C34.4313 13.6864 33.2626 14.9295 32.1596 16.0344C33.8494 16.1807 33.3856 16.645 32.5873 17.4427C31.9071 18.1228 30.9827 19.0452 30.9466 20.2196C30.927 20.2105 30.9057 20.2041 30.8811 20.2004L30.6336 19.9439C30.7303 20.0628 30.786 20.1445 30.809 20.1965C30.7598 20.1975 30.7024 20.2051 30.6385 20.2183C30.3992 20.0967 29.9878 19.7996 29.8059 19.6689C29.6764 19.5747 29.6649 19.567 29.9255 19.7738C30.032 19.9175 30.1402 20.0702 30.2517 20.228C30.2714 20.256 30.291 20.2841 30.3107 20.3124C29.9714 20.429 29.5486 20.6181 29.1224 20.8081C27.4883 21.537 25.8279 22.2781 28.8356 18.9805L25.6738 22.1534C24.3183 22.5913 25.0493 21.6089 25.9049 20.4618C26.0459 20.2728 26.1901 20.0793 26.3278 19.8872C27.3637 18.5273 28.1815 17.2808 25.8918 18.1307C24.3937 19.548 23.3857 21.0833 22.3662 22.6383C22.1629 22.9484 21.9597 23.2591 21.7499 23.5698C20.4977 25.3829 19.0258 27.2527 16.5738 28.6125C16.7819 27.3672 16.0935 28.0362 15.3199 28.7904L15.2101 28.8958C14.3938 29.6891 13.4661 30.4822 13.4661 29.2925C13.8513 28.4522 14.6167 27.8097 15.4559 27.1057C15.8051 26.8126 16.1673 26.5091 16.5181 26.1762L15.5379 26.5162C13.412 28.046 12.3221 28.9524 11.7779 29.5757C11.2321 30.1989 11.2321 30.5955 11.3419 30.9356C11.3878 31.0511 11.4534 31.1618 11.5206 31.276C11.8107 31.7674 12.1368 32.3227 11.1551 33.6087C11.1174 33.4961 11.0715 33.3615 11.0141 33.2019C11.06 33.346 11.1075 33.4826 11.1518 33.6115C11.1207 33.6527 11.0879 33.6948 11.0534 33.7376C10.8863 33.408 10.6879 32.9753 10.6879 32.9753L9.81595 32.5219C9.37997 32.2954 8.944 32.0687 8.99808 32.1255C9.05215 32.1255 9.05212 32.2954 9.05212 32.5787C9.04065 32.6424 9.02759 32.7117 9.01447 32.788C8.96857 33.0516 8.90628 33.3986 8.78006 33.8818C8.66861 34.3685 8.47522 34.9595 8.20312 35.6704C7.32132 36.0608 6.78534 36.0773 6.43622 35.9781C6.05759 35.8346 5.87405 35.5325 5.7085 35.2579C5.61179 35.0988 5.52161 34.9489 5.40033 34.845C4.96436 34.9016 4.20221 35.2416 3.43842 35.6948C2.74017 36.0579 2.1337 36.4685 1.74359 36.7963C3.47607 35.3666 7.07217 35.6727 6.16412 37.3945C5.40033 37.2246 4.58411 37.3379 3.7662 37.5646C3.00241 37.7912 2.24023 38.0744 1.64035 38.3577C1.04047 38.641 0.660187 38.9243 0.4422 39.151C0.275024 39.3241 0.171753 39.4973 0.0848694 39.6451C0.0570068 39.6908 0.0307922 39.7342 0.00619507 39.7743C-0.04953 40.0576 0.27829 40.3409 0.660187 40.5108C1.04044 40.6807 1.5322 40.6808 1.91245 40.6808C2.62543 40.6808 3.21219 40.509 3.74817 40.3523C3.82849 40.3291 3.90717 40.3062 3.98419 40.2841C4.5513 40.0697 5.11841 39.9062 6.00842 39.6494L6.16412 39.6042C6.29361 39.5668 6.42963 39.5282 6.57224 39.4882C6.56403 39.508 6.55426 39.5277 6.54605 39.5476C6.40344 39.9257 6.27063 40.2413 6.13788 40.5526C5.91333 41.0809 5.69534 41.5961 5.45605 42.3806C5.3446 42.5531 5.44455 42.1563 5.51996 41.8572C5.59372 41.5668 5.64291 41.3684 5.45605 41.8706C5.40359 42.2427 5.17413 42.8389 4.91516 43.5077C4.62177 44.2614 4.29559 45.107 4.14972 45.827L4.14484 45.8385L3.93011 46.0067C3.8121 46.3245 3.87766 46.2309 3.94977 46.1265C4.03336 46.0047 4.12842 45.8686 3.95633 46.3503L3.87436 46.5733C3.90714 46.4874 3.93503 46.4135 3.95633 46.3503L4.14484 45.8385L4.1481 45.8368C4.1481 45.8336 4.14807 45.8302 4.14972 45.827L4.58408 44.6469C4.58408 44.9868 4.47427 45.4402 4.25629 46.1201C4.35464 45.9146 4.5087 45.5333 4.66931 45.1355C5.03809 44.2168 5.44458 43.2104 5.29214 44.0803L5.18234 44.1937C5.33313 44.1937 4.97418 45.3026 4.83157 45.7415C4.8201 45.7784 4.81027 45.8103 4.80206 45.8368L4.74634 45.78L4.58408 46.8566C4.69226 46.1201 3.98419 47.6498 4.1481 47.5931C4.17432 47.9375 4.20221 47.8023 4.25137 47.5626C4.29892 47.3293 4.36609 46.997 4.47427 46.9132C4.55295 46.8724 4.40543 47.3885 4.25629 47.9133C4.19727 48.1182 4.13824 48.3245 4.09235 48.4997H4.31036C4.17432 48.9529 4.1481 48.9246 4.1268 48.9034C4.10712 48.8822 4.09238 48.868 3.98419 49.3496C4.06613 49.2079 4.16122 49.0663 4.25629 48.9246C4.35135 48.783 4.44803 48.6413 4.52835 48.4997C4.23825 49.6546 4.35791 49.4482 4.5087 49.189C4.66769 48.9142 4.86273 48.5797 4.63818 49.7462C4.44641 50.0126 4.42343 50.2398 4.3923 50.543C4.371 50.7555 4.34644 51.0056 4.25629 51.3325L4.80206 51.3893C4.80206 51.6007 4.67422 51.8122 4.60538 51.9283C4.56277 51.9986 4.54147 52.0339 4.58408 52.0125C4.548 52.4967 4.67587 52.124 4.78406 51.8117C4.84143 51.649 4.89224 51.5026 4.91028 51.5026C4.86768 51.7676 4.92502 51.8432 4.99057 51.9308C5.09384 52.0679 5.21841 52.2343 5.02008 53.2024C5.13483 53.8282 5.27905 53.2468 5.4151 52.7037C5.53638 52.2142 5.65109 51.7558 5.72812 52.2392C5.67566 52.7319 5.59702 52.7882 5.52982 52.8362C5.45935 52.8874 5.40033 52.9293 5.40033 53.4856C5.46588 53.441 5.52982 53.4051 5.59045 53.3711C5.68552 53.3187 5.77078 53.2709 5.83633 53.2024C5.81665 53.2842 5.79373 53.3881 5.76913 53.5021C5.65604 54.0035 5.50031 54.7011 5.41016 54.5773C5.69534 55.0715 5.91174 56.0042 6.13464 56.9703C6.24774 57.4609 6.36407 57.9601 6.4903 58.4148C6.87219 59.7747 7.36227 60.8512 8.01627 60.1713C8.11789 60.9066 8.03104 61.0361 7.91302 61.2148C7.83926 61.3255 7.75238 61.4548 7.69009 61.7578C8.18018 60.9645 8.50797 61.6445 8.83414 62.4943C9.16196 63.3442 9.54224 64.3074 9.97821 64.2508V63.2876C10.6322 64.8173 11.4501 65.0439 12.1581 65.0439C12.3237 65.0439 12.4909 65.0317 12.6597 65.0193C13.2219 64.9784 13.807 64.9357 14.3938 65.3273L14.1201 64.704C14.1562 64.0638 14.2889 63.7741 14.407 63.5186C14.466 63.3898 14.52 63.2696 14.5561 63.1176C14.584 63.2303 14.6102 63.4166 14.6413 63.6259C14.7331 64.2584 14.8561 65.1011 15.1019 64.7606C15.0692 64.6936 15.0347 64.6264 15.0003 64.5585C14.8593 64.2821 14.7102 63.9912 14.6659 63.6274C15.4838 64.7606 16.464 65.044 17.4998 65.1006H19.0258C19.5699 65.1006 20.0617 65.1572 20.5518 65.2706C21.5106 64.5878 22.6121 64.3919 23.766 64.1864C23.8561 64.1703 23.9479 64.1539 24.0397 64.1374C25.2378 63.9675 26.4376 63.7408 27.2555 63.0043C26.9818 63.2308 26.1098 60.9645 26.5458 61.3612C27.7456 63.0609 27.9095 62.7776 28.0176 62.3244C28.0242 62.2969 28.0308 62.269 28.0373 62.2412C28.1373 61.8085 28.2373 61.3696 29.1076 62.381C29.2847 61.6424 29.8239 61.6561 30.3713 61.6864C29.9321 62.3759 29.4928 63.0739 29.0535 63.7974C28.7536 64.3357 28.4405 64.8598 28.1275 65.3839C27.8128 65.908 27.4997 66.432 27.1998 66.9703L26.3278 68.6134L25.8918 69.4067C25.8918 69.4067 25.7295 69.8033 25.6197 70.0298L25.4558 70.3699C25.4296 70.4547 25.4017 70.5256 25.3755 70.5964C25.3476 70.6673 25.3198 70.738 25.2936 70.8231L25.2378 71.0498L25.1837 71.2197L25.1296 71.503C25.0198 71.8994 24.9657 72.2959 24.9117 72.6924L24.8576 72.9762V73.8826C24.8576 74.6193 25.0198 75.3558 25.2378 76.0357C25.3476 76.3756 25.4558 76.7156 25.6197 76.9989L25.7295 77.2254C25.7459 77.2598 25.7672 77.2992 25.7902 77.3423C25.8443 77.4417 25.9082 77.5602 25.9475 77.6788C26.0295 77.8205 26.1245 77.9621 26.2196 78.1037C26.3147 78.2454 26.4097 78.387 26.4917 78.5287C27.3637 79.7184 28.6716 80.6816 29.9255 81.135C30.1976 81.2482 30.5795 81.3615 30.6877 81.3615C30.7697 81.3898 30.8385 81.404 30.9057 81.4183C30.9745 81.4324 31.0434 81.4466 31.1237 81.4749C31.3974 81.5315 31.7235 81.5882 32.0513 81.5882C32.6496 81.6448 33.3036 81.5882 33.9035 81.5316L34.1215 81.4749L34.4493 81.3615L34.7214 81.3049C34.8034 81.2766 34.8984 81.2482 34.9935 81.2199C35.0886 81.1916 35.1853 81.1633 35.2656 81.135C35.2984 81.124 35.3311 81.1131 35.3655 81.1018C35.5114 81.0543 35.6786 80.9998 35.8114 80.9083L36.0834 80.7949C36.2473 80.7384 36.3555 80.6816 36.5194 80.5684L37.2832 80.1718L37.4455 80.0584L37.7192 79.8885L37.9372 79.6052L39.2993 78.4719L40.6072 77.2822L39.2993 77.9053C39.0928 78.0125 38.8748 78.1194 38.6453 78.2324C38.388 78.3587 38.1159 78.4925 37.8274 78.642C38.3732 78.1886 38.6994 77.7922 39.0272 77.3955C39.3534 76.9989 39.6255 76.6589 39.8435 76.319C39.9533 76.1491 40.0762 75.9931 40.1991 75.8373C40.3204 75.6815 40.4433 75.5257 40.5532 75.3558C40.6073 75.299 40.6613 75.2283 40.7154 75.1574C40.7711 75.0867 40.8252 75.0157 40.8793 74.9592L41.2072 74.6193C41.7513 74.1093 42.5151 73.5993 43.4412 73.1461C41.8054 75.5257 42.7331 74.8458 44.2033 73.5993L44.2656 73.5468C45.7342 72.3027 47.8109 70.543 48.5632 70.7665C47.9092 71.503 47.2012 72.2963 46.4931 73.0328C49.5745 70.3348 49.545 70.3133 48.6402 69.6493L48.6189 69.6333C50.4022 67.8612 51.3775 67.6765 52.238 67.5134C52.4216 67.4786 52.6002 67.4447 52.7805 67.3965C52.1151 68.7695 51.4299 70.1881 50.7432 71.6729C50.5809 72.0128 50.417 72.353 50.2531 72.7495C50.1711 72.9477 50.0892 73.132 50.0089 73.316C49.9269 73.5001 49.845 73.6844 49.763 73.8826C49.4352 74.6191 49.109 75.3558 48.8369 76.149C48.7009 76.5455 48.5501 76.9421 48.401 77.3388C48.2502 77.7354 48.101 78.132 47.965 78.5287C47.8306 78.8542 47.7322 79.218 47.6421 79.5572C47.6224 79.6312 47.6027 79.7041 47.5831 79.7752L46.8193 82.3815L46.5472 83.7411L46.2751 85.1577L46.1653 85.8376L46.1112 86.5741L45.9473 88.0473L45.8932 88.7838L45.8391 89.1805V89.917C45.8391 90.436 45.9309 90.9076 46.0292 91.4186L46.0571 91.5601C46.1112 91.8434 46.1653 92.1267 46.221 92.3533L46.3292 92.75C46.3538 92.7992 46.3669 92.8483 46.3882 92.9255C46.4144 93.0259 46.4554 93.1734 46.5472 93.4299C47.0373 94.8463 47.9092 96.2627 48.9451 97.3959C49.2172 97.6792 49.4909 97.9624 49.763 98.1891C49.8236 98.2392 49.8827 98.2919 49.9449 98.3461C50.1629 98.5379 50.4039 98.749 50.7432 98.9256C51.507 99.4356 52.3248 99.8888 53.2509 100.229C54.177 100.569 55.103 100.795 55.975 100.852C56.411 100.909 56.9568 100.909 57.065 100.909H57.6649C58.4828 100.852 59.3007 100.682 60.1169 100.455C60.2267 100.427 60.3218 100.399 60.4169 100.371C60.5119 100.342 60.6086 100.314 60.7168 100.285L61.0446 100.172L61.4806 100.002C61.7527 99.8888 62.0789 99.7189 62.3526 99.549L63.0066 99.2089C63.2786 99.039 63.4967 98.8691 63.7146 98.6991L64.1507 98.3591C64.2539 98.2725 64.3342 98.2024 64.403 98.1427C64.5145 98.046 64.5948 97.9759 64.6948 97.9058L64.9128 97.7359C64.9407 97.7075 64.9538 97.7075 64.962 97.7075L64.9652 97.7069C64.9685 97.7053 64.9685 97.6995 64.9685 97.6792L65.0767 97.6226C65.1865 97.5658 65.2947 97.5092 65.4045 97.3959C65.4324 97.3959 65.5995 97.2842 65.8077 97.1454C65.9913 97.0226 66.206 96.879 66.3847 96.7727L67.532 95.9591C67.6451 97.1946 67.9696 98.4834 68.4564 99.6056C68.5646 99.8888 68.6744 100.172 68.8367 100.455L69.0547 100.852C69.1645 101.022 69.1645 101.022 69.3284 101.362C69.9824 102.495 70.9085 103.742 72.1623 104.818C73.3605 105.895 74.8324 106.745 76.3042 107.254C77.0123 107.538 77.7204 107.708 78.3744 107.821C78.6464 107.878 79.1382 107.934 79.2463 107.934L79.6282 107.991C80.7182 108.048 81.8082 107.991 82.8981 107.821C83.4423 107.708 83.9881 107.594 84.4782 107.425C84.6143 107.368 84.7372 107.325 84.8601 107.283C84.983 107.24 85.106 107.198 85.242 107.141L85.6223 106.971C86.1681 106.745 86.6581 106.461 87.1482 106.178L87.5301 105.951L87.8022 105.725L88.0759 105.555C88.1562 105.499 88.2365 105.429 88.3185 105.359C88.3283 105.424 88.3382 105.489 88.348 105.555C88.3939 106.04 88.4808 106.483 88.5742 106.956C88.589 107.035 88.6053 107.116 88.6201 107.198C88.8381 108.161 89.1102 109.067 89.438 109.974L89.5462 110.201L89.656 110.541C89.7101 110.654 89.7511 110.753 89.792 110.852C89.833 110.951 89.874 111.051 89.9281 111.164C90.0379 111.362 90.146 111.575 90.2559 111.787C90.364 111.999 90.4738 112.212 90.582 112.41C90.6918 112.609 90.8148 112.807 90.9361 113.005C91.059 113.204 91.1819 113.402 91.2901 113.6L91.5081 113.884L91.7818 114.28C91.9998 114.563 92.2719 114.903 92.544 115.187C93.5799 116.376 94.8338 117.453 96.1958 118.246C97.7759 119.209 99.6296 119.946 101.482 120.286C102.518 120.456 103.063 120.513 103.772 120.513C104.48 120.513 105.188 120.513 105.897 120.399C106.06 120.371 106.237 120.343 106.414 120.314C106.591 120.286 106.769 120.258 106.932 120.229L107.423 120.116L107.859 120.003L109.003 119.663C109.766 119.379 110.529 119.096 111.237 118.699C111.673 118.473 112.055 118.246 112.436 118.02C112.654 117.906 112.817 117.793 113.035 117.623C113.091 117.585 113.157 117.541 113.224 117.497C113.357 117.409 113.49 117.321 113.526 117.283L114.18 116.773C114.398 116.603 114.616 116.433 114.834 116.207L115.761 115.243L115.87 115.073L116.415 114.45L116.796 113.94C116.905 113.77 117.069 113.6 117.178 113.487C117.995 112.354 118.486 111.561 118.976 110.767C119.903 109.294 120.666 108.104 121.374 107.198L121.211 107.708C121.32 107.509 121.442 107.297 121.565 107.084C121.688 106.872 121.81 106.66 121.919 106.461C121.931 106.424 121.94 106.392 121.949 106.364C121.979 106.261 121.998 106.197 122.083 106.065V106.008C122.083 106.008 122.137 105.895 122.192 105.895L122.41 105.611L122.9 104.988C123.227 104.591 123.554 104.195 123.881 103.742C124.208 103.345 124.549 102.934 124.889 102.523C125.23 102.113 125.571 101.702 125.898 101.305ZM31.2761 61.6121C31.3171 62.0212 31.3613 62.3618 31.7236 62.2676L32.3218 60.947C32.294 60.9292 32.2596 60.898 32.2137 60.8512L31.6154 59.888C31.8448 61.0048 31.6432 61.4477 31.2761 61.6121ZM32.3907 60.7953L32.4923 60.5696L32.4874 60.5679L32.3235 60.2846C32.3038 60.368 32.3349 60.5206 32.3644 60.6602C32.3743 60.7077 32.3825 60.7538 32.3907 60.7953ZM32.6103 60.5814L32.5955 60.6245C32.6168 60.606 32.6382 60.5874 32.6595 60.5689C32.6447 60.5748 32.6283 60.579 32.6103 60.5814ZM32.7988 60.4468C33.8756 59.4892 34.7362 58.4992 35.4737 57.4929C35.341 57.391 35.2016 57.2509 35.0476 57.0552C34.5493 56.9607 34.5034 57.7314 34.4706 58.2861C34.4641 58.3973 34.4575 58.4997 34.4493 58.5849C34.151 58.251 34.0641 58.4392 33.9805 58.6255C33.8642 58.8815 33.7495 59.1335 33.0856 58.0184L33.4675 59.2081L33.1413 58.6415C33.2299 59.073 33.1414 58.9681 33.0152 58.819C32.9102 58.6941 32.7791 58.5383 32.7053 58.6415L33.3593 59.7747C33.1135 59.6045 33.0315 59.8461 32.943 60.1086C32.902 60.2297 32.8594 60.3554 32.7988 60.4468ZM50.0793 38.1777C50.0351 38.0818 50.017 38.0069 50.0351 37.9613C50.0843 37.998 50.1302 38.0333 50.1744 38.0675C50.1416 38.1046 50.1105 38.1413 50.0793 38.1777ZM51.0251 37.0638C51.0284 37.06 51.03 37.0562 51.0333 37.0525C51.0284 37.054 51.0235 37.0546 51.0169 37.0546C51.0185 37.0577 51.0218 37.0607 51.0251 37.0638ZM51.0595 37.0228C51.1267 36.9421 51.1939 36.8611 51.2627 36.7796L51.1251 36.6014C50.5645 36.1482 50.6989 36.3608 50.8645 36.6262C50.9612 36.7806 51.0693 36.9529 51.0595 37.0228ZM51.3119 36.721C51.3267 36.7032 51.3414 36.6851 51.3562 36.6671C51.4086 36.6045 51.4611 36.5415 51.5152 36.4785L51.5119 36.477C51.4594 36.4315 51.4184 36.3954 51.3971 36.3747C51.0644 36.3747 51.1185 36.4598 51.3119 36.721ZM51.5725 36.4099C51.6627 36.3013 51.7545 36.1923 51.8463 36.083C51.5791 36.0497 51.3627 36.0551 51.5725 36.4099ZM52.12 35.7571C52.2036 35.6594 52.2855 35.5618 52.3691 35.4644C52.1872 35.2734 51.9905 35.0728 51.7807 34.8623L51.4709 35.077C51.5643 35.1338 51.6659 35.1877 51.779 35.2416C51.7168 35.2416 51.9069 35.4853 52.12 35.7571ZM49.7351 11.5437C49.7089 11.5752 49.6811 11.6076 49.6532 11.6408C49.6024 11.6411 49.5319 11.6332 49.4352 11.615C49.3139 11.4471 48.5944 11.1545 48.3633 11.0605C48.36 11.0589 48.3551 11.0573 48.3518 11.0558C48.3501 11.0538 48.3485 11.0518 48.3468 11.0498C48.5419 10.9868 48.7566 10.9049 48.973 10.8227C49.0648 10.7874 49.1582 10.752 49.25 10.718L49.8171 10.9351C48.891 10.7651 49.109 10.9918 49.3811 11.2184C49.4024 11.2354 49.4221 11.2525 49.4434 11.2697C49.563 11.3686 49.6892 11.4713 49.7351 11.5437ZM50.2777 10.8125C50.2547 10.8519 50.2285 10.895 50.1974 10.9423C50.0793 10.9041 49.9285 10.8495 49.7712 10.7921C49.6499 10.7481 49.5237 10.7025 49.4057 10.6616C49.4663 10.64 49.5253 10.6194 49.5844 10.6002L50.2777 10.8125ZM48.3419 11.0516C48.3452 11.053 48.3485 11.0543 48.3518 11.0558C48.4305 11.1565 48.4567 11.2426 48.4862 11.3337C48.5501 11.5453 48.6255 11.7836 49.3811 12.2949C48.9714 12.1428 48.6403 12.0152 48.3616 11.9077C47.8289 11.7021 47.4864 11.57 47.1504 11.4809C47.2749 11.299 47.4011 11.117 47.529 10.9351C47.529 11.2419 47.8797 11.1998 48.3419 11.0516ZM46.993 11.708C46.7045 12.1299 46.4193 12.5517 46.1374 12.9736C46.1604 12.988 46.1833 13.0019 46.2063 13.0158C46.4111 13.1417 46.5833 13.2482 46.8193 13.3714L46.4931 13.0314L46.7111 13.2015C47.6912 13.598 47.3651 13.2581 47.093 12.9748C46.7652 12.6915 46.4931 12.4082 47.6912 12.8615L47.1471 12.5782C46.8324 12.3872 46.9094 12.3801 46.9815 12.3736C47.0602 12.3665 47.134 12.3599 46.7111 12.125C47.347 12.4222 47.37 12.3345 47.3995 12.2319C47.4192 12.1587 47.4421 12.0776 47.6912 12.125C47.352 11.9368 47.1356 11.8073 46.993 11.708ZM45.8997 13.33C45.8539 13.3982 45.8096 13.4663 45.7637 13.5345C45.8637 13.6024 45.9948 13.6965 46.1653 13.8247C46.5783 13.9677 46.3833 13.7952 46.1702 13.6057C46.0555 13.503 45.9342 13.3954 45.8997 13.33ZM44.7115 13.4292C44.3754 13.2659 44.1623 13.1793 44.5852 13.5414L44.6951 13.428C44.7 13.4304 44.7049 13.4327 44.7098 13.4351C44.6278 13.6655 44.5573 13.8851 44.4967 14.0968C44.3934 14.0322 44.2951 13.968 44.2083 13.9109C44.1214 13.8543 44.0443 13.8046 43.9853 13.7681C44.3082 14.1583 44.2476 14.1645 44.1804 14.1714C44.1115 14.1783 44.0378 14.1861 44.3558 14.603C44.3558 14.6051 44.3541 14.6073 44.3541 14.6097L43.8231 14.2781L44.3279 14.7082C44.3263 14.7195 44.323 14.7306 44.3197 14.7417L43.1691 14.2213L43.8772 14.6179C43.8936 14.6671 43.9313 14.7261 43.969 14.7833C44.0624 14.9236 44.1476 15.0548 43.8772 15.0146L43.1134 14.448C43.2363 14.701 42.9445 14.6151 42.6675 14.5332C42.6315 14.5224 42.5954 14.5118 42.5594 14.5021C43.4772 13.2659 44.4246 12.2422 45.1851 12.2949C45.0311 12.6146 44.9048 12.913 44.7967 13.1951L44.5852 12.9748C44.5852 13.0045 44.5852 13.0291 44.5901 13.0521C44.6033 13.1064 44.6443 13.1539 44.7787 13.2441C44.7557 13.3066 44.7328 13.3683 44.7115 13.4292ZM42.3807 14.7463C42.3708 14.7601 42.3611 14.7739 42.3512 14.7879H42.325C42.3905 14.8387 42.4561 14.8808 42.5151 14.9012C42.461 14.8428 42.4167 14.7912 42.3807 14.7463ZM42.2758 14.7879C42.3414 14.893 42.2479 14.8743 42.1037 14.8153L42.1332 14.7879H42.2758ZM41.7366 15.1604L41.7169 15.1796L41.9152 15.2978L41.7366 15.1604ZM41.0645 15.7915L40.84 16.0027C41.0203 16.0015 41.1186 15.9451 41.0645 15.7915ZM38.2732 17.277C38.1634 17.4451 38.0536 17.6148 37.9503 17.7794C37.7455 17.5892 37.7045 17.5362 37.6635 17.4508C37.6422 17.4508 37.6094 17.444 37.575 17.4368C37.4357 17.4078 37.2603 17.3715 37.6094 17.7341L37.0603 17.2389C37.0849 17.2138 37.1079 17.1886 37.1324 17.1635C37.4144 16.8718 37.6881 16.588 37.9372 16.3176C38.0421 16.2445 38.1372 16.1794 38.2257 16.1218C38.3585 16.3761 38.4879 16.6459 38.5453 16.8556C38.4699 16.9731 38.3912 17.0947 38.3109 17.2178C38.2667 17.2077 38.2142 17.1912 38.1552 17.1675C38.1864 17.201 38.229 17.2396 38.2732 17.277ZM38.7961 16.4492C38.7551 16.5174 38.7125 16.5891 38.6666 16.6634C38.565 16.5642 38.5011 16.4716 38.4339 16.3761C38.3765 16.2937 38.3191 16.2092 38.2339 16.1165C38.2765 16.0888 38.3158 16.0626 38.3552 16.0384C38.4011 16.0815 38.4486 16.1243 38.4945 16.1666C38.5994 16.2631 38.701 16.3576 38.7961 16.4492ZM38.9075 16.2501C38.8977 16.2685 38.8879 16.2871 38.8764 16.3062C38.6863 16.1842 38.5519 16.0793 38.442 15.9847C38.4912 15.9559 38.5355 15.9299 38.5764 15.907L38.9075 16.2501ZM39.0124 16.0251C39.0059 16.0421 38.9977 16.0598 38.9911 16.0781L38.6895 15.8481C38.8551 15.7677 38.9567 15.7462 39.0092 15.7715C38.9584 15.8186 38.9518 15.8989 39.0124 16.0251ZM36.7325 17.5794C36.9751 17.795 37.1521 17.9872 37.0653 18.0173C36.8587 17.8627 36.7128 17.7625 36.6129 17.7044C36.6538 17.6627 36.6932 17.621 36.7325 17.5794ZM36.4899 17.8346C36.4195 17.9099 36.349 17.9855 36.2785 18.0613C36.3293 18.1388 36.4047 18.2376 36.5194 18.3574C36.944 18.5913 36.762 18.2888 36.5916 18.0076C36.5555 17.9471 36.5195 17.8877 36.4899 17.8346ZM36.1982 18.1499C35.9441 18.4271 35.6999 18.7065 35.4803 18.9837L35.4836 18.9807C35.9458 19.4104 35.9196 19.2987 35.8851 19.149C35.8409 18.963 35.7835 18.7183 36.6293 19.3772L36.1376 18.244L36.7374 18.754C36.6342 18.6336 36.5194 18.5069 36.4113 18.3867C36.3342 18.3033 36.2621 18.223 36.1982 18.1499ZM35.4672 18.9996C35.3803 19.1094 35.2967 19.2189 35.218 19.3278L35.3213 19.4339L35.3754 19.264L35.4836 19.3772C35.9851 19.837 35.9769 19.7662 35.9654 19.6851C35.9572 19.6162 35.9474 19.5397 36.2474 19.7738C36.2474 19.5859 35.9638 19.3977 35.7376 19.248C35.577 19.1409 35.4442 19.0535 35.4672 18.9996ZM35.0607 19.1633C35.0738 19.1405 35.0869 19.1175 35.1033 19.0939C35.0869 19.1146 35.0705 19.1353 35.0541 19.1562L35.0607 19.1633ZM34.9968 19.2291C35.0017 19.2355 35.0082 19.2419 35.0148 19.2485C34.9312 19.4144 34.8968 19.5577 34.8673 19.6989L34.7394 19.5658C34.823 19.4531 34.9099 19.341 34.9968 19.2291ZM34.723 19.5864C34.7099 19.6059 34.6952 19.6253 34.6804 19.6448C34.7066 19.6365 34.7214 19.6179 34.723 19.5864ZM23.2824 27.8164C23.8627 28.6065 24.0626 29.1505 23.7118 28.8392C23.5119 28.4744 23.289 28.1696 23.053 27.886C23.1382 27.8516 23.2136 27.8292 23.2824 27.8164ZM23.012 27.9026C22.9284 27.9389 22.835 27.986 22.7317 28.046L22.8677 28.5363C23.0054 28.6513 23.0907 28.6887 23.0579 28.556L23.2759 28.9526C23.6578 29.2925 23.6037 28.8392 23.2218 28.1593C23.1497 28.0633 23.0808 27.9794 23.012 27.9026ZM20.4256 29.8723C20.3338 29.7987 20.1994 29.7688 20.006 29.8023C19.9912 29.823 19.9764 29.8439 19.9601 29.8649C20.0977 29.8419 20.2485 29.8365 20.4256 29.8723ZM17.9227 31.7229C17.8441 31.7866 17.7654 31.8498 17.6883 31.9122C17.7899 31.9826 17.8915 32.0547 17.9899 32.1255C18.0571 32.1255 17.9997 31.9501 17.9325 31.7494C17.9293 31.7406 17.926 31.7319 17.9227 31.7229ZM15.9165 33.9771C15.9051 33.9823 15.8952 33.9877 15.8854 33.9931C15.9132 34.0475 15.9427 34.1048 15.9739 34.1651C15.9542 34.1007 15.9346 34.0381 15.9165 33.9771ZM34.9279 19.7629C35 19.6448 35.0787 19.5257 35.1639 19.4058C35.4639 19.7194 35.8179 20.0588 36.1376 20.3404C35.895 20.2024 35.795 20.2045 35.7048 20.2063C35.5721 20.209 35.4574 20.2114 34.9394 19.7738L34.9279 19.7629ZM45.1458 14.4674C45.1802 14.482 45.2113 14.4947 45.2392 14.5046C45.2081 14.4776 45.1851 14.4536 45.1704 14.4322C45.1622 14.4438 45.154 14.4556 45.1458 14.4674ZM45.413 14.0647C45.4441 14.0172 45.4753 13.9697 45.5064 13.9222C45.785 14.1251 45.9768 14.304 45.9473 14.3346C45.8342 14.2952 45.5883 14.1733 45.413 14.0647ZM52.079 34.6557C52.2265 34.7788 52.3806 34.9154 52.5429 35.0717C52.5232 35.092 52.4888 35.105 52.4543 35.1187C52.3921 35.1429 52.3248 35.169 52.3248 35.2416L52.4543 35.3644C52.7215 35.0498 52.9919 34.7379 53.2607 34.4347C53.2017 34.3675 53.1264 34.2794 53.0329 34.1651L53.2509 34.3917C53.3968 34.3917 53.2247 34.2136 52.9969 33.9938C52.6887 34.2206 52.3806 34.4429 52.079 34.6557ZM53.3624 33.7229L53.682 33.9671C53.7213 33.9229 53.7623 33.8787 53.8033 33.8348C53.7115 33.7598 53.6181 33.6817 53.5246 33.6024C53.4706 33.6426 53.4165 33.6829 53.3624 33.7229ZM55.1457 32.3837C55.167 32.399 55.1899 32.4141 55.2112 32.4291C55.285 32.3636 55.3587 32.3 55.4309 32.2387L55.4358 32.1651C55.3391 32.2376 55.2424 32.3106 55.1457 32.3837ZM54.0918 33.5262C54.0196 33.5013 53.9557 33.4851 53.9049 33.4851C53.9409 33.5341 53.9754 33.5774 54.0065 33.6158C54.036 33.5857 54.0639 33.5559 54.0918 33.5262ZM56.9175 19.9623C56.9404 19.9346 56.9634 19.907 56.9847 19.8794C58.114 20.4894 58.2566 20.3742 58.3795 20.2759C58.4582 20.2127 58.5287 20.1565 58.8466 20.3047C58.7041 20.4808 58.5631 20.658 58.4205 20.8364C57.8927 20.5839 57.1978 20.2344 56.9175 19.9623ZM55.4669 22.1785C55.4374 22.1526 55.4079 22.1253 55.3768 22.0968C55.4145 22.1235 55.4538 22.1504 55.4948 22.1775C55.4849 22.1778 55.4768 22.1782 55.4669 22.1785ZM56.5979 21.9784C56.6438 21.9606 56.6913 21.941 56.7405 21.9197C56.6749 21.8738 56.6175 21.8353 56.5749 21.8136L56.5979 21.9784ZM57.8895 21.2635C58.0255 21.1729 58.1681 21.0732 58.3189 20.9637C58.3434 20.9325 58.3681 20.9016 58.3927 20.8706C57.7075 20.6328 57.324 20.5706 57.8288 21.1904C57.8501 21.213 57.8714 21.2375 57.8895 21.2635ZM59.0679 20.0303C59.199 19.8666 59.3302 19.7037 59.4613 19.5419C59.2908 19.4782 58.9696 19.316 58.373 18.9807C58.4123 19.0624 58.4369 19.1387 58.4599 19.215C58.5287 19.4385 58.5975 19.663 59.0679 20.0303ZM59.8563 19.0536C60.0038 18.8723 60.1497 18.6919 60.2939 18.5127C60.2775 18.5059 60.2628 18.4992 60.2464 18.4925C59.5547 18.1911 58.809 17.867 58.809 18.0173C59.5383 18.4236 59.6203 18.6098 59.7039 18.7986C59.7383 18.8776 59.7744 18.9573 59.8563 19.0536ZM61.1135 18.5255C61.3741 18.5352 61.5855 18.4903 61.8002 18.4445C62.0018 18.4014 62.2067 18.3574 62.4608 18.3574L61.2528 17.5949C61.2594 17.5611 61.2643 17.5274 61.2708 17.4937L61.6986 17.6209C61.5855 17.5537 61.4904 17.4814 61.397 17.4088C61.3642 17.3838 61.3315 17.3586 61.297 17.3337C61.3036 17.297 61.3102 17.2605 61.3167 17.2242C61.297 17.2504 61.2757 17.2765 61.2561 17.3027C61.0659 17.1665 60.8414 17.0359 60.4447 16.941L60.6086 16.8276C59.54 16.3562 59.5875 16.305 59.6645 16.2221C59.717 16.1656 59.7842 16.0943 59.5187 15.8644C59.8448 15.921 60.2808 16.1477 60.4988 16.261C60.53 16.1967 60.8414 16.3148 61.2249 16.4601C61.5085 16.5676 61.8314 16.69 62.1084 16.7643C61.9199 16.7089 61.4921 16.4766 60.9758 16.196C60.5382 15.9582 60.0366 15.6855 59.5629 15.4568C59.7678 15.263 59.9694 15.0695 60.1661 14.879C60.8529 15.1402 61.4855 15.3006 61.5347 15.0712C61.6019 15.2815 61.9822 15.5352 62.3264 15.7652C62.5394 15.9069 62.7394 16.0397 62.8427 16.1477C62.9509 16.0911 63.1148 16.0911 63.7688 16.4876C63.5868 16.2166 63.354 16.0882 63.1557 15.9784C62.9394 15.8587 62.7624 15.761 62.7328 15.5245C63.8671 15.9613 64.4522 16.095 64.9341 16.0554C64.7292 16.4667 64.19 17.0328 63.5507 17.5641C62.7328 18.244 61.6986 18.924 61.0446 19.1505C61.0528 19.0481 61.0643 18.9442 61.0758 18.8392C61.102 18.8493 61.1282 18.8588 61.1528 18.8674L61.0774 18.8152C61.0889 18.7193 61.1004 18.6225 61.1135 18.5255ZM60.289 14.0621C60.571 13.8257 60.7758 13.6325 60.9479 13.4546C60.9217 13.4521 60.8938 13.4496 60.8676 13.4469C60.6742 13.4285 60.4824 13.4104 60.289 13.3775C60.2054 13.5134 60.112 13.659 60.0104 13.8144C60.0907 13.8951 60.1776 13.9786 60.289 14.0621ZM59.4859 14.5972C59.5121 14.6088 59.5383 14.6205 59.5646 14.6319C59.4974 14.6823 59.4269 14.7341 59.3548 14.7879C59.399 14.723 59.4433 14.6595 59.4859 14.5972ZM59.2236 14.4768C59.1286 14.641 59.0089 14.8377 58.8647 15.0712C58.8466 15.0803 58.8221 15.0973 58.7909 15.1215C58.5172 15.0201 58.2779 14.9578 58.1009 14.9578C57.3387 14.6745 56.9027 14.2781 57.2289 14.2781L58.9188 14.8446L57.2289 14.0514C57.1355 13.8885 57.4551 13.9316 57.7862 13.9762C58.0304 14.0091 58.2812 14.0428 58.373 13.9946C58.3926 14.0526 58.7516 14.2551 59.2236 14.4768ZM59.6121 13.4552C59.6613 13.3991 59.7121 13.3416 59.7629 13.2822C59.7711 13.2728 59.7793 13.2632 59.7891 13.2537C59.5973 13.1892 59.399 13.1005 59.1909 12.9748C58.4287 12.7483 58.4287 13.0314 58.8647 13.2015C59.2236 13.2568 59.4449 13.3457 59.6121 13.4552ZM60.4955 11.7268C60.5251 11.649 60.5562 11.5697 60.589 11.489L59.9546 11.445L60.4955 11.7268ZM60.3677 13.2504C60.5513 13.3453 60.7594 13.3977 60.9676 13.4338C61.0643 13.3336 61.1495 13.2381 61.2331 13.1421C60.9496 13.1064 60.648 13.0749 60.4628 13.0915C60.4316 13.1429 60.4005 13.1958 60.3677 13.2504ZM61.3495 13.0068C61.3642 12.9895 61.379 12.972 61.3954 12.9544L61.4249 12.9181C61.4937 12.8266 61.5659 12.7333 61.6445 12.6354C61.2921 12.5352 61.2594 12.6115 61.2249 12.6915C61.202 12.7473 61.179 12.8049 61.0446 12.8049C61.1282 12.9071 61.2315 12.9681 61.3495 13.0068ZM61.1364 17.4541L60.9348 17.3942L61.102 17.4991C61.1135 17.4841 61.125 17.4691 61.1364 17.4541ZM143.896 95.9949C143.828 96.0061 143.788 96.0125 143.774 96.0145L143.781 96.0128C143.806 96.0083 143.872 95.997 143.974 95.9795H143.991C143.955 95.9853 143.923 95.9906 143.896 95.9949ZM197.945 110.767C197.889 110.748 197.886 110.745 197.925 110.757L197.945 110.767ZM201.051 111.787L201.074 111.764C201.814 112.006 202.115 112.112 201.051 111.787ZM235.707 64.9011C235.222 65.7068 234.673 66.4307 233.981 66.9177C234.322 66.5287 234.663 66.1329 235.004 65.7238C235.244 65.4553 235.477 65.1803 235.707 64.9011ZM239.691 60.0579C239.63 60.0446 239.569 60.0355 239.51 60.0303C239.715 59.7603 239.919 59.4893 240.123 59.2173C239.978 59.4974 239.834 59.7777 239.691 60.0579ZM247.326 53.3597C247.372 53.326 247.419 53.2925 247.465 53.2589C247.433 53.2231 247.414 53.186 247.602 53.1606L247.687 53.0998C247.632 53.0762 247.561 53.0664 247.481 53.0651C247.384 53.1688 247.285 53.2701 247.185 53.3677C247.241 53.3657 247.287 53.363 247.326 53.3597ZM263.997 38.981C263.913 39.0412 263.83 39.1006 263.747 39.1586C263.406 39.2243 263.123 39.2399 263.016 39.151C263.715 38.9932 264.087 38.8662 264.289 38.7589C264.219 38.812 264.148 38.8657 264.078 38.9192L263.997 38.981ZM247.009 52.878C246.887 52.7773 246.816 52.6651 247.468 52.6013C247.507 52.5701 247.546 52.5362 247.587 52.4999L247.005 52.2275C246.798 52.4059 246.591 52.5851 246.384 52.765C246.542 52.9066 246.738 52.9758 247.009 52.878ZM255.877 29.2925C255.796 29.504 255.646 29.6445 255.467 29.761C255.443 29.635 255.417 29.5089 255.39 29.3827C255.546 29.2962 255.632 29.3002 255.717 29.3041C255.766 29.3064 255.815 29.3086 255.877 29.2925ZM255.605 29.1791C255.554 29.2054 255.469 29.268 255.38 29.3391L255.369 29.2886C255.456 29.2434 255.535 29.2062 255.605 29.1791ZM255.21 28.4488C255.194 28.4633 255.179 28.4778 255.163 28.4923L255.143 28.4217C255.172 28.4207 255.216 28.4094 255.278 28.3858C255.255 28.4071 255.232 28.428 255.21 28.4488ZM255.402 27.9764C255.275 28.1235 255.161 28.2552 255.118 28.3365C255.106 28.2984 255.095 28.2599 255.083 28.2208L255.877 27.3095C255.83 27.4808 255.6 27.7472 255.402 27.9764ZM255.168 27.809C255.115 27.8683 255.062 27.9276 255.009 27.9865C254.901 27.6468 254.773 27.2807 254.631 26.9229C254.675 26.8682 254.72 26.8109 254.766 26.7527C255.221 26.1765 255.754 25.5015 255.714 26.1763C255.148 26.5962 255.121 26.8605 255.101 27.0614C255.094 27.1316 255.088 27.1941 255.06 27.2527C255.397 26.6909 255.505 26.7603 255.629 26.8403C255.705 26.8893 255.787 26.9423 255.932 26.8562C255.758 27.15 255.462 27.4799 255.17 27.8063L255.168 27.809ZM247.189 52.0692L247.23 52.0345C247.298 52.0456 247.366 52.0571 247.43 52.0692H247.189ZM246.901 53.6692L246.865 53.6667C246.781 53.7413 246.697 53.8134 246.612 53.8821C246.708 53.8109 246.804 53.7398 246.901 53.6692ZM50.8022 81.811L50.7989 81.8149C49.4745 80.2856 49.8679 80.7358 50.8022 81.811ZM54.613 86.2341C54.6671 86.2936 54.6867 86.3138 54.6769 86.3003L54.6671 86.2909L54.613 86.2341ZM66.4945 89.2697C67.9696 89.2507 67.2304 89.2669 66.4945 89.2825V89.2697ZM52.7051 66.0638C53.0509 65.3972 53.664 64.5917 54.4638 63.8986C53.9803 64.9243 53.4738 65.9672 52.9559 67.037L52.8493 67.2552C52.2708 67.2975 52.3281 66.736 52.7051 66.0638ZM55.539 64.0241C55.6505 63.9074 55.7636 63.79 55.8783 63.6721C55.798 63.7671 55.6882 63.8833 55.539 64.0241ZM90.7394 41.0253C90.6427 40.4916 90.7607 41.1117 90.8443 41.5554C90.9295 41.9992 90.9771 42.2661 90.7394 41.0253ZM73.2834 23.1683C73.3113 23.4366 73.3195 23.5454 73.2245 22.6907C73.2097 22.4728 73.2572 22.9002 73.2834 23.1683ZM68.0204 96.0928C67.9991 95.9379 67.986 95.7831 67.9746 95.6283L68.0647 95.5594C68.0795 95.7396 68.1008 95.918 68.1286 96.0928C68.3466 97.5092 68.7826 98.9824 69.4366 100.229C69.4677 100.277 69.5071 100.351 69.5595 100.452C69.6939 100.708 69.9168 101.132 70.3086 101.702C70.7446 102.382 71.3445 103.062 71.9984 103.685C73.3064 104.932 74.9962 105.951 76.6304 106.518C77.4483 106.801 78.2104 106.971 78.9742 107.028C79.3561 107.084 79.6282 107.084 79.9544 107.084C80.5527 107.084 81.2083 107.084 81.8623 107.028C82.5163 106.971 83.1161 106.801 83.716 106.631C83.8521 106.584 83.9783 106.547 84.1012 106.511C84.27 106.461 84.429 106.414 84.588 106.348C84.9142 106.235 85.1322 106.121 85.1322 106.121C85.46 106.008 85.7321 105.838 86.0042 105.668C86.1402 105.583 86.291 105.498 86.4401 105.413C86.5909 105.328 86.7401 105.243 86.8761 105.158L87.3662 104.818C87.476 104.733 87.5711 104.663 87.6662 104.592C87.7612 104.521 87.8579 104.45 87.9661 104.365L88.1694 104.184C88.1759 104.243 88.1841 104.301 88.1907 104.359L88.0202 104.535C87.9661 104.591 87.8989 104.648 87.8301 104.705C87.7629 104.761 87.694 104.818 87.6399 104.875C87.6121 104.903 87.5711 104.932 87.5301 104.96C87.4892 104.988 87.4482 105.016 87.4219 105.045L87.3121 105.158C87.2039 105.215 87.0941 105.271 87.04 105.385C86.604 105.668 86.114 105.951 85.5682 106.235C85.5141 106.263 85.4452 106.291 85.378 106.32C85.3092 106.348 85.242 106.376 85.1863 106.405L84.8601 106.574L84.4782 106.745C84.3422 106.801 84.2061 106.844 84.0701 106.886C83.934 106.929 83.798 106.971 83.6603 107.028C82.5163 107.368 81.2624 107.481 80.0101 107.481H79.3561L79.0824 107.425C79.0185 107.414 78.9513 107.404 78.8857 107.393C78.2252 107.289 77.4827 107.172 76.7402 106.915C75.1044 106.405 73.3605 105.385 71.9984 104.082C71.3445 103.458 70.7446 102.722 70.2545 102.042L69.6005 101.022C69.5464 100.937 69.5054 100.852 69.4644 100.767C69.4235 100.682 69.3825 100.597 69.3284 100.512C69.0006 99.8888 68.7285 99.1523 68.5105 98.4158C68.2925 97.6792 68.1286 96.8859 68.0204 96.0928ZM87.9235 102.539C87.9464 102.735 87.9727 102.933 88.0038 103.126C87.8924 103.208 87.794 103.276 87.694 103.345C87.6449 103.379 87.6006 103.413 87.5596 103.445C87.4613 103.521 87.3728 103.589 87.258 103.628C87.0941 103.742 86.9859 103.798 86.8761 103.855C86.7483 103.921 86.6401 103.988 86.55 104.043C86.486 104.082 86.432 104.115 86.3861 104.138L85.8403 104.422C85.5682 104.535 85.4043 104.591 85.5141 104.535C85.5567 104.491 85.7321 104.377 86.014 104.195L86.0173 104.193C86.0959 104.142 86.1828 104.086 86.2762 104.025C86.3861 103.968 86.4942 103.855 86.604 103.742C86.6303 103.714 86.6581 103.699 86.686 103.685C86.7122 103.671 86.7401 103.657 86.768 103.628C86.8761 103.515 86.9859 103.402 87.1482 103.288C87.34 103.118 87.4482 103.005 87.5367 102.913C87.6252 102.821 87.694 102.75 87.8022 102.665L87.9235 102.539ZM70.2545 83.9112C70.2283 83.8838 70.2332 83.8861 70.2578 83.907L70.2545 83.9112ZM93.5848 99.9395C93.5881 99.9367 93.5913 99.9331 93.5946 99.9288L93.634 99.9456H93.5799C93.5799 99.9456 93.5815 99.9434 93.5848 99.9395Z" fill="#154F46" fill-opacity="0.5"/>
</svg>
