<svg width="109" height="110" viewBox="0 0 109 110" fill="none" xmlns="http://www.w3.org/2000/svg">
<path d="M72.6667 52.7082H65.856C65.8619 50.2785 65.8869 48.2257 65.9918 46.473C66.1298 44.173 66.3982 42.61 66.827 41.528C67.2176 40.5425 67.7176 40.0071 68.4311 39.6472C69.2472 39.2354 70.538 38.9582 72.6667 38.9582H74.9375V36.6665V27.4998V25.2082H72.6667H72.6621H72.6571H72.6526H72.6471H72.6421H72.6376H72.6326H72.6276H72.6217H72.6167H72.6112H72.6053H72.6003H72.5958H72.5908H72.5854H72.5794H72.574H72.5676H72.5613H72.5567H72.5499H72.5454H72.5408H72.5359H72.5309H72.5254H72.52H72.5145H72.5091H72.5031H72.4972H72.4913H72.4854H72.4791H72.4727H72.4659H72.4591H72.4523H72.4455H72.4382H72.4309H72.4232H72.416H72.4078H72.4001H72.3919H72.3837H72.3792H72.371H72.3664H72.3578H72.3533H72.3442H72.3351H72.3306H72.3256H72.321H72.316H72.311H72.3015H72.2965H72.2915H72.2865H72.2811H72.2761H72.2711H72.2656H72.2602H72.2547H72.2497H72.2443H72.2388H72.2329H72.2275H72.222H72.2161H72.2107H72.2048H72.1989H72.193H72.187H72.1811H72.1752H72.1689H72.163H72.1566H72.1507H72.1444H72.138H72.1316H72.1253H72.1185H72.1121H72.1058H72.0989H72.0921H72.0853H72.079H72.0717H72.0649H72.0581H72.0513H72.044H72.0367H72.0299H72.0226H72.0154H72.0081H72.0008H71.9931H71.9859H71.9781H71.9704H71.9631H71.9554H71.9473H71.9395H71.9318H71.9236H71.9159H71.9077H71.8996H71.8914H71.8832H71.875H71.8669H71.8582H71.8501H71.8414H71.8328H71.8242H71.8155H71.8069H71.7978H71.7892H71.7801H71.771H71.762H71.7529H71.7438H71.7347H71.7252H71.7161H71.7065H71.697H71.6875H71.6779H71.6684H71.6584H71.6489H71.6389H71.6289H71.6189H71.6089H71.5989H71.5889H71.5785H71.568H71.558H71.5476H71.5371H71.5262H71.5158H71.5049H71.4944H71.4835H71.4726H71.4617H71.4504H71.4395H71.4286H71.4172H71.4059H71.3945H71.3832H71.3714H71.36H71.3482H71.3369H71.325H71.3132H71.301H71.2892H71.2774H71.2651H71.2528H71.2406H71.2283H71.216H71.2033H71.1906H71.1783H71.1656H71.1529H71.1397H71.127H71.1139H71.1011H71.088H71.0748H71.0616H71.048H71.0348H71.0212H71.0076H70.994H70.9803H70.9667H70.9526H70.9385H70.9249H70.9108H70.8963H70.8822H70.8677H70.8536H70.8391H70.8246H70.81H70.795H70.7805H70.7655H70.7505H70.7355H70.7205H70.7056H70.6901H70.6747H70.6592H70.6438H70.6283H70.6129H70.597H70.5811H70.5652H70.5493H70.5334H70.5171H70.5012H70.4848H70.4685H70.4521H70.4353H70.419H70.4022H70.3854H70.3686H70.3513H70.3345H70.3172H70.3H70.2827H70.2655H70.2482H70.2305H70.2128H70.1951H70.1774H70.1596H70.1415H70.1238H70.1056H70.0874H70.0693H70.0506H70.032H70.0139H69.9948H69.9762H69.9575H69.9385H69.9194H69.9003H69.8812H69.8622H69.8426H69.8231H69.8036H69.7841H69.7645H69.7445H69.725H69.705H69.6846H69.6646H69.6446H69.6242H69.6037H69.5833H69.5624H69.542H69.5211H69.5002H69.4793H69.458H69.4371H69.4157H69.3944H69.373H69.3517H69.3299H69.3081H69.2863H69.2645H69.2422H69.2204H69.1982H69.1759H69.1537H69.131H69.1083H69.086H69.0628H69.0401H69.0174H68.9943H68.9711H68.9479H68.9243H68.9012H68.8775H68.8539H68.8303H68.8062H68.7822H68.7581H68.734H68.71H68.6854H68.6614H68.6368H68.6118H68.5873H68.5623H68.5378H68.5124H68.4874H68.4624H68.437H68.4116H68.3861H68.3602H68.3344H68.3089H68.2826H68.2567H68.2308H68.2045H68.1781H68.1513H68.125C65.6357 25.2082 63.2613 25.5905 61.1335 26.6714C58.9726 27.7692 57.2309 29.5042 55.8965 31.9275C53.4949 36.288 52.3627 42.9814 52.2396 52.7082H45.4166H43.1458V54.9998V64.1665V66.4582H45.4166H52.2291V93.9582H22.7083C18.9459 93.9582 15.8958 90.88 15.8958 87.0832V22.9165C15.8958 19.1195 18.9459 16.0415 22.7083 16.0415H86.2917C90.054 16.0415 93.1042 19.1195 93.1042 22.9165V87.0832C93.1042 90.88 90.054 93.9582 86.2917 93.9582H65.8541V66.4582H70.3958H72.1689L72.599 64.7225L74.8698 55.5558L75.5751 52.7082H72.6667Z" stroke="white" stroke-width="4"/>
</svg>
