<svg width="109" height="110" viewBox="0 0 109 110" fill="none" xmlns="http://www.w3.org/2000/svg">
<path d="M15.8959 45.8332C15.8959 44.5675 16.9126 43.5415 18.1667 43.5415H31.7917C33.0458 43.5415 34.0625 44.5675 34.0625 45.8332V91.6665C34.0625 92.932 33.0458 93.9582 31.7917 93.9582H18.1667C16.9126 93.9582 15.8959 92.932 15.8959 91.6665V45.8332Z" stroke="white" stroke-width="4"/>
<path d="M43.1459 45.8332C43.1459 44.5675 44.1626 43.5415 45.4167 43.5415H59.0417C60.2957 43.5415 61.3125 44.5675 61.3125 45.8332V91.6665C61.3125 92.932 60.2957 93.9582 59.0417 93.9582H45.4167C44.1626 93.9582 43.1459 92.932 43.1459 91.6665V45.8332Z" stroke="white" stroke-width="4"/>
<path d="M74.9375 59.5835V59.5436L74.9361 59.5042C74.8398 56.7024 73.396 53.1453 69.7595 52.2153C67.3025 51.5865 64.5094 52.3625 61.4519 54.5079C61.555 53.3795 61.7349 52.3744 62.0473 51.4279C62.6986 49.4571 63.9993 47.5711 66.9932 45.5304C69.2549 44.4264 72.8615 43.6584 76.7755 43.5836C80.754 43.5077 84.7007 44.1556 87.547 45.5917C91.2125 47.4413 93.1041 51.158 93.1041 55.0002V91.6668C93.1041 92.9328 92.0873 93.9585 90.8333 93.9585H77.2083C75.9544 93.9585 74.9375 92.9328 74.9375 91.6668V59.5835Z" stroke="white" stroke-width="4"/>
<path d="M24.9792 34.3748C29.9958 34.3748 34.0625 30.2708 34.0625 25.2082C34.0625 20.1456 29.9958 16.0415 24.9792 16.0415C19.9626 16.0415 15.8959 20.1456 15.8959 25.2082C15.8959 30.2708 19.9626 34.3748 24.9792 34.3748Z" stroke="white" stroke-width="4"/>
</svg>
