<svg width="109" height="110" viewBox="0 0 109 110" fill="none" xmlns="http://www.w3.org/2000/svg">
<path d="M76.3125 16H30.8958C22.1168 16 15 23.1821 15 32.0417V77.875C15 86.7346 22.1168 93.9167 30.8958 93.9167H76.3125C85.0915 93.9167 92.2083 86.7346 92.2083 77.875V32.0417C92.2083 23.1821 85.0915 16 76.3125 16Z" stroke="white" stroke-width="4"/>
<path d="M53.6041 75.583C64.8914 75.583 74.0416 66.3489 74.0416 54.958C74.0416 43.5671 64.8914 34.333 53.6041 34.333C42.3168 34.333 33.1666 43.5671 33.1666 54.958C33.1666 66.3489 42.3168 75.583 53.6041 75.583Z" stroke="white" stroke-width="4"/>
<path d="M28.6249 34.3332C31.1332 34.3332 33.1666 32.2811 33.1666 29.7498C33.1666 27.2185 31.1332 25.1665 28.6249 25.1665C26.1166 25.1665 24.0833 27.2185 24.0833 29.7498C24.0833 32.2811 26.1166 34.3332 28.6249 34.3332Z" stroke="white" stroke-width="4"/>
</svg>
