<svg width="420" height="128" viewBox="0 0 420 128" fill="none" xmlns="http://www.w3.org/2000/svg">
<path fill-rule="evenodd" clip-rule="evenodd" d="M190.892 101.305C191.534 100.794 192.185 100.288 192.844 99.7864L192.957 100.059C192.992 100.129 193.012 100.18 193.035 100.24C193.068 100.324 193.109 100.426 193.205 100.625C193.453 101.192 193.701 101.702 194.032 102.268L194.28 102.665C194.321 102.693 194.362 102.764 194.424 102.871C194.486 102.977 194.569 103.118 194.693 103.288C195.106 103.855 195.519 104.422 196.015 104.932C196.263 105.186 196.531 105.441 196.8 105.696C197.068 105.951 197.337 106.206 197.585 106.461C197.998 106.858 198.824 107.425 199.486 107.878C200.229 108.331 200.973 108.784 201.799 109.181C202.626 109.577 203.452 109.974 204.278 110.314C205.105 110.654 205.931 110.937 207.253 111.277C209.732 111.957 212.459 112.297 215.186 112.354C216.508 112.354 217.913 112.297 218.574 112.24C219.4 112.184 220.309 112.07 221.135 111.9C222.871 111.617 224.524 111.164 226.093 110.654C226.383 110.541 226.589 110.47 226.775 110.406C226.961 110.342 227.127 110.286 227.333 110.201C227.498 110.116 227.684 110.045 227.87 109.974C228.056 109.903 228.242 109.832 228.407 109.747C228.627 109.634 228.857 109.527 229.086 109.42C229.545 109.206 230.005 108.992 230.39 108.728C230.528 108.652 230.638 108.589 230.73 108.537C230.914 108.432 231.024 108.369 231.134 108.331L231.547 108.048C231.713 107.963 231.857 107.864 232.002 107.764C232.146 107.665 232.291 107.566 232.456 107.481C232.58 107.368 232.725 107.269 232.869 107.17C233.014 107.07 233.159 106.971 233.283 106.858L233.696 106.518C233.783 106.438 233.881 106.358 233.981 106.276C234.166 106.124 234.362 105.965 234.522 105.781L235.018 105.271L235.514 104.818L236.092 104.195C236.523 103.715 236.778 103.38 236.995 103.094C237.111 102.942 237.217 102.803 237.332 102.665L237.993 101.759L238.736 100.625C238.778 100.597 238.798 100.569 238.819 100.54C238.84 100.512 238.86 100.484 238.902 100.455C238.933 100.434 238.953 100.412 238.969 100.394C238.996 100.364 239.016 100.342 239.067 100.342L239.15 100.285L239.315 100.116L239.396 100.004C239.519 100.06 239.53 100.065 239.398 100.002L239.396 100.004C238.296 99.5035 228.303 94.8761 233.283 97.1693H233.365L233.944 97.2825L238.902 98.3025L240.141 98.5858L240.72 98.6991L240.802 98.5858C241.381 98.0758 241.938 97.5517 242.496 97.0275C242.593 96.9368 242.689 96.846 242.786 96.7552C242.841 96.78 242.896 96.8047 242.951 96.8293C244.934 97.6792 247.165 98.3025 249.561 98.7557C251.958 99.1523 254.354 99.2657 256.502 99.2089C256.957 99.1815 257.323 99.1584 257.62 99.1387C259.084 100.81 261.22 102.648 264.188 104.252C265.472 105.029 267.103 105.69 268.816 106.233C268.761 106.446 268.705 106.673 268.65 106.915C268.567 107.198 268.484 107.651 268.484 107.991C268.402 108.331 268.402 108.728 268.402 109.407C268.402 110.087 268.402 110.314 268.484 111.391C268.508 111.543 268.528 111.681 268.547 111.811C268.661 112.603 268.731 113.088 269.228 114.45C269.807 115.923 270.302 117.056 272.203 119.266C273.608 120.966 276.417 123.232 279.805 124.819C282.697 126.292 287.325 127.425 289.721 127.652C292.944 128.048 295.175 128.048 296.828 127.935C298.534 127.848 299.371 127.728 300.262 127.601C300.535 127.561 300.814 127.521 301.125 127.482C302.529 127.255 302.943 127.142 303.769 126.915C304.028 126.844 304.255 126.784 304.459 126.73C304.906 126.612 305.247 126.522 305.587 126.405C306.083 126.292 306.661 126.065 306.909 125.952L307.901 125.612L308.644 125.329C309.03 125.177 309.268 125.077 309.507 124.976C309.627 124.926 309.746 124.875 309.884 124.819C311.206 124.195 311.95 123.799 312.528 123.459C313.106 123.119 313.602 122.836 314.015 122.609C314.842 122.099 315.42 121.703 315.998 121.306C316.201 121.167 316.384 121.034 316.557 120.909C316.877 120.678 317.164 120.47 317.486 120.286C318.119 119.852 318.671 119.419 319.199 119.004C319.43 118.823 319.656 118.645 319.882 118.473L321.866 116.943L322.692 116.32L323.105 116.037C327.815 112.807 332.36 109.577 336.822 106.405C339.053 104.818 341.285 103.231 343.433 101.589C343.97 101.164 344.528 100.753 345.086 100.342C345.643 99.9315 346.201 99.5203 346.738 99.0957C347.148 98.7712 347.583 98.4384 348.032 98.0943C348.759 97.5372 349.525 96.9497 350.291 96.3193C352.605 94.4497 354.671 92.5799 356.572 90.8236C356.916 90.495 357.258 90.1701 357.596 89.8484C358.588 88.9053 359.553 87.9879 360.478 87.0799C360.631 87.4403 360.789 87.8193 360.951 88.2173C361.199 88.6533 361.37 89.0272 361.544 89.4053C361.777 89.9116 362.013 90.4258 362.439 91.1069C362.439 91.3101 362.178 90.9329 361.991 90.6617C361.813 90.404 361.701 90.2422 361.943 90.767C362.201 91.0708 362.493 91.635 362.825 92.2774C363.236 93.0723 363.708 93.987 364.257 94.6764L364.174 94.9597C364.31 95.2635 364.306 95.172 364.3 95.0511C364.293 94.8877 364.283 94.671 364.613 95.3029L363.678 93.4865C363.906 93.6815 364.094 93.9303 364.351 94.2696C364.467 94.4232 364.598 94.5955 364.753 94.7897C364.666 94.5122 364.427 94.0199 364.197 93.5431C363.767 92.6565 363.364 91.8233 364.009 92.5233V92.6366C364.119 92.5612 364.486 93.1151 364.792 93.5768C364.945 93.8075 365.083 94.0153 365.166 94.1098H365.083L365.909 95.0163C365.331 94.3931 365.992 96.0362 366.075 95.8661C366.434 96.0851 366.35 95.9869 366.185 95.7949C366.009 95.5892 365.741 95.2761 365.827 95.1296C365.909 95.0163 366.57 96.0362 366.901 96.6028L367.149 96.4894C367.438 96.9144 367.376 96.9144 367.335 96.9144C367.293 96.9144 367.273 96.9144 367.645 97.3393L367.397 96.3195C368.2 97.3932 368.144 97.1559 368.074 96.8556C368 96.5379 367.909 96.1499 368.801 97.1693C368.85 97.5038 369.043 97.7002 369.295 97.9564C369.47 98.1342 369.673 98.3409 369.876 98.6424L370.619 98.3025C370.86 98.5085 370.925 98.8045 370.943 98.8852C370.946 98.8987 370.948 98.9063 370.949 98.9061C370.95 98.9061 370.95 98.8947 370.95 98.8691C371.395 99.25 371.166 98.8369 370.994 98.5253C370.911 98.3736 370.84 98.2459 370.867 98.2459C371.086 98.4601 371.222 98.4798 371.369 98.5014C371.611 98.5366 371.883 98.5762 372.603 99.4924C373.342 99.8801 372.937 99.3413 372.555 98.835C372.213 98.3796 371.89 97.9508 372.437 98.2459C372.832 98.6523 372.793 98.7478 372.762 98.8234C372.728 98.9061 372.703 98.9651 373.264 99.379L373.512 98.8691C373.59 98.976 373.695 99.1116 373.807 99.2546C374.146 99.6894 374.54 100.194 374.376 100.181C374.363 100.178 374.351 100.175 374.338 100.172C374.344 100.174 374.351 100.176 374.356 100.178C374.364 100.18 374.37 100.181 374.376 100.181C375.166 100.37 376.245 100.891 377.368 101.432C378.012 101.742 378.67 102.06 379.296 102.325C381.031 103.118 382.601 103.572 382.684 102.609C383.503 103.1 383.529 103.243 383.568 103.457C383.592 103.588 383.621 103.745 383.841 104.025C383.675 103.118 384.667 103.402 385.907 103.798L386.09 103.861C387.207 104.246 388.49 104.687 388.881 104.365L387.89 103.628C390.121 104.308 391.195 103.968 392.104 103.458C392.284 103.348 392.455 103.229 392.628 103.109C393.249 102.68 393.879 102.244 394.914 102.155L394.005 101.872C393.354 101.345 393.254 101.021 393.158 100.713C393.121 100.591 393.084 100.471 393.013 100.342C393.155 100.411 393.361 100.532 393.589 100.665C394.296 101.078 395.224 101.62 395.162 101.192C395.009 101.14 394.85 101.098 394.687 101.056C394.319 100.961 393.935 100.861 393.591 100.626C395.657 100.965 396.979 100.456 398.219 99.8323C398.797 99.4924 399.376 99.1523 399.954 98.7557C400.533 98.4158 401.111 98.0758 401.937 97.8493C402.433 96.546 403.59 95.5828 404.83 94.6196C406.069 93.6564 407.226 92.6932 407.391 91.5601C407.309 91.9001 404.169 90.8236 404.995 90.8236C407.97 91.2768 407.887 90.9369 407.639 90.5403C407.622 90.5194 407.604 90.4985 407.586 90.4775C407.264 90.0979 406.926 89.6994 408.961 89.8604C408.483 89.1569 409.136 88.8029 409.797 88.4446C409.935 88.37 410.073 88.2954 410.201 88.2173C410.945 87.764 411.358 87.2541 409.457 86.2343L411.11 86.5741C411.611 86.5741 411.413 86.4701 411.161 86.3373C410.998 86.2514 410.812 86.1534 410.779 86.0643L411.192 86.1775C411.611 86.0339 411.436 85.7445 411.279 85.4868C411.126 85.2364 410.992 85.0157 411.44 84.9878L409.622 84.5912C409.584 84.4596 409.902 84.4869 410.154 84.5085C410.445 84.5332 410.65 84.5507 410.118 84.3079L411.027 84.4778L409.374 83.8547C411.244 84.2491 411.111 83.9761 410.977 83.6994C410.879 83.4991 410.781 83.297 411.44 83.3447C411.382 83.2883 411.308 83.2227 411.227 83.1508C410.738 82.7166 409.988 82.0499 410.697 81.7581C411.819 81.9121 412.293 81.7004 412.792 81.4776C413.029 81.3723 413.27 81.2643 413.589 81.1916C413.424 80.3985 413.258 79.3219 414.167 78.5287L412.019 78.2454L411.936 78.0187C412.038 78.0305 412.13 78.0397 412.213 78.048C412.531 78.0802 412.714 78.0987 412.845 78.1888C414.192 78.2811 413.904 78.0891 413.613 77.8944C413.368 77.7309 413.12 77.5655 413.837 77.5655C412.549 77.4552 412.794 77.5358 413.102 77.6372C413.268 77.6918 413.452 77.7524 413.424 77.7922C412.349 77.8488 410.366 77.3388 411.523 77.2256L412.019 77.2822L410.945 76.9423C411.771 77.0555 412.391 77.0981 413.01 77.1405C413.63 77.183 414.25 77.2256 415.076 77.3388C415.007 77.0075 414.505 76.6563 414.011 76.3102C413.322 75.8277 412.646 75.3551 413.176 74.9592C413.957 75.1052 414.006 75.0109 414.063 74.9004C414.139 74.7538 414.229 74.5794 416.068 74.9026C415.483 74.563 414.75 74.5261 413.844 74.4805C413.087 74.4424 412.208 74.3981 411.192 74.1661C411.22 74.1282 411.146 74.0778 411.079 74.0317C410.945 73.9394 410.834 73.8637 411.606 73.9394C411.956 74.0194 412.416 74.0492 412.83 74.076C413.297 74.1063 413.706 74.1327 413.837 74.2226L413.671 73.8828C413.873 73.8828 414.184 73.9577 414.427 74.0163C414.482 74.0296 414.534 74.0421 414.58 74.0527C413.704 73.6234 414.324 73.411 414.929 73.2037C415.522 73.0004 416.1 72.8022 415.241 72.4096C414.663 72.3245 414.56 72.367 414.456 72.4096C414.353 72.452 414.25 72.4945 413.671 72.4096C412.488 71.9589 413.188 71.9065 413.871 71.8553C414.477 71.81 415.07 71.7657 414.333 71.4464L415.903 71.7297C415.709 71.6786 415.505 71.6295 415.308 71.582C414.413 71.3666 413.677 71.189 414.828 71.0498C416.058 71.1597 416.319 71.2935 416.597 71.4356C416.748 71.5131 416.904 71.5931 417.225 71.6731C417.307 71.503 416.977 70.9364 415.159 70.9364C414.736 70.7296 415.548 70.704 416.21 70.6831C416.454 70.6755 416.678 70.6685 416.811 70.6531C416.638 70.6333 416.423 70.6413 416.182 70.6503C415.736 70.667 415.2 70.687 414.663 70.5398C415.613 70.3537 415.783 70.0146 415.951 69.6797C415.987 69.6069 416.024 69.5341 416.068 69.4632C416.564 69.52 417.225 69.5766 417.473 69.5766C416.341 69.3826 416.771 69.3784 417.457 69.3718C418.174 69.3647 419.171 69.3549 418.96 69.1234C418.785 68.684 418.395 68.1952 417.998 67.6994C417.271 66.7887 416.524 65.8543 417.059 65.1572C414.903 64.8123 414.56 64.5101 414.181 64.1763C414.124 64.1263 414.066 64.0758 414.002 64.0241L417.39 64.194L416.316 63.8541C416.755 63.829 416.918 63.8818 417.079 63.9335C417.282 63.9985 417.479 64.0621 418.216 63.9675L416.15 63.7408C416.614 63.762 416.858 63.6643 417.103 63.5663C417.513 63.4023 417.925 63.2374 419.373 63.6274L419.538 62.4377C419.62 62.2984 418.942 62.2277 418.34 62.1647C417.718 62.0997 417.176 62.0429 417.638 61.9277C418.142 61.9277 418.304 61.957 418.505 61.9933C418.699 62.0283 418.929 62.0699 419.538 62.0977C420.885 61.6808 419.035 61.3578 417.206 61.0383C415.554 60.7498 413.918 60.4642 414.663 60.1147L415.076 60.1713C414.57 60.0766 414.397 59.9643 414.257 59.8737C414.146 59.8016 414.056 59.7432 413.837 59.7181C412.139 59.7181 412.599 59.775 413.231 59.8531C413.861 59.9309 414.661 60.0298 413.671 60.1147C412.152 60.0551 411.819 59.9645 411.521 59.8835C411.252 59.8102 411.012 59.745 409.953 59.7181C410.63 59.6109 410.224 59.5264 409.79 59.4358C409.535 59.3827 409.27 59.3277 409.209 59.2648C410.055 59.1592 410.239 59.0169 410.419 58.8778C410.625 58.718 410.826 58.5625 412.019 58.4716C411.713 58.4145 411.194 58.3574 410.635 58.2961C409.53 58.1747 408.273 58.0365 408.218 57.8484C409.278 57.7676 409.816 57.7891 410.177 57.8036C410.575 57.8196 410.759 57.827 411.192 57.6783L409.54 57.6217C409.744 57.4353 410.116 57.4405 410.655 57.4483C410.771 57.4499 410.895 57.4518 411.027 57.4518C411.062 57.3556 410.652 57.3004 410.255 57.2468C409.717 57.1742 409.204 57.105 409.87 56.9418L411.44 57.1117C410.924 56.9349 411.013 56.827 411.155 56.6533C411.195 56.6046 411.239 56.5506 411.275 56.4886C412.267 56.4886 412.184 56.6585 411.854 56.7151C413.39 56.6449 412.609 56.5529 411.871 56.466C411.419 56.413 410.984 56.3616 411.11 56.3187C410.847 56.3187 410.636 56.3468 410.4 56.3784C409.968 56.4362 409.452 56.5053 408.383 56.4318C408.516 56.3631 408.178 56.2946 407.858 56.2296C407.385 56.1337 406.953 56.0462 408.135 55.9786L409.705 56.1485C409.23 56.0264 408.83 55.9702 408.542 55.9298C408.03 55.8577 407.877 55.8361 408.3 55.582H409.209C407.792 55.4324 408.173 55.2583 408.644 55.043C408.886 54.9322 409.153 54.8104 409.209 54.6755L409.622 54.7321C409.369 54.6824 408.94 54.6328 408.553 54.5878C408.057 54.5304 407.629 54.4807 407.722 54.4488C406.73 54.6188 406.317 54.6188 404.664 54.6188C406.037 54.4763 405.211 54.3768 404.263 54.2624C403.328 54.1497 402.274 54.0226 403.094 53.8255C404.003 53.8255 405.16 53.9389 404.169 54.0522C404.843 54.0795 405.493 54.1 406.11 54.1197C408.066 54.1819 409.692 54.2334 410.697 54.4488C410.036 54.2789 409.622 54.109 410.862 54.109L408.218 54.0522C408.164 53.9786 408.215 53.9289 408.257 53.8877C408.28 53.8653 408.3 53.8454 408.3 53.8255C407.599 53.8016 407.002 53.8387 406.464 53.8722C405.736 53.9175 405.117 53.956 404.499 53.8255C403.938 53.6716 405.36 53.6483 405.966 53.6493L405.987 53.6556C406.357 53.6556 406.253 53.6498 405.966 53.6493C405.477 53.4989 404.858 53.4627 404.404 53.4363C403.86 53.4045 403.555 53.3866 404.003 53.2024C404.081 53.2202 404.175 53.2379 404.26 53.2539C404.362 53.2733 404.45 53.2899 404.481 53.3011C404.461 53.3059 404.439 53.3108 404.416 53.3157C404.493 53.3157 404.507 53.3103 404.481 53.3011C404.807 53.2229 404.85 53.1328 404.891 53.0435C404.97 52.8741 405.048 52.7084 407.061 52.6358C407.804 52.6358 408.713 52.6358 408.466 52.7491H407.97C409.03 52.8529 408.98 52.814 408.892 52.7468C408.808 52.6816 408.688 52.5898 409.513 52.576C409.69 52.5868 409.916 52.5888 410.201 52.579C409.919 52.5736 409.693 52.573 409.513 52.576C408.662 52.5236 408.936 52.2664 409.209 52.1258L407.309 52.1824C404.399 51.983 405.378 51.9698 406.975 51.9485C408.554 51.9272 410.736 51.8979 410.366 51.6726C409.683 51.5262 409.574 51.5613 409.434 51.6061C409.302 51.6478 409.145 51.698 408.466 51.6158C408.584 51.5343 408.885 51.4676 409.179 51.4021C409.702 51.2857 410.204 51.1741 409.622 50.9927C409.731 50.9762 409.846 50.9571 409.971 50.9368C410.702 50.8168 411.754 50.6444 413.589 50.596C413.214 50.526 413.303 50.4077 413.392 50.2892C413.519 50.1197 413.646 49.9495 412.432 49.9161C411.586 50.1007 412.029 50.175 412.461 50.2472C412.957 50.3301 413.438 50.4104 411.936 50.6528L409.788 50.596C409.821 50.483 409.669 50.37 409.523 50.2605C409.302 50.0957 409.093 49.939 409.54 49.8028C409.127 49.8595 408.548 49.9161 408.135 49.8595C407.819 49.7295 407.309 49.6409 406.838 49.5589C406.076 49.4265 405.413 49.3111 405.821 49.0663C407.32 48.9768 407.431 49.0989 407.533 49.2101C407.56 49.2399 407.587 49.2689 407.639 49.293C408.468 49.1352 408.399 49.0828 408.275 48.989C408.177 48.9145 408.044 48.8138 408.3 48.613C409.125 48.5565 409.106 48.6269 409.085 48.7045C409.065 48.7827 409.042 48.868 409.87 48.8396L409.299 48.4478C409.397 48.447 409.504 48.4455 409.622 48.4431H409.292L409.299 48.4478C408.066 48.4583 408.355 48.3495 408.716 48.2134C409.01 48.1027 409.352 47.9739 408.961 47.8764C408.902 47.4264 406.946 47.3605 404.993 47.2945C404.241 47.2692 403.489 47.2438 402.846 47.1965C403.508 47.0957 404.17 47.0397 404.774 46.9886L404.995 46.9699C404.169 47.121 404.334 47.121 404.756 47.121C404.967 47.121 405.243 47.121 405.491 47.1399C405.16 46.9699 408.218 46.5167 409.374 46.5733C408.935 46.4227 408.543 46.4963 408.135 46.5726C407.775 46.64 407.404 46.7096 406.978 46.6299L407.143 46.1767C406.78 46.2206 406.489 46.2646 406.236 46.3027C405.512 46.4118 405.109 46.4728 404.251 46.3466C403.943 46.2198 404.003 46.1245 404.087 45.9901C404.116 45.9444 404.148 45.8942 404.169 45.8368C404.452 45.8368 404.832 45.8038 405.193 45.7725C405.779 45.7216 406.317 45.6749 406.317 45.78C406.813 45.6101 406.895 45.4402 405.491 45.4402C404.912 45.5988 404.586 45.5353 404.183 45.457C403.724 45.3676 403.166 45.2589 402.02 45.4402L403.26 45.1001C403.26 45.1232 403.41 45.1276 403.572 45.1321C403.808 45.1389 404.068 45.1463 403.921 45.2135C405.421 45.0553 404.504 45.0351 403.73 45.0181C403.395 45.0107 403.087 45.004 403.012 44.9869C403.154 44.9479 403.266 44.8889 403.387 44.8259C403.616 44.7057 403.874 44.5708 404.416 44.5336C403.838 44.477 404.251 44.2503 405.325 44.1369C405.086 44.0712 404.651 44.1199 404.183 44.1725C403.845 44.2104 403.489 44.2503 403.177 44.2503L403.26 43.7971C403.605 43.7656 404.11 43.7164 404.67 43.662C406.122 43.5208 407.943 43.3438 408.3 43.3438C407.831 43.3208 407.159 43.363 406.53 43.4024C405.608 43.4604 404.781 43.5123 404.83 43.3438C405.925 43.3169 406.372 43.2012 406.838 43.0808C407.355 42.9469 407.895 42.8071 409.374 42.7773C411.027 42.494 410.945 42.0406 410.283 41.8706C409.292 41.9003 409.065 41.9916 408.805 42.0962C408.567 42.1922 408.3 42.2993 407.391 42.3806C406.981 42.0995 405.494 42.0834 404.2 42.0692C403.559 42.0623 402.965 42.0559 402.573 42.018C402.482 41.813 402.457 41.5707 402.435 41.3189C403.96 40.9859 405.171 40.5748 404.83 40.3409C404.358 40.387 403.914 40.4896 403.425 40.6026C403.112 40.6752 402.78 40.7518 402.41 40.8209C402.377 40.5912 402.294 40.3727 402.092 40.1815C402.495 40.0421 402.701 39.9476 401.874 40.0165C401.851 40.0029 401.828 39.9897 401.804 39.9769L403.151 39.6766C403.213 39.6726 403.276 39.6674 403.342 39.661L404.747 39.3211L403.151 39.6766C402.516 39.7182 402.124 39.6345 401.804 39.5665C401.615 39.5261 401.451 39.491 401.276 39.491C399.987 39.3349 400.717 39.1311 401.932 38.7919C402.002 38.7724 402.074 38.7523 402.146 38.732C402.187 38.7207 402.227 38.7094 402.268 38.6978C401.848 38.8024 401.164 38.9555 400.509 39.0675L400.698 38.981L402.681 38.1878C402.814 37.7782 401.987 38.1364 401.013 38.6162C401.081 38.5598 401.093 38.509 401.103 38.4611C401.129 38.3464 401.15 38.2486 401.937 38.1312C401.911 38.0945 402.005 38.034 402.095 37.9768C402.27 37.8648 402.426 37.7649 401.621 37.8782L402.985 37.6778C403.219 37.6465 403.475 37.6089 403.755 37.5646L402.985 37.6778C400.973 37.9471 400.573 37.7624 400.163 37.5729C400.072 37.5309 399.981 37.4888 399.872 37.4513C402.07 37.1101 401.936 37.04 401.76 36.9474C401.585 36.8554 401.367 36.7414 403.342 36.3181C401.804 36.5819 401.481 36.4818 401.173 36.3865C400.886 36.2974 400.612 36.2125 399.376 36.4315C399.186 36.3011 400.791 35.938 401.961 35.6734C402.318 35.5928 402.634 35.5212 402.846 35.4683L401.69 35.5816C402.509 35.3359 402.82 35.0467 403.135 34.7545C403.329 34.575 403.524 34.3943 403.838 34.2218L401.111 34.5617L402.268 34.2218C402.046 34.2599 401.843 34.2723 401.636 34.285C401.227 34.3101 400.806 34.336 400.202 34.5617L400.285 34.3917C398.638 34.757 398.638 34.6942 398.637 34.5795C398.636 34.4985 398.635 34.3917 398.054 34.3917C398.467 34.2218 399.128 34.0517 399.541 34.0517C399.541 33.9757 400.173 33.7979 400.863 33.6034C401.111 33.5336 401.366 33.4617 401.603 33.3918C401.713 33.3651 401.798 33.3395 401.855 33.3152C401.774 33.3403 401.69 33.3659 401.603 33.3918C401.236 33.4811 400.598 33.5847 399.865 33.7037C398.249 33.9661 396.168 34.304 395.492 34.7316C394.335 35.0149 393.426 35.0717 393.922 34.7884L396.401 34.0517L393.674 34.5617C393.388 34.529 393.791 34.3449 394.214 34.1516C394.524 34.0104 394.844 33.8643 394.914 33.7684C395.162 33.8818 399.872 32.862 399.624 32.4088C399.946 32.5191 400.651 32.4384 401.264 32.3682C401.595 32.3303 401.9 32.2954 402.103 32.2954C402.185 32.1821 402.351 32.0687 403.508 31.9554C403.027 31.8732 402.644 31.937 402.31 31.9926C401.955 32.0517 401.657 32.1016 401.359 31.9554C403.59 31.3888 404.251 31.0489 404.83 30.4824L403.342 31.2189C403.094 31.2755 402.846 31.3322 402.681 31.3322C402.516 31.5021 402.185 31.6155 401.359 31.8422C401.359 31.7977 400.903 31.8403 400.427 31.8846C399.903 31.9335 399.355 31.9845 399.368 31.9239C399.476 31.8809 399.589 31.8349 399.706 31.7854C399.473 31.8555 399.373 31.8991 399.368 31.9239C397.808 32.5411 397.12 32.507 396.525 32.4773C396.022 32.4524 395.586 32.4306 394.748 32.8054C394.087 32.9753 393.839 32.8054 394.914 32.4088C395.982 32.2755 396.594 31.9661 397.236 31.6416C397.364 31.5766 397.495 31.5106 397.63 31.4455C397.698 31.4147 397.765 31.3837 397.832 31.3531C397.874 31.3335 397.916 31.3142 397.957 31.2952C398.207 31.187 398.48 31.0838 398.797 30.9922C398.541 31.0363 398.259 31.1571 397.957 31.2952C397.844 31.3445 397.735 31.3949 397.63 31.4455C397.245 31.6199 396.832 31.7883 396.401 31.8422C396.22 31.7593 396.832 31.435 397.401 31.1335C397.611 31.0221 397.815 30.9138 397.971 30.8222L398.467 30.7656L399.211 30.1423C398.803 30.2715 398.466 30.4333 398.165 30.5782C397.673 30.8147 397.275 31.0058 396.814 30.9356C396.99 30.8394 396.957 30.7737 396.924 30.7085C396.879 30.62 396.834 30.532 397.31 30.369C397.88 30.2248 398.494 30.036 399.069 29.8592C400.075 29.5495 400.961 29.277 401.276 29.349C401.253 29.3373 401.228 29.3236 401.202 29.309C400.848 29.1149 400.157 28.7367 398.467 29.6323L398.384 29.4058C398.336 29.4351 398.285 29.4668 398.232 29.5C398.194 29.523 398.156 29.5471 398.116 29.5717C397.341 30.0554 396.172 30.7848 395.657 30.4824L396.071 30.3122L394.252 30.5957L395.244 30.029C394.748 30.2557 394.17 30.369 394.17 30.2557C394.385 30.1506 394.542 30.061 394.698 29.9725C394.962 29.8228 395.22 29.6761 395.74 29.4624C395.371 29.2094 394.54 29.5441 393.955 29.7799C393.885 29.8082 393.819 29.8349 393.757 29.859C393.509 29.7457 393.839 29.5192 395.079 29.0658C395.106 28.9378 395.046 28.8216 394.984 28.7001C394.854 28.445 394.711 28.1666 395.327 27.7061C394.697 27.7349 394.622 27.8077 394.494 27.9318C394.371 28.0517 394.198 28.2198 393.426 28.4426C394.996 27.4794 394.996 26.9694 394.418 26.7429C394.132 26.612 393.653 26.5379 393.188 26.4659C392.847 26.4131 392.514 26.3614 392.269 26.2895C390.981 27.2613 390.898 27.2382 390.756 27.1988C390.634 27.165 390.469 27.1193 389.468 27.6744C389.714 27.5084 389.923 27.2886 390.137 27.0634C390.239 26.9561 390.342 26.8475 390.451 26.7429C390.782 26.3463 391.195 25.9496 391.939 25.9496L391.195 25.8363C391.646 25.2697 392.097 25.1714 392.547 25.073C392.576 25.0666 392.606 25.0604 392.635 25.0538C392.651 25.0503 392.667 25.0467 392.683 25.043C393.178 24.9298 393.757 24.7597 394.418 23.9099C394.087 23.74 393.096 24.0798 392.269 24.3631C391.443 24.6466 390.782 24.8165 390.865 24.2499C391.784 23.6472 391.543 23.6537 391.274 23.6613C390.987 23.6692 390.667 23.6781 391.691 22.9467C392.22 22.6648 392.414 22.7264 392.601 22.7857C392.677 22.8098 392.752 22.8333 392.848 22.8333L393.013 22.4935C392.435 21.8136 391.773 22.2102 391.112 22.7768C390.979 22.8909 390.843 23.0142 390.702 23.1411C390.145 23.6445 389.525 24.205 388.799 24.4765C387.961 24.285 388.835 23.3241 389.474 22.6208C389.591 22.4921 389.701 22.3719 389.79 22.2668C389.873 21.9269 389.047 21.8701 388.468 22.2102C389.212 21.8701 389.377 22.2668 389.129 22.7768C388.881 23.3433 388.303 24.0232 387.725 24.4765C388.303 23.5133 387.89 23.3433 387.311 23.4567C386.733 23.57 385.989 24.0798 385.576 24.4199C385.576 25.5823 385.655 25.6632 385.813 25.8247L385.824 25.8363C385.953 25.925 386.083 26.014 385.894 26.6208C385.741 26.3852 385.58 26.158 385.411 25.9496C384.584 24.8731 383.51 23.8531 382.353 22.9467C381.196 22.0968 379.709 21.1902 378.056 20.4537C376.404 19.7171 374.586 19.1507 372.85 18.8106C371.563 18.5509 370.9 18.4817 369.97 18.3847C369.886 18.3757 369.8 18.3668 369.71 18.3574C368.719 18.244 367.727 18.1874 366.735 18.244C365.661 18.244 364.67 18.3006 364.505 18.3574C364.298 18.3857 364.091 18.3998 363.885 18.414C363.678 18.4281 363.471 18.4423 363.265 18.4706L362.026 18.6407C361.612 18.6973 361.116 18.8106 360.869 18.8672C360.662 18.8957 360.476 18.9381 360.29 18.9805C360.104 19.0232 359.918 19.0656 359.712 19.0939C359.549 19.1385 359.399 19.1744 359.256 19.2084C359.038 19.2606 358.837 19.3086 358.637 19.3772L357.976 19.6039C357.563 19.717 357.15 19.8871 356.902 20.0005L356.241 20.227C355.745 20.4537 355.58 20.5103 355.25 20.6237L354.589 20.9069L354.093 21.1336L353.762 21.3036L353.514 21.4735L352.133 22.1753C350.882 21.2945 349.402 20.431 347.812 19.7172C347.531 19.5779 347.216 19.4408 346.881 19.3076C346.862 19.2551 346.841 19.2027 346.821 19.1505C352.853 13.0882 315.255 0.793259 313.767 6.79899L313.272 6.96893L312.611 7.13902L311.288 7.53548C310.834 7.67712 310.401 7.80463 309.967 7.93196C309.533 8.05946 309.099 8.18711 308.644 8.32875C308.286 8.4517 307.912 8.56404 307.542 8.67487C307.06 8.81937 306.586 8.96168 306.165 9.12202C305.625 9.32783 305.085 9.53179 304.549 9.73373C302.137 10.6444 299.825 11.517 298.067 12.3515C297.923 12.4152 297.78 12.4778 297.638 12.5396C296.853 11.9279 296 11.3497 295.092 10.8217C292.366 9.23537 289.391 8.15881 286.829 7.53548C284.6 7.03881 284.1 6.98021 283.63 6.92513C283.403 6.89852 283.183 6.87276 282.78 6.79899C281.871 6.68564 280.962 6.62904 280.053 6.57228C278.235 6.51569 276.334 6.57246 274.517 6.7424C273.608 6.85558 272.698 6.96909 271.872 7.13902C270.881 7.30896 270.22 7.4789 270.302 7.4789C269.063 7.76218 267.823 8.10207 266.584 8.55546L266.005 8.78198L264.27 9.57524C264.146 9.63183 264.002 9.70238 263.858 9.77296L263.856 9.77414C263.712 9.84471 263.567 9.91528 263.444 9.97186L263.278 10.0286C262.7 10.4818 262.37 10.7651 262.287 10.9918C262.039 11.3883 262.7 11.3883 263.526 11.3317C263.601 11.3317 263.692 11.3202 263.792 11.3076C263.915 11.2923 264.051 11.2751 264.188 11.2751L264.518 11.2184H264.601L264.931 11.0484L265.675 10.7651C266.171 10.5384 266.749 10.3119 267.328 10.1418L268.484 9.74518C268.691 9.68859 268.918 9.61786 269.145 9.54695C269.373 9.47622 269.6 9.4053 269.807 9.34871C270.054 9.29195 270.281 9.23536 270.509 9.17877C270.736 9.12202 270.963 9.06542 271.211 9.00867L271.707 8.89532C271.872 8.86703 272.017 8.83874 272.162 8.81044C272.306 8.78214 272.451 8.75368 272.616 8.72539C272.931 8.66375 273.27 8.61893 273.62 8.57245C273.914 8.53371 274.215 8.4938 274.517 8.44209C275.839 8.27216 277.161 8.21541 278.483 8.21541C279.805 8.21541 281.127 8.32874 282.367 8.44209C282.522 8.4687 282.677 8.48286 282.823 8.49617C282.989 8.51116 283.144 8.52531 283.276 8.55546C283.375 8.56674 283.444 8.57348 283.5 8.57904C283.547 8.58359 283.585 8.58729 283.621 8.59184C283.758 8.60901 283.891 8.63933 284.515 8.78198C286.25 9.12185 288.234 9.632 290.3 10.4819C292.125 11.2121 294.021 12.2306 295.601 13.4046C295.343 13.5104 295.091 13.6126 294.845 13.7113C294.548 13.8132 294.251 13.9353 293.972 14.0534C293.117 13.443 292.18 12.8893 291.209 12.4082C289.721 11.6716 288.151 11.105 286.747 10.6518C285.507 10.2552 283.358 9.91528 283.358 9.91528C282.487 9.75225 281.54 9.69347 280.663 9.63907L280.549 9.632C278.566 9.51865 276.5 9.57524 274.599 9.85853C274.104 9.91528 273.607 9.97186 273.194 10.0852C272.864 10.1418 272.038 10.3119 272.038 10.3119L271.542 10.4251C271.342 10.4938 271.142 10.5416 270.923 10.5938C270.781 10.6279 270.631 10.6637 270.468 10.7085C270.073 10.8098 269.65 10.9514 269.25 11.0853C268.978 11.1759 268.718 11.263 268.484 11.3317L267.245 11.8417L266.749 12.0116L266.253 12.2382L266.088 12.2949L266.005 12.3515V12.4082L265.923 12.5214C264.951 13.0029 264.023 13.5448 263.171 14.0424C262.83 14.2413 262.501 14.4332 262.187 14.6114C261.984 14.3491 261.773 14.0869 261.543 13.8247C261.396 13.6731 261.256 13.5217 261.115 13.3686C260.78 13.0066 260.438 12.6365 259.973 12.2382C257.659 10.0852 254.271 8.04547 250.636 6.7424C249.809 6.40236 248.735 6.11907 247.991 5.94913L246.752 5.60925C245.925 5.38256 245.017 5.21263 244.107 5.09929C242.29 4.816 240.472 4.64605 238.654 4.64605H236.423C235.762 4.64605 235.018 4.70264 234.357 4.7594C234.181 4.78938 234.006 4.80353 233.818 4.81869C233.652 4.83199 233.476 4.84597 233.283 4.87258L232.787 4.92934L231.878 5.04269C231.299 5.15588 230.638 5.26922 230.143 5.32597C229.853 5.38256 229.544 5.4533 229.234 5.52404C228.924 5.59495 228.614 5.66584 228.325 5.72243C228.162 5.76723 228.012 5.8031 227.869 5.83713C227.651 5.88934 227.451 5.93718 227.25 6.00573L226.424 6.23241L225.763 6.45911L224.854 6.7424L223.201 7.30896L221.879 7.81878C221.741 7.87553 221.594 7.93213 221.448 7.98888C221.154 8.10207 220.86 8.21558 220.64 8.32875C219.235 8.95208 217.748 9.57523 216.508 10.0852C216.282 10.1938 216.068 10.2941 215.864 10.3891C215.326 10.6413 214.862 10.8583 214.442 11.105C213.946 11.3883 213.533 11.6716 213.285 11.8983C212.707 12.4082 212.376 12.8049 212.046 13.2013L212.037 13.2136C211.027 12.9053 209.966 12.6747 208.906 12.5214C207.336 12.2949 205.848 12.1816 204.278 12.2382C204.072 12.2382 203.886 12.2525 203.7 12.2666C203.514 12.2808 203.328 12.2949 203.121 12.2949L202.626 12.3515C202.471 12.3781 202.316 12.3923 202.169 12.4055C202.003 12.4207 201.848 12.4347 201.717 12.4648C201.305 12.5051 200.852 12.6026 200.417 12.6964C200.24 12.7345 200.066 12.772 199.899 12.8049C199.543 12.8744 199.188 12.9655 198.851 13.0518C198.64 13.1057 198.437 13.1577 198.246 13.2013L198.081 13.2581H197.915L197.668 13.3147C197.337 13.3715 197.027 13.4422 196.718 13.5131C196.408 13.5838 196.097 13.6547 195.767 13.7113C194.445 13.9946 193.123 14.3346 191.553 14.8445C190.072 15.3255 188.517 16.0083 186.612 16.845L186.264 16.9976C185.603 17.1109 184.694 17.2808 183.785 17.4508C183.482 17.5074 183.179 17.5704 182.877 17.6333C182.271 17.7592 181.664 17.8851 181.058 17.9608C179.24 18.244 177.588 18.3574 176.761 17.7908C175.604 18.4707 174.2 19.2072 172.547 20.0005C171.939 20.2924 171.307 20.5767 170.676 20.8618C169.59 21.3512 168.499 21.8432 167.508 22.3801C165.855 23.1734 164.366 23.9665 163.126 24.7597C161.971 25.4962 161.143 26.2329 160.812 26.8561C161.889 26.4594 162.796 26.063 163.541 25.7229C164.284 25.3831 165.027 25.043 165.606 24.6464C166.479 24.1337 167.209 23.6209 167.908 23.1325C168.134 22.9733 168.358 22.8163 168.581 22.6634C169.491 21.9835 170.482 21.3602 171.969 20.6804C172.712 20.3404 173.539 20.0005 174.613 19.6605C175.109 19.4905 175.687 19.3206 176.265 19.1505C176.844 18.9805 177.505 18.8106 178.249 18.6407C177.67 19.4339 177.175 20.227 176.679 21.0769C172.956 22.6956 169.183 24.8786 165.8 26.8367C163.024 28.4428 160.509 29.8974 158.499 30.7655C159.575 30.5389 160.236 30.5955 160.069 31.1055C158.168 32.4086 156.682 33.5419 155.36 34.5617C154.612 35.1773 153.923 35.7721 153.26 36.3463C152.822 36.7234 152.398 37.0919 151.973 37.4513C150.896 38.3577 149.823 39.2643 148.501 40.1709C147.179 41.0774 145.608 42.0972 143.709 43.1737C142.551 43.0038 143.13 42.2673 144.37 41.3041C145.389 40.512 146.855 39.5665 148.217 38.6885C148.511 38.4989 148.801 38.3122 149.08 38.1312C146.532 39.1016 145.258 39.8228 143.955 40.6506C144.134 40.4623 144.303 40.2676 144.47 40.0749C144.733 39.7699 144.992 39.4698 145.277 39.2077C145.444 39.0376 145.608 38.8677 145.692 38.6978C145.856 38.4714 146.023 38.2442 146.187 38.0744L146.435 37.6778C146.518 37.5929 146.58 37.5079 146.642 37.423C146.704 37.3379 146.766 37.2529 146.848 37.168L147.015 36.8847L147.261 36.5447C147.323 36.419 147.395 36.301 147.467 36.1851C147.586 35.9875 147.705 35.7957 147.758 35.5815L147.922 35.2982C147.939 35.2626 147.956 35.2296 147.974 35.1981C148.036 35.0784 148.088 34.9795 148.088 34.845C148.118 34.7239 148.158 34.6098 148.195 34.498C148.267 34.2959 148.337 34.1005 148.337 33.8818C148.337 33.7881 148.362 33.6946 148.384 33.6104C148.401 33.5417 148.419 33.4794 148.419 33.4286V32.6919C148.419 32.0687 148.419 31.3888 148.252 30.7655C148.17 30.4256 148.088 30.1423 147.922 29.859C147.84 29.7458 147.758 29.5193 147.676 29.293C147.591 29.0663 147.427 28.8391 147.261 28.6125C146.682 27.7627 145.938 26.9128 145.029 26.2329C144.783 26.063 144.534 25.8929 144.37 25.7229C144.286 25.6664 144.184 25.6096 144.08 25.553C143.978 25.4962 143.873 25.4397 143.791 25.3829C143.376 25.1564 142.964 24.9297 142.551 24.7597C141.724 24.3631 140.734 24.0232 139.825 23.7965L139.328 23.6266L138.997 23.5698C138.751 23.5133 138.503 23.4567 138.254 23.4567L136.766 23.2866C136.644 23.2866 136.52 23.2724 136.395 23.2583C136.271 23.2441 136.147 23.23 136.022 23.23H134.867C134.606 23.23 134.347 23.2455 134.101 23.2603C133.875 23.2738 133.659 23.2866 133.46 23.2866L131.974 23.5133C131.877 23.5133 131.865 23.5326 131.855 23.5488C131.85 23.5602 131.842 23.5698 131.808 23.5698L131.726 23.6266L131.313 23.7965L130.485 24.0798C130.197 24.1649 129.929 24.2639 129.66 24.3631C129.392 24.4623 129.124 24.5615 128.833 24.6464C128.256 24.8163 127.759 24.9864 127.18 25.213C127.021 25.2677 126.855 25.3283 126.681 25.391C126.313 25.523 125.92 25.6643 125.527 25.7795C124.866 26.0237 124.111 26.2464 123.34 26.4741C122.858 26.6162 122.369 26.7602 121.892 26.9128C120.569 27.3093 119.165 27.7059 117.513 28.1593L121.148 27.4794C119.165 28.2725 117.761 28.8392 116.77 29.2925C115.778 29.7457 115.035 30.0857 114.456 30.4256C114.061 30.6383 113.723 30.8446 113.382 31.0779C113.616 30.114 113.83 29.1651 114.043 28.2162L115.117 27.8193L115.696 27.6494C115.751 27.6305 115.815 27.6116 115.88 27.5926C116.007 27.5549 116.136 27.5171 116.19 27.4794C116.108 27.1961 116.272 26.6294 116.439 26.2329C116.603 25.8363 116.521 25.4962 115.529 25.7229L116.273 25.2697L117.595 24.3631C117.182 23.9665 117.1 23.5698 117.679 22.8333C117.746 22.7629 117.816 22.673 117.895 22.5677C118.01 22.419 118.146 22.2393 118.34 22.0401C118.422 21.9269 118.504 21.8134 118.671 21.7002L118.835 21.5303L119.083 21.247C119.247 21.0203 119.332 20.907 119.578 20.4537C119.62 20.3687 119.662 20.2695 119.702 20.1704C119.744 20.0712 119.787 19.972 119.826 19.8872C119.826 19.8304 119.908 19.6039 119.993 19.4338C120.038 19.3418 120.057 19.2498 120.08 19.1488C120.1 19.0632 120.12 18.9713 120.157 18.8672C120.239 18.6407 120.239 18.4706 120.239 18.3006V17.4508C120.239 17.1109 120.157 16.7709 120.075 16.431C119.993 16.0909 119.908 15.8077 119.578 15.3544C119.332 14.9014 119.001 14.5049 118.671 14.1085C118.589 14.0234 118.484 13.924 118.38 13.8248C118.278 13.7258 118.174 13.6263 118.092 13.5414C117.843 13.3715 117.679 13.2015 117.513 13.0316C116.77 12.465 115.778 12.0116 114.786 11.6716L114.456 11.5584L113.713 11.3883C113.504 11.3528 113.298 11.2948 113.109 11.2426C112.999 11.2118 112.895 11.1828 112.803 11.1618C112.475 11.1052 112.142 11.0482 111.894 10.9918L111.399 10.9351C111.068 10.8785 110.656 10.8785 110.325 10.8785H108.588C108.506 10.8785 108.34 10.8785 108.258 10.9351C108.133 10.9351 108.032 10.9492 107.927 10.9634C107.825 10.9775 107.721 10.9918 107.597 10.9918C107.433 10.9918 107.266 11.0484 107.102 11.105C107.037 11.116 106.97 11.1269 106.901 11.1382C106.612 11.1857 106.277 11.2403 105.944 11.3317C105.119 11.5584 104.209 11.8983 103.218 12.4082C102.39 12.3515 102.805 11.7283 103.63 11.1618C102.475 11.5217 102.487 11.0811 102.502 10.581C102.509 10.3266 102.517 10.0569 102.373 9.86947C102.368 9.83545 102.348 9.81255 102.308 9.80193C102.333 9.82299 102.353 9.84555 102.373 9.86947C102.403 10.1459 101.324 11.1587 100.037 12.3685C99.808 12.5843 99.5719 12.8062 99.3333 13.0314C99.2612 13.1008 99.1891 13.1702 99.1171 13.2396L99.1146 13.2418C97.5291 14.7589 95.9832 16.2385 98.5902 15.7511C98.5902 15.8083 98.5703 15.8728 98.5306 15.9431L97.2681 15.8644C97.0196 15.8078 96.7711 15.7511 96.6891 15.6945C96.3585 15.7511 96.028 15.6945 95.1184 15.4678C95.1482 15.4486 94.86 15.3181 94.5244 15.1653C94.01 14.9315 93.3837 14.6455 93.5925 14.626C93.7093 14.6427 93.8335 14.6589 93.9628 14.6745C93.7664 14.6349 93.6472 14.6208 93.5925 14.626C92.9339 14.5334 92.4518 14.429 92.084 14.3197C92.4518 14.0648 92.8072 13.8162 93.1426 13.5801C93.17 13.5608 93.1973 13.5412 93.2246 13.522C93.4881 13.5518 93.759 13.5929 94.0448 13.6547C93.8435 13.5757 93.5627 13.538 93.2445 13.508C93.3763 13.4151 93.508 13.3243 93.6322 13.2359L93.9628 13.3714L95.1184 13.2581C94.6487 13.1431 94.2212 13.1121 93.8435 13.0893C93.9802 12.9943 94.1143 12.9026 94.2436 12.8147C94.5567 12.8824 94.8748 12.947 95.1855 13.0098C96.2864 13.2325 97.2706 13.4314 97.4321 13.6547C97.4272 13.6359 97.4197 13.6135 97.4123 13.5882C97.3352 13.3096 97.1588 12.6821 95.0364 12.5782L95.2029 12.3517C95.1208 12.3517 95.0339 12.3522 94.9444 12.3532C94.9742 12.3335 95.0066 12.3139 95.0364 12.2949C94.9817 12.3176 94.9295 12.3373 94.8798 12.354C94.8177 12.3547 94.7556 12.3555 94.6884 12.3565C94.6263 12.3574 94.5592 12.3582 94.4946 12.3591C94.502 12.3414 94.517 12.32 94.5418 12.2949C94.6984 12.078 95.2352 11.6532 96.2243 10.8714L96.3585 10.7651C95.1035 11.4759 94.3529 11.9645 93.8211 12.3611C93.252 12.3545 92.7003 12.3197 92.3673 12.1991C92.4095 12.1265 92.4418 12.0608 92.4667 12.0012L92.5587 12.0116L92.4742 11.9828C92.6233 11.5838 92.3598 11.4713 91.8976 11.445C91.8926 11.4528 91.8876 11.4605 91.8827 11.4685C91.4055 11.3944 91.0004 11.2578 91.07 11.1618C91.3682 11.1845 91.5869 11.1889 91.8031 11.1934C92.1312 11.2003 92.4592 11.2071 93.0532 11.2751C93.0532 10.9405 92.1709 10.8076 91.4999 10.706C91.3732 10.6873 91.2563 10.6696 91.152 10.6518C91.07 10.4253 91.567 10.4253 92.8891 10.6518C93.0159 10.5652 93.0805 10.4573 93.1451 10.3461C93.2967 10.0936 93.4583 9.824 94.3753 9.74535C93.8683 9.48396 93.7491 9.50535 93.5453 9.54257C93.3489 9.57794 93.0755 9.62779 92.3101 9.46207C94.4573 9.46207 94.8724 9.06544 94.7058 8.61221C94.6064 8.36952 94.2883 8.08437 93.9802 7.80884C93.7863 7.63402 93.5949 7.4629 93.4657 7.30896C91.5844 7.45583 91.5397 7.38964 91.4776 7.29179C91.4229 7.21027 91.3558 7.10652 90.1952 7.08598C90.6102 7.05785 91.0601 6.9541 91.5446 6.84177C91.6068 6.82762 91.6689 6.8133 91.731 6.79899C92.3921 6.62905 93.0532 6.57246 93.6322 6.85574L93.2197 6.45911C94.164 6.24286 94.584 6.38771 95.0513 6.54922C95.0736 6.55697 95.096 6.5647 95.1184 6.57245C95.1457 6.57835 95.1706 6.58442 95.1979 6.59048C95.6776 6.70197 96.2616 6.83806 97.5166 6.5157C97.442 6.25886 96.5499 6.09515 95.7074 5.94021C95.6204 5.92421 95.5359 5.90838 95.4489 5.89255C94.5418 5.72261 93.8807 5.55251 94.4573 5.15588C95.7272 5.12876 95.5508 5.03645 95.3321 4.92277C95.0985 4.79932 94.8152 4.6506 96.2765 4.53271C96.9848 4.53271 97.0593 4.67722 97.1364 4.82172C97.1662 4.87966 97.196 4.93743 97.2681 4.98594L97.7626 4.81599C97.9292 4.02273 97.1016 4.02274 96.11 4.19284C96.0603 4.20093 96.0081 4.20918 95.9559 4.21742C94.9121 4.38349 93.667 4.58121 92.7227 4.41936C92.2455 3.90534 93.7366 3.58416 94.9221 3.32833C95.1731 3.27393 95.4117 3.22257 95.6154 3.17289C95.941 2.99436 95.6502 2.71007 95.1482 2.56994C95.0538 2.53238 94.9096 2.5056 94.7058 2.49297C94.8649 2.50509 95.014 2.53238 95.1482 2.56994C95.4812 2.70131 95.2004 2.96539 94.6238 3.22964C93.9628 3.51293 92.8047 3.7962 91.9796 3.85279C93.3017 3.39957 93.2197 3.05953 92.6406 2.94635C92.0641 2.77725 91.0799 2.83234 90.5009 2.88876C90.4412 2.84177 90.384 2.79478 90.3269 2.74796C90.2225 2.6629 90.1206 2.57802 89.9964 2.49297C89.4993 2.15309 89.0048 1.81305 88.5922 1.64311C88.4804 1.59208 88.3735 1.54105 88.2667 1.49069C87.9013 1.31739 87.5534 1.15149 87.1036 1.01978C86.691 0.849846 86.2785 0.736504 85.8635 0.623154C84.9564 0.396629 84.4593 0.283279 83.7982 0.16993L83.3037 0.113342L82.9731 0.0565872C82.8489 0.0565872 82.7246 0.0424347 82.6004 0.0282898C82.4761 0.0141449 82.3519 0 82.2276 0H80.1624C79.7498 0 78.5918 0.0565872 77.7667 0.226692C77.3939 0.269135 77.1628 0.311569 76.9291 0.354179C76.8521 0.368324 76.7751 0.382469 76.693 0.396622C76.5265 0.424911 76.3824 0.453209 76.2383 0.481506C76.0941 0.509972 75.9475 0.538269 75.7834 0.566566C74.7919 0.793259 73.9643 1.01978 73.3877 1.24648L72.8907 1.41643L72.4781 1.58636C72.2296 1.69971 71.899 1.81305 71.6505 1.86964C70.6589 2.26627 69.7518 2.6629 68.9243 3.05953C67.2716 3.85279 65.7854 4.70265 64.2968 5.55251C60.6932 7.73692 57.2538 10.1479 54.0652 12.3845C52.2063 13.6864 50.4343 14.9295 48.7618 16.0344C51.324 16.1807 50.6207 16.645 49.4104 17.4427C48.379 18.1228 46.9774 19.0452 46.9227 20.2196C46.8929 20.2105 46.8606 20.2041 46.8233 20.2004L46.448 19.9439C46.5946 20.0628 46.6791 20.1445 46.7139 20.1965C46.6394 20.1976 46.5524 20.2051 46.4555 20.2183C46.0926 20.0967 45.4688 19.7996 45.193 19.6689C44.9967 19.5747 44.9792 19.567 45.3744 19.7738C45.5359 19.9175 45.7 20.0702 45.869 20.228C45.8988 20.256 45.9286 20.2841 45.9584 20.3124C45.444 20.429 44.8029 20.6181 44.1567 20.8081C41.6789 21.537 39.1614 22.2781 43.7218 18.9805L38.9278 22.1534C36.8725 22.5913 37.9809 21.6089 39.2782 20.4618C39.4919 20.2728 39.7106 20.0793 39.9194 19.8872C41.49 18.5273 42.7301 17.2808 39.2583 18.1307C36.9868 19.548 35.4584 21.0833 33.9126 22.6383C33.6045 22.9484 33.2963 23.2591 32.9782 23.5698C31.0795 25.3829 28.8478 27.2527 25.1299 28.6125C25.4455 27.3672 24.4017 28.0362 23.2287 28.7904L23.0622 28.8958C21.8246 29.6891 20.4179 30.4822 20.4179 29.2925C21.002 28.4522 22.1625 27.8097 23.435 27.1057C23.9643 26.8126 24.5136 26.5091 25.0454 26.1762L23.5592 26.5162C20.3359 28.046 18.6833 28.9524 17.8582 29.5757C17.0306 30.1989 17.0306 30.5955 17.1971 30.9356C17.2667 31.0511 17.3661 31.1618 17.468 31.276C17.9079 31.7674 18.4024 32.3227 16.9138 33.6087C16.8566 33.4961 16.7871 33.3615 16.7001 33.2019C16.7697 33.346 16.8417 33.4826 16.9088 33.6115C16.8616 33.6527 16.8119 33.6948 16.7597 33.7376C16.5062 33.408 16.2055 32.9753 16.2055 32.9753L14.8834 32.5219C14.2223 32.2954 13.5612 32.0687 13.6433 32.1255C13.7253 32.1255 13.7253 32.2954 13.7253 32.5787C13.7079 32.6424 13.688 32.7117 13.6681 32.788C13.5985 33.0516 13.5041 33.3986 13.3127 33.8818C13.1437 34.3685 12.8505 34.9595 12.438 35.6704C11.1009 36.0608 10.2882 36.0773 9.75885 35.9781C9.18478 35.8346 8.90646 35.5325 8.65546 35.2579C8.50882 35.0988 8.37213 34.9489 8.1882 34.845C7.52716 34.9016 6.37155 35.2416 5.21347 35.6948C4.15475 36.0579 3.23517 36.4685 2.64371 36.7963C5.27057 35.3666 10.7231 35.6728 9.34631 37.3945C8.18823 37.2246 6.95059 37.3379 5.71048 37.5646C4.55237 37.7912 3.39676 38.0744 2.48715 38.3577C1.57758 38.641 1.00101 38.9243 0.670471 39.151C0.416992 39.3241 0.260406 39.4973 0.128693 39.6451C0.0864258 39.6908 0.0466614 39.7342 0.0093689 39.7743C-0.0751038 40.0576 0.421936 40.3409 1.00101 40.5108C1.57758 40.6807 2.32312 40.6808 2.89969 40.6808C3.98077 40.6808 4.87045 40.509 5.68311 40.3523C5.80487 40.3291 5.92419 40.3062 6.04099 40.2841C6.90088 40.0697 7.76077 39.9062 9.11023 39.6494L9.34631 39.6042C9.54266 39.5668 9.7489 39.5282 9.96512 39.4882C9.9527 39.508 9.93784 39.5277 9.92542 39.5476C9.7092 39.9257 9.50784 40.2413 9.30652 40.5526C8.96606 41.0809 8.63553 41.5961 8.27271 42.3806C8.1037 42.5531 8.25528 42.1563 8.3696 41.8572C8.48145 41.5668 8.556 41.3684 8.27271 41.8706C8.19318 42.2427 7.84521 42.8389 7.45255 43.5077C7.00769 44.2614 6.51315 45.107 6.29199 45.827L6.28458 45.8385L5.95898 46.0067C5.78006 46.3245 5.87949 46.2309 5.98883 46.1265C6.11557 46.0047 6.25967 45.8686 5.99875 46.3503L5.87445 46.5733C5.92416 46.4874 5.96643 46.4135 5.99875 46.3503L6.28458 45.8385L6.28952 45.8368C6.28952 45.8336 6.28949 45.8302 6.29199 45.827L6.95056 44.6469C6.95056 44.9868 6.78406 45.4402 6.45355 46.1201C6.60266 45.9146 6.83627 45.5333 7.0798 45.1355C7.63898 44.2168 8.25531 43.2104 8.0242 44.0803L7.8577 44.1937C8.08633 44.1937 7.54208 45.3026 7.32587 45.7415C7.30847 45.7784 7.29352 45.8103 7.28107 45.8368L7.19659 45.78L6.95056 46.8566C7.11459 46.1201 6.04099 47.6499 6.28952 47.5931C6.32928 47.9375 6.37152 47.8023 6.44608 47.5626C6.51816 47.3293 6.62003 46.997 6.78406 46.9132C6.90335 46.8724 6.67969 47.3885 6.45355 47.9133C6.36407 48.1182 6.27457 48.3245 6.20499 48.4997H6.53555C6.32928 48.9529 6.28952 48.9246 6.2572 48.9034C6.22739 48.8822 6.20502 48.868 6.04099 49.3496C6.16525 49.2079 6.30939 49.0663 6.45355 48.9246C6.59769 48.783 6.74429 48.6413 6.86609 48.4997C6.42621 49.6546 6.60764 49.4482 6.83627 49.189C7.07736 48.9142 7.37308 48.5797 7.03262 49.7462C6.74185 50.0126 6.707 50.2398 6.65979 50.543C6.62747 50.7555 6.59021 51.0056 6.45355 51.3325L7.28107 51.3893C7.28107 51.6007 7.08725 51.8122 6.98285 51.9283C6.91824 51.9987 6.88596 52.0338 6.95056 52.0125C6.89587 52.4967 7.08978 52.124 7.25381 51.8117C7.34079 51.649 7.41782 51.5026 7.44516 51.5026C7.38052 51.7676 7.4675 51.8432 7.56693 51.9308C7.72348 52.0679 7.91235 52.2343 7.61166 53.2024C7.78561 53.8282 8.00433 53.2468 8.2106 52.7037C8.3945 52.2142 8.56842 51.7558 8.68524 52.2392C8.60571 52.732 8.48645 52.7882 8.38455 52.8362C8.27768 52.8874 8.1882 52.9293 8.1882 53.4856C8.28763 53.441 8.38452 53.4051 8.47647 53.3711C8.62061 53.3187 8.74991 53.2709 8.8493 53.2024C8.81949 53.2842 8.7847 53.3881 8.74741 53.5021C8.57593 54.0035 8.33978 54.7011 8.20312 54.5773C8.63553 55.0715 8.96359 56.0042 9.30161 56.9703C9.47308 57.4609 9.64951 57.9601 9.84088 58.4148C10.4199 59.7747 11.163 60.8512 12.1546 60.1713C12.3087 60.9066 12.177 61.0361 11.998 61.2148C11.8862 61.3255 11.7545 61.4548 11.66 61.7578C12.4031 60.9645 12.9001 61.6445 13.3947 62.4943C13.8918 63.3442 14.4683 64.3074 15.1294 64.2508V63.2876C16.121 64.8173 17.3611 65.0439 18.4347 65.0439C18.6857 65.0439 18.9392 65.0317 19.1952 65.0193C20.0477 64.9784 20.9349 64.9357 21.8246 65.3273L21.4096 64.704C21.4642 64.0638 21.6655 63.7741 21.8445 63.5186C21.9339 63.3898 22.0159 63.2696 22.0706 63.1176C22.1129 63.2303 22.1526 63.4166 22.1998 63.6259C22.339 64.2584 22.5254 65.1011 22.8982 64.7606C22.8485 64.6936 22.7963 64.6264 22.7441 64.5585C22.5304 64.2821 22.3042 63.9912 22.2371 63.6274C23.4772 64.7606 24.9634 65.044 26.5341 65.1006H28.8477C29.6729 65.1006 30.4184 65.1572 31.1615 65.2706C32.6154 64.5878 34.2854 64.3919 36.035 64.1864C36.1717 64.1703 36.3109 64.1539 36.45 64.1374C38.2667 63.9675 40.0859 63.7408 41.326 63.0043C40.911 63.2308 39.5888 60.9645 40.2499 61.3612C42.0691 63.0609 42.3176 62.7776 42.4816 62.3244C42.4915 62.2969 42.5015 62.269 42.5115 62.2412C42.6631 61.8085 42.8147 61.3696 44.1343 62.381C44.4027 61.6424 45.2203 61.6561 46.0504 61.6864C45.3843 62.3759 44.7183 63.0738 44.0523 63.7974C43.5975 64.3357 43.1228 64.8598 42.6481 65.3839C42.171 65.908 41.6963 66.432 41.2415 66.9703L39.9194 68.6134L39.2583 69.4067C39.2583 69.4067 39.0123 69.8033 38.8458 70.0298L38.5973 70.3699C38.5575 70.4547 38.5152 70.5256 38.4755 70.5964C38.4332 70.6673 38.391 70.738 38.3512 70.8231L38.2667 71.0498L38.1847 71.2197L38.1027 71.503C37.9362 71.8994 37.8542 72.2959 37.7722 72.6924L37.6902 72.9762V73.8826C37.6902 74.6193 37.9362 75.3558 38.2667 76.0357C38.4332 76.3756 38.5972 76.7156 38.8458 76.9989L39.0123 77.2254C39.0371 77.2598 39.0694 77.2992 39.1042 77.3423C39.1862 77.4417 39.2832 77.5602 39.3428 77.6788C39.4671 77.8205 39.6112 77.9621 39.7553 78.1037C39.8995 78.2454 40.0436 78.387 40.1679 78.5287C41.49 79.7184 43.4732 80.6816 45.3744 81.135C45.7869 81.2482 46.3661 81.3615 46.5301 81.3615C46.6543 81.3898 46.7587 81.404 46.8606 81.4183C46.965 81.4324 47.0693 81.4466 47.1911 81.4749C47.6061 81.5315 48.1006 81.5882 48.5977 81.5882C49.5048 81.6448 50.4964 81.5882 51.406 81.5316L51.7365 81.4749L52.2336 81.3615L52.6462 81.3049C52.7704 81.2766 52.9146 81.2482 53.0587 81.2199C53.2029 81.1916 53.3495 81.1633 53.4713 81.135C53.521 81.124 53.5706 81.1131 53.6228 81.1018C53.844 81.0543 54.0975 80.9997 54.2988 80.9083L54.7113 80.7949C54.9598 80.7384 55.1239 80.6816 55.3724 80.5684L56.5305 80.1718L56.7766 80.0584L57.1916 79.8885L57.5221 79.6052L59.5873 78.4719L61.5705 77.2822L59.5873 77.9053C59.2742 78.0125 58.9437 78.1194 58.5957 78.2324C58.2056 78.3587 57.793 78.4925 57.3556 78.642C58.1832 78.1886 58.6778 77.7922 59.1748 77.3955C59.6694 76.9989 60.0819 76.6589 60.4124 76.319C60.5789 76.1491 60.7653 75.9931 60.9517 75.8373C61.1356 75.6815 61.322 75.5257 61.4885 75.3558C61.5705 75.299 61.6526 75.2283 61.7346 75.1574C61.8191 75.0867 61.9011 75.0157 61.9831 74.9592L62.4801 74.6193C63.3052 74.1093 64.4633 73.5993 65.8675 73.1461C63.3872 75.5257 64.7939 74.8458 67.0231 73.5993L67.1176 73.5468C69.3443 72.3027 72.493 70.543 73.6337 70.7665C72.6421 71.503 71.5685 72.2963 70.4949 73.0328C75.1671 70.3348 75.1224 70.3133 73.7505 69.6493L73.7182 69.6333C76.4221 67.8612 77.9008 67.6765 79.2056 67.5134C79.4839 67.4786 79.7548 67.4447 80.0282 67.3965C79.0192 68.7695 77.9804 70.1881 76.9391 71.6729C76.6931 72.0128 76.4445 72.353 76.196 72.7495C76.0717 72.9477 75.9475 73.132 75.8257 73.316C75.7014 73.5001 75.5772 73.6844 75.4529 73.8826C74.9559 74.6191 74.4613 75.3558 74.0488 76.149C73.8425 76.5455 73.6139 76.9421 73.3877 77.3388C73.1591 77.7354 72.9329 78.132 72.7267 78.5287C72.5229 78.8542 72.3737 79.218 72.2371 79.5572C72.2072 79.6312 72.1774 79.7041 72.1476 79.7752L70.9895 82.3815L70.5769 83.7411L70.1644 85.1577L69.9979 85.8376L69.9159 86.5741L69.6674 88.0473L69.5854 88.7838L69.5033 89.1805V89.917C69.5033 90.436 69.6425 90.9076 69.7916 91.4186L69.8339 91.5601C69.9159 91.8434 69.9979 92.1267 70.0824 92.3533L70.2464 92.75C70.2837 92.7992 70.3036 92.8483 70.3359 92.9255C70.3756 93.0258 70.4378 93.1734 70.5769 93.4299C71.32 94.8463 72.6422 96.2627 74.2128 97.3959C74.6254 97.6792 75.0404 97.9624 75.4529 98.1891C75.5449 98.2392 75.6343 98.2919 75.7288 98.3461C76.0593 98.5379 76.4247 98.749 76.9391 98.9256C78.0972 99.4356 79.3373 99.8888 80.7415 100.229C82.1456 100.569 83.5497 100.795 84.8719 100.852C85.5329 100.909 86.3605 100.909 86.5245 100.909H87.4341C88.6743 100.852 89.9143 100.682 91.152 100.455C91.3185 100.427 91.4626 100.399 91.6068 100.371C91.7509 100.342 91.8976 100.314 92.0616 100.285L92.5587 100.172L93.2197 100.002C93.6322 99.8888 94.1268 99.7189 94.5418 99.549L95.5334 99.2089C95.946 99.039 96.2765 98.8691 96.607 98.6991L97.2681 98.3591C97.4247 98.2725 97.5464 98.2024 97.6508 98.1427C97.8198 98.046 97.9416 97.9759 98.0932 97.9058L98.4237 97.7359C98.466 97.7075 98.4859 97.7075 98.4983 97.7075C98.5008 97.7075 98.5032 97.7075 98.5032 97.7069C98.5082 97.7053 98.5082 97.6995 98.5082 97.6792L98.6722 97.6226C98.8387 97.5658 99.0028 97.5092 99.1693 97.3959C99.2115 97.3959 99.465 97.2842 99.7806 97.1454C100.059 97.0226 100.385 96.879 100.655 96.7727L102.395 95.9591C102.567 97.1946 103.059 98.4834 103.797 99.6056C103.961 99.8888 104.127 100.172 104.373 100.455L104.704 100.852C104.87 101.022 104.87 101.022 105.119 101.362C106.11 102.495 107.515 103.742 109.416 104.818C111.233 105.895 113.464 106.745 115.696 107.254C116.77 107.538 117.843 107.708 118.835 107.821C119.247 107.878 119.993 107.934 120.157 107.934L120.736 107.991C122.389 108.048 124.041 107.991 125.694 107.821C126.519 107.708 127.347 107.594 128.09 107.425C128.296 107.368 128.482 107.325 128.669 107.283C128.855 107.24 129.042 107.198 129.248 107.141L129.824 106.971C130.652 106.745 131.395 106.461 132.138 106.178L132.717 105.951L133.13 105.725L133.545 105.555C133.666 105.499 133.788 105.429 133.913 105.359C133.927 105.424 133.942 105.489 133.957 105.555C134.027 106.04 134.159 106.483 134.3 106.956C134.323 107.035 134.347 107.116 134.37 107.198C134.7 108.161 135.113 109.067 135.61 109.974L135.774 110.201L135.94 110.541C136.022 110.654 136.085 110.753 136.147 110.852C136.209 110.951 136.271 111.051 136.353 111.164C136.52 111.362 136.684 111.575 136.85 111.787C137.014 111.999 137.181 112.212 137.345 112.41C137.511 112.609 137.698 112.807 137.881 113.005C138.068 113.204 138.254 113.402 138.418 113.6L138.749 113.884L139.164 114.28C139.494 114.563 139.907 114.903 140.319 115.187C141.89 116.376 143.791 117.453 145.856 118.246C148.252 119.209 151.063 119.946 153.871 120.286C155.442 120.456 156.269 120.513 157.343 120.513C158.417 120.513 159.49 120.513 160.566 120.399C160.812 120.371 161.081 120.343 161.349 120.314C161.618 120.286 161.889 120.258 162.135 120.229L162.88 120.116L163.541 120.003L165.276 119.663C166.432 119.379 167.59 119.096 168.663 118.699C169.324 118.473 169.903 118.246 170.48 118.02C170.81 117.906 171.059 117.793 171.389 117.623C171.474 117.585 171.574 117.541 171.675 117.497C171.877 117.409 172.079 117.321 172.134 117.283L173.125 116.773C173.456 116.603 173.787 116.433 174.117 116.207L175.522 115.243L175.687 115.073L176.514 114.45L177.092 113.94C177.257 113.77 177.505 113.6 177.67 113.487C178.91 112.354 179.654 111.561 180.397 110.767C181.802 109.294 182.959 108.104 184.033 107.198L183.785 107.708C183.95 107.509 184.136 107.297 184.322 107.084C184.508 106.872 184.694 106.66 184.859 106.461C184.877 106.424 184.892 106.392 184.904 106.364C184.95 106.261 184.978 106.197 185.107 106.065V106.008C185.107 106.008 185.19 105.895 185.273 105.895L185.603 105.611L186.347 104.988C186.843 104.591 187.338 104.195 187.834 103.742C188.33 103.345 188.847 102.934 189.363 102.523C189.879 102.113 190.396 101.702 190.892 101.305ZM47.4222 61.6121C47.4843 62.0212 47.5515 62.3618 48.1007 62.2676L49.0078 60.947C48.9656 60.9292 48.9134 60.898 48.8438 60.8512L47.9366 59.888C48.2846 61.0048 47.9789 61.4477 47.4222 61.6121ZM49.1122 60.7953L49.2663 60.5696C49.2638 60.5691 49.2613 60.5686 49.2588 60.5679L49.0103 60.2846C48.9805 60.368 49.0277 60.5206 49.0724 60.6602C49.0873 60.7077 49.0997 60.7539 49.1122 60.7953ZM49.4452 60.5814L49.4228 60.6245C49.4551 60.606 49.4874 60.5874 49.5197 60.5689C49.4974 60.5748 49.4725 60.579 49.4452 60.5814ZM49.731 60.4468C51.3638 59.4892 52.6685 58.4992 53.7869 57.4929C53.5856 57.391 53.3743 57.2509 53.1407 57.0552C52.3852 56.9607 52.3156 57.7314 52.2659 58.2861C52.256 58.3973 52.246 58.4997 52.2336 58.5849C51.7813 58.2509 51.6496 58.4392 51.5228 58.6255C51.3464 58.8815 51.1724 59.1335 50.1659 58.0184L50.745 59.2081L50.2504 58.6415C50.3846 59.073 50.2504 58.9681 50.0591 58.819C49.9 58.6941 49.7011 58.5383 49.5893 58.6415L50.5809 59.7747C50.2082 59.6045 50.0839 59.8461 49.9497 60.1086C49.8875 60.2297 49.823 60.3554 49.731 60.4468ZM75.9326 38.1777C75.8655 38.0818 75.8381 38.0069 75.8654 37.9613C75.94 37.998 76.0096 38.0333 76.0767 38.0675C76.027 38.1046 75.9798 38.1413 75.9326 38.1777ZM77.3665 37.0638C77.3715 37.06 77.374 37.0562 77.379 37.0525C77.3715 37.054 77.3641 37.0546 77.3541 37.0546C77.3566 37.0577 77.3616 37.0607 77.3665 37.0638ZM77.4187 37.0228C77.5206 36.9421 77.6225 36.8611 77.7269 36.7796L77.5181 36.6014C76.6682 36.1482 76.872 36.3608 77.123 36.6262C77.2696 36.7806 77.4336 36.9529 77.4187 37.0228ZM77.8014 36.721C77.8238 36.7032 77.8462 36.6851 77.8685 36.6671C77.9481 36.6045 78.0276 36.5415 78.1096 36.4785C78.1071 36.478 78.1071 36.4775 78.1046 36.477C78.0251 36.4315 77.963 36.3955 77.9307 36.3747C77.4262 36.3747 77.5082 36.4598 77.8014 36.721ZM78.1966 36.4099C78.3333 36.3013 78.4725 36.1923 78.6116 36.083C78.2065 36.0497 77.8785 36.0551 78.1966 36.4099ZM79.0266 35.7571C79.1534 35.6594 79.2777 35.5618 79.4044 35.4644C79.1285 35.2734 78.8303 35.0728 78.5122 34.8623L78.0425 35.077C78.1841 35.1338 78.3383 35.1877 78.5097 35.2416C78.4153 35.2416 78.7036 35.4853 79.0266 35.7571ZM75.4106 11.5437C75.3709 11.5752 75.3287 11.6076 75.2864 11.6408C75.2094 11.6411 75.1025 11.6332 74.9559 11.615C74.772 11.4471 73.681 11.1545 73.3306 11.0605C73.3256 11.0589 73.3181 11.0573 73.3131 11.0558C73.3107 11.0538 73.3082 11.0518 73.3057 11.0498C73.6014 10.9868 73.927 10.9049 74.255 10.8227C74.3942 10.7874 74.5359 10.752 74.675 10.718L75.5349 10.9351C74.1308 10.7651 74.4613 10.9918 74.8739 11.2184C74.9062 11.2354 74.936 11.2525 74.9683 11.2697C75.1497 11.3686 75.3411 11.4713 75.4106 11.5437ZM76.2333 10.8125C76.1985 10.8519 76.1587 10.895 76.1115 10.9423C75.9326 10.9041 75.7039 10.8495 75.4653 10.7921C75.2814 10.7481 75.0901 10.7025 74.9112 10.6616C75.0031 10.64 75.0926 10.6194 75.182 10.6002L76.2333 10.8125ZM73.2982 11.0516C73.3032 11.053 73.3082 11.0543 73.3131 11.0558C73.4324 11.1565 73.4722 11.2426 73.5169 11.3337C73.6139 11.5453 73.7282 11.7836 74.8739 12.2949C74.2526 12.1428 73.7505 12.0152 73.3281 11.9077C72.5204 11.7021 72.001 11.57 71.4915 11.4809C71.6804 11.299 71.8717 11.117 72.0656 10.9351C72.0656 11.2419 72.5974 11.1998 73.2982 11.0516ZM71.2529 11.708C70.8155 12.1298 70.3831 12.5518 69.9556 12.9736C69.9904 12.988 70.0252 13.0019 70.06 13.0158C70.3706 13.1417 70.6316 13.2482 70.9895 13.3714L70.4949 13.0314L70.8254 13.2015C72.3116 13.598 71.817 13.2581 71.4045 12.9748C70.9075 12.6915 70.4949 12.4082 72.3116 12.8615L71.4865 12.5782C71.0094 12.3872 71.1262 12.3801 71.2355 12.3736C71.3548 12.3665 71.4666 12.3599 70.8254 12.125C71.7897 12.4222 71.8245 12.3345 71.8693 12.2319C71.8991 12.1587 71.9339 12.0776 72.3116 12.125C71.7972 11.9368 71.4691 11.8073 71.2529 11.708ZM69.5953 13.33C69.5257 13.3982 69.4586 13.4663 69.389 13.5345C69.5406 13.6024 69.7394 13.6965 69.9979 13.8247C70.6241 13.9677 70.3284 13.7952 70.0053 13.6057C69.8314 13.503 69.6475 13.3954 69.5953 13.33ZM67.7935 13.4292C67.2841 13.2659 66.9609 13.1793 67.6021 13.5414L67.7686 13.428C67.7761 13.4304 67.7836 13.4327 67.791 13.4351C67.6667 13.6655 67.5599 13.8851 67.4679 14.0968C67.3113 14.0322 67.1623 13.968 67.0305 13.9109C66.8988 13.8543 66.782 13.8046 66.6926 13.7681C67.1821 14.1583 67.0902 14.1645 66.9883 14.1714C66.8839 14.1784 66.7721 14.1861 67.2542 14.603C67.2542 14.6051 67.2517 14.6073 67.2517 14.6097L66.4465 14.2781L67.212 14.7082C67.2095 14.7195 67.2045 14.7306 67.1995 14.7417L65.4549 14.2213L66.5285 14.6179C66.5534 14.6671 66.6106 14.7261 66.6677 14.7833C66.8094 14.9236 66.9386 15.0548 66.5285 15.0146L65.3704 14.448C65.5568 14.701 65.1144 14.6151 64.6944 14.5332C64.6397 14.5224 64.5851 14.5118 64.5304 14.5021C65.9221 13.2659 67.3586 12.2422 68.5117 12.2949C68.2781 12.6146 68.0867 12.913 67.9227 13.1951L67.6021 12.9748C67.6021 13.0045 67.6021 13.0291 67.6096 13.0521C67.6295 13.1064 67.6916 13.1539 67.8954 13.2441C67.8606 13.3066 67.8258 13.3683 67.7935 13.4292ZM64.2595 14.7463C64.2446 14.7601 64.2297 14.7739 64.2148 14.7879H64.175C64.2744 14.8387 64.3738 14.8808 64.4633 14.9012C64.3813 14.8428 64.3142 14.7912 64.2595 14.7463ZM64.1005 14.7879C64.1999 14.893 64.0582 14.8743 63.8395 14.8153L63.8842 14.7879H64.1005ZM63.2828 15.1604L63.253 15.1796L63.5537 15.2978L63.2828 15.1604ZM62.2639 15.7915L61.9235 16.0027C62.1968 16.0015 62.3459 15.9451 62.2639 15.7915ZM58.0316 17.277C57.8651 17.4451 57.6986 17.6148 57.542 17.7794C57.2314 17.5892 57.1692 17.5362 57.1071 17.4508C57.0748 17.4508 57.0251 17.444 56.9729 17.4368C56.7617 17.4078 56.4957 17.3715 57.0251 17.7341L56.1925 17.2389C56.2298 17.2138 56.2646 17.1886 56.3019 17.1635C56.7294 16.8717 57.1443 16.588 57.5221 16.3176C57.6812 16.2445 57.8253 16.1794 57.9595 16.1218C58.1609 16.3761 58.3571 16.6459 58.4441 16.8556C58.3298 16.9731 58.2105 17.0947 58.0887 17.2178C58.0216 17.2077 57.9421 17.1912 57.8527 17.1675C57.8999 17.201 57.9645 17.2396 58.0316 17.277ZM58.8244 16.4492C58.7622 16.5174 58.6976 16.5891 58.6281 16.6634C58.474 16.5642 58.377 16.4716 58.2751 16.3761C58.1882 16.2937 58.1012 16.2092 57.972 16.1165C58.0366 16.0888 58.0962 16.0626 58.1559 16.0384C58.2254 16.0815 58.2975 16.1243 58.3671 16.1666C58.5261 16.2631 58.6802 16.3576 58.8244 16.4492ZM58.9934 16.2501C58.9785 16.2685 58.9635 16.2872 58.9461 16.3062C58.6578 16.1842 58.4541 16.0793 58.2876 15.9847C58.3621 15.9559 58.4292 15.9299 58.4914 15.907L58.9934 16.2501ZM59.1524 16.0251C59.1425 16.0421 59.1301 16.0598 59.1201 16.0781L58.6628 15.8481C58.9138 15.7677 59.0679 15.7462 59.1475 15.7715C59.0704 15.8186 59.0605 15.8989 59.1524 16.0251ZM55.6955 17.5794C56.0633 17.795 56.3317 17.9872 56.2 18.0173C55.8869 17.8627 55.6656 17.7625 55.5141 17.7044C55.5762 17.6627 55.6359 17.621 55.6955 17.5794ZM55.3277 17.8346C55.2208 17.9099 55.114 17.9855 55.0071 18.0613C55.0841 18.1388 55.1985 18.2376 55.3724 18.3574C56.0161 18.5913 55.7402 18.2888 55.4818 18.0076C55.4271 17.9471 55.3724 17.8877 55.3277 17.8346ZM54.8853 18.1499C54.5001 18.4271 54.1298 18.7065 53.7968 18.9837C53.7993 18.9827 53.8018 18.9817 53.8018 18.9807C54.5026 19.4104 54.4628 19.2987 54.4106 19.149C54.3435 18.963 54.2566 18.7183 55.539 19.3772L54.7934 18.244L55.7029 18.754C55.5464 18.6336 55.3724 18.5069 55.2084 18.3867C55.0916 18.3033 54.9822 18.223 54.8853 18.1499ZM53.7769 18.9996C53.6452 19.1094 53.5184 19.2189 53.3991 19.3278L53.5557 19.4339L53.6377 19.264L53.8018 19.3772C54.5623 19.837 54.5498 19.7662 54.5324 19.6851C54.52 19.6162 54.5051 19.5397 54.9599 19.7738C54.9599 19.5859 54.5299 19.3977 54.187 19.248C53.9435 19.1409 53.7421 19.0535 53.7769 18.9996ZM53.1606 19.1633C53.1805 19.1405 53.2003 19.1175 53.2252 19.0939C53.2003 19.1146 53.1755 19.1353 53.1506 19.1562L53.1606 19.1633ZM53.0637 19.2291C53.0711 19.2355 53.0811 19.2419 53.091 19.2485C52.9643 19.4144 52.912 19.5577 52.8673 19.6989L52.6735 19.5658C52.8002 19.4531 52.932 19.341 53.0637 19.2291ZM52.6487 19.5864C52.6288 19.6059 52.6064 19.6253 52.584 19.6448C52.6237 19.6366 52.6461 19.6179 52.6487 19.5864ZM35.3019 27.8164C36.1816 28.6065 36.4848 29.1505 35.953 28.8392C35.6498 28.4744 35.3118 28.1696 34.9539 27.886C35.0832 27.8516 35.1975 27.8292 35.3019 27.8164ZM34.8918 27.9026C34.765 27.9389 34.6234 27.986 34.4668 28.046L34.6731 28.5363C34.8818 28.6513 35.0111 28.6887 34.9614 28.556L35.2919 28.9526C35.871 29.2925 35.7889 28.8392 35.2099 28.1593C35.1006 28.0633 34.9962 27.9794 34.8918 27.9026ZM30.9702 29.8723C30.831 29.7987 30.6272 29.7688 30.3339 29.8023C30.3116 29.823 30.2892 29.8439 30.2643 29.8649C30.4731 29.8419 30.7018 29.8365 30.9702 29.8723ZM27.1752 31.7229C27.0559 31.7866 26.9366 31.8498 26.8199 31.9122C26.9739 31.9826 27.128 32.0547 27.2771 32.1255C27.379 32.1255 27.292 31.9501 27.1901 31.7494C27.1852 31.7406 27.1802 31.7319 27.1752 31.7229ZM24.1333 33.9771C24.1159 33.9823 24.101 33.9877 24.0861 33.9931C24.1284 34.0475 24.1731 34.1048 24.2203 34.1651C24.1905 34.1007 24.1607 34.0381 24.1333 33.9771ZM52.9593 19.7629C53.0686 19.6448 53.1879 19.5257 53.3171 19.4058C53.7719 19.7194 54.3088 20.0588 54.7934 20.3404C54.4256 20.2024 54.274 20.2045 54.1373 20.2063C53.936 20.209 53.762 20.2114 52.9767 19.7738L52.9593 19.7629ZM68.4521 14.4674C68.5043 14.482 68.5515 14.4947 68.5937 14.5046C68.5465 14.4776 68.5117 14.4536 68.4894 14.4322C68.4769 14.4438 68.4645 14.4556 68.4521 14.4674ZM68.8572 14.0647C68.9044 14.0172 68.9516 13.9697 68.9988 13.9222C69.4213 14.1251 69.7121 14.304 69.6674 14.3346C69.4959 14.2952 69.1231 14.1733 68.8572 14.0647ZM78.9645 34.6557C79.1882 34.7788 79.4218 34.9154 79.6678 35.0717C79.638 35.092 79.5858 35.105 79.5337 35.1187C79.4392 35.1429 79.3373 35.169 79.3373 35.2416L79.5337 35.3644C79.9387 35.0498 80.3488 34.7378 80.7563 34.4347C80.6669 34.3675 80.5526 34.2794 80.4109 34.1651L80.7415 34.3917C80.9626 34.3917 80.7017 34.2136 80.3562 33.9938C79.889 34.2206 79.4218 34.4429 78.9645 34.6557ZM80.9105 33.7229L81.3951 33.9671C81.4547 33.9229 81.5168 33.8787 81.579 33.8348C81.4398 33.7598 81.2982 33.6817 81.1565 33.6024C81.0745 33.6426 80.9925 33.6829 80.9105 33.7229ZM83.6143 32.3837C83.6467 32.399 83.6815 32.4141 83.7137 32.4291C83.8256 32.3636 83.9374 32.3 84.0468 32.2387L84.0542 32.1651C83.9076 32.2376 83.761 32.3106 83.6143 32.3837ZM82.0164 33.5262C81.907 33.5013 81.8101 33.4851 81.733 33.4851C81.7877 33.5341 81.8399 33.5774 81.8871 33.6158C81.9319 33.5857 81.9741 33.5559 82.0164 33.5262ZM86.3008 19.9623C86.3357 19.9346 86.3705 19.907 86.4027 19.8794C88.1151 20.4894 88.3313 20.3742 88.5177 20.2759C88.6369 20.2127 88.7438 20.1565 89.226 20.3047C89.0097 20.4808 88.796 20.658 88.5798 20.8364C87.7796 20.5839 86.7258 20.2344 86.3008 19.9623ZM84.1015 22.1785C84.0567 22.1526 84.012 22.1253 83.9648 22.0968C84.0219 22.1235 84.0816 22.1504 84.1437 22.1775C84.1288 22.1778 84.1164 22.1782 84.1015 22.1785ZM85.8163 21.9784C85.8859 21.9606 85.9579 21.941 86.0324 21.9197C85.933 21.8738 85.8461 21.8353 85.7815 21.8136L85.8163 21.9784ZM87.7746 21.2635C87.9809 21.1729 88.1971 21.0732 88.4257 20.9637C88.463 20.9325 88.5003 20.9016 88.5376 20.8706C87.4987 20.6328 86.9172 20.5706 87.6826 21.1904C87.715 21.213 87.7473 21.2376 87.7746 21.2635ZM89.5615 20.0303C89.7603 19.8666 89.9591 19.7037 90.1579 19.5419C89.8994 19.4782 89.4123 19.316 88.5077 18.9807C88.5674 19.0624 88.6047 19.1387 88.6395 19.215C88.7438 19.4385 88.8482 19.663 89.5615 20.0303ZM90.7568 19.0536C90.9805 18.8723 91.2017 18.6919 91.4204 18.5127C91.3955 18.5059 91.3732 18.4992 91.3483 18.4925C90.2996 18.1912 89.1688 17.867 89.1688 18.0173C90.2747 18.4236 90.399 18.6098 90.5257 18.7986C90.5779 18.8776 90.6326 18.9573 90.7568 19.0536ZM92.663 18.5255C93.0581 18.5352 93.3788 18.4903 93.7043 18.4445C94.01 18.4014 94.3206 18.3574 94.7058 18.3574L92.8742 17.5949C92.8842 17.5611 92.8917 17.5274 92.9016 17.4937L93.5502 17.6209C93.3788 17.5537 93.2346 17.4814 93.093 17.4088C93.0432 17.3837 92.9935 17.3587 92.9413 17.3337C92.9513 17.297 92.9612 17.2605 92.9712 17.2242C92.9413 17.2504 92.9091 17.2765 92.8792 17.3027C92.5909 17.1665 92.2505 17.036 91.649 16.941L91.8976 16.8276C90.2772 16.3562 90.3492 16.305 90.4661 16.2221C90.5456 16.1656 90.6475 16.0943 90.2449 15.8644C90.7395 15.921 91.4005 16.1477 91.731 16.261C91.7783 16.1967 92.2505 16.3148 92.832 16.4601C93.2619 16.5676 93.7515 16.69 94.1715 16.7643C93.8857 16.7089 93.2371 16.4766 92.4543 16.196C91.7907 15.9582 91.0302 15.6855 90.312 15.4568C90.6226 15.263 90.9283 15.0695 91.2265 14.879C92.2679 15.1402 93.2271 15.3005 93.3017 15.0712C93.4036 15.2815 93.9802 15.5352 94.502 15.7652C94.8251 15.9069 95.1284 16.0397 95.2849 16.1477C95.4489 16.0911 95.6975 16.0911 96.6891 16.4876C96.4132 16.2166 96.0603 16.0882 95.7596 15.9784C95.4315 15.8587 95.1631 15.761 95.1184 15.5245C96.8382 15.9613 97.7254 16.095 98.4561 16.0554C98.1454 16.4667 97.3277 17.0328 96.3585 17.5641C95.1184 18.244 93.5502 18.924 92.5587 19.1505C92.5711 19.0481 92.5884 18.9442 92.6058 18.8392C92.6456 18.8493 92.6854 18.8588 92.7227 18.8674L92.6083 18.8152C92.6257 18.7193 92.6431 18.6225 92.663 18.5255ZM91.413 14.0621C91.8404 13.8257 92.1511 13.6325 92.412 13.4546C92.3722 13.4521 92.33 13.4496 92.2902 13.4469C91.997 13.4285 91.7062 13.4104 91.413 13.3775C91.2862 13.5134 91.1446 13.6589 90.9905 13.8144C91.1122 13.8951 91.244 13.9786 91.413 14.0621ZM90.1952 14.5972C90.2349 14.6088 90.2747 14.6205 90.3145 14.6319C90.2126 14.6823 90.1057 14.7341 89.9964 14.7879C90.0634 14.723 90.1306 14.6595 90.1952 14.5972ZM89.7975 14.4768C89.6534 14.641 89.472 14.8377 89.2533 15.0712C89.226 15.0803 89.1887 15.0973 89.1415 15.1215C88.7264 15.0201 88.3636 14.9578 88.0952 14.9578C86.9395 14.6745 86.2785 14.2781 86.7731 14.2781L89.3353 14.8446L86.7731 14.0514C86.6314 13.8885 87.116 13.9316 87.618 13.9762C87.9883 14.0091 88.3686 14.0428 88.5077 13.9946C88.5375 14.0526 89.0818 14.2551 89.7975 14.4768ZM90.3865 13.4552C90.4611 13.3991 90.5382 13.3416 90.6152 13.2822C90.6276 13.2728 90.64 13.2632 90.6549 13.2537C90.3642 13.1892 90.0635 13.1005 89.7479 12.9748C88.5923 12.7483 88.5922 13.0314 89.2533 13.2015C89.7975 13.2568 90.133 13.3457 90.3865 13.4552ZM91.7261 11.7268C91.7708 11.649 91.818 11.5697 91.8677 11.489L90.9059 11.445L91.7261 11.7268ZM91.5322 13.2504C91.8105 13.3453 92.1262 13.3977 92.4418 13.4338C92.5885 13.3336 92.7177 13.2381 92.8444 13.1421C92.4145 13.1064 91.9572 13.0749 91.6764 13.0915C91.6292 13.1429 91.5819 13.1958 91.5322 13.2504ZM93.0208 13.0068C93.0432 12.9895 93.0656 12.972 93.0904 12.9544L93.1352 12.9181C93.2396 12.8266 93.3489 12.7333 93.4682 12.6354C93.4707 12.6356 93.4682 12.6353 93.4682 12.6354C92.9339 12.5352 92.8842 12.6115 92.832 12.6915C92.7972 12.7473 92.7624 12.8049 92.5587 12.8049C92.6854 12.9071 92.8419 12.9681 93.0208 13.0068ZM92.6978 17.4541L92.3921 17.3942L92.6456 17.4991C92.663 17.4841 92.6804 17.4691 92.6978 17.4541ZM218.182 95.9949C218.078 96.0061 218.018 96.0125 217.997 96.0145L218.007 96.0128C218.045 96.0083 218.145 95.997 218.3 95.9795H218.326C218.271 95.9853 218.223 95.9906 218.182 95.9949ZM300.133 110.767C300.048 110.748 300.043 110.745 300.103 110.757L300.133 110.767ZM304.843 111.787L304.877 111.764C305.999 112.006 306.455 112.112 304.843 111.787ZM357.389 64.9011C356.655 65.7068 355.821 66.4306 354.773 66.9177C355.29 66.5287 355.807 66.1329 356.324 65.7238C356.687 65.4553 357.041 65.1803 357.389 64.9011ZM363.43 60.0579C363.337 60.0446 363.246 60.0355 363.157 60.0303C363.466 59.7603 363.776 59.4893 364.085 59.2173C363.865 59.4974 363.647 59.7777 363.43 60.0579ZM375.006 53.3597C375.077 53.326 375.147 53.2925 375.218 53.2589C375.17 53.2231 375.14 53.186 375.426 53.1606L375.555 53.0998C375.471 53.0762 375.363 53.0664 375.243 53.0651C375.094 53.1688 374.944 53.2701 374.793 53.3677C374.878 53.3657 374.948 53.363 375.006 53.3597ZM400.285 38.981C400.157 39.0412 400.03 39.1006 399.905 39.1586C399.389 39.2243 398.96 39.2399 398.797 39.151C399.856 38.9932 400.421 38.8662 400.727 38.7589C400.621 38.812 400.514 38.8657 400.407 38.9192L400.285 38.981ZM374.526 52.878C374.342 52.7773 374.234 52.6651 375.222 52.6013C375.281 52.5701 375.341 52.5362 375.403 52.4999L374.52 52.2275C374.206 52.4059 373.892 52.5851 373.579 52.765C373.818 52.9066 374.116 52.9758 374.526 52.878ZM387.972 29.2925C387.849 29.504 387.622 29.6445 387.351 29.761C387.314 29.635 387.275 29.5089 387.234 29.3827C387.471 29.2962 387.601 29.3002 387.729 29.3041C387.804 29.3064 387.878 29.3086 387.972 29.2925ZM387.559 29.1791C387.483 29.2054 387.353 29.268 387.219 29.3391L387.202 29.2886C387.333 29.2434 387.454 29.2062 387.559 29.1791ZM386.961 28.4488C386.937 28.4633 386.914 28.4778 386.89 28.4923L386.859 28.4217C386.903 28.4207 386.97 28.4094 387.064 28.3858C387.029 28.4071 386.994 28.428 386.961 28.4488ZM387.252 27.9764C387.06 28.1234 386.887 28.2551 386.821 28.3365C386.804 28.2984 386.786 28.2599 386.768 28.2208L387.972 27.3095C387.901 27.4808 387.552 27.7472 387.252 27.9764ZM386.897 27.809C386.816 27.8683 386.736 27.9276 386.657 27.9865C386.492 27.6468 386.299 27.2807 386.083 26.9229C386.149 26.8682 386.218 26.8109 386.288 26.7527C386.978 26.1765 387.786 25.5015 387.725 26.1763C386.867 26.5962 386.827 26.8605 386.796 27.0614C386.785 27.1316 386.776 27.1941 386.733 27.2527C387.245 26.6909 387.408 26.7603 387.596 26.8403C387.711 26.8893 387.835 26.9423 388.055 26.8562C387.791 27.15 387.344 27.4799 386.9 27.8063L386.897 27.809ZM374.8 52.0692L374.861 52.0345C374.965 52.0456 375.067 52.0571 375.164 52.0692H374.8ZM374.362 53.6692L374.308 53.6667C374.181 53.7413 374.053 53.8134 373.925 53.8821C374.07 53.8109 374.216 53.7398 374.362 53.6692ZM77.0285 81.811L77.0236 81.8149C75.0155 80.2856 75.612 80.7358 77.0285 81.811ZM82.8067 86.2341C82.8887 86.2936 82.9185 86.3138 82.9036 86.3003L82.8887 86.2909L82.8067 86.2341ZM100.822 89.2697C103.059 89.2507 101.938 89.2669 100.822 89.2825V89.2697ZM79.9139 66.0638C80.4383 65.3972 81.3677 64.5917 82.5805 63.8986C81.8474 64.9243 81.0794 65.9672 80.2941 67.037L80.1326 67.2552C79.2553 67.2975 79.3423 66.736 79.9139 66.0638ZM84.2108 64.0241C84.3798 63.9074 84.5513 63.79 84.7252 63.6721C84.6035 63.7671 84.4369 63.8833 84.2108 64.0241ZM137.583 41.0253C137.437 40.4916 137.615 41.1117 137.742 41.5554C137.871 41.9992 137.944 42.2661 137.583 41.0253ZM111.116 23.1683C111.158 23.4366 111.17 23.5454 111.026 22.6907C111.004 22.4728 111.076 22.9002 111.116 23.1683ZM103.136 96.0928C103.103 95.9379 103.083 95.7831 103.066 95.6283L103.203 95.5594C103.225 95.7396 103.257 95.918 103.3 96.0928C103.63 97.5092 104.291 98.9824 105.283 100.229C105.33 100.277 105.39 100.351 105.469 100.452C105.673 100.708 106.011 101.132 106.605 101.702C107.266 102.382 108.176 103.062 109.167 103.685C111.15 104.932 113.713 105.951 116.19 106.518C117.431 106.801 118.586 106.971 119.744 107.028C120.323 107.084 120.736 107.084 121.23 107.084C122.138 107.084 123.132 107.084 124.123 107.028C125.115 106.971 126.024 106.801 126.934 106.631C127.14 106.584 127.332 106.547 127.518 106.511C127.774 106.461 128.015 106.414 128.256 106.348C128.751 106.235 129.081 106.121 129.081 106.121C129.578 106.008 129.991 105.838 130.403 105.668C130.61 105.583 130.838 105.498 131.064 105.413C131.293 105.328 131.519 105.243 131.726 105.158L132.469 104.818C132.635 104.733 132.779 104.663 132.923 104.592C133.068 104.521 133.214 104.45 133.378 104.365L133.686 104.184C133.696 104.243 133.709 104.301 133.719 104.359L133.46 104.535C133.378 104.591 133.276 104.648 133.172 104.705C133.07 104.761 132.966 104.818 132.884 104.875C132.841 104.903 132.779 104.932 132.717 104.96C132.655 104.988 132.593 105.016 132.553 105.045L132.387 105.158C132.223 105.215 132.056 105.271 131.974 105.385C131.313 105.668 130.57 105.951 129.742 106.235C129.66 106.263 129.556 106.291 129.454 106.32C129.35 106.348 129.248 106.376 129.163 106.405L128.669 106.574L128.09 106.745C127.883 106.801 127.677 106.844 127.471 106.886C127.265 106.929 127.058 106.971 126.85 107.028C125.115 107.368 123.214 107.481 121.315 107.481H120.323L119.908 107.425C119.811 107.414 119.71 107.404 119.61 107.393C118.609 107.289 117.483 107.172 116.357 106.915C113.877 106.405 111.232 105.385 109.167 104.082C108.176 103.458 107.266 102.722 106.523 102.042L105.531 101.022C105.449 100.937 105.387 100.852 105.325 100.767C105.263 100.682 105.201 100.597 105.119 100.512C104.622 99.8888 104.209 99.1523 103.879 98.4158C103.548 97.6792 103.3 96.8859 103.136 96.0928ZM133.314 102.539C133.348 102.735 133.388 102.933 133.435 103.126C133.266 103.208 133.117 103.276 132.966 103.345C132.891 103.379 132.824 103.413 132.762 103.445C132.613 103.521 132.479 103.589 132.305 103.628C132.056 103.742 131.892 103.798 131.726 103.855C131.532 103.921 131.368 103.988 131.231 104.043C131.134 104.082 131.052 104.115 130.982 104.138L130.155 104.422C129.742 104.535 129.494 104.591 129.66 104.535C129.725 104.491 129.991 104.377 130.418 104.195L130.423 104.193C130.543 104.142 130.674 104.086 130.816 104.025C130.982 103.968 131.146 103.855 131.313 103.742C131.353 103.714 131.395 103.699 131.437 103.685C131.477 103.671 131.519 103.657 131.562 103.628C131.726 103.515 131.892 103.402 132.138 103.288C132.429 103.118 132.593 103.005 132.727 102.913C132.861 102.821 132.966 102.75 133.13 102.665L133.314 102.539ZM106.523 83.9112C106.483 83.8838 106.491 83.8861 106.528 83.907L106.523 83.9112ZM141.898 99.9395C141.902 99.9367 141.907 99.9331 141.912 99.9288L141.972 99.9456H141.89C141.89 99.9456 141.893 99.9434 141.898 99.9395Z" fill="#154F46" fill-opacity="0.5"/>
</svg>
