<svg width="148" height="117" viewBox="0 0 148 117" fill="none" xmlns="http://www.w3.org/2000/svg">
<path fill-rule="evenodd" clip-rule="evenodd" d="M80.7334 24.4007C80.5069 24.8679 80.2776 25.3302 80.0454 25.789L80.0055 25.54C79.9934 25.4757 79.9863 25.429 79.9781 25.3745C79.9663 25.2974 79.9522 25.2041 79.9181 25.0221C79.8308 24.5041 79.7434 24.0381 79.6269 23.5202L79.5396 23.1577C79.525 23.1318 79.5104 23.067 79.4886 22.9699C79.4667 22.8727 79.4377 22.7433 79.394 22.5879C79.2484 22.07 79.1028 21.5522 78.9281 21.086C78.8408 20.8531 78.7461 20.62 78.6514 20.3869C78.5568 20.1539 78.4622 19.9208 78.3749 19.6877C78.2292 19.3252 77.938 18.8073 77.7051 18.393C77.4431 17.9787 77.181 17.5643 76.8898 17.2019C76.5986 16.8394 76.3074 16.4768 76.0162 16.166C75.725 15.8553 75.4339 15.5964 74.968 15.2856C74.0944 14.6642 73.1335 14.3535 72.1726 14.3017C71.7067 14.3017 71.2116 14.3535 70.9787 14.4053C70.6875 14.457 70.3673 14.5606 70.0761 14.716C69.4646 14.9749 68.8822 15.3892 68.329 15.8553C68.227 15.959 68.1543 16.0236 68.0888 16.082C68.0233 16.1401 67.9649 16.192 67.8922 16.2696C67.8339 16.3474 67.7684 16.412 67.7029 16.4768C67.6374 16.5415 67.5719 16.6063 67.5137 16.684C67.4361 16.7875 67.3552 16.8853 67.2743 16.983C67.1126 17.1787 66.9506 17.3745 66.8148 17.6162C66.7663 17.6852 66.7275 17.7427 66.6951 17.7906C66.6304 17.8865 66.5916 17.9441 66.5527 17.9787L66.4072 18.2377C66.3489 18.3153 66.298 18.4059 66.247 18.4966C66.196 18.5873 66.1451 18.6778 66.0868 18.7556C66.0432 18.8592 65.9922 18.9497 65.9413 19.0404C65.8903 19.131 65.8393 19.2217 65.7956 19.3253L65.6501 19.636C65.6193 19.709 65.5849 19.7819 65.5495 19.8572C65.4842 19.9956 65.4155 20.1416 65.3589 20.3092L65.1842 20.7754L65.0095 21.1896L64.8056 21.7594C64.6538 22.198 64.5639 22.5046 64.4874 22.7654C64.4466 22.9049 64.4094 23.0313 64.3689 23.1577L64.1359 23.9862L63.8738 25.0221C63.8593 25.048 63.852 25.0739 63.8447 25.0997C63.8375 25.1256 63.8302 25.1516 63.8156 25.1775C63.8045 25.1972 63.7976 25.217 63.7918 25.234C63.7822 25.2612 63.7754 25.2811 63.7573 25.2811L63.7283 25.3328L63.67 25.4881L63.6415 25.5897C63.5981 25.5385 63.594 25.5345 63.6409 25.5917L63.6415 25.5897C64.0289 26.0476 67.5503 30.2773 65.7956 28.1811H65.7666L65.5627 28.0777L63.8156 27.1454L63.3788 26.8864L63.175 26.7828L63.1459 26.8864C62.942 27.3526 62.7455 27.8317 62.5489 28.3108C62.5149 28.3937 62.4809 28.4767 62.4467 28.5597C62.4275 28.5371 62.4082 28.5144 62.3888 28.492C61.69 27.7151 60.9037 27.1454 60.0594 26.7311C59.2149 26.3686 58.3705 26.265 57.6134 26.3168C57.4533 26.3419 57.3244 26.363 57.2196 26.381C56.7039 24.8534 55.9512 23.1731 54.9054 21.7075C54.4526 20.997 53.8781 20.3925 53.2742 19.8966C53.2937 19.702 53.3133 19.4942 53.333 19.2734C53.3621 19.0145 53.3912 18.6002 53.3912 18.2894C53.4204 17.9787 53.4204 17.6162 53.4204 16.9947C53.4204 16.3732 53.4204 16.1662 53.3912 15.1821C53.383 15.043 53.3759 14.9164 53.3693 14.7973C53.3289 14.0739 53.3042 13.6306 53.1292 12.3855C52.9253 11.0389 52.7506 10.0031 52.0809 7.98336C51.5859 6.42967 50.5958 4.35811 49.4019 2.908C48.3828 1.56149 46.7522 0.525698 45.9077 0.31854C44.7722 -0.0439877 43.9859 -0.0439877 43.4035 0.0595933C42.8022 0.138831 42.5074 0.248374 42.1935 0.365042C42.0971 0.400879 41.999 0.437389 41.8894 0.473902C41.3944 0.68106 41.2488 0.784637 40.9576 0.991795C40.8663 1.05679 40.7864 1.1116 40.7143 1.161C40.5568 1.26906 40.4369 1.35129 40.317 1.45791C40.1423 1.56149 39.9385 1.76864 39.8511 1.87222L39.5017 2.18294L39.2397 2.4419C39.1038 2.57999 39.0197 2.67205 38.9355 2.76411C38.8935 2.81016 38.8515 2.85622 38.8028 2.908C38.337 3.47769 38.0749 3.8402 37.8711 4.15093C37.6673 4.46167 37.4926 4.72061 37.3469 4.92778C37.0558 5.39375 36.852 5.75621 36.6483 6.11862C36.5768 6.24584 36.5122 6.36702 36.4512 6.48149C36.3385 6.6932 36.2374 6.88308 36.124 7.05116C35.9011 7.44753 35.7065 7.84389 35.5204 8.22282C35.4391 8.38836 35.3592 8.55101 35.2796 8.70842L34.5807 10.1067L34.2895 10.6764L34.1439 10.9354C32.4842 13.8874 30.8827 16.8394 29.3103 19.7396C28.5242 21.1895 27.7377 22.6401 26.9808 24.1417C26.7915 24.5301 26.5949 24.9056 26.3984 25.2811C26.202 25.6564 26.0052 26.0322 25.816 26.4203C25.6716 26.7169 25.5185 27.0212 25.3602 27.3357C25.1041 27.8449 24.8339 28.3819 24.564 28.9581C23.7486 30.6671 23.0207 32.3762 22.3509 33.9816C22.2296 34.2819 22.1092 34.5789 21.9899 34.8729C21.6403 35.735 21.3003 36.5736 20.9744 37.4035C20.9204 37.0741 20.8649 36.7277 20.8076 36.3639C20.7205 35.9653 20.66 35.6236 20.5987 35.278C20.5168 34.8152 20.4336 34.3452 20.2835 33.7226C20.2835 33.5368 20.3753 33.8817 20.4413 34.1295C20.504 34.3651 20.5434 34.513 20.4582 34.0333C20.3671 33.7556 20.2644 33.2399 20.1474 32.6527C20.0027 31.9261 19.8361 31.09 19.6429 30.4599L19.672 30.2009C19.6239 29.9232 19.6254 30.0068 19.6275 30.1173C19.6302 30.2667 19.6338 30.4648 19.5173 29.8872L19.8467 31.5475C19.7665 31.3692 19.7001 31.1419 19.6096 30.8317C19.5686 30.6913 19.5226 30.5338 19.4682 30.3563C19.4987 30.61 19.5827 31.06 19.6641 31.4958C19.8153 32.3062 19.9574 33.0677 19.7303 32.4279V32.3243C19.6915 32.3933 19.562 31.887 19.4541 31.465C19.4003 31.2541 19.3517 31.0641 19.3226 30.9777H19.3517L19.0605 30.1492C19.2644 30.7188 19.0314 29.2169 19.0023 29.3724C18.8757 29.1723 18.9054 29.262 18.9633 29.4375C19.0253 29.6255 19.1198 29.9117 19.0897 30.0456C19.0605 30.1492 18.8276 29.2169 18.7111 28.699L18.6238 28.8026C18.5218 28.4142 18.5436 28.4142 18.5583 28.4142C18.5728 28.4142 18.5801 28.4142 18.4491 28.0258L18.5364 28.958C18.2534 27.9765 18.2729 28.1935 18.2976 28.4679C18.3238 28.7583 18.3557 29.113 18.0414 28.1811C18.0241 27.8754 17.9562 27.6959 17.8675 27.4617C17.8059 27.2992 17.7344 27.1103 17.6628 26.8347L17.4008 27.1454C17.316 26.9571 17.293 26.6865 17.2867 26.6127C17.2856 26.6004 17.285 26.5935 17.2847 26.5936C17.2843 26.5936 17.2843 26.6041 17.2843 26.6275C17.1276 26.2793 17.208 26.6569 17.2686 26.9417C17.2981 27.0804 17.3229 27.1971 17.3134 27.1971C17.2363 27.0013 17.1884 26.9833 17.1366 26.9636C17.0513 26.9314 16.9555 26.8952 16.702 26.0577C16.4413 25.7034 16.5843 26.1958 16.7186 26.6586C16.8394 27.0749 16.9532 27.4668 16.7602 27.1971C16.6209 26.8256 16.6349 26.7383 16.6458 26.6692C16.6579 26.5936 16.6665 26.5398 16.469 26.1614L16.3816 26.6275C16.3541 26.5297 16.3169 26.4058 16.2776 26.2751C16.1579 25.8776 16.0191 25.4161 16.077 25.4281C16.0815 25.431 16.086 25.4336 16.0904 25.4363C16.0881 25.4343 16.086 25.4326 16.084 25.4313C16.0814 25.4296 16.079 25.4286 16.077 25.4281C15.7988 25.2554 15.4183 24.7795 15.0225 24.2846C14.7956 24.001 14.5638 23.7111 14.3433 23.4684C13.7319 22.7433 13.1786 22.329 13.1495 23.2094C12.8609 22.7602 12.8516 22.629 12.8379 22.4341C12.8295 22.3145 12.8194 22.1709 12.7419 21.9147C12.8001 22.7433 12.4507 22.4843 12.0139 22.1218L11.9494 22.0644C11.5555 21.7127 11.1036 21.3094 10.9656 21.6039L11.315 22.2771C10.5289 21.6556 10.1503 21.9664 9.83002 22.4326C9.7667 22.5339 9.70619 22.6424 9.64541 22.7516C9.42656 23.1443 9.20456 23.5427 8.83999 23.6237L9.16025 23.8826C9.38943 24.3645 9.42481 24.6607 9.45844 24.9419C9.47175 25.0537 9.4848 25.1632 9.50967 25.2809C9.45984 25.2177 9.38724 25.1077 9.30658 24.9855C9.05752 24.6082 8.73061 24.1131 8.7526 24.5041C8.80619 24.5518 8.8625 24.5897 8.91986 24.6283C9.04955 24.7156 9.18468 24.8066 9.30588 25.022C8.57789 24.7113 8.11199 25.1773 7.67521 25.7471C7.47139 26.0577 7.26755 26.3686 7.06372 26.7311C6.85991 27.0418 6.65607 27.3526 6.36488 27.5597C6.19017 28.7509 5.78252 29.6313 5.34574 30.5118C4.90897 31.3922 4.50131 32.2726 4.44306 33.3084C4.47219 32.9975 5.57869 33.9816 5.2875 33.9816C4.23924 33.5673 4.26836 33.878 4.35572 34.2405C4.36183 34.2596 4.3681 34.2787 4.3744 34.2979C4.48796 34.6449 4.60716 35.0092 3.88982 34.862C4.05854 35.505 3.82823 35.8286 3.59524 36.1561C3.54677 36.2243 3.49817 36.2925 3.45304 36.3639C3.19098 36.7782 3.04539 37.2443 3.7151 38.1765L3.13274 37.8658C2.95614 37.8658 3.02589 37.961 3.11462 38.0823C3.1722 38.1608 3.23775 38.2504 3.24922 38.3318L3.10363 38.2284C2.95597 38.3597 3.01796 38.6242 3.07319 38.8597C3.12686 39.0886 3.17414 39.2903 3.01626 39.3158L3.65687 39.6784C3.67039 39.7986 3.55849 39.7737 3.46959 39.754C3.36691 39.7314 3.29489 39.7153 3.48216 39.9373L3.16185 39.782L3.74423 40.3516C3.08542 39.9911 3.1322 40.2406 3.17961 40.4935C3.21393 40.6766 3.24856 40.8613 3.01626 40.8178C3.03696 40.8693 3.06296 40.9292 3.09149 40.995C3.26364 41.3918 3.52811 42.0013 3.27833 42.2679C2.88299 42.1272 2.71577 42.3207 2.53983 42.5244C2.45659 42.6206 2.3714 42.7193 2.25918 42.7858C2.31742 43.5108 2.37567 44.4948 2.05536 45.2199L2.81244 45.4788L2.84155 45.686C2.80555 45.6753 2.77324 45.6668 2.74415 45.6592C2.63207 45.6298 2.56748 45.6129 2.52126 45.5305C2.04654 45.4462 2.14796 45.6217 2.25075 45.7996C2.33711 45.9491 2.42443 46.1003 2.17183 46.1003C2.62571 46.2011 2.53916 46.1274 2.43068 46.0347C2.37214 45.9849 2.30722 45.9294 2.31742 45.8931C2.69596 45.8414 3.39481 46.3075 2.98714 46.411L2.81244 46.3592L3.19098 46.6699C2.8998 46.5665 2.6814 46.5275 2.46301 46.4887C2.24463 46.4499 2.02624 46.411 1.73505 46.3075C1.75939 46.6103 1.93616 46.9313 2.11042 47.2477C2.3533 47.6887 2.59127 48.1207 2.40478 48.4826C2.12959 48.3492 2.11233 48.4354 2.09214 48.5364C2.06536 48.6703 2.03343 48.8298 1.38563 48.5344C1.59183 48.8447 1.84987 48.8784 2.16917 48.9202C2.43604 48.955 2.74568 48.9954 3.10363 49.2076C3.09392 49.2422 3.11981 49.2882 3.14353 49.3304C3.19098 49.4148 3.2298 49.4839 2.95803 49.4148C2.83466 49.3417 2.67255 49.3144 2.52642 49.2899C2.36214 49.2622 2.21806 49.2381 2.17183 49.1559L2.23007 49.4665C2.15896 49.4665 2.04929 49.398 1.96383 49.3444C1.94429 49.3323 1.92602 49.3209 1.90977 49.3112C2.21858 49.7036 2.00013 49.8977 1.78696 50.0872C1.57801 50.2731 1.37413 50.4543 1.67682 50.8131C1.88064 50.8908 1.91705 50.8521 1.95344 50.8131C1.98984 50.7743 2.02624 50.7355 2.23007 50.8131C2.64703 51.2251 2.40058 51.2729 2.15966 51.3197C1.94631 51.3612 1.73729 51.4016 1.99712 51.6935L1.44387 51.4346C1.51208 51.4812 1.58408 51.5262 1.65338 51.5696C1.96867 51.7665 2.22822 51.9288 1.82241 52.0561C1.38903 51.9555 1.29706 51.8333 1.19932 51.7034C1.14602 51.6326 1.09101 51.5594 0.977975 51.4863C0.948857 51.6418 1.06534 52.1597 1.70593 52.1597C1.85483 52.3487 1.5687 52.3721 1.33554 52.3912C1.24949 52.3981 1.17066 52.4046 1.12357 52.4186C1.18485 52.4368 1.26047 52.4294 1.34538 52.4212C1.50255 52.406 1.6916 52.3877 1.88064 52.5222C1.54581 52.6923 1.486 53.0022 1.42691 53.3084C1.41406 53.3749 1.40124 53.4414 1.38563 53.5063C1.21093 53.4544 0.977975 53.4026 0.89062 53.4026C1.28943 53.58 1.13785 53.5838 0.895936 53.5898C0.643283 53.5963 0.292108 53.6052 0.366485 53.8169C0.428085 54.2186 0.565689 54.6653 0.705291 55.1185C0.961651 55.9509 1.22473 56.805 1.03621 57.4422C1.79611 57.7575 1.91702 58.0337 2.05061 58.3388C2.07059 58.3845 2.09086 58.4307 2.11359 58.478L0.919747 58.3227L1.29828 58.6333C1.14359 58.6563 1.08592 58.6081 1.02925 58.5608C0.95792 58.5014 0.888194 58.4432 0.628559 58.5297L1.35652 58.7369C1.19318 58.7175 1.10722 58.8068 1.02096 58.8964C0.876547 59.0464 0.731319 59.1971 0.220894 58.8405L0.162662 59.928C0.134039 60.0553 0.372742 60.12 0.584856 60.1776C0.804275 60.237 0.995253 60.2889 0.832382 60.3942C0.654675 60.3942 0.597474 60.3674 0.526705 60.3343C0.458334 60.3023 0.3773 60.2642 0.162662 60.2388C-0.311775 60.6199 0.339924 60.9151 0.984718 61.2072C1.56673 61.4709 2.14311 61.732 1.88064 62.0514L1.73505 61.9997C1.91355 62.0862 1.97449 62.1889 2.02369 62.2717C2.06279 62.3376 2.09447 62.391 2.17183 62.414C2.77008 62.414 2.6079 62.3619 2.38512 62.2905C2.1633 62.2194 1.88142 62.129 2.23007 62.0514C2.76535 62.1059 2.88294 62.1887 2.98784 62.2628C3.08267 62.3297 3.16713 62.3893 3.5404 62.414C3.30182 62.5119 3.44495 62.5891 3.59797 62.672C3.68774 62.7205 3.78093 62.7708 3.80247 62.8282C3.50429 62.9248 3.43952 63.0548 3.37621 63.182C3.3035 63.3281 3.23269 63.4702 2.81244 63.5533C2.92001 63.6055 3.10312 63.6577 3.3 63.7137C3.68935 63.8247 4.13254 63.951 4.15188 64.1229C3.77825 64.1968 3.58876 64.1771 3.46152 64.1639C3.32102 64.1493 3.25642 64.1425 3.10363 64.2784L3.68599 64.3301C3.6141 64.5006 3.48308 64.4958 3.2929 64.4887C3.25197 64.4872 3.20828 64.4855 3.16185 64.4855C3.14951 64.5734 3.29411 64.6239 3.43379 64.6728C3.62363 64.7392 3.80438 64.8024 3.56951 64.9516L3.01626 64.7963C3.19814 64.9579 3.16702 65.0566 3.11691 65.2153C3.10286 65.2598 3.08726 65.3092 3.07451 65.3659C2.72508 65.3659 2.7542 65.2106 2.87067 65.1588C2.32909 65.223 2.60454 65.3071 2.86436 65.3865C3.02362 65.435 3.177 65.482 3.13274 65.5212C3.22523 65.5212 3.29959 65.4955 3.3827 65.4666C3.53506 65.4138 3.71682 65.3507 4.09365 65.4178C4.04659 65.4806 4.16593 65.5432 4.27876 65.6027C4.44517 65.6903 4.59746 65.7703 4.18101 65.832L3.62776 65.6767C3.79516 65.7883 3.93624 65.8397 4.03752 65.8767C4.21808 65.9426 4.27201 65.9623 4.12277 66.1946H3.80247C4.30202 66.3313 4.16768 66.4905 4.00174 66.6872C3.9162 66.7885 3.82228 66.8998 3.80247 67.0231L3.65687 66.9714C3.74624 67.0168 3.89719 67.0622 4.03362 67.1033C4.20835 67.1558 4.3593 67.2013 4.3266 67.2304C4.67602 67.075 4.82161 67.075 5.40398 67.075C4.92031 67.2053 5.21126 67.2962 5.54531 67.4008C5.87492 67.5038 6.24647 67.62 5.95723 67.8001C5.63692 67.8001 5.22927 67.6965 5.57869 67.5929C5.34114 67.568 5.11199 67.5492 4.89443 67.5312C4.20524 67.4744 3.63243 67.4273 3.27833 67.2304C3.51128 67.3857 3.65687 67.541 3.2201 67.541L4.15188 67.5929C4.17079 67.6602 4.15288 67.7056 4.13798 67.7433C4.12993 67.7638 4.12277 67.7819 4.12277 67.8001C4.36992 67.822 4.58036 67.7881 4.76967 67.7575C5.02643 67.7161 5.24432 67.6808 5.46221 67.8001C5.66004 67.9408 5.15895 67.9621 4.94517 67.9611L4.93808 67.9554C4.8074 67.9554 4.84429 67.9607 4.94517 67.9611C5.11746 68.0986 5.33587 68.1317 5.49567 68.1559C5.68739 68.185 5.79475 68.2013 5.63692 68.3697C5.6095 68.3534 5.57632 68.3372 5.54642 68.3226C5.51054 68.3049 5.47936 68.2897 5.46849 68.2795C5.4757 68.275 5.48331 68.2706 5.49133 68.2661C5.46433 68.2661 5.45958 68.271 5.46849 68.2795C5.35357 68.3509 5.33871 68.4333 5.32401 68.5149C5.29612 68.6698 5.26882 68.8212 4.55954 68.8876C4.29752 68.8876 3.97719 68.8876 4.06453 68.784H4.23924C3.86549 68.6892 3.88336 68.7247 3.91416 68.7861C3.944 68.8457 3.98602 68.9296 3.69547 68.9423C3.63303 68.9324 3.55342 68.9305 3.45304 68.9395C3.55222 68.9444 3.63182 68.945 3.69547 68.9423C3.99525 68.9901 3.89887 69.2252 3.80247 69.3538L4.47219 69.302C5.49735 69.4843 5.15247 69.4963 4.5897 69.5159C4.03352 69.5353 3.26454 69.562 3.39481 69.768C3.63541 69.9018 3.67409 69.8698 3.72343 69.8288C3.76963 69.7906 3.82517 69.7448 4.06453 69.8199C4.02264 69.8944 3.91672 69.9554 3.81316 70.0153C3.62874 70.1216 3.45176 70.2237 3.65687 70.3895C3.61864 70.4046 3.57792 70.422 3.53391 70.4406C3.2763 70.5502 2.9058 70.7079 2.25918 70.7521C2.3912 70.8161 2.35998 70.9242 2.32863 71.0325C2.28391 71.1874 2.23891 71.3431 2.66685 71.3735C2.9651 71.2048 2.80889 71.1369 2.65667 71.0709C2.48195 70.9951 2.31246 70.9217 2.84155 70.7002L3.59863 70.7521C3.58701 70.8554 3.64032 70.9586 3.69191 71.0587C3.76963 71.2094 3.84348 71.3526 3.68599 71.4771C3.83159 71.4253 4.03541 71.3735 4.18101 71.4253C4.29238 71.5441 4.47192 71.6251 4.63815 71.7001C4.90651 71.8211 5.14016 71.9265 4.99632 72.1504C4.46828 72.2321 4.42897 72.1205 4.39316 72.0189C4.38356 71.9916 4.37419 71.9652 4.35572 71.9431C4.06372 72.0874 4.08804 72.1353 4.13161 72.221C4.16624 72.2891 4.21305 72.3811 4.12277 72.5646C3.83225 72.6164 3.83883 72.552 3.84609 72.481C3.85338 72.4096 3.86136 72.3316 3.56951 72.3576L3.77089 72.7157C3.73636 72.7164 3.69844 72.7178 3.65687 72.72H3.77335L3.77089 72.7157C4.20538 72.7061 4.1036 72.8056 3.97628 72.9299C3.87268 73.0311 3.75216 73.1489 3.88982 73.238C3.91084 73.6493 4.59992 73.7095 5.28827 73.7699C5.55319 73.793 5.818 73.8162 6.04458 73.8595C5.81135 73.9515 5.57811 74.0028 5.36538 74.0494L5.2875 74.0665C5.57869 73.9284 5.52046 73.9285 5.37164 73.9285C5.29722 73.9285 5.20016 73.9285 5.11279 73.9112C5.22927 74.0665 4.15188 74.4808 3.74423 74.4291C3.89901 74.5667 4.03733 74.4994 4.18107 74.4297C4.30773 74.3681 4.43861 74.3045 4.58866 74.3774L4.53043 74.7916C4.65842 74.7514 4.7611 74.7113 4.85005 74.6765C5.10513 74.5767 5.24732 74.521 5.54957 74.6363C5.65826 74.7522 5.63713 74.8394 5.60732 74.9622C5.59719 75.0039 5.58607 75.0498 5.57869 75.1023C5.47878 75.1023 5.345 75.1325 5.21769 75.1611C5.01111 75.2076 4.82161 75.2502 4.82161 75.1542C4.6469 75.3095 4.61778 75.4648 5.11279 75.4648C5.3167 75.3198 5.43176 75.3779 5.57351 75.4494C5.7354 75.5312 5.93212 75.6305 6.33577 75.4648L5.89899 75.7757C5.89899 75.7546 5.84596 75.7506 5.78894 75.7464C5.70583 75.7403 5.61423 75.7335 5.66604 75.6721C5.13752 75.8166 5.46046 75.8351 5.73333 75.8506C5.85133 75.8574 5.95998 75.8636 5.98635 75.8791C5.93633 75.9148 5.89662 75.9687 5.85423 76.0263C5.77324 76.1362 5.68247 76.2595 5.49133 76.2935C5.69516 76.3453 5.54957 76.5525 5.17103 76.6561C5.25554 76.7161 5.40872 76.6716 5.57364 76.6236C5.69283 76.589 5.81816 76.5525 5.92811 76.5525L5.89899 76.9668C5.77738 76.9955 5.59936 77.0405 5.40198 77.0902C4.89047 77.2192 4.24881 77.381 4.12277 77.381C4.28802 77.4021 4.52504 77.3635 4.74656 77.3275C5.07149 77.2745 5.36305 77.2271 5.34574 77.381C4.95971 77.4057 4.80215 77.5114 4.63816 77.6215C4.45581 77.7439 4.26551 77.8717 3.74423 77.8989C3.16185 78.1579 3.19098 78.5723 3.42392 78.7276C3.77337 78.7005 3.85328 78.6171 3.94493 78.5215C4.02893 78.4337 4.1228 78.3358 4.44306 78.2615C4.58751 78.5184 5.11166 78.5332 5.56776 78.5461C5.79363 78.5524 6.00281 78.5583 6.1409 78.5929C6.17307 78.7803 6.18164 79.0018 6.18974 79.2319C5.6522 79.5363 5.22554 79.9121 5.34574 80.1259C5.51183 80.0837 5.66824 79.99 5.84059 79.8867C5.95101 79.8203 6.06808 79.7503 6.19832 79.6872C6.21012 79.8971 6.23914 80.0968 6.31042 80.2715C6.16859 80.399 6.09581 80.4854 6.38739 80.4224C6.39533 80.4349 6.40354 80.4469 6.41204 80.4586L5.93716 80.7331C5.91555 80.7368 5.89314 80.7415 5.86988 80.7474L5.37486 81.0581L5.93716 80.7331C6.16114 80.6951 6.29926 80.7716 6.41177 80.8338C6.47863 80.8707 6.53643 80.9027 6.59784 80.9027C7.0523 81.0454 6.795 81.2317 6.36674 81.5418C6.34211 81.5596 6.31691 81.5779 6.29124 81.5966C6.2771 81.6069 6.26282 81.6172 6.24841 81.6278C6.39632 81.5322 6.63739 81.3923 6.86836 81.2899L6.80171 81.3689L6.10287 82.094C6.05608 82.4684 6.3476 82.1409 6.69052 81.7023C6.66656 81.7539 6.6626 81.8004 6.65887 81.8441C6.64993 81.949 6.64229 82.0384 6.36488 82.1457C6.37432 82.1793 6.34099 82.2345 6.30941 82.2869C6.24772 82.3892 6.1927 82.4805 6.47647 82.3769L5.99579 82.5601C5.91327 82.5888 5.82308 82.6231 5.72429 82.6636L5.99579 82.5601C6.70461 82.314 6.84559 82.4828 6.99008 82.656C7.02208 82.6944 7.05427 82.7329 7.09284 82.7672C6.31816 83.0791 6.36524 83.1431 6.4275 83.2278C6.48927 83.3118 6.56596 83.4161 5.86988 83.8029C6.4121 83.5619 6.52583 83.6533 6.63419 83.7404C6.73532 83.8219 6.83179 83.8995 7.26755 83.6993C7.3345 83.8185 6.76878 84.1504 6.35656 84.3923C6.23085 84.466 6.11943 84.5314 6.04458 84.5798L6.45225 84.4762C6.16367 84.7008 6.05383 84.9651 5.94283 85.2322C5.87463 85.3963 5.80599 85.5615 5.69516 85.7191L6.65607 85.4085L6.24841 85.7191C6.32668 85.6843 6.39836 85.6729 6.4712 85.6614C6.61518 85.6385 6.76368 85.6148 6.97637 85.4085L6.94725 85.5638C7.52743 85.2299 7.52761 85.2873 7.52796 85.3921C7.52821 85.4662 7.52853 85.5638 7.73346 85.5638C7.58786 85.7191 7.35491 85.8746 7.20932 85.8746C7.20932 85.944 6.98665 86.1066 6.74338 86.2844C6.65609 86.3482 6.56616 86.4139 6.4829 86.4778C6.44413 86.5023 6.41394 86.5257 6.394 86.5478C6.42241 86.5249 6.45221 86.5015 6.4829 86.4778C6.61217 86.3962 6.83684 86.3015 7.09528 86.1927C7.66469 85.9528 8.39805 85.644 8.63613 85.2531C9.04378 84.9942 9.36412 84.9423 9.18941 85.2012L8.31582 85.8746L9.27672 85.4085C9.3777 85.4383 9.23565 85.6066 9.08642 85.7833C8.97739 85.9123 8.86451 86.046 8.83999 86.1336C8.7526 86.0299 7.09284 86.9621 7.18021 87.3764C7.06678 87.2755 6.81837 87.3493 6.60226 87.4135C6.48549 87.4481 6.37815 87.48 6.30666 87.48C6.27753 87.5836 6.21929 87.6872 5.81164 87.7908C5.98092 87.8659 6.11603 87.8076 6.23352 87.7568C6.35855 87.7027 6.46363 87.6572 6.56871 87.7908C5.78252 88.3087 5.54957 88.6193 5.34574 89.1372L5.86988 88.464C5.95723 88.4123 6.04458 88.3604 6.10282 88.3604C6.16106 88.2051 6.27753 88.1015 6.56871 87.8942C6.56871 87.9349 6.72952 87.8959 6.89716 87.8555C7.08189 87.8108 7.27494 87.7642 7.27036 87.8196C7.23213 87.8588 7.1924 87.9009 7.15109 87.9461C7.23345 87.8821 7.26849 87.8422 7.27036 87.8196C7.82003 87.2554 8.06245 87.2866 8.2723 87.3137C8.44922 87.3365 8.60298 87.3564 8.89823 87.0138C9.13117 86.8585 9.21849 87.0138 8.83999 87.3764C8.46342 87.4981 8.24785 87.7809 8.02176 88.0776C7.97645 88.137 7.93041 88.1974 7.88288 88.2568C7.85885 88.285 7.8351 88.3133 7.8117 88.3413C7.79682 88.3592 7.78201 88.3769 7.76738 88.3943C7.67954 88.4931 7.58319 88.5875 7.47139 88.6712C7.56186 88.6309 7.66106 88.5205 7.76738 88.3943C7.80742 88.3492 7.84571 88.3031 7.88288 88.2568C8.01857 88.0975 8.16391 87.9435 8.31582 87.8942C8.37961 87.97 8.16389 88.2665 7.9635 88.5421C7.88952 88.6438 7.81752 88.7428 7.76257 88.8266L7.58786 88.8783L7.3258 89.448C7.46957 89.33 7.58814 89.182 7.69427 89.0496C7.86757 88.8335 8.0077 88.6588 8.17023 88.7229C8.10842 88.8109 8.12009 88.8709 8.1317 88.9305C8.14744 89.0114 8.16309 89.0918 7.99552 89.2408C7.79455 89.3726 7.57821 89.5452 7.3758 89.7068C7.02102 89.9899 6.70908 90.239 6.59784 90.1731C6.606 90.1839 6.61474 90.1964 6.62415 90.2098C6.74898 90.3871 6.99215 90.7329 7.58786 89.9142L7.61698 90.1212C7.63397 90.0945 7.65194 90.0655 7.67074 90.0352C7.68389 90.0141 7.69743 89.9921 7.71134 89.9696C7.98453 89.5275 8.3965 88.8607 8.57789 89.1372L8.4323 89.2927L9.07294 89.0336L8.72348 89.5516C8.89823 89.3444 9.10201 89.2408 9.10201 89.3444C9.02635 89.4405 8.97083 89.5224 8.91592 89.6032C8.82291 89.7401 8.73185 89.8742 8.54876 90.0695C8.67882 90.3008 8.97153 89.9949 9.17776 89.7793C9.20246 89.7535 9.22584 89.729 9.24765 89.707C9.33496 89.8106 9.21848 90.0176 8.78175 90.4321C8.77229 90.5491 8.79323 90.6553 8.81512 90.7663C8.8611 90.9995 8.91127 91.254 8.69436 91.6749C8.91644 91.6486 8.9428 91.5821 8.98781 91.4686C9.03125 91.359 9.09212 91.2054 9.36412 91.0017C8.81083 91.8821 8.81083 92.3483 9.0147 92.5553C9.1155 92.6749 9.28425 92.7427 9.4481 92.8086C9.56817 92.8567 9.68561 92.904 9.77178 92.9697C10.2258 92.0815 10.255 92.1025 10.3052 92.1386C10.348 92.1695 10.4062 92.2112 10.7588 91.7038C10.6722 91.8556 10.5986 92.0565 10.5232 92.2623C10.4872 92.3604 10.4507 92.4597 10.4124 92.5553C10.2959 92.9179 10.1503 93.2804 9.88825 93.2804L10.1503 93.384C9.99141 93.9019 9.83264 93.9918 9.67378 94.0817C9.66354 94.0875 9.6532 94.0932 9.64287 94.0992C9.63726 94.1025 9.63175 94.1057 9.62614 94.1091C9.45143 94.2126 9.24765 94.368 9.0147 95.1449C9.13117 95.3002 9.48059 94.9895 9.77178 94.7306C10.063 94.4715 10.2959 94.3162 10.2667 94.834C9.9429 95.385 10.0276 95.379 10.1224 95.3721C10.2237 95.3649 10.3365 95.3567 9.97556 96.0253C9.78929 96.283 9.72072 96.2267 9.65478 96.1725C9.62798 96.1505 9.60162 96.1289 9.56791 96.1289L9.50967 96.4396C9.71354 97.061 9.94649 96.6985 10.1794 96.1806C10.2263 96.0762 10.2745 95.9635 10.3239 95.8476C10.5203 95.3875 10.7389 94.8751 10.9948 94.627C11.29 94.802 10.9821 95.6803 10.7566 96.3232C10.7154 96.4408 10.6769 96.5507 10.6453 96.6468C10.6162 96.9574 10.9074 97.0093 11.1112 96.6985C10.8491 97.0093 10.7909 96.6468 10.8783 96.1806C10.9656 95.6627 11.1695 95.0413 11.3732 94.627C11.1695 95.5074 11.315 95.6627 11.5189 95.5591C11.7227 95.4555 11.9848 94.9895 12.1303 94.6787C12.1303 93.6162 12.1026 93.5423 12.047 93.3946L12.043 93.384C11.9974 93.3029 11.9517 93.2216 12.0182 92.6669C12.0721 92.8823 12.1291 93.09 12.1886 93.2804C12.4798 94.2644 12.8583 95.1967 13.266 96.0253C13.6736 96.8021 14.1978 97.6308 14.7801 98.304C15.3625 98.9774 16.0031 99.4951 16.6146 99.8059C17.0685 100.043 17.302 100.107 17.6294 100.195C17.6592 100.203 17.6896 100.212 17.7211 100.22C18.0706 100.324 18.42 100.376 18.7694 100.324C19.1479 100.324 19.4973 100.272 19.5556 100.22C19.6284 100.194 19.7012 100.181 19.774 100.168C19.8467 100.156 19.9196 100.143 19.9924 100.117L20.4291 99.9613C20.5747 99.9095 20.7495 99.8059 20.8368 99.7542C20.9096 99.7282 20.9751 99.6894 21.0406 99.6506C21.1061 99.6116 21.1716 99.5729 21.2444 99.547C21.3019 99.5062 21.3547 99.4734 21.4049 99.4423C21.4818 99.3946 21.5525 99.3507 21.623 99.288L21.8559 99.0808C22.0015 98.9774 22.1471 98.8219 22.2344 98.7183L22.4674 98.5112C22.6421 98.304 22.7003 98.2523 22.8168 98.1487L23.0498 97.8897L23.2245 97.6825L23.3409 97.5272L23.4283 97.3719L23.9152 96.7304C24.3559 97.5355 24.8775 98.3248 25.4376 98.9772C25.5369 99.1045 25.6476 99.2299 25.7656 99.3516C25.7726 99.3997 25.7797 99.4475 25.7869 99.4953C23.6613 105.037 36.9102 116.275 37.4343 110.785L37.609 110.63L37.842 110.474L38.3079 110.112C38.468 109.983 38.6207 109.866 38.7735 109.75C38.9264 109.633 39.0795 109.516 39.2397 109.387C39.366 109.275 39.4978 109.172 39.628 109.071C39.7978 108.939 39.9649 108.808 40.1132 108.662C40.3036 108.474 40.494 108.287 40.6826 108.103C41.5326 107.27 42.3472 106.473 42.9668 105.71C43.0176 105.652 43.0681 105.595 43.118 105.538C43.3948 106.097 43.6953 106.626 44.0151 107.108C44.9759 108.558 46.0242 109.542 46.9269 110.112C47.7125 110.566 47.8887 110.62 48.0543 110.67C48.1341 110.694 48.2115 110.718 48.3537 110.785C48.674 110.889 48.9943 110.941 49.3146 110.993C49.9552 111.044 50.625 110.992 51.2655 110.837C51.5857 110.734 51.9063 110.63 52.1974 110.474C52.5468 110.319 52.7798 110.164 52.7506 110.164C53.1874 109.905 53.6241 109.594 54.061 109.18L54.2648 108.973L54.8763 108.248C54.9198 108.196 54.9706 108.131 55.0215 108.067L55.0223 108.066C55.0731 108.001 55.1239 107.937 55.1675 107.885L55.2257 107.833C55.4295 107.419 55.546 107.16 55.5751 106.953C55.6624 106.59 55.4295 106.59 55.1383 106.642C55.1121 106.642 55.0801 106.653 55.0448 106.664C55.0015 106.678 54.9534 106.694 54.9054 106.694L54.7889 106.746H54.7598L54.6433 106.901L54.3812 107.16C54.2065 107.367 54.0027 107.574 53.7989 107.73L53.3912 108.092C53.3184 108.144 53.2383 108.209 53.1583 108.273C53.0782 108.338 52.9981 108.403 52.9253 108.455C52.838 108.507 52.758 108.558 52.6778 108.61C52.5978 108.662 52.5177 108.714 52.4303 108.766L52.2556 108.869C52.1974 108.895 52.1464 108.921 52.0955 108.947C52.0445 108.973 51.9935 108.999 51.9353 109.024C51.8244 109.081 51.7049 109.122 51.5815 109.164C51.478 109.2 51.3717 109.236 51.2655 109.283C50.7996 109.439 50.3338 109.491 49.8679 109.491C49.4019 109.491 48.936 109.387 48.4993 109.283C48.4447 109.259 48.3901 109.246 48.3384 109.234C48.28 109.22 48.2254 109.207 48.179 109.18C48.1441 109.169 48.1196 109.163 48.1001 109.158C48.0833 109.154 48.0702 109.151 48.0572 109.147C48.0091 109.131 47.9622 109.103 47.7424 108.973C47.131 108.662 46.4319 108.196 45.7039 107.419C45.0605 106.751 44.3924 105.82 43.836 104.747C43.9266 104.651 44.0154 104.557 44.1024 104.467C44.207 104.374 44.3117 104.262 44.41 104.154C44.7113 104.712 45.0413 105.218 45.3836 105.658C45.9077 106.331 46.461 106.849 46.956 107.264C47.3928 107.626 48.1499 107.937 48.1499 107.937C48.4568 108.086 48.7906 108.14 49.0998 108.189L49.1399 108.196C49.8388 108.299 50.5667 108.248 51.2364 107.989C51.4111 107.937 51.5859 107.885 51.7315 107.781C51.848 107.73 52.1392 107.574 52.1392 107.574L52.3139 107.471C52.3844 107.408 52.4549 107.364 52.5319 107.317C52.582 107.285 52.6349 107.253 52.6924 107.212C52.8313 107.119 52.9805 106.99 53.1215 106.867C53.2171 106.785 53.3089 106.705 53.3912 106.642L53.828 106.176L54.0027 106.021L54.1774 105.814L54.2357 105.762L54.2648 105.71V105.658L54.2939 105.555C54.6364 105.114 54.9634 104.619 55.2637 104.164C55.3838 103.983 55.4996 103.807 55.6104 103.644C55.6817 103.884 55.7563 104.124 55.8371 104.363C55.8891 104.502 55.9384 104.64 55.9882 104.78C56.1061 105.111 56.2267 105.449 56.3904 105.814C57.2058 107.781 58.3996 109.646 59.6808 110.837C59.972 111.148 60.3505 111.407 60.6126 111.562L61.0494 111.873C61.3406 112.08 61.6608 112.235 61.9812 112.339C62.6218 112.598 63.2624 112.753 63.903 112.753H64.6891C64.9221 112.753 65.1842 112.701 65.4171 112.65C65.479 112.622 65.5409 112.609 65.6071 112.595C65.6655 112.583 65.7274 112.57 65.7956 112.546L65.9703 112.494L66.2907 112.391C66.4945 112.287 66.7274 112.184 66.9021 112.132C67.0041 112.08 67.1132 112.015 67.2223 111.951C67.3315 111.886 67.4409 111.821 67.5427 111.769C67.6002 111.728 67.6531 111.696 67.7033 111.664C67.7802 111.617 67.8507 111.573 67.9213 111.51L68.2125 111.303L68.4454 111.096L68.7657 110.837L69.3481 110.319L69.814 109.853C69.8626 109.801 69.9143 109.75 69.9661 109.698C70.0696 109.594 70.1731 109.49 70.2508 109.387C70.7458 108.817 71.2699 108.248 71.7067 107.781C71.7865 107.682 71.8619 107.591 71.9335 107.504C72.1233 107.273 72.2867 107.075 72.4346 106.849C72.6093 106.59 72.755 106.331 72.8423 106.124C73.0462 105.658 73.1626 105.296 73.2791 104.933L73.2822 104.922C73.6381 105.204 74.0118 105.415 74.3856 105.555C74.9388 105.762 75.463 105.865 76.0162 105.814C76.089 105.814 76.1545 105.8 76.22 105.788C76.2856 105.775 76.3511 105.762 76.4239 105.762L76.5986 105.71C76.6532 105.686 76.7078 105.673 76.7594 105.661C76.8179 105.647 76.8725 105.634 76.9189 105.606C77.0638 105.57 77.2234 105.48 77.3768 105.395C77.4391 105.36 77.5006 105.326 77.5595 105.296C77.6849 105.232 77.8101 105.149 77.9287 105.07C78.0029 105.021 78.0746 104.973 78.1419 104.933L78.2001 104.881H78.2584L78.3457 104.83C78.4622 104.778 78.5714 104.713 78.6805 104.648C78.7897 104.584 78.899 104.519 79.0155 104.467C79.4814 104.208 79.9473 103.897 80.5005 103.431C81.0223 102.992 81.5701 102.367 82.2416 101.603L82.364 101.463C82.597 101.36 82.9173 101.204 83.2376 101.049C83.3443 100.997 83.4511 100.94 83.5578 100.882C83.7713 100.767 83.9849 100.652 84.1985 100.583C84.8391 100.324 85.4215 100.22 85.7127 100.738C86.1203 100.117 86.6153 99.4434 87.1977 98.7183C87.4121 98.4515 87.6345 98.1916 87.8569 97.931C88.2396 97.4836 88.6241 97.0339 88.9735 96.5432C89.5559 95.8181 90.0804 95.0931 90.5174 94.368C90.9247 93.6948 91.2163 93.0215 91.3328 92.4519C90.9536 92.8144 90.6339 93.1768 90.3712 93.4876C90.1093 93.7983 89.8475 94.1091 89.6434 94.4716C89.3361 94.9403 89.0786 95.409 88.8325 95.8555C88.7528 96.001 88.674 96.1444 88.5952 96.2842C88.2747 96.9057 87.9252 97.4755 87.4016 98.0968C87.1395 98.4076 86.8483 98.7183 86.4698 99.0291C86.2951 99.1844 86.0912 99.3398 85.8874 99.4953C85.6835 99.6506 85.4506 99.8059 85.1886 99.9613C85.3923 99.2362 85.567 98.5112 85.7418 97.7344C87.0535 96.2548 88.3833 94.2594 89.5751 92.4696C90.5534 91.0015 91.4396 89.6719 92.1481 88.8784C91.7689 89.0855 91.5359 89.0338 91.5946 88.5676C92.2645 87.3765 92.7882 86.3406 93.2541 85.4085C93.5177 84.8458 93.7603 84.302 93.9941 83.7772C94.1483 83.4325 94.298 83.0957 94.4478 82.7672C94.827 81.9386 95.2053 81.1099 95.6712 80.2812C96.1371 79.4527 96.6905 78.5205 97.3596 77.5365C97.7677 77.6918 97.5637 78.3651 97.1267 79.2455C96.7676 79.9695 96.2509 80.8338 95.771 81.6363C95.6677 81.8096 95.5652 81.9802 95.4671 82.1457C96.3648 81.2587 96.814 80.5995 97.2729 79.8428C97.2098 80.0149 97.1503 80.1929 97.0916 80.369C96.9988 80.6478 96.9077 80.9221 96.807 81.1617C96.7483 81.3172 96.6905 81.4725 96.6608 81.6278C96.603 81.8347 96.5443 82.0424 96.4865 82.1976L96.3989 82.5601C96.37 82.6377 96.3481 82.7155 96.3262 82.7931C96.3043 82.8708 96.2824 82.9485 96.2535 83.0261L96.1949 83.2851L96.1082 83.5959C96.0863 83.7107 96.0609 83.8186 96.0355 83.9246C95.9934 84.1051 95.9514 84.2805 95.933 84.4763L95.8752 84.7352C95.8691 84.7677 95.863 84.7979 95.8568 84.8267C95.8349 84.9361 95.8166 85.0265 95.8166 85.1495C95.806 85.2602 95.792 85.3644 95.7789 85.4667C95.7535 85.6514 95.729 85.83 95.729 86.0299C95.729 86.1155 95.7202 86.201 95.7123 86.278C95.7062 86.3408 95.7001 86.3977 95.7001 86.4442V87.1176C95.7001 87.6872 95.7001 88.3087 95.7588 88.8784C95.7877 89.1891 95.8165 89.448 95.8752 89.707C95.9041 89.8104 95.933 90.0175 95.9619 90.2244C95.9917 90.4316 96.0495 90.6393 96.1082 90.8463C96.3122 91.6232 96.5741 92.4 96.8946 93.0215C96.9813 93.1768 97.0689 93.3323 97.1267 93.4876C97.1564 93.5393 97.1923 93.5912 97.2291 93.643C97.265 93.6948 97.3018 93.7466 97.3307 93.7984C97.477 94.0055 97.6223 94.2127 97.7677 94.368C98.0593 94.7306 98.4079 95.0413 98.7284 95.2485L98.9035 95.4038L99.02 95.4557C99.1067 95.5074 99.1943 95.5591 99.2819 95.5591L99.8064 95.7146C99.8493 95.7146 99.8931 95.7275 99.9369 95.7405C99.9807 95.7534 100.024 95.7663 100.068 95.7663H100.475C100.567 95.7663 100.659 95.7522 100.745 95.7386C100.825 95.7263 100.901 95.7146 100.971 95.7146L101.495 95.5074C101.529 95.5074 101.533 95.4897 101.537 95.4749C101.539 95.4645 101.541 95.4557 101.554 95.4557L101.582 95.4038L101.728 95.2485L102.019 94.9895C102.121 94.9118 102.216 94.8213 102.31 94.7306C102.405 94.6399 102.499 94.5492 102.602 94.4716C102.805 94.3163 102.98 94.1608 103.184 93.9538C103.24 93.9037 103.299 93.8483 103.36 93.791C103.49 93.6703 103.628 93.5412 103.767 93.4359C103.999 93.2127 104.266 93.0091 104.537 92.801C104.707 92.6711 104.88 92.5395 105.048 92.4C105.514 92.0376 106.008 91.675 106.591 91.2606L105.31 91.8821C106.008 91.1572 106.503 90.6391 106.853 90.2249C107.202 89.8106 107.464 89.4998 107.668 89.1891C107.807 88.9947 107.926 88.8061 108.046 88.5929C107.964 89.4739 107.889 90.3412 107.813 91.2086L107.435 91.5714L107.231 91.7268C107.212 91.744 107.189 91.7613 107.166 91.7786C107.121 91.8131 107.076 91.8476 107.057 91.8821C107.086 92.141 107.028 92.6591 106.969 93.0215C106.911 93.384 106.94 93.6948 107.29 93.4876L107.028 93.9019L106.562 94.7306C106.707 95.0931 106.736 95.4557 106.532 96.1289C106.508 96.1932 106.484 96.2755 106.456 96.3717C106.416 96.5076 106.367 96.6719 106.299 96.854C106.27 96.9574 106.241 97.0612 106.183 97.1646L106.125 97.32L106.037 97.5789C105.98 97.7861 105.95 97.8897 105.863 98.304C105.848 98.3818 105.833 98.4724 105.819 98.563C105.804 98.6536 105.789 98.7443 105.775 98.8219C105.775 98.8738 105.747 99.0808 105.717 99.2363C105.701 99.3204 105.694 99.4044 105.686 99.4968C105.679 99.575 105.672 99.6591 105.659 99.7542C105.63 99.9613 105.63 100.117 105.63 100.272V101.049C105.63 101.36 105.659 101.67 105.688 101.981C105.717 102.292 105.747 102.551 105.863 102.965C105.95 103.379 106.066 103.742 106.183 104.104C106.212 104.182 106.248 104.273 106.285 104.363C106.321 104.454 106.358 104.545 106.387 104.622C106.474 104.778 106.532 104.933 106.591 105.088C106.853 105.606 107.202 106.021 107.551 106.331L107.668 106.435L107.93 106.59C108.003 106.623 108.076 106.676 108.143 106.724C108.181 106.752 108.218 106.778 108.25 106.797C108.366 106.849 108.483 106.901 108.571 106.953L108.745 107.005C108.862 107.056 109.007 107.056 109.123 107.056H109.736C109.764 107.056 109.823 107.056 109.852 107.005C109.896 107.005 109.932 106.992 109.969 106.979C110.004 106.966 110.041 106.953 110.085 106.953C110.143 106.953 110.201 106.901 110.259 106.849C110.282 106.839 110.306 106.829 110.33 106.819C110.432 106.776 110.55 106.726 110.667 106.642C110.958 106.435 111.279 106.124 111.628 105.658C111.92 105.71 111.773 106.28 111.483 106.797C111.89 106.468 111.886 106.871 111.88 107.328C111.878 107.561 111.875 107.807 111.926 107.979C111.928 108.01 111.935 108.031 111.949 108.04C111.94 108.021 111.933 108.001 111.926 107.979C111.915 107.726 112.295 106.8 112.749 105.694C112.83 105.497 112.913 105.294 112.997 105.088C113.022 105.025 113.048 104.962 113.073 104.898L113.074 104.896C113.633 103.509 114.177 102.157 113.259 102.603C113.259 102.55 113.266 102.491 113.28 102.427L113.725 102.499C113.812 102.551 113.9 102.603 113.929 102.654C114.045 102.603 114.162 102.654 114.482 102.861C114.472 102.879 114.573 102.998 114.691 103.138C114.873 103.352 115.093 103.613 115.02 103.631C114.979 103.616 114.935 103.601 114.889 103.587C114.958 103.623 115.001 103.636 115.02 103.631C115.252 103.716 115.422 103.811 115.551 103.911C115.422 104.144 115.297 104.371 115.178 104.587C115.169 104.605 115.159 104.622 115.149 104.64C115.057 104.613 114.961 104.575 114.86 104.519C114.931 104.591 115.03 104.625 115.142 104.653C115.096 104.738 115.05 104.821 115.006 104.902L114.889 104.778L114.482 104.881C114.648 104.986 114.798 105.015 114.931 105.036C114.883 105.122 114.836 105.206 114.79 105.287C114.68 105.225 114.568 105.166 114.458 105.108C114.07 104.905 113.724 104.723 113.667 104.519C113.669 104.536 113.671 104.556 113.674 104.58C113.701 104.834 113.763 105.408 114.511 105.503L114.452 105.71C114.481 105.71 114.512 105.709 114.543 105.708C114.533 105.726 114.521 105.744 114.511 105.762C114.53 105.741 114.549 105.723 114.566 105.708C114.588 105.707 114.61 105.706 114.634 105.705C114.655 105.705 114.679 105.704 114.702 105.703C114.699 105.719 114.694 105.739 114.685 105.762C114.63 105.96 114.441 106.348 114.092 107.063L114.045 107.16C114.487 106.51 114.752 106.064 114.939 105.701C115.14 105.707 115.334 105.739 115.452 105.849C115.437 105.916 115.425 105.976 115.417 106.03L115.384 106.021L115.414 106.047C115.361 106.412 115.454 106.514 115.617 106.539C115.619 106.531 115.621 106.524 115.622 106.517C115.79 106.585 115.933 106.71 115.909 106.797C115.804 106.777 115.727 106.773 115.65 106.768C115.535 106.762 115.419 106.756 115.21 106.694C115.21 107 115.521 107.121 115.757 107.214C115.802 107.231 115.843 107.247 115.88 107.264C115.909 107.471 115.734 107.471 115.268 107.264C115.223 107.343 115.2 107.441 115.177 107.543C115.124 107.774 115.067 108.02 114.744 108.092C114.923 108.331 114.965 108.312 115.036 108.277C115.106 108.245 115.202 108.2 115.472 108.351C114.715 108.351 114.569 108.714 114.627 109.128C114.662 109.35 114.775 109.61 114.883 109.862C114.951 110.022 115.019 110.178 115.064 110.319C115.727 110.185 115.743 110.245 115.765 110.335C115.784 110.409 115.808 110.504 116.217 110.523C116.071 110.549 115.912 110.644 115.741 110.746C115.72 110.759 115.698 110.772 115.676 110.785C115.443 110.941 115.21 110.992 115.006 110.733L115.151 111.096C114.818 111.294 114.67 111.161 114.506 111.014C114.498 111.007 114.49 110.999 114.482 110.992C114.472 110.987 114.464 110.981 114.454 110.976C114.285 110.874 114.079 110.75 113.637 111.044C113.663 111.279 113.978 111.429 114.275 111.57C114.305 111.585 114.335 111.599 114.366 111.614C114.685 111.769 114.918 111.925 114.715 112.287C114.268 112.312 114.33 112.396 114.407 112.5C114.489 112.613 114.589 112.749 114.074 112.857C113.824 112.857 113.798 112.725 113.771 112.593C113.76 112.54 113.75 112.487 113.725 112.443L113.55 112.598C113.492 113.323 113.783 113.323 114.133 113.167C114.15 113.16 114.169 113.153 114.187 113.145C114.555 112.993 114.994 112.812 115.326 112.96C115.494 113.43 114.969 113.724 114.551 113.958C114.463 114.007 114.379 114.054 114.307 114.1C114.192 114.263 114.295 114.523 114.472 114.651C114.505 114.685 114.556 114.71 114.627 114.721C114.571 114.71 114.519 114.685 114.472 114.651C114.354 114.531 114.453 114.289 114.656 114.048C114.889 113.789 115.297 113.53 115.588 113.478C115.122 113.893 115.151 114.203 115.355 114.307C115.558 114.461 115.905 114.411 116.109 114.359C116.13 114.402 116.15 114.445 116.171 114.488C116.207 114.566 116.243 114.644 116.287 114.721C116.462 115.032 116.636 115.343 116.782 115.498C116.821 115.545 116.859 115.591 116.897 115.637C117.025 115.796 117.148 115.947 117.306 116.068C117.452 116.223 117.597 116.327 117.743 116.43C118.063 116.637 118.238 116.741 118.471 116.845L118.645 116.896L118.762 116.948C118.806 116.948 118.849 116.961 118.893 116.974C118.937 116.987 118.981 117 119.025 117H119.752C119.898 117 120.306 116.948 120.597 116.793C120.728 116.754 120.809 116.715 120.892 116.676C120.919 116.663 120.946 116.65 120.975 116.637C121.034 116.612 121.084 116.586 121.135 116.56C121.186 116.534 121.238 116.508 121.295 116.482C121.645 116.275 121.936 116.068 122.14 115.861L122.315 115.705L122.46 115.55C122.548 115.446 122.664 115.343 122.752 115.291C123.101 114.928 123.421 114.566 123.712 114.203C124.295 113.478 124.818 112.701 125.343 111.925C126.613 109.928 127.825 107.724 128.948 105.68C129.604 104.49 130.228 103.353 130.817 102.344C129.914 102.21 130.162 101.785 130.589 101.056C130.952 100.435 131.446 99.5915 131.465 98.518C131.476 98.5263 131.487 98.5322 131.5 98.5355L131.633 98.77C131.581 98.6613 131.551 98.5867 131.539 98.5391C131.565 98.5382 131.596 98.5312 131.63 98.5192C131.758 98.6304 131.978 98.9019 132.075 99.0214C132.144 99.1075 132.15 99.1145 132.011 98.9255C131.954 98.7942 131.896 98.6546 131.837 98.5103C131.826 98.4847 131.816 98.459 131.805 98.4332C131.986 98.3266 132.212 98.1538 132.44 97.9801C133.313 97.3138 134.2 96.6365 132.593 99.6506L134.283 96.7504C135.007 96.3501 134.616 97.2481 134.159 98.2966C134.084 98.4694 134.007 98.6462 133.933 98.8219C133.38 100.065 132.943 101.204 134.166 100.427C134.967 99.132 135.505 97.7286 136.05 96.3072C136.158 96.0237 136.267 95.7397 136.379 95.4557C137.048 93.7984 137.835 92.0893 139.145 90.8463C139.033 91.9846 139.401 91.3732 139.815 90.6838L139.873 90.5874C140.309 89.8623 140.805 89.1374 140.805 90.2249C140.599 90.9929 140.19 91.5802 139.742 92.2237C139.555 92.4916 139.362 92.769 139.174 93.0733L139.698 92.7625C140.834 91.3642 141.416 90.5357 141.707 89.9659C141.999 89.3963 141.999 89.0338 141.94 88.7229C141.916 88.6173 141.881 88.5162 141.845 88.4118C141.69 87.9626 141.515 87.455 142.04 86.2795C142.06 86.3825 142.085 86.5055 142.115 86.6514C142.091 86.5196 142.065 86.3948 142.042 86.277C142.058 86.2393 142.076 86.2008 142.094 86.1617C142.184 86.463 142.289 86.8585 142.289 86.8585L142.755 87.2729C142.988 87.48 143.221 87.6872 143.192 87.6353C143.163 87.6353 143.163 87.48 143.163 87.221C143.17 87.1628 143.177 87.0994 143.184 87.0297C143.208 86.7887 143.241 86.4716 143.309 86.0299C143.368 85.585 143.472 85.0448 143.617 84.395C144.088 84.0382 144.375 84.0231 144.561 84.1138C144.763 84.2449 144.862 84.5211 144.95 84.772C145.002 84.9175 145.05 85.0545 145.115 85.1495C145.348 85.0978 145.755 84.787 146.163 84.3727C146.536 84.0408 146.86 83.6655 147.068 83.3659C146.143 84.6727 144.221 84.3929 144.707 82.8191C145.115 82.9744 145.551 82.8708 145.988 82.6636C146.396 82.4565 146.803 82.1976 147.124 81.9386C147.444 81.6797 147.647 81.4208 147.764 81.2135C147.853 81.0553 147.908 80.897 147.955 80.7619C147.97 80.7201 147.984 80.6804 147.997 80.6438C148.026 80.3848 147.851 80.1259 147.647 79.9706C147.444 79.8152 147.181 79.8152 146.978 79.8152C146.597 79.8152 146.284 79.9723 145.997 80.1154C145.954 80.1367 145.912 80.1576 145.871 80.1778C145.568 80.3738 145.265 80.5232 144.79 80.758L144.707 80.7993C144.637 80.8335 144.565 80.8687 144.488 80.9053C144.493 80.8872 144.498 80.8692 144.502 80.851C144.579 80.5054 144.65 80.2169 144.721 79.9324C144.841 79.4495 144.957 78.9785 145.085 78.2615C145.144 78.1038 145.091 78.4665 145.051 78.7399C145.011 79.0053 144.985 79.1867 145.085 78.7276C145.113 78.3875 145.235 77.8426 145.374 77.2312C145.531 76.5423 145.705 75.7694 145.783 75.1112L145.785 75.1008L145.9 74.947C145.963 74.6565 145.928 74.7421 145.89 74.8375C145.845 74.9488 145.794 75.0732 145.886 74.6329L145.93 74.4291C145.912 74.5076 145.898 74.5752 145.886 74.6329L145.785 75.1008L145.784 75.1023C145.784 75.1052 145.784 75.1083 145.783 75.1112L145.551 76.1899C145.551 75.8793 145.609 75.4648 145.726 74.8434C145.673 75.0312 145.591 75.3797 145.505 75.7433C145.308 76.5831 145.091 77.503 145.172 76.7078L145.231 76.6042C145.151 76.6042 145.342 75.5906 145.419 75.1894C145.425 75.1557 145.43 75.1265 145.434 75.1023L145.464 75.1542L145.551 74.1702C145.493 74.8434 145.871 73.4451 145.784 73.4969C145.77 73.1821 145.755 73.3057 145.729 73.5248C145.703 73.738 145.667 74.0418 145.609 74.1184C145.567 74.1557 145.646 73.684 145.726 73.2043C145.757 73.0169 145.789 72.8283 145.813 72.6682H145.697C145.77 72.254 145.784 72.2798 145.795 72.2992C145.806 72.3186 145.813 72.3316 145.871 71.8914C145.827 72.0209 145.777 72.1504 145.726 72.2798C145.675 72.4093 145.623 72.5388 145.581 72.6682C145.736 71.6126 145.672 71.8012 145.591 72.0381C145.506 72.2894 145.402 72.5951 145.522 71.5289C145.624 71.2853 145.637 71.0777 145.653 70.8006C145.665 70.6063 145.678 70.3777 145.726 70.0788L145.434 70.027C145.434 69.8338 145.503 69.6404 145.539 69.5343C145.562 69.47 145.574 69.4378 145.551 69.4574C145.57 69.0148 145.502 69.3554 145.444 69.6409C145.413 69.7896 145.386 69.9234 145.376 69.9234C145.399 69.6812 145.369 69.6121 145.334 69.532C145.278 69.4067 145.212 69.2546 145.318 68.3697C145.257 67.7976 145.179 68.3291 145.107 68.8256C145.042 69.2729 144.981 69.692 144.939 69.2501C144.968 68.7997 145.01 68.7483 145.045 68.7044C145.083 68.6576 145.115 68.6193 145.115 68.1108C145.08 68.1516 145.045 68.1844 145.013 68.2155C144.962 68.2633 144.917 68.3071 144.882 68.3697C144.892 68.2949 144.904 68.1999 144.918 68.0957C144.978 67.6374 145.061 66.9997 145.109 67.1129C144.957 66.6612 144.841 65.8086 144.722 64.9256C144.662 64.4772 144.6 64.0209 144.532 63.6052C144.328 62.3622 144.066 61.3782 143.717 61.9997C143.663 61.3275 143.709 61.2092 143.772 61.0458C143.812 60.9447 143.858 60.8265 143.891 60.5495C143.629 61.2746 143.454 60.6531 143.28 59.8763C143.105 59.0995 142.902 58.219 142.669 58.2708V59.1512C142.319 57.7529 141.882 57.5458 141.504 57.5458C141.415 57.5458 141.326 57.5569 141.236 57.5683C140.936 57.6057 140.623 57.6447 140.309 57.2867L140.456 57.8565C140.436 58.4417 140.365 58.7064 140.302 58.94C140.271 59.0578 140.242 59.1677 140.223 59.3065C140.208 59.2035 140.194 59.0333 140.177 58.8419C140.128 58.2638 140.062 57.4935 139.931 57.8048C139.949 57.866 139.967 57.9275 139.985 57.9895C140.061 58.2421 140.14 58.508 140.164 58.8405C139.727 57.8048 139.203 57.5457 138.65 57.494H137.835C137.544 57.494 137.281 57.4422 137.019 57.3386C136.507 57.9627 135.918 58.1418 135.302 58.3296C135.254 58.3444 135.205 58.3593 135.156 58.3744C134.516 58.5297 133.874 58.7369 133.438 59.4101C133.584 59.2031 134.05 61.2746 133.817 60.912C133.176 59.3584 133.088 59.6173 133.03 60.0316C133.027 60.0567 133.023 60.0823 133.02 60.1077C132.966 60.5032 132.913 60.9044 132.448 59.9799C132.353 60.655 132.065 60.6425 131.773 60.6148C132.007 59.9845 132.242 59.3466 132.477 58.6852C132.637 58.1932 132.804 57.7141 132.972 57.235C133.14 56.7559 133.307 56.277 133.467 55.785L133.933 54.2831L134.166 53.558C134.166 53.558 134.253 53.1954 134.311 52.9884L134.399 52.6776C134.413 52.6 134.428 52.5352 134.442 52.4705C134.457 52.4057 134.472 52.341 134.486 52.2633L134.516 52.0561L134.544 51.9007L134.573 51.6418C134.632 51.2794 134.661 50.917 134.69 50.5546L134.719 50.2952V49.4667C134.719 48.7933 134.632 48.1201 134.516 47.4986C134.457 47.1879 134.399 46.8771 134.311 46.6182L134.253 46.4111C134.244 46.3797 134.233 46.3437 134.22 46.3043C134.192 46.2135 134.157 46.1051 134.136 45.9967C134.093 45.8672 134.042 45.7378 133.991 45.6083C133.94 45.4788 133.889 45.3494 133.846 45.2199C133.38 44.1324 132.681 43.252 132.011 42.8375C131.866 42.7341 131.661 42.6305 131.604 42.6305C131.56 42.6046 131.523 42.5917 131.487 42.5786C131.45 42.5657 131.414 42.5527 131.371 42.5269C131.224 42.4752 131.05 42.4233 130.875 42.4233C130.555 42.3715 130.206 42.4233 129.885 42.475L129.769 42.5269L129.594 42.6305L129.448 42.6822C129.405 42.7081 129.354 42.7341 129.303 42.76C129.252 42.7858 129.201 42.8117 129.158 42.8375C129.14 42.8476 129.123 42.8576 129.104 42.8679C129.026 42.9113 128.937 42.9612 128.866 43.0448L128.721 43.1484C128.633 43.2001 128.575 43.252 128.488 43.3554L128.08 43.718L127.993 43.8216L127.847 43.9769L127.73 44.2359L127.003 45.2718L126.304 46.3592L127.003 45.7896C127.113 45.6917 127.229 45.594 127.352 45.4907C127.489 45.3752 127.635 45.253 127.789 45.1163C127.497 45.5307 127.323 45.8931 127.148 46.2556C126.974 46.6182 126.828 46.929 126.712 47.2397C126.653 47.395 126.587 47.5376 126.522 47.68C126.457 47.8224 126.391 47.9648 126.333 48.1201C126.304 48.172 126.275 48.2366 126.246 48.3014C126.216 48.3661 126.187 48.4309 126.158 48.4826L125.983 48.7933C125.692 49.2595 125.284 49.7256 124.79 50.1399C125.664 47.9648 125.168 48.5862 124.382 49.7256L124.349 49.7736C123.564 50.9109 122.455 52.5193 122.053 52.315C122.402 51.6418 122.781 50.9167 123.159 50.2435C121.513 52.7096 121.528 52.7293 122.012 53.3361L122.023 53.3508C121.07 54.9706 120.549 55.1395 120.089 55.2885C119.991 55.3204 119.896 55.3513 119.8 55.3953C120.155 54.1404 120.521 52.8437 120.888 51.4865C120.975 51.1758 121.062 50.8648 121.15 50.5024C121.194 50.3212 121.238 50.1528 121.28 49.9846C121.324 49.8163 121.368 49.6479 121.412 49.4667C121.587 48.7935 121.761 48.1201 121.907 47.395C121.979 47.0326 122.06 46.6701 122.14 46.3075C122.22 45.945 122.3 45.5824 122.373 45.2199C122.444 44.9223 122.497 44.5898 122.545 44.2797C122.556 44.2121 122.566 44.1455 122.577 44.0805L122.985 41.6982L123.13 40.4554L123.275 39.1605L123.334 38.539L123.363 37.8658L123.451 36.5192L123.479 35.846L123.508 35.4835V34.8103C123.508 34.3358 123.459 33.9048 123.407 33.4377L123.392 33.3084C123.363 33.0494 123.334 32.7905 123.304 32.5833L123.246 32.2207C123.233 32.1758 123.226 32.1308 123.215 32.0603C123.201 31.9686 123.179 31.8337 123.13 31.5992C122.868 30.3045 122.402 29.0098 121.849 27.9741C121.703 27.7151 121.557 27.4562 121.412 27.249C121.379 27.2033 121.348 27.1551 121.315 27.1055C121.198 26.9302 121.069 26.7373 120.888 26.5758C120.48 26.1096 120.043 25.6954 119.548 25.3845C119.053 25.0739 118.559 24.8667 118.093 24.8149C117.86 24.7632 117.568 24.7632 117.51 24.7632H117.19C116.753 24.8149 116.316 24.9703 115.88 25.1775C115.821 25.2033 115.77 25.2292 115.72 25.2551C115.669 25.2809 115.617 25.3069 115.559 25.3328L115.384 25.4364L115.151 25.5917C115.006 25.6954 114.831 25.8507 114.685 26.006L114.336 26.3168C114.19 26.4722 114.074 26.6275 113.958 26.7828L113.725 27.0937C113.669 27.1728 113.626 27.2368 113.59 27.2915C113.53 27.3798 113.487 27.4439 113.434 27.5079L113.317 27.6633C113.302 27.6893 113.295 27.6893 113.291 27.6893C113.29 27.6893 113.289 27.6893 113.289 27.6897C113.288 27.6913 113.288 27.6965 113.288 27.7151L113.23 27.7669C113.171 27.8188 113.113 27.8705 113.055 27.9741C113.04 27.9741 112.95 28.0762 112.839 28.203C112.741 28.3152 112.626 28.4465 112.531 28.5437L111.918 29.2874C111.857 28.1581 111.684 26.98 111.424 25.9543C111.366 25.6954 111.308 25.4364 111.221 25.1775L111.104 24.8149C111.046 24.6596 111.046 24.6596 110.958 24.3491C110.609 23.3133 110.114 22.1737 109.444 21.1896C108.804 20.2056 108.017 19.4288 107.231 18.9628C106.853 18.7038 106.474 18.5483 106.125 18.4449C105.98 18.393 105.717 18.3413 105.659 18.3413L105.455 18.2894C104.873 18.2377 104.29 18.2894 103.708 18.4449C103.417 18.5483 103.125 18.652 102.864 18.8073C102.791 18.8592 102.725 18.898 102.66 18.9368C102.594 18.9757 102.528 19.0145 102.456 19.0662L102.252 19.2217C101.961 19.4288 101.699 19.6877 101.437 19.9467L101.233 20.1539L101.088 20.3611L100.941 20.5164C100.898 20.5677 100.856 20.6314 100.812 20.6955C100.807 20.6357 100.801 20.5761 100.796 20.5164C100.771 20.0732 100.725 19.6679 100.675 19.2356C100.667 19.1629 100.659 19.089 100.651 19.0145C100.534 18.1341 100.389 17.3055 100.214 16.4768L100.156 16.2696L100.097 15.959C100.068 15.8553 100.046 15.7647 100.024 15.6742C100.003 15.5835 99.9807 15.4928 99.9518 15.3892C99.8931 15.208 99.8353 15.0139 99.7766 14.8197C99.7188 14.6256 99.6602 14.4311 99.6024 14.2499C99.5437 14.0686 99.478 13.8873 99.4132 13.7061C99.3475 13.5248 99.2819 13.3436 99.2241 13.1623L99.1076 12.9034L98.9613 12.5408C98.8449 12.2819 98.6995 11.9711 98.5541 11.7122C98.0006 10.6246 97.3307 9.64062 96.603 8.91557C95.7587 8.03514 94.7683 7.3619 93.7787 7.05116C93.2252 6.89579 92.9336 6.84399 92.5553 6.84399C92.177 6.84399 91.7987 6.84399 91.4195 6.94757C91.3328 6.97348 91.2382 6.99935 91.1436 7.02525C91.049 7.05114 90.9536 7.07704 90.8669 7.10293L90.6041 7.20652L90.3712 7.31011L89.7599 7.62083C89.3527 7.87978 88.9446 8.13873 88.5663 8.50125C88.3333 8.70839 88.1293 8.91552 87.9261 9.12264C87.8097 9.22623 87.7221 9.3299 87.6056 9.48527C87.5758 9.51981 87.5406 9.56013 87.505 9.60043C87.4339 9.68096 87.3627 9.76148 87.3433 9.79599L86.9939 10.2621C86.8774 10.4174 86.7609 10.5729 86.6445 10.78L86.1494 11.6604L86.0912 11.8158L85.8 12.3855L85.5962 12.8516C85.538 13.007 85.4506 13.1623 85.3923 13.2659C84.9556 14.3017 84.6935 15.0267 84.4315 15.7517C83.9364 17.0983 83.5288 18.1858 83.1503 19.0145L83.2376 18.5483C83.1794 18.7297 83.1138 18.9238 83.0483 19.1181C82.9828 19.3122 82.9173 19.5065 82.8591 19.6877C82.8527 19.7217 82.8477 19.7507 82.8432 19.777C82.8272 19.8706 82.8171 19.9289 82.7717 20.0503V20.1021C82.7717 20.1021 82.7426 20.2056 82.7135 20.2056L82.597 20.4645L82.335 21.0343C82.1602 21.3968 81.9855 21.7594 81.8108 22.1737C81.6361 22.5362 81.454 22.9117 81.2721 23.2872C81.0901 23.6626 80.9081 24.0381 80.7334 24.4007ZM131.289 60.6827C131.267 60.3087 131.244 59.9974 131.05 60.0835L130.731 61.2906C130.745 61.3069 130.764 61.3354 130.788 61.3782L131.108 62.2586C130.985 61.2378 131.093 60.8329 131.289 60.6827ZM130.694 61.4293L130.639 61.6356C130.64 61.6361 130.641 61.6365 130.642 61.6371L130.73 61.8961C130.74 61.8199 130.724 61.6804 130.708 61.5528C130.703 61.5094 130.698 61.4672 130.694 61.4293ZM130.576 61.6248L130.584 61.5854C130.573 61.6023 130.562 61.6193 130.55 61.6362C130.558 61.6308 130.567 61.627 130.576 61.6248ZM130.476 61.7478C129.9 62.6232 129.441 63.5281 129.047 64.4479C129.117 64.5411 129.192 64.6691 129.274 64.848C129.54 64.9344 129.565 64.2299 129.582 63.7228C129.586 63.6212 129.589 63.5276 129.594 63.4497C129.753 63.755 129.8 63.5829 129.844 63.4126C129.907 63.1786 129.968 62.9483 130.322 63.9676L130.118 62.8801L130.293 63.398C130.245 63.0036 130.293 63.0995 130.36 63.2357C130.416 63.35 130.486 63.4924 130.526 63.398L130.176 62.3622C130.308 62.5177 130.351 62.297 130.399 62.057C130.421 61.9463 130.443 61.8314 130.476 61.7478ZM121.243 82.1032C121.266 82.1908 121.276 82.2593 121.266 82.301C121.24 82.2675 121.216 82.2351 121.192 82.2039C121.21 82.17 121.226 82.1365 121.243 82.1032ZM120.738 83.1214C120.736 83.1248 120.735 83.1283 120.733 83.1317C120.736 83.1303 120.738 83.1297 120.742 83.1297C120.741 83.127 120.739 83.1242 120.738 83.1214ZM120.719 83.1588C120.683 83.2326 120.647 83.3066 120.611 83.3811L120.684 83.544C120.984 83.9583 120.912 83.764 120.823 83.5214C120.772 83.3802 120.714 83.2227 120.719 83.1588ZM120.584 83.4347C120.576 83.451 120.568 83.4675 120.561 83.484C120.533 83.5412 120.505 83.5988 120.476 83.6564C120.477 83.6569 120.477 83.6573 120.477 83.6578C120.505 83.6993 120.527 83.7323 120.539 83.7512C120.716 83.7512 120.688 83.6735 120.584 83.4347ZM120.445 83.719C120.397 83.8183 120.348 83.9179 120.299 84.0179C120.441 84.0483 120.557 84.0434 120.445 83.719ZM120.153 84.3157C120.108 84.405 120.064 84.4943 120.019 84.5833C120.117 84.7579 120.222 84.9412 120.334 85.1337L120.499 84.9374C120.449 84.8855 120.395 84.8362 120.335 84.787C120.368 84.787 120.266 84.5642 120.153 84.3157ZM121.427 106.448C121.441 106.42 121.456 106.39 121.47 106.36C121.498 106.359 121.535 106.367 121.587 106.383C121.652 106.537 122.036 106.804 122.16 106.89C122.161 106.892 122.164 106.893 122.166 106.894C122.167 106.896 122.168 106.898 122.168 106.9C122.064 106.957 121.95 107.032 121.834 107.107C121.785 107.14 121.735 107.172 121.686 107.203L121.383 107.005C121.878 107.16 121.761 106.953 121.616 106.746C121.604 106.73 121.594 106.714 121.583 106.699C121.519 106.608 121.451 106.514 121.427 106.448ZM121.137 107.117C121.149 107.081 121.163 107.041 121.18 106.998C121.243 107.033 121.323 107.083 121.407 107.135C121.472 107.176 121.54 107.217 121.603 107.255C121.57 107.274 121.539 107.293 121.507 107.311L121.137 107.117ZM122.171 106.898C122.169 106.897 122.168 106.896 122.166 106.894C122.124 106.802 122.11 106.724 122.094 106.64C122.06 106.447 122.02 106.229 121.616 105.762C121.835 105.901 122.012 106.017 122.161 106.116C122.445 106.304 122.628 106.424 122.808 106.506C122.741 106.672 122.674 106.838 122.605 107.005C122.605 106.724 122.418 106.763 122.171 106.898ZM122.892 106.298C123.046 105.913 123.198 105.527 123.349 105.141C123.337 105.128 123.324 105.115 123.312 105.103C123.203 104.988 123.111 104.89 122.985 104.778L123.159 105.088L123.042 104.933C122.519 104.571 122.693 104.881 122.838 105.14C123.014 105.399 123.159 105.658 122.519 105.244L122.81 105.503C122.978 105.677 122.936 105.684 122.898 105.69C122.856 105.696 122.817 105.702 123.042 105.917C122.703 105.645 122.69 105.726 122.675 105.819C122.664 105.886 122.652 105.96 122.519 105.917C122.7 106.089 122.816 106.207 122.892 106.298ZM123.476 104.816C123.5 104.753 123.524 104.691 123.549 104.629C123.495 104.567 123.425 104.481 123.334 104.363C123.113 104.233 123.218 104.39 123.331 104.564C123.393 104.657 123.458 104.756 123.476 104.816ZM124.111 104.725C124.29 104.874 124.404 104.953 124.178 104.622L124.12 104.726C124.117 104.724 124.114 104.722 124.112 104.719C124.156 104.509 124.193 104.308 124.226 104.115C124.281 104.174 124.333 104.232 124.38 104.285C124.426 104.336 124.467 104.382 124.499 104.415C124.326 104.058 124.359 104.053 124.395 104.046C124.431 104.04 124.471 104.033 124.301 103.652C124.301 103.65 124.302 103.648 124.302 103.646L124.586 103.949L124.316 103.556C124.317 103.545 124.318 103.535 124.32 103.525L124.935 104.001L124.557 103.638C124.548 103.593 124.528 103.539 124.508 103.487C124.458 103.359 124.412 103.239 124.557 103.276L124.965 103.794C124.899 103.562 125.055 103.641 125.203 103.716C125.222 103.726 125.241 103.735 125.261 103.744C124.77 104.874 124.264 105.81 123.858 105.762C123.94 105.469 124.008 105.197 124.065 104.939L124.178 105.14C124.178 105.113 124.178 105.091 124.176 105.07C124.169 105.02 124.147 104.977 124.075 104.894C124.087 104.837 124.099 104.781 124.111 104.725ZM125.356 103.521C125.361 103.508 125.367 103.496 125.372 103.483H125.386C125.351 103.436 125.316 103.398 125.284 103.379C125.313 103.433 125.337 103.48 125.356 103.521ZM125.412 103.483C125.377 103.387 125.427 103.404 125.504 103.458L125.488 103.483H125.412ZM125.7 103.142L125.711 103.125L125.605 103.017L125.7 103.142ZM126.059 102.566L126.179 102.373C126.083 102.374 126.03 102.425 126.059 102.566ZM127.551 101.208C127.609 101.054 127.668 100.899 127.723 100.749C127.833 100.922 127.855 100.971 127.877 101.049C127.888 101.049 127.905 101.055 127.924 101.062C127.998 101.088 128.092 101.121 127.905 100.79L128.199 101.243C128.186 101.265 128.173 101.289 128.16 101.312C128.01 101.578 127.863 101.838 127.73 102.085C127.674 102.151 127.623 102.211 127.576 102.264C127.505 102.031 127.436 101.785 127.405 101.593C127.446 101.485 127.488 101.374 127.531 101.262C127.554 101.271 127.582 101.286 127.614 101.308C127.597 101.277 127.574 101.242 127.551 101.208ZM127.271 101.964C127.293 101.902 127.316 101.836 127.341 101.769C127.395 101.859 127.429 101.944 127.465 102.031C127.496 102.107 127.526 102.184 127.572 102.268C127.549 102.294 127.528 102.318 127.507 102.34C127.482 102.3 127.457 102.261 127.433 102.223C127.377 102.135 127.322 102.048 127.271 101.964ZM127.212 102.146C127.217 102.13 127.222 102.113 127.229 102.095C127.33 102.207 127.402 102.302 127.461 102.389C127.434 102.415 127.411 102.439 127.389 102.46L127.212 102.146ZM127.156 102.352C127.159 102.337 127.164 102.32 127.167 102.304L127.328 102.514C127.24 102.587 127.186 102.607 127.158 102.584C127.185 102.541 127.188 102.467 127.156 102.352ZM128.374 100.931C128.244 100.734 128.15 100.559 128.196 100.531C128.307 100.672 128.384 100.764 128.438 100.817C128.416 100.855 128.395 100.893 128.374 100.931ZM128.504 100.698C128.541 100.629 128.579 100.56 128.617 100.491C128.589 100.42 128.549 100.33 128.488 100.22C128.261 100.006 128.358 100.283 128.449 100.54C128.469 100.595 128.488 100.65 128.504 100.698ZM128.659 100.41C128.795 100.156 128.926 99.9011 129.043 99.6477C129.042 99.6486 129.041 99.6495 129.041 99.6504C128.794 99.2577 128.808 99.3598 128.827 99.4967C128.85 99.6666 128.881 99.8903 128.429 99.288L128.692 100.324L128.371 99.8577C128.427 99.9677 128.488 100.083 128.546 100.193C128.587 100.27 128.625 100.343 128.659 100.41ZM129.05 99.6332C129.096 99.5328 129.141 99.4328 129.183 99.3332L129.128 99.2362L129.099 99.3915L129.041 99.288C128.773 98.8678 128.778 98.9324 128.784 99.0066C128.788 99.0696 128.793 99.1395 128.633 98.9255C128.633 99.0973 128.785 99.2693 128.906 99.4061C128.991 99.504 129.062 99.5839 129.05 99.6332ZM129.267 99.4836C129.26 99.5043 129.253 99.5254 129.244 99.547C129.253 99.5281 129.262 99.5091 129.271 99.49L129.267 99.4836ZM129.301 99.4234C129.299 99.4175 129.295 99.4117 129.292 99.4057C129.336 99.254 129.355 99.123 129.371 98.994L129.439 99.1156C129.394 99.2186 129.348 99.3212 129.301 99.4234ZM129.448 99.0968C129.455 99.079 129.463 99.0613 129.47 99.0434C129.456 99.051 129.448 99.0681 129.448 99.0968ZM135.56 91.5741C135.25 90.8519 135.143 90.3546 135.331 90.6391C135.438 90.9726 135.557 91.2512 135.683 91.5105C135.637 91.5419 135.597 91.5623 135.56 91.5741ZM135.705 91.4952C135.749 91.4621 135.799 91.419 135.855 91.3642L135.782 90.9161C135.708 90.8109 135.663 90.7768 135.68 90.8981L135.564 90.5355C135.36 90.2249 135.389 90.6391 135.593 91.2606C135.631 91.3484 135.668 91.425 135.705 91.4952ZM137.087 89.6948C137.136 89.7621 137.208 89.7895 137.311 89.7589C137.319 89.7399 137.327 89.7208 137.335 89.7016C137.262 89.7227 137.181 89.7276 137.087 89.6948ZM138.424 88.0032C138.466 87.9451 138.508 87.8873 138.549 87.8302C138.495 87.7659 138.441 87.7 138.388 87.6353C138.352 87.6353 138.383 87.7956 138.419 87.9791C138.42 87.9871 138.422 87.9951 138.424 88.0032ZM139.496 85.9428C139.502 85.938 139.507 85.9331 139.513 85.9282C139.498 85.8785 139.482 85.8261 139.465 85.771C139.476 85.8298 139.486 85.8871 139.496 85.9428ZM129.338 98.9355C129.3 99.0434 129.258 99.1523 129.212 99.2619C129.052 98.9752 128.863 98.665 128.692 98.4076C128.821 98.5337 128.875 98.5319 128.923 98.5302C128.994 98.5277 129.055 98.5255 129.332 98.9255L129.338 98.9355ZM123.879 103.776C123.86 103.763 123.844 103.751 123.829 103.742C123.846 103.767 123.858 103.789 123.866 103.808C123.87 103.797 123.874 103.787 123.879 103.776ZM123.736 104.144C123.719 104.187 123.703 104.231 123.686 104.274C123.537 104.089 123.435 103.925 123.451 103.897C123.511 103.933 123.642 104.045 123.736 104.144ZM120.174 85.3226C120.096 85.21 120.013 85.0852 119.927 84.9423C119.937 84.9237 119.955 84.9118 119.974 84.8994C120.007 84.8772 120.043 84.8533 120.043 84.787L119.974 84.6747C119.831 84.9623 119.687 85.2474 119.543 85.5245C119.575 85.586 119.615 85.6665 119.665 85.771L119.548 85.5638C119.47 85.5638 119.562 85.7267 119.684 85.9276C119.849 85.7202 120.013 85.517 120.174 85.3226ZM119.489 86.1751L119.318 85.9519C119.297 85.9924 119.275 86.0327 119.253 86.0729C119.302 86.1414 119.352 86.2128 119.402 86.2853C119.431 86.2485 119.46 86.2118 119.489 86.1751ZM118.536 87.3993C118.525 87.3853 118.512 87.3714 118.501 87.3577C118.461 87.4176 118.422 87.4758 118.384 87.5319L118.381 87.5991C118.433 87.5328 118.484 87.4661 118.536 87.3993ZM119.099 86.3549C119.138 86.3777 119.172 86.3925 119.199 86.3925C119.18 86.3477 119.161 86.3081 119.145 86.273C119.129 86.3006 119.114 86.3278 119.099 86.3549ZM117.589 98.7532C117.577 98.7785 117.565 98.8037 117.553 98.829C116.95 98.2714 116.874 98.3767 116.808 98.4666C116.766 98.5243 116.728 98.5757 116.558 98.4403C116.635 98.2792 116.71 98.1173 116.786 97.9542C117.068 98.185 117.439 98.5045 117.589 98.7532ZM118.364 96.7274C118.38 96.7511 118.396 96.7761 118.412 96.8021C118.392 96.7778 118.371 96.7532 118.349 96.7284C118.355 96.7281 118.359 96.7277 118.364 96.7274ZM117.76 96.9103C117.735 96.9266 117.71 96.9445 117.684 96.9641C117.719 97.0059 117.749 97.0412 117.772 97.061L117.76 96.9103ZM117.07 97.5638C116.997 97.6467 116.921 97.7378 116.84 97.8379C116.827 97.8663 116.814 97.8947 116.801 97.923C117.167 98.1404 117.372 98.1972 117.102 97.6307C117.091 97.61 117.08 97.5875 117.07 97.5638ZM116.44 98.691C116.37 98.8407 116.3 98.9895 116.23 99.1375C116.321 99.1957 116.493 99.3439 116.812 99.6504C116.791 99.5758 116.777 99.506 116.765 99.4363C116.728 99.232 116.692 99.0268 116.44 98.691ZM116.019 99.5838C115.94 99.7496 115.862 99.9145 115.785 100.078C115.794 100.084 115.802 100.091 115.811 100.097C116.18 100.372 116.579 100.668 116.579 100.531C116.189 100.16 116.145 99.9894 116.1 99.8169C116.082 99.7447 116.063 99.6718 116.019 99.5838ZM115.347 100.067C115.208 100.058 115.095 100.099 114.98 100.141C114.873 100.18 114.763 100.22 114.627 100.22L115.273 100.917C115.269 100.948 115.267 100.979 115.263 101.01L115.035 100.893C115.095 100.955 115.146 101.021 115.196 101.087C115.213 101.11 115.231 101.133 115.249 101.156C115.246 101.189 115.242 101.223 115.239 101.256C115.249 101.232 115.261 101.208 115.271 101.184C115.373 101.309 115.493 101.428 115.705 101.515L115.617 101.618C116.188 102.049 116.163 102.096 116.121 102.172C116.093 102.224 116.058 102.289 116.199 102.499C116.025 102.447 115.792 102.24 115.676 102.136C115.659 102.195 115.493 102.087 115.288 101.954C115.136 101.856 114.964 101.744 114.816 101.676C114.916 101.727 115.145 101.939 115.421 102.196C115.655 102.413 115.923 102.662 116.176 102.871C116.066 103.049 115.959 103.226 115.854 103.4C115.487 103.161 115.149 103.014 115.122 103.224C115.086 103.032 114.883 102.8 114.699 102.59C114.585 102.46 114.479 102.339 114.423 102.24C114.366 102.292 114.278 102.292 113.929 101.929C114.026 102.177 114.15 102.294 114.256 102.395C114.372 102.504 114.466 102.593 114.482 102.81C113.876 102.41 113.563 102.288 113.306 102.324C113.415 101.948 113.704 101.431 114.045 100.945C114.482 100.324 115.035 99.7023 115.384 99.4953C115.38 99.5889 115.374 99.6838 115.367 99.7798C115.353 99.7705 115.339 99.7619 115.326 99.754L115.367 99.8018C115.36 99.8894 115.354 99.9779 115.347 100.067ZM115.788 104.146C115.637 104.362 115.528 104.539 115.436 104.702C115.45 104.704 115.465 104.706 115.479 104.709C115.582 104.725 115.684 104.742 115.788 104.772C115.832 104.648 115.882 104.515 115.937 104.373C115.894 104.299 115.847 104.223 115.788 104.146ZM116.217 103.657C116.203 103.647 116.189 103.636 116.175 103.626C116.211 103.579 116.248 103.532 116.287 103.483C116.263 103.542 116.24 103.6 116.217 103.657ZM116.357 103.767C116.408 103.617 116.472 103.437 116.549 103.224C116.558 103.216 116.572 103.2 116.588 103.178C116.734 103.271 116.862 103.328 116.957 103.328C117.364 103.587 117.597 103.949 117.423 103.949L116.52 103.431L117.423 104.156C117.473 104.305 117.302 104.266 117.125 104.225C116.995 104.195 116.861 104.164 116.812 104.208C116.801 104.155 116.609 103.97 116.357 103.767ZM116.15 104.701C116.123 104.752 116.096 104.805 116.069 104.859C116.065 104.868 116.06 104.877 116.055 104.885C116.157 104.944 116.263 105.025 116.375 105.14C116.782 105.347 116.782 105.088 116.549 104.933C116.357 104.882 116.239 104.801 116.15 104.701ZM115.677 106.281C115.662 106.352 115.645 106.425 115.628 106.498L115.966 106.539L115.677 106.281ZM115.746 104.888C115.648 104.802 115.536 104.754 115.425 104.721C115.374 104.812 115.328 104.9 115.283 104.987C115.435 105.02 115.596 105.049 115.695 105.034C115.712 104.987 115.728 104.938 115.746 104.888ZM115.221 105.111C115.213 105.127 115.205 105.143 115.197 105.159L115.181 105.192C115.144 105.276 115.106 105.361 115.064 105.45C115.063 105.45 115.064 105.451 115.064 105.45C115.252 105.542 115.269 105.472 115.288 105.399C115.3 105.348 115.312 105.296 115.384 105.296C115.339 105.202 115.284 105.146 115.221 105.111ZM115.335 101.046L115.443 101.101L115.353 101.005C115.347 101.018 115.341 101.032 115.335 101.046ZM71.1169 29.2546C71.1533 29.2445 71.1746 29.2386 71.1819 29.2368L71.1785 29.2383C71.165 29.2425 71.1299 29.2528 71.0754 29.2688H71.0661C71.0855 29.2634 71.1024 29.2586 71.1169 29.2546ZM42.2388 15.7517C42.2688 15.7696 42.2705 15.7718 42.2495 15.7613L42.2388 15.7517ZM40.5791 14.8196L40.5671 14.8408C40.1716 14.6194 40.0109 14.5223 40.5791 14.8196ZM22.0628 57.6764C22.3217 56.9399 22.6153 56.2782 22.9849 55.833C22.8026 56.1886 22.6205 56.5504 22.4383 56.9244C22.3102 57.1697 22.1854 57.4211 22.0628 57.6764ZM19.9341 62.1033C19.9669 62.1155 19.999 62.1238 20.0306 62.1285C19.9214 62.3753 19.8123 62.623 19.7035 62.8716C19.781 62.6156 19.8579 62.3595 19.9341 62.1033ZM15.8549 68.2259C15.8301 68.2567 15.8052 68.2874 15.7803 68.318C15.7973 68.3508 15.8078 68.3847 15.707 68.4079L15.6616 68.4635C15.691 68.485 15.7292 68.494 15.7717 68.4952C15.8239 68.4004 15.8768 68.3078 15.9302 68.2185C15.9003 68.2204 15.8755 68.2228 15.8549 68.2259ZM6.9473 81.3689C6.99224 81.3139 7.03688 81.2596 7.08092 81.2066C7.26301 81.1466 7.41427 81.1323 7.47139 81.2135C7.09828 81.3578 6.89915 81.4739 6.79153 81.5719C6.82888 81.5234 6.86651 81.4743 6.90404 81.4254L6.9473 81.3689ZM16.024 68.6662C16.089 68.7583 16.1269 68.8608 15.779 68.9192C15.7583 68.9476 15.737 68.9786 15.7151 69.0118L16.0261 69.2608C16.1369 69.0977 16.2474 68.9339 16.3579 68.7695C16.2735 68.64 16.1688 68.5768 16.024 68.6662ZM11.2859 90.2249C11.3294 90.0315 11.4094 89.9031 11.5048 89.7966C11.5179 89.9117 11.5317 90.027 11.5462 90.1423C11.4627 90.2215 11.4167 90.2178 11.3717 90.2142C11.3452 90.2121 11.3191 90.2101 11.2859 90.2249ZM11.4315 90.3285C11.4585 90.3044 11.5042 90.2472 11.5513 90.1822L11.5572 90.2284C11.5111 90.2697 11.4687 90.3037 11.4315 90.3285ZM11.6424 90.996C11.6508 90.9827 11.659 90.9695 11.6672 90.9563L11.6782 91.0208C11.6628 91.0217 11.6393 91.032 11.6062 91.0536C11.6185 91.0342 11.6305 91.0151 11.6424 90.996ZM11.5398 91.4278C11.6076 91.2934 11.6684 91.173 11.6917 91.0987C11.6977 91.1335 11.704 91.1687 11.7103 91.2044L11.2859 92.0374C11.3111 91.8809 11.434 91.6373 11.5398 91.4278ZM11.665 91.5808C11.6933 91.5266 11.7216 91.4724 11.7496 91.4186C11.8075 91.7291 11.8757 92.0638 11.9517 92.3907C11.9283 92.4408 11.9041 92.4931 11.8796 92.5464C11.6365 93.073 11.3516 93.6901 11.3732 93.0732C11.6754 92.6894 11.6897 92.4479 11.7004 92.2642C11.7043 92.2 11.7076 92.1429 11.7227 92.0893C11.5422 92.6029 11.4847 92.5395 11.4186 92.4663C11.3781 92.4215 11.3343 92.373 11.2568 92.4517C11.3497 92.1832 11.5075 91.8816 11.6636 91.5833L11.665 91.5808ZM15.9277 69.4055L15.9062 69.4372C15.8696 69.427 15.8336 69.4166 15.7992 69.4055H15.9277ZM16.082 67.943L16.1009 67.9453C16.1458 67.8771 16.1909 67.8112 16.2361 67.7484C16.1847 67.8135 16.1334 67.8785 16.082 67.943ZM120.857 42.2196L120.858 42.2161C121.566 43.6139 121.356 43.2024 120.857 42.2196ZM118.821 38.1766C118.792 38.1223 118.781 38.1038 118.786 38.1161L118.792 38.1248L118.821 38.1766ZM112.472 35.4019C111.684 35.4193 112.079 35.4045 112.472 35.3902V35.4019ZM119.84 56.6135C119.655 57.2229 119.328 57.9592 118.9 58.5927C119.159 57.6551 119.429 56.7019 119.706 55.724L119.763 55.5245C120.072 55.4859 120.041 55.9991 119.84 56.6135ZM118.326 58.478C118.266 58.5847 118.206 58.692 118.144 58.7997C118.187 58.7129 118.246 58.6067 118.326 58.478ZM99.5183 79.5003C99.57 79.9881 99.5069 79.4213 99.4623 79.0158C99.4167 78.6101 99.3913 78.3661 99.5183 79.5003ZM108.845 95.8227C108.83 95.5775 108.826 95.478 108.876 96.2593C108.884 96.4585 108.859 96.0678 108.845 95.8227ZM111.657 29.1652C111.668 29.3068 111.675 29.4483 111.681 29.5898L111.633 29.6527C111.625 29.488 111.614 29.325 111.599 29.1652C111.483 27.8705 111.25 26.5239 110.9 25.3845C110.884 25.3408 110.863 25.2725 110.835 25.1807C110.763 24.9462 110.644 24.5591 110.434 24.0381C110.201 23.4166 109.881 22.7951 109.532 22.2254C108.833 21.086 107.93 20.1539 107.057 19.636C106.62 19.377 106.212 19.2217 105.804 19.1698C105.6 19.1181 105.455 19.1181 105.281 19.1181C104.961 19.1181 104.611 19.1181 104.261 19.1698C103.912 19.2217 103.591 19.377 103.271 19.5324C103.198 19.5756 103.131 19.6098 103.065 19.6426C102.975 19.6882 102.89 19.731 102.805 19.7913C102.631 19.8949 102.514 19.9985 102.514 19.9985C102.339 20.1021 102.194 20.2575 102.048 20.4128C101.976 20.4904 101.895 20.5681 101.815 20.6457C101.735 20.7233 101.655 20.8012 101.582 20.879L101.321 21.1896C101.262 21.2672 101.211 21.3319 101.16 21.3967C101.11 21.4613 101.058 21.5263 101 21.6039L100.891 21.7689C100.888 21.7158 100.884 21.6627 100.88 21.6096L100.971 21.4486C101 21.3968 101.036 21.345 101.073 21.2932C101.109 21.2415 101.145 21.1896 101.174 21.1379C101.189 21.112 101.211 21.086 101.233 21.0602C101.255 21.0343 101.277 21.0084 101.291 20.9824L101.349 20.879C101.407 20.8271 101.466 20.7754 101.495 20.6717C101.728 20.4128 101.99 20.1539 102.281 19.8949C102.31 19.8691 102.347 19.8432 102.383 19.8172C102.42 19.7913 102.456 19.7655 102.485 19.7396L102.66 19.5843L102.864 19.4288C102.936 19.377 103.009 19.3381 103.082 19.2993C103.154 19.2605 103.227 19.2217 103.301 19.1698C103.912 18.8592 104.582 18.7556 105.251 18.7556H105.6L105.747 18.8073C105.781 18.8168 105.817 18.8264 105.852 18.8361C106.205 18.9312 106.601 19.0384 106.998 19.2734C107.872 19.7396 108.804 20.6717 109.532 21.8628C109.881 22.4326 110.201 23.1058 110.463 23.7273L110.813 24.6596C110.842 24.7372 110.864 24.8149 110.885 24.8925C110.907 24.9703 110.929 25.048 110.958 25.1256C111.133 25.6954 111.279 26.3686 111.395 27.0418C111.512 27.7151 111.599 28.4402 111.657 29.1652ZM101.023 23.2725C101.011 23.0936 100.997 22.9131 100.98 22.7362C101.039 22.6618 101.092 22.599 101.145 22.5362C101.172 22.5054 101.195 22.4743 101.217 22.4448C101.27 22.3753 101.317 22.3136 101.378 22.2773C101.466 22.1737 101.524 22.1219 101.582 22.0702C101.651 22.0095 101.709 21.9487 101.757 21.8986C101.791 21.863 101.82 21.8327 101.844 21.8111L102.136 21.5522C102.281 21.4486 102.369 21.3968 102.31 21.4486C102.287 21.489 102.194 21.5927 102.043 21.7594L102.041 21.7609C101.999 21.8074 101.953 21.8587 101.903 21.9147C101.844 21.9664 101.786 22.0699 101.728 22.1735C101.714 22.1994 101.699 22.2125 101.684 22.2254C101.67 22.2383 101.655 22.2512 101.64 22.2773C101.582 22.3807 101.524 22.4845 101.437 22.5879C101.335 22.7433 101.277 22.8469 101.23 22.9311C101.182 23.0151 101.145 23.0799 101.088 23.1577L101.023 23.2725ZM110.463 40.2999C110.477 40.325 110.475 40.3228 110.462 40.3037L110.463 40.2999ZM97.998 25.649C97.9963 25.6516 97.9945 25.6549 97.9928 25.6589L97.9717 25.6435H98.0006C98.0006 25.6435 97.9998 25.6455 97.998 25.649Z" fill="#154F46" fill-opacity="0.5"/>
</svg>
