<svg width="50" height="46" viewBox="0 0 50 46" fill="none" xmlns="http://www.w3.org/2000/svg">
<g clip-path="url(#clip0_176_541)">
<path d="M32.5169 10.4168C34.5517 10.8138 36.4219 11.809 37.8878 13.275C39.3538 14.741 40.349 16.6111 40.746 18.646M32.5169 2.0835C36.7445 2.55315 40.6869 4.44636 43.6965 7.45226C46.7062 10.4582 48.6044 14.3981 49.0794 18.6252M46.996 35.2502V41.5002C46.9984 42.0804 46.8796 42.6547 46.6471 43.1863C46.4147 43.7179 46.0738 44.1951 45.6462 44.5874C45.2187 44.9796 44.7139 45.2783 44.1643 45.4641C43.6146 45.65 43.0322 45.7191 42.4544 45.6668C36.0436 44.9703 29.8856 42.7796 24.4752 39.271C19.4415 36.0724 15.1738 31.8047 11.9752 26.771C8.45433 21.336 6.26322 15.1481 5.57938 8.7085C5.52732 8.13239 5.59579 7.55175 5.78042 7.00355C5.96506 6.45535 6.26182 5.9516 6.65181 5.52437C7.0418 5.09715 7.51647 4.75581 8.04561 4.52208C8.57475 4.28836 9.14676 4.16737 9.72521 4.16683H15.9752C16.9863 4.15688 17.9664 4.51491 18.733 5.17419C19.4997 5.83347 20.0004 6.74901 20.1419 7.75016C20.4057 9.7503 20.8949 11.7142 21.6002 13.6043C21.8805 14.35 21.9412 15.1604 21.775 15.9395C21.6089 16.7186 21.2228 17.4337 20.6627 18.0002L18.0169 20.646C20.9826 25.8617 25.3012 30.1803 30.5169 33.146L33.1627 30.5002C33.7291 29.94 34.4443 29.554 35.2234 29.3879C36.0025 29.2217 36.8129 29.2824 37.5585 29.5627C39.4487 30.268 41.4126 30.7572 43.4127 31.021C44.4247 31.1638 45.349 31.6735 46.0097 32.4533C46.6703 33.233 47.0214 34.2284 46.996 35.2502Z" stroke="white" stroke-width="3" stroke-linecap="round" stroke-linejoin="round"/>
</g>
<defs>
<clipPath id="clip0_176_541">
<rect width="49.3847" height="45.6848" fill="white" transform="translate(0.5625)"/>
</clipPath>
</defs>
</svg>
