<svg width="459" height="438" viewBox="0 0 459 438" fill="none" xmlns="http://www.w3.org/2000/svg">
<path d="M142.866 343.789L155.141 431.21L148.705 431.124L136.431 344.703L142.866 343.789Z" fill="#A1B2F2"/>
<path d="M123.705 343.789L111.431 431.21L117.866 431.124L130.141 344.703L123.705 343.789Z" fill="#91A0DA"/>
<path d="M176.866 343.789L189.141 431.21L182.705 431.124L170.431 344.703L176.866 343.789Z" fill="#91A0DA"/>
<path d="M190 338.8C190 333.167 185.433 328.6 179.8 328.6H141.489C134.199 328.6 128.289 322.69 128.289 315.4V242.2C128.289 234.91 122.379 229 115.089 229H92.2C84.9098 229 79 234.91 79 242.2V335.8C79 343.09 84.9098 349 92.2 349H179.8C185.433 349 190 344.433 190 338.8Z" fill="#A1B2F2"/>
<path d="M92.2 229C91.2094 229 90.2442 229.109 89.316 229.316C89.1091 230.244 89 231.209 89 232.2V325.8C89 333.09 94.9098 339 102.2 339H189.8L189.998 338.998L190 338.8C190 333.167 185.433 328.6 179.8 328.6H141.489C134.199 328.6 128.289 322.69 128.289 315.4V242.2C128.289 234.91 122.379 229 115.089 229H92.2Z" fill="black" fill-opacity="0.0964543"/>
<path d="M89.7052 343.789L77.4306 431.21L83.866 431.124L96.1406 344.703L89.7052 343.789Z" fill="#A1B2F2"/>
<path fill-rule="evenodd" clip-rule="evenodd" d="M206.17 225.757C207.145 225.565 216.451 218.351 217.46 213.715C218.47 209.079 215.674 200.884 214.342 200.478C213.01 200.073 212.028 203.077 206.17 211.277C205.423 205.731 204.68 202.958 203.942 202.958C202.239 202.958 202.332 210.56 201.859 211.974L201.828 212.054C201.49 212.837 201.075 215.348 200.585 219.586C187.448 231.208 179.005 238.803 175.255 242.37C174.397 243.187 143.48 215.306 142.738 216.034C139.574 219.134 141.618 226.614 148.87 238.474C162.064 254.305 170.859 261.226 175.255 259.237C182.937 255.761 203.6 226.264 206.17 225.757Z" fill="#FFA475"/>
<path d="M140.801 215.416C145.426 215.651 172.218 240.324 173.807 240.324C174.867 240.324 183.022 233.376 198.272 219.479L205.813 226.401C187.549 249.611 176.981 261.228 174.108 261.253C169.8 261.289 149.719 245.165 144.809 239.798C139.9 234.432 136.176 215.181 140.801 215.416Z" fill="#3C62FF"/>
<path d="M142.059 221.954L169.335 259.236C161.734 254.745 148.644 243.99 144.809 239.798C144.353 239.3 143.907 238.681 143.477 237.969L142.059 221.954Z" fill="black" fill-opacity="0.270405"/>
<path d="M198.503 217.404L195.375 220.944L203.306 232.431L207.707 226.058L198.503 217.404Z" fill="#182160"/>
<path fill-rule="evenodd" clip-rule="evenodd" d="M183.581 404.592V423.556C183.581 424.097 184.019 424.536 184.561 424.536H185.346C185.817 424.536 186.22 424.202 186.309 423.74L188.254 413.584C194.642 420.885 198.545 424.536 199.963 424.536C201.171 424.536 204.994 424.536 211.432 424.536C212.515 424.536 213.392 423.659 213.392 422.576C213.392 422.13 213.24 421.697 212.961 421.349C212.109 420.287 211.224 419.487 210.306 418.947C208.678 417.989 204.826 412.847 198.75 403.522C198.388 402.966 197.77 402.632 197.108 402.632H185.541C184.458 402.632 183.581 403.509 183.581 404.592Z" fill="#2A3036"/>
<path fill-rule="evenodd" clip-rule="evenodd" d="M140.461 403.612V423.556C140.461 424.097 140.9 424.536 141.441 424.536H142.227C142.697 424.536 143.101 424.202 143.189 423.74L145.135 413.584C151.523 420.885 155.425 424.536 156.843 424.536C158.126 424.536 162.754 424.536 170.727 424.536C171.809 424.536 172.687 423.659 172.687 422.576C172.687 422.282 172.621 421.992 172.493 421.727C171.918 420.529 171.127 419.634 170.12 419.042C168.46 418.066 163.535 412.712 155.345 402.981C155.159 402.759 154.885 402.632 154.596 402.632H141.441C140.9 402.632 140.461 403.07 140.461 403.612Z" fill="#2A3036"/>
<path d="M141.399 336.16L147.387 335.122L146.92 333.762L140.648 334.493L141.399 336.16Z" fill="#182160"/>
<path fill-rule="evenodd" clip-rule="evenodd" d="M192.004 308.974C196.527 313.648 197.784 345.516 195.774 404.58C202.302 412.737 204.043 416.816 200.998 416.816C196.43 416.816 187.846 407.493 186.904 405.988C186.369 405.133 182.286 386.596 176.098 351.896C175.38 347.873 175.112 341.581 175.293 333.02C143.658 336.138 124.955 336.138 119.184 333.02C113.413 329.902 109.405 321.233 107.162 307.015C159.2 303.647 187.481 304.3 192.004 308.974Z" fill="#EF9669"/>
<path d="M180.802 306.017L180.694 306.083C178.478 307.52 177.039 310.563 176.376 315.212L175.879 318.912C175.302 323.094 174.452 328.932 173.327 336.426L173.339 334.755C173.344 334.187 173.351 333.608 173.359 333.02L171.535 333.205C152.534 335.109 138.512 335.751 129.469 335.128L136.268 305.348H176.148C177.673 305.512 179.052 305.703 180.283 305.922L180.802 306.017Z" fill="black" fill-opacity="0.0964543"/>
<path fill-rule="evenodd" clip-rule="evenodd" d="M170.782 313.181C175.305 317.855 169.512 348.196 153.402 404.205C160.46 412.966 162.62 417.347 159.88 417.347C157.141 417.347 151.906 413.403 144.176 405.517C145.438 380.611 146.069 364.664 146.069 357.677C146.069 350.69 147.792 342.257 151.237 332.379C122.526 336.754 105.393 336.754 99.8377 332.379C94.2828 328.004 94.2828 317.81 99.8377 301.799C142.611 304.713 166.259 308.507 170.782 313.181Z" fill="#FFA475"/>
<path d="M140.648 311.135L138.191 322.512L130.521 319.302L140.648 311.135Z" fill="black" fill-opacity="0.0964543"/>
<path d="M169.977 305.348C167 305.348 153.978 305.111 147.059 307.239C144.662 307.976 141.038 310.954 140.107 316.174C140.027 316.622 137.897 317.302 133.716 318.215C137.659 319.87 139.611 321.11 139.571 321.937C139.455 324.338 140.065 329.079 141.399 336.16C115.236 338.008 100.579 335.891 97.4275 329.81C94.2763 323.728 94.8926 313.506 99.2764 299.143L147.059 300.391C156.061 301.329 163.7 302.344 169.977 303.435C174.454 304.213 178.062 305.016 180.801 305.844C175.569 305.514 171.961 305.348 169.977 305.348Z" fill="#182160"/>
<path d="M99.838 301.799L100.905 301.834L100.872 303.022C100.559 315.528 101.653 322.836 104.153 324.945C106.682 327.079 118.836 329.357 140.617 331.781L140.818 332.961C140.994 333.968 141.187 335.035 141.4 336.16L139.844 336.267C114.655 337.922 100.516 335.769 97.4277 329.81C94.2765 323.728 95.0799 314.391 99.838 301.799Z" fill="black" fill-opacity="0.270405"/>
<path d="M95.4104 218.288C101.005 211.44 140.266 214.883 141.141 215.419C147.347 226.865 150.859 235.467 151.678 241.225C152.906 249.861 150.546 258.437 149.249 263.135L146.01 299.959L100.117 298.494C101.879 284.219 102.717 275.561 102.63 272.518C102.5 267.955 90.2188 224.643 95.4104 218.288Z" fill="#3C62FF"/>
<path d="M102.739 234.576L107.867 265.756L133.61 292.842L107.867 298.595H103.28L100.116 298.494L100.646 294.141C102.046 282.446 102.708 275.238 102.63 272.518L102.618 272.316C102.335 268.789 97.3582 250.195 95.1603 235.631L102.739 234.576Z" fill="black" fill-opacity="0.270405"/>
<path d="M124.416 219.333L125.81 218.865L126.264 220.227L126.916 222.218C130.654 233.758 133.539 242.033 133.608 247.084L133.61 247.366C133.61 250.387 131.608 267.818 131.608 269.694V300.39H130.138L130.14 269.136L130.152 268.468C130.199 266.454 132.122 250.562 132.139 247.684L132.14 247.366C132.14 242.086 128.913 232.721 124.416 219.333Z" fill="#182160"/>
<path fill-rule="evenodd" clip-rule="evenodd" d="M130.511 298.841C136.487 298.841 141.867 297.992 146.651 296.294L147.387 300.51C144.218 301.683 138.592 302.269 130.511 302.269C120.672 302.269 110.188 301.399 99.0599 299.66L99.3251 298.968C99.5548 298.363 99.8066 297.688 100.08 296.944L100.419 296.018L101.453 296.017L103.726 296.34C115.662 298.008 124.59 298.841 130.511 298.841Z" fill="white"/>
<path d="M130.488 168.975C132.284 167.611 133.928 167.408 135.419 168.368C137.656 169.807 141.003 173.583 142.191 179.019C143.379 184.455 143.893 190.777 143.893 197.434C143.893 201.872 144.544 206.487 145.846 211.277C140.75 210.756 137 210.215 134.595 209.655C132.191 209.095 129.616 208.163 126.872 206.858L130.488 168.975Z" fill="#0A0F31"/>
<path fill-rule="evenodd" clip-rule="evenodd" d="M138.447 177.489C141.394 183.109 139.671 208.988 132.067 208.988C130.893 208.988 129.722 208.703 128.554 208.133V215.191C128.467 217.797 126.936 219.101 123.96 219.101C120.984 219.101 118.247 218.251 115.747 216.553C117.149 210.886 117.488 206.579 116.765 203.632C115.681 199.212 105.492 184.502 110.572 175.097C115.652 165.692 135.501 171.87 138.447 177.489Z" fill="#FFA475"/>
<path d="M137.877 192.164C137.228 192.164 136.703 191.639 136.703 190.99C136.703 190.342 137.228 189.816 137.877 189.816C138.525 189.816 139.051 190.342 139.051 190.99C139.051 191.639 138.525 192.164 137.877 192.164Z" fill="#372630"/>
<path d="M128.379 192.164C127.73 192.164 127.205 191.639 127.205 190.99C127.205 190.342 127.73 189.816 128.379 189.816C129.027 189.816 129.553 190.342 129.553 190.99C129.553 191.639 129.027 192.164 128.379 192.164Z" fill="#372630"/>
<path d="M134.931 190.189C134.982 191.194 135.168 192.018 135.49 192.66C135.971 193.623 137.365 195.23 136.979 195.99C136.721 196.496 135.895 196.692 134.498 196.576" stroke="#CA7A50" stroke-width="0.586971" stroke-linecap="round"/>
<path fill-rule="evenodd" clip-rule="evenodd" d="M135.912 200.603C135.749 199.898 130.641 200.081 130.045 200.219C129.448 200.357 131.654 202.43 133.406 202.5C135.158 202.569 136.075 201.308 135.912 200.603Z" fill="#CA6750"/>
<path d="M140.705 187.777C139.452 187.038 138.081 186.618 136.592 186.518" stroke="#4D3544" stroke-width="0.704365" stroke-linecap="round"/>
<path d="M125.883 187.668C127.616 186.961 129.377 186.635 131.163 186.689" stroke="#4D3544" stroke-width="0.704365" stroke-linecap="round"/>
<path d="M122.407 204.458L128.554 208.133V212.972L122.407 204.458Z" fill="black" fill-opacity="0.0964543"/>
<path d="M135.696 168.477C134.267 167.557 132.15 167.87 130.441 169.085L129.833 175.569L130.757 177.071C136.572 185.558 140.722 187.828 143.611 188.107C143.061 183.932 142.565 180.834 142.124 178.814C140.936 173.378 137.933 169.916 135.696 168.477Z" fill="#182160"/>
<path d="M133.736 179.885C131.75 185.527 127.517 189.225 124.275 191.038C122.114 192.247 121.587 198.993 122.694 211.277C117.274 210.09 113.169 208.931 110.38 207.802C107.59 206.673 105.97 205.223 105.519 203.453C104.512 189.178 104.904 180.16 106.695 176.399C109.38 170.758 114.652 168.099 118.17 167.56C124.508 166.589 129.491 166.983 133.12 168.742C134.854 172.409 135.059 176.124 133.736 179.885Z" fill="#182160"/>
<path d="M125.113 219.099L116.64 214.08L110.214 214.248L121.115 224.643L125.113 219.099Z" fill="#182160"/>
<path d="M125.113 219.099L131.361 223.402V214.517L128.685 214.384L125.113 219.099Z" fill="#182160"/>
<path fill-rule="evenodd" clip-rule="evenodd" d="M88.7963 264.746L79.6669 273.098C95.6156 281.662 113.639 293.758 114.748 294.511C116.463 295.676 120.202 296.304 121.652 296.736C123.276 297.218 125.715 297.192 126.015 297.117C126.768 296.931 125.393 295.812 124.284 294.759C127.506 296.309 129.278 296.954 129.599 296.695C130.117 296.277 129.325 294.548 128.179 293.386C133.08 295.747 136.009 296.766 136.969 296.444C139.053 295.744 128.431 288.632 126.873 288.188C125.315 287.744 119.295 286.672 118.035 286.844L88.7963 264.746Z" fill="#FFA475"/>
<path d="M96.0842 217.864C94.544 219.091 93.8883 219.968 93.5302 220.351C88.6957 225.518 67.3693 259.482 69.8216 266.379C70.771 269.05 84.2352 277.921 110.214 292.993L117.307 285.162C97.9878 270.074 88.2972 262.396 88.2354 262.128C87.9759 261.004 92.6175 251.666 100.108 241.946C108.437 230.065 110.368 225.311 103.456 219.478C101.281 217.642 97.6244 216.637 96.0842 217.864Z" fill="#3C62FF"/>
<path d="M115.2 280.92L103.402 290.471L109.713 294.351L119.121 284.966L115.2 280.92Z" fill="#182160"/>
<path d="M262 291C278.569 291 292 304.431 292 321V401C292 417.569 278.569 431 262 431H30C13.4315 431 0 417.569 0 401V321C0 304.431 13.4315 291 30 291H262ZM220 298H71C56.2374 298 44.242 309.848 44.0036 324.554L44 325V397C44 411.763 55.8478 423.758 70.5535 423.996L71 424H220C234.763 424 246.758 412.152 246.996 397.446L247 397V325C247 310.237 235.152 298.242 220.446 298.004L220 298Z" fill="#A1B2F2"/>
<path d="M225 291C241.569 291 255 304.431 255 321V401C255 417.569 241.569 431 225 431H30C13.4315 431 0 417.569 0 401V321C0 304.431 13.4315 291 30 291H225ZM220 298H71C56.2374 298 44.242 309.848 44.0036 324.554L44 325V397C44 411.763 55.8478 423.758 70.5535 423.996L71 424H220C234.763 424 246.758 412.152 246.996 397.446L247 397V325C247 310.088 234.912 298 220 298Z" fill="#C4D1FF"/>
<path d="M71 298C56.2374 298 44.242 309.848 44.0036 324.554L44 325V397C44 411.763 55.8478 423.758 70.5535 423.996L71 424H35C20.0883 424 8 411.912 8 397V325C8 310.088 20.0883 298 35 298H71Z" fill="#91A0DA"/>
<path d="M70.6351 288.449H179.78C180.238 288.449 180.609 288.82 180.609 289.278V290.696C180.609 291.154 180.238 291.525 179.78 291.525H70.6351C70.177 291.525 69.8057 291.154 69.8057 290.696V289.278C69.8057 288.82 70.177 288.449 70.6351 288.449Z" fill="#CF6FFF"/>
<path d="M143.626 288.449H179.78C180.238 288.449 180.61 288.82 180.61 289.278V290.696C180.61 291.154 180.238 291.525 179.78 291.525H143.626C143.168 291.525 142.796 291.154 142.796 290.696V289.278C142.796 288.82 143.168 288.449 143.626 288.449Z" fill="#AA58D4"/>
<path d="M68.5454 242H135.727C137.739 242 139.438 243.495 139.694 245.491L144.641 284.073C144.921 286.264 143.373 288.268 141.182 288.549C141.013 288.571 140.843 288.581 140.673 288.581H73.4917C71.4792 288.581 69.7801 287.086 69.5242 285.09L64.5778 246.509C64.2969 244.317 65.8455 242.313 68.0367 242.032C68.2054 242.011 68.3753 242 68.5454 242Z" fill="#AA58D4"/>
<path d="M68.5454 242H133.338C135.35 242 137.05 243.495 137.305 245.491L142.252 284.073C142.533 286.264 140.984 288.268 138.793 288.549C138.624 288.571 138.454 288.581 138.284 288.581H73.4917C71.4792 288.581 69.7801 287.086 69.5242 285.09L64.5778 246.509C64.2969 244.317 65.8455 242.313 68.0367 242.032C68.2054 242.011 68.3753 242 68.5454 242Z" fill="#CF6FFF"/>
<path d="M105.308 271.283C107.404 269.704 107.706 266.57 105.983 264.283C104.26 261.997 101.164 261.424 99.0681 263.003C96.9721 264.582 96.6697 267.716 98.3928 270.003C100.116 272.289 103.212 272.863 105.308 271.283Z" fill="#AA58D4"/>
<path d="M41 282C45.9706 282 50 277.299 50 271.5C50 265.701 45.9706 261 41 261C36.0294 261 32 265.701 32 271.5C32 277.299 36.0294 282 41 282Z" fill="#64AF6E"/>
<path d="M39.2757 261.192L39.501 261.145C43.7571 261.979 47 266.298 47 271.5C47 276.702 43.7571 281.021 39.501 281.855C35.2434 281.022 32 276.703 32 271.5C32 266.389 35.13 262.131 39.2757 261.192Z" fill="#76C881"/>
<path d="M40.75 257.635V261.618C40.75 262.033 41.0858 262.368 41.5 262.368C41.9142 262.368 42.25 262.033 42.25 261.618V257.635C42.25 257.221 41.9142 256.885 41.5 256.885C41.0858 256.885 40.75 257.221 40.75 257.635Z" fill="#FC60D2"/>
<path d="M38.8688 258.905L40.8688 262.023C41.0924 262.372 41.5563 262.473 41.905 262.25C42.2537 262.026 42.355 261.562 42.1314 261.214L40.1314 258.095C39.9078 257.747 39.4439 257.645 39.0952 257.869C38.7465 258.092 38.6452 258.556 38.8688 258.905Z" fill="#FC60D2"/>
<path d="M38.2382 261.203L41.2382 262.321C41.6264 262.466 42.0583 262.268 42.203 261.88C42.3476 261.492 42.1503 261.06 41.7622 260.916L38.7622 259.797C38.3741 259.653 37.9421 259.85 37.7974 260.238C37.6528 260.626 37.8501 261.058 38.2382 261.203Z" fill="#FC60D2"/>
<path d="M44.1314 258.905L42.1314 262.023C41.9078 262.372 41.4439 262.473 41.0952 262.25C40.7465 262.026 40.6452 261.562 40.8688 261.214L42.8688 258.095C43.0924 257.747 43.5563 257.645 43.905 257.869C44.2537 258.092 44.355 258.556 44.1314 258.905Z" fill="#FC60D2"/>
<path d="M44.7622 261.203L41.7622 262.321C41.3741 262.466 40.9421 262.268 40.7974 261.88C40.6528 261.492 40.8501 261.06 41.2382 260.916L44.2382 259.797C44.6264 259.653 45.0583 259.85 45.203 260.238C45.3476 260.626 45.1503 261.058 44.7622 261.203Z" fill="#FC60D2"/>
<path d="M30.1201 272.1H52.5201L49.9737 290.533C49.8971 291.087 49.4235 291.5 48.8642 291.5H33.776C33.2167 291.5 32.7431 291.087 32.6666 290.533L30.1201 272.1Z" fill="#C4D1FF"/>
<path d="M30.12 272.1H52.52C53.1386 272.1 53.64 272.602 53.64 273.22V276.7C53.64 277.319 53.1386 277.82 52.52 277.82H30.12C29.5014 277.82 29 277.319 29 276.7V273.22C29 272.602 29.5014 272.1 30.12 272.1Z" fill="#A1B2F2"/>
<path d="M181.4 132.8H303.4C304.283 132.8 305 133.516 305 134.4V177.2C305 178.084 304.283 178.8 303.4 178.8H181.4C180.516 178.8 179.8 178.084 179.8 177.2V134.4C179.8 133.516 180.516 132.8 181.4 132.8Z" fill="#C4D1FF"/>
<path d="M176.6 128H298.6C299.484 128 300.2 128.716 300.2 129.6V172.4C300.2 173.284 299.484 174 298.6 174H176.6C175.716 174 175 173.284 175 172.4V129.6C175 128.716 175.716 128 176.6 128Z" fill="white" stroke="#C4D1FF" stroke-width="0.8"/>
<path d="M277.4 129.2H280.2V140.8H277.4V129.2Z" fill="#DFE6FF"/>
<path d="M277.4 145.2H280.2V172.8H277.4V145.2Z" fill="#DFE6FF"/>
<path fill-rule="evenodd" clip-rule="evenodd" d="M278.495 140.953C282.788 140.953 285.469 142.516 287.867 145.585L288.24 146.079L289.476 147.796L289.582 147.939C290.415 149.042 290.946 149.452 291.586 149.496L291.769 149.502C292.629 149.534 293.317 150.242 293.317 151.11C293.317 152 292.596 152.72 291.707 152.72C289.801 152.72 288.517 151.831 287.116 150.015L286.832 149.636L286.086 148.596L285.573 147.888L285.426 147.692C283.563 145.259 281.738 144.173 278.495 144.173C276.408 144.173 274.955 144.842 273.752 146.195C272.91 147.141 272.312 148.171 271.374 150.229L271.092 150.855L270.503 152.191L270.176 152.916C269.069 155.344 268.302 156.646 267.115 157.947C265.219 160.026 262.772 161.12 259.587 161.12C257.318 161.12 255.411 160.589 253.708 159.567C252.514 158.85 251.639 158.088 250.268 156.68L249.42 155.802C247.087 153.411 245.772 152.647 243.371 152.647C240.772 152.647 238.982 153.72 237.043 156.028L236.795 156.331C236.578 156.613 235.315 158.255 234.618 159.083L234.443 159.287L234.312 159.432C233.288 160.518 232.263 161.12 231.01 161.12C230.121 161.12 229.4 160.4 229.4 159.51C229.4 158.671 230.043 157.981 230.863 157.907L231.033 157.9C231.205 157.887 231.462 157.737 231.85 157.346L232 157.19L232.237 156.914C232.395 156.724 232.592 156.478 232.802 156.214L233.317 155.559L234.295 154.301L234.434 154.129C236.976 151.045 239.588 149.427 243.371 149.427C245.351 149.427 247.036 149.917 248.566 150.861C249.493 151.433 250.217 152.039 251.227 153.047L251.486 153.308L252.527 154.384C253.741 155.634 254.458 156.262 255.365 156.806C256.569 157.529 257.903 157.9 259.587 157.9C261.861 157.9 263.446 157.191 264.736 155.777C265.63 154.798 266.269 153.714 267.223 151.63L267.577 150.846L268.168 149.506L268.493 148.785C269.54 146.495 270.249 145.289 271.346 144.055C273.153 142.024 275.476 140.953 278.495 140.953ZM278.801 141.16C278.028 141.16 277.401 141.787 277.401 142.56C277.401 143.333 278.028 143.96 278.801 143.96C279.574 143.96 280.201 143.333 280.201 142.56C280.201 141.787 279.574 141.16 278.801 141.16Z" fill="#FFBF29"/>
<path fill-rule="evenodd" clip-rule="evenodd" d="M278.661 139.2C280.439 139.2 281.881 140.642 281.881 142.42C281.881 144.198 280.439 145.64 278.661 145.64C276.883 145.64 275.441 144.198 275.441 142.42C275.441 140.642 276.883 139.2 278.661 139.2ZM278.661 141.44C278.12 141.44 277.681 141.879 277.681 142.42C277.681 142.961 278.12 143.4 278.661 143.4C279.202 143.4 279.641 142.961 279.641 142.42C279.641 141.879 279.202 141.44 278.661 141.44Z" fill="#252629"/>
<path fill-rule="evenodd" clip-rule="evenodd" d="M188.6 141.6H203.8C204.684 141.6 205.4 142.316 205.4 143.2V143.6C205.4 144.484 204.684 145.2 203.8 145.2H188.6C187.716 145.2 187 144.484 187 143.6V143.2C187 142.316 187.716 141.6 188.6 141.6Z" fill="#252629"/>
<path fill-rule="evenodd" clip-rule="evenodd" d="M188.6 149.6H215.8C216.684 149.6 217.4 150.316 217.4 151.2V151.6C217.4 152.484 216.684 153.2 215.8 153.2H188.6C187.716 153.2 187 152.484 187 151.6V151.2C187 150.316 187.716 149.6 188.6 149.6Z" fill="#FFBF29"/>
<path d="M188.6 157.6H207.8C208.684 157.6 209.4 158.316 209.4 159.2V159.6C209.4 160.484 208.684 161.2 207.8 161.2H188.6C187.716 161.2 187 160.484 187 159.6V159.2C187 158.316 187.716 157.6 188.6 157.6Z" fill="#DFE6FF"/>
<path d="M181.4 75.8H303.4C304.283 75.8 305 76.5164 305 77.4V120.2C305 121.084 304.283 121.8 303.4 121.8H181.4C180.516 121.8 179.8 121.084 179.8 120.2V77.4C179.8 76.5164 180.516 75.8 181.4 75.8Z" fill="#C4D1FF"/>
<path d="M176.6 71H298.6C299.484 71 300.2 71.7163 300.2 72.6V115.4C300.2 116.284 299.484 117 298.6 117H176.6C175.716 117 175 116.284 175 115.4V72.6C175 71.7163 175.716 71 176.6 71Z" fill="white" stroke="#C4D1FF" stroke-width="0.8"/>
<path fill-rule="evenodd" clip-rule="evenodd" d="M188.6 84.6001H203.8C204.684 84.6001 205.4 85.3164 205.4 86.2001V86.6001C205.4 87.4838 204.684 88.2001 203.8 88.2001H188.6C187.716 88.2001 187 87.4838 187 86.6001V86.2001C187 85.3164 187.716 84.6001 188.6 84.6001Z" fill="#252629"/>
<path fill-rule="evenodd" clip-rule="evenodd" d="M188.6 92.6001H215.8C216.684 92.6001 217.4 93.3164 217.4 94.2001V94.6001C217.4 95.4838 216.684 96.2001 215.8 96.2001H188.6C187.716 96.2001 187 95.4838 187 94.6001V94.2001C187 93.3164 187.716 92.6001 188.6 92.6001Z" fill="#FFBF29"/>
<path d="M188.6 100.6H207.8C208.684 100.6 209.4 101.316 209.4 102.2V102.6C209.4 103.484 208.684 104.2 207.8 104.2H188.6C187.716 104.2 187 103.484 187 102.6V102.2C187 101.316 187.716 100.6 188.6 100.6Z" fill="#DFE6FF"/>
<path d="M240.945 83H234.2V104.919H240.945V83Z" fill="#252629"/>
<path d="M252.988 83H246.244V104.919H252.988V83Z" fill="#252629"/>
<path d="M265.031 83H258.287V104.919H265.031V83Z" fill="#252629"/>
<path d="M277.075 83H270.331V104.919H277.075V83Z" fill="#252629"/>
<path d="M289.118 83H282.374V104.919H289.118V83Z" fill="#252629"/>
<path fill-rule="evenodd" clip-rule="evenodd" d="M235.164 89.4521H239.981C240.513 89.4521 240.945 89.8835 240.945 90.4156V103.956C240.945 104.488 240.513 104.919 239.981 104.919H235.164C234.632 104.919 234.2 104.488 234.2 103.956V90.4156C234.2 89.8835 234.632 89.4521 235.164 89.4521Z" fill="#FFBF29"/>
<path fill-rule="evenodd" clip-rule="evenodd" d="M247.207 95.8347H252.025C252.557 95.8347 252.988 96.2661 252.988 96.7982V103.956C252.988 104.488 252.557 104.919 252.025 104.919H247.207C246.675 104.919 246.244 104.488 246.244 103.956V96.7982C246.244 96.2661 246.675 95.8347 247.207 95.8347Z" fill="#FFBF29"/>
<path fill-rule="evenodd" clip-rule="evenodd" d="M259.251 99.0435H264.068C264.6 99.0435 265.031 99.4748 265.031 100.007V103.956C265.031 104.488 264.6 104.919 264.068 104.919H259.251C258.718 104.919 258.287 104.488 258.287 103.956V100.007C258.287 99.4748 258.718 99.0435 259.251 99.0435Z" fill="#FFBF29"/>
<path fill-rule="evenodd" clip-rule="evenodd" d="M271.294 93.0261H276.111C276.644 93.0261 277.075 93.4575 277.075 93.9896V103.956C277.075 104.488 276.644 104.919 276.111 104.919H271.294C270.762 104.919 270.331 104.488 270.331 103.956V93.9896C270.331 93.4575 270.762 93.0261 271.294 93.0261Z" fill="#FFBF29"/>
<path fill-rule="evenodd" clip-rule="evenodd" d="M283.338 85.4087H288.155C288.687 85.4087 289.118 85.8401 289.118 86.3722V103.956C289.118 104.488 288.687 104.919 288.155 104.919H283.338C282.805 104.919 282.374 104.488 282.374 103.956V86.3722C282.374 85.8401 282.805 85.4087 283.338 85.4087Z" fill="#FFBF29"/>
<path d="M111 68L111 66.7962C96.5901 62.8509 86 49.6622 86 34C86 18.3378 96.5901 5.1491 111 1.20383L111 0H120C138.778 0 154 15.2223 154 34C154 52.5899 139.081 67.6952 120.562 67.9954L120 68H111Z" fill="#A1B2F2"/>
<path d="M113 68C131.778 68 147 52.7777 147 34C147 15.2223 131.778 0 113 0C94.2223 0 79 15.2223 79 34C79 52.7777 94.2223 68 113 68Z" fill="#C4D1FF"/>
<path d="M112.74 64.5C129.585 64.5 143.24 50.8447 143.24 34C143.24 17.1553 129.585 3.5 112.74 3.5C95.8955 3.5 82.2402 17.1553 82.2402 34C82.2402 50.8447 95.8955 64.5 112.74 64.5Z" fill="#91A0DA"/>
<path d="M115.253 3.69719L115.741 3.64575C131.177 5.15299 143.24 18.1678 143.24 34C143.24 49.8323 131.177 62.8471 115.741 64.3543C100.304 62.8477 88.2402 49.8327 88.2402 34C88.2402 18.3345 100.051 5.42742 115.253 3.69719Z" fill="#EAEFFF"/>
<path d="M114.75 8.84229V36.0019C114.75 36.4161 115.086 36.7519 115.5 36.7519C115.914 36.7519 116.25 36.4161 116.25 36.0019V8.84229C116.25 8.42807 115.914 8.09229 115.5 8.09229C115.086 8.09229 114.75 8.42807 114.75 8.84229Z" fill="#182160"/>
<path d="M116.254 35.0051L100.67 23.2149C100.119 22.7984 99.3352 22.907 98.9187 23.4576C98.5022 24.0081 98.6109 24.7921 99.1614 25.2086L114.746 36.9988C115.297 37.4153 116.08 37.3066 116.497 36.7561C116.914 36.2055 116.805 35.4216 116.254 35.0051Z" fill="#182160"/>
<path fill-rule="evenodd" clip-rule="evenodd" d="M390.45 111.751L389.045 129.094H406.308C404.977 122.64 404.311 117.814 404.311 114.614C404.311 109.816 411.156 92.5657 412.982 87.3755C414.808 82.1854 404.311 70.5899 394.024 73.198C383.737 75.8062 382.575 86.1187 382.575 90.2451C382.575 94.3715 383.234 105.59 385.473 108.671C386.966 110.724 388.625 111.751 390.45 111.751Z" fill="#FFB294"/>
<path d="M398.183 108.877C396.461 110.964 395.086 112.4 394.058 113.183C393.153 113.871 391.861 114.622 390.18 115.436L390.507 112.089L390.883 112.03C392.197 111.809 393.298 111.509 394.185 111.128C395.17 110.705 396.503 109.955 398.183 108.877Z" fill="black" fill-opacity="0.0964543"/>
<path fill-rule="evenodd" clip-rule="evenodd" d="M384.945 94.7437C385.546 94.7437 386.034 94.2561 386.034 93.6547C386.034 93.0532 385.546 92.5657 384.945 92.5657C384.344 92.5657 383.856 93.0532 383.856 93.6547C383.856 94.2561 384.344 94.7437 384.945 94.7437Z" fill="#372630"/>
<path fill-rule="evenodd" clip-rule="evenodd" d="M393.756 94.7437C394.357 94.7437 394.845 94.2561 394.845 93.6547C394.845 93.0532 394.357 92.5657 393.756 92.5657C393.155 92.5657 392.667 93.0532 392.667 93.6547C392.667 94.2561 393.155 94.7437 393.756 94.7437Z" fill="#372630"/>
<path d="M387.481 94.3372C387.481 95.3292 385.421 98.5196 385.78 99.2245C386.019 99.6944 386.786 99.8756 388.081 99.768" stroke="#A86F59" stroke-width="0.6534" stroke-linecap="round"/>
<path d="M382.227 90.237C383.533 89.8984 384.863 89.8747 386.216 90.1657" stroke="#A86F59" stroke-width="0.6534" stroke-linecap="round"/>
<path d="M397.656 90.4018C395.607 89.5291 393.436 89.4067 391.142 90.0348" stroke="#A86F59" stroke-width="0.6534" stroke-linecap="round"/>
<path d="M382.805 86.6446C378.691 80.3022 377.913 76.0435 380.471 73.8685C384.309 70.606 402.834 70.2635 405.635 72.1485C408.435 74.0335 409.638 77.3085 409.638 77.3085C409.638 77.3085 416.027 81.9536 414.437 87.8168C413.377 91.7256 411.009 96.62 407.333 102.5C409.516 92.7112 409.516 87.8168 407.333 87.8168C404.058 87.8168 405.768 98.2179 404.424 97.6633C403.081 97.1086 401.378 85.8314 398.41 85.0808C396.432 84.5805 391.23 85.1017 382.805 86.6446Z" fill="#182160"/>
<path fill-rule="evenodd" clip-rule="evenodd" d="M386.537 103.206L392.283 102.636C391.913 103.923 391.01 104.702 389.574 104.971C388.138 105.241 387.126 104.652 386.537 103.206Z" fill="#A86F59"/>
<path fill-rule="evenodd" clip-rule="evenodd" d="M307.478 149.868C305.061 148.451 303.604 148.009 303.107 148.542C302.361 149.342 297.272 148.117 295.435 147.693C293.597 147.269 288.974 145.874 290.266 142.873C291.558 139.873 292.843 138.032 292.512 137.723C292.181 137.414 287.005 136.688 285.557 138.242C284.108 139.795 280.226 141.446 279.155 140.447C278.084 139.448 284.075 136.112 285.999 134.628C287.282 133.639 290.769 133.43 296.461 133.999C294.502 129.752 293.936 126.859 294.764 125.321C296.417 122.25 298.196 130.394 303.482 134.509C306.3 136.702 306.634 141.276 308.692 141.775C310.064 142.107 311.286 142.445 312.359 142.787L309.296 151.563L307.478 149.868Z" fill="#FFB294"/>
<path d="M293.194 136.992C297.635 139.001 300.101 139.873 300.591 139.61C301.249 139.257 303.874 139.124 303.668 140.185C303.461 141.245 301.352 147.836 298.838 148.356C296.323 148.875 290.734 147.557 290.117 144.672C289.706 142.749 290.732 140.189 293.194 136.992Z" fill="black" fill-opacity="0.0964543"/>
<path fill-rule="evenodd" clip-rule="evenodd" d="M292.512 137.723C296.953 139.732 299.419 140.605 299.909 140.342C300.567 139.988 303.192 139.856 302.985 140.916C302.779 141.977 300.67 148.567 298.156 149.087C295.641 149.607 290.051 148.288 289.435 145.404C289.024 143.48 290.049 140.92 292.512 137.723Z" fill="#FFB294"/>
<path d="M312.825 140.396L348.046 155.626C350.186 150.499 351.718 146.731 352.643 144.322C355.903 135.827 358.726 128.7 360.121 126.879C360.863 125.91 364.371 123.614 365.533 122.319C370.514 122.885 372.378 125.845 373.862 131.755C374.58 134.618 374.985 138.831 371.537 147.568C368.088 156.305 361.538 174.135 356.344 175.786C348.476 178.288 307.719 154.513 306.836 153.251C305.954 151.989 311.963 139.883 312.825 140.396Z" fill="#182160"/>
<path d="M365.879 136.425L373.493 141.672C373.092 143.232 372.528 144.999 371.753 147.013L369.451 152.891C366.491 160.391 362.484 169.99 358.785 174.008L365.879 136.425Z" fill="black" fill-opacity="0.270405"/>
<path fill-rule="evenodd" clip-rule="evenodd" d="M360.592 409.76L357.801 425.082H346.869V409.76H360.592Z" fill="#FFB294"/>
<path fill-rule="evenodd" clip-rule="evenodd" d="M425.441 406.793L426.441 425.879H415.114L411.134 406.793H425.441Z" fill="#FFB294"/>
<path fill-rule="evenodd" clip-rule="evenodd" d="M346.869 422H358.566L358.545 435.994C358.544 436.543 358.1 436.989 357.55 436.992L321.168 437.194C320.616 437.197 320.166 436.752 320.163 436.199C320.162 436.148 320.166 436.096 320.174 436.045L320.534 433.643C320.586 433.298 320.813 433.006 321.134 432.87L346.869 422Z" fill="#2A3036"/>
<path fill-rule="evenodd" clip-rule="evenodd" d="M426.697 422H414L414.021 435.993C414.022 436.543 414.466 436.989 415.016 436.992L452.398 437.194C452.95 437.197 453.4 436.752 453.403 436.199C453.404 436.148 453.4 436.096 453.392 436.045L453.031 433.643C452.98 433.298 452.752 433.006 452.432 432.87L426.697 422Z" fill="#2A3036"/>
<path d="M363.061 221.633L347.154 323.29L344.75 420.263H360.592L375.03 326.575L386.919 272.056L395.039 329.29L411.041 420.263H428.325L423.449 323.29L415.618 219.687C410.413 222.273 403.469 223.998 394.786 224.862C386.102 225.727 375.527 224.65 363.061 221.633Z" fill="#182160"/>
<path d="M397.615 226.262L415.703 220.819L423.449 323.29L428.325 420.263L426.006 420.263L411.399 231.412L402.015 234.345L397.441 231.456L397.615 226.262Z" fill="black" fill-opacity="0.270405"/>
<path d="M386.513 273.915L375.03 326.575L361.315 415.577L368.975 329.158L386.513 273.915Z" fill="black" fill-opacity="0.270405"/>
<path d="M415.703 220.82L416.386 229.854L402.015 234.345L397.441 231.456L397.615 226.263L415.703 220.82Z" fill="black" fill-opacity="0.270405"/>
<path d="M362.096 227.791L363.06 221.634C366.624 222.496 370.034 223.2 373.288 223.745L373.288 234.345L370.406 233.034C368.15 231.997 366.442 231.185 365.283 230.597C364.278 230.088 363.216 229.153 362.096 227.791Z" fill="black" fill-opacity="0.270405"/>
<path d="M360.836 244.476L368.803 237.515C369.011 237.334 369.033 237.018 368.851 236.81C368.669 236.602 368.353 236.58 368.146 236.762L360.178 243.723C359.97 243.905 359.949 244.22 360.13 244.428C360.312 244.636 360.628 244.658 360.836 244.476Z" fill="#3C62FF"/>
<path d="M407.771 239.129L416.174 244.298C416.409 244.443 416.717 244.37 416.862 244.134C417.006 243.899 416.933 243.591 416.698 243.446L408.295 238.278C408.06 238.133 407.752 238.206 407.607 238.441C407.462 238.677 407.536 238.985 407.771 239.129Z" fill="#3C62FF"/>
<path fill-rule="evenodd" clip-rule="evenodd" d="M393.664 128.485L406.392 121.616C417.927 121.204 425.911 122.493 430.344 125.485C430.824 125.809 431.856 126.631 433.439 127.951L429.622 156.957C421.493 193.2 417.549 213.444 417.792 217.688C418.001 221.347 406.643 226.288 391.267 226.687C379.887 226.982 363.359 223.582 363.06 221.633C362.358 217.052 357.32 216.006 356.263 210.482C355.558 206.799 357.672 186.146 362.604 148.523L366.796 122.991C369.286 122.147 370.907 121.689 371.657 121.616C375.069 121.285 380.547 121.285 388.091 121.616L393.664 128.485Z" fill="white"/>
<path d="M394.665 128.225L393.2 127.9L392.245 132.216L391.06 137.629C381.897 179.724 378.031 203.871 379.447 210.434L379.493 210.635C380.805 215.953 381.579 221.215 381.815 226.42L383.313 226.352C383.072 221.047 382.284 215.689 380.95 210.276C379.379 203.907 383.956 176.401 394.665 128.225Z" fill="#C4D1FF"/>
<path d="M415.617 219.687L416.098 226.304C403.777 230.208 392.821 231.639 383.231 230.597C374.518 229.651 367.577 228.111 362.405 225.976L363.06 221.633C375.527 224.65 386.102 225.727 394.785 224.862C403.205 224.024 409.99 222.376 415.139 219.919L415.617 219.687Z" fill="#3C62FF"/>
<path d="M406.392 121.616L394.297 128.063L401.699 136.148L409.102 121.616H406.392Z" fill="#C4D1FF"/>
<path d="M388.091 121.616L393.932 128.063L385.776 135.323L385.004 121.473L388.091 121.616Z" fill="#C4D1FF"/>
<path d="M408.389 121.368C400.615 158.719 396.728 183.443 396.728 195.54C396.728 207.638 396.966 219.609 397.441 231.456C404.363 230.793 409.443 230 412.678 229.076C415.914 228.152 420.492 225.787 426.413 221.981C423.907 208.187 423.254 197.144 424.454 188.851C425.654 180.558 428.227 160.409 432.175 128.405C430.197 125.163 426.505 123.234 421.098 122.616C415.692 121.999 411.456 121.583 408.389 121.368Z" fill="#182160"/>
<path d="M416.098 144.206L431.005 137.868L427.647 164.669C426.174 176.263 425.109 184.324 424.454 188.851C423.774 193.552 423.689 199.138 424.2 205.606C419.868 206.477 414.834 207.182 409.102 207.719C404.994 208.105 400.899 208.261 396.818 208.189C396.757 203.988 396.728 199.772 396.728 195.54C396.728 191.267 397.213 185.418 398.183 177.994L416.098 144.206Z" fill="black" fill-opacity="0.270405"/>
<path d="M408.389 121.368L409.204 121.427C409.625 121.46 410.065 121.495 410.524 121.534L415.084 136.148L407.72 142.238L412.678 148.799L396.904 190.51L396.958 189.699C397.896 176.252 401.706 153.475 408.389 121.368Z" fill="#3C62FF"/>
<path d="M386.005 121.473C378.45 154.348 374.047 175.283 372.796 184.276C371.544 193.269 370.737 208.709 370.374 230.597C360.487 226.727 354.563 223.723 352.601 221.588C350.639 219.452 355.371 186.587 366.796 122.992C368.077 122.24 370.076 121.698 372.796 121.368C375.515 121.037 379.918 121.072 386.005 121.473Z" fill="#182160"/>
<path d="M371.209 203.432L371.147 204.67C368.188 203.907 365.235 203.02 362.29 202.009L361.028 201.568L354.946 193.497L355.21 191.708C355.3 191.103 355.391 190.489 355.485 189.865L372.584 185.892L372.467 186.873C371.966 191.215 371.547 196.735 371.209 203.432Z" fill="black" fill-opacity="0.270405"/>
<path d="M386.005 121.473L383.833 130.977C377.74 157.806 374.087 175.387 372.874 183.722L372.796 184.276C372.732 184.73 372.67 185.2 372.609 185.687L371.344 146.226L377.933 139.814L372.883 132.992L383.71 121.335L385.221 121.423C385.479 121.439 385.74 121.456 386.005 121.473Z" fill="#3C62FF"/>
<path d="M349.462 159.962H353.062C357.039 159.962 360.262 163.186 360.262 167.162H356.662C352.686 167.162 349.462 163.939 349.462 159.962Z" fill="#76C881"/>
<path d="M350.826 154.71L351.765 152.944C352.802 150.994 355.224 150.253 357.174 151.29L356.235 153.056C355.198 155.007 352.776 155.747 350.826 154.71Z" fill="#76C881"/>
<path d="M371.062 163.2H367.462C363.486 163.2 360.262 166.424 360.262 170.4H363.863C367.839 170.4 371.062 167.177 371.062 163.2Z" fill="#76C881"/>
<path d="M364.073 148.827L363.558 149.684C362.42 151.578 363.033 154.035 364.927 155.173L365.442 154.316C366.58 152.422 365.967 149.965 364.073 148.827Z" fill="#76C881"/>
<path d="M360.485 152.19L351.568 147.75L351.123 148.646L360.039 153.085L360.485 152.19Z" fill="#64AF6E"/>
<path d="M360.123 157.19L369.039 152.75L369.485 153.646L360.568 158.085L360.123 157.19Z" fill="#64AF6E"/>
<path d="M359.6 138.6V177.087H360.8V138.6H359.6Z" fill="#64AF6E"/>
<path d="M359.26 140.52C364.926 140.52 369.52 135.926 369.52 130.26C369.52 124.594 364.926 120 359.26 120C353.594 120 349 124.594 349 130.26C349 135.926 353.594 140.52 359.26 140.52Z" fill="#FFBF29"/>
<path d="M359.733 124.732V125.367C360.412 125.448 360.953 125.679 361.354 126.062C361.755 126.444 362.012 126.955 362.123 127.596L360.502 127.807C360.404 127.303 360.148 126.962 359.733 126.782V129.287C360.758 129.565 361.457 129.925 361.828 130.367C362.2 130.809 362.385 131.376 362.385 132.068C362.385 132.841 362.152 133.492 361.684 134.021C361.216 134.551 360.566 134.876 359.733 134.995V136.193H358.804V135.027C358.065 134.938 357.465 134.662 357.004 134.201C356.543 133.74 356.248 133.088 356.12 132.247L357.792 132.068C357.86 132.409 357.989 132.704 358.177 132.952C358.364 133.199 358.574 133.379 358.804 133.49V130.806C357.967 130.566 357.353 130.204 356.963 129.72C356.572 129.235 356.376 128.647 356.376 127.955C356.376 127.254 356.597 126.666 357.039 126.19C357.481 125.714 358.07 125.439 358.804 125.367V124.732H359.733ZM359.733 131.081V133.579C360.054 133.52 360.314 133.371 360.515 133.134C360.716 132.897 360.816 132.619 360.816 132.298C360.816 132.012 360.732 131.765 360.563 131.558C360.418 131.381 360.194 131.238 359.891 131.132L359.733 131.081ZM358.804 126.763C358.552 126.849 358.352 126.994 358.202 127.199C358.053 127.404 357.978 127.63 357.978 127.878C357.978 128.104 358.046 128.315 358.183 128.509C358.32 128.703 358.527 128.86 358.804 128.98V126.763Z" fill="black"/>
<path d="M359.733 124.732V125.367C360.412 125.448 360.953 125.679 361.354 126.062C361.755 126.444 362.012 126.955 362.123 127.596L360.502 127.807C360.404 127.303 360.148 126.962 359.733 126.782V129.287C360.758 129.565 361.457 129.925 361.828 130.367C362.2 130.809 362.385 131.376 362.385 132.068C362.385 132.841 362.152 133.492 361.684 134.021C361.216 134.551 360.566 134.876 359.733 134.995V136.193H358.804V135.027C358.065 134.938 357.465 134.662 357.004 134.201C356.543 133.74 356.248 133.088 356.12 132.247L357.792 132.068C357.86 132.409 357.989 132.704 358.177 132.952C358.364 133.199 358.574 133.379 358.804 133.49V130.806C357.967 130.566 357.353 130.204 356.963 129.72C356.572 129.235 356.376 128.647 356.376 127.955C356.376 127.254 356.597 126.666 357.039 126.19C357.481 125.714 358.07 125.439 358.804 125.367V124.732H359.733ZM359.733 131.081V133.579C360.054 133.52 360.314 133.371 360.515 133.134C360.716 132.897 360.816 132.619 360.816 132.298C360.816 132.012 360.732 131.765 360.563 131.558C360.418 131.381 360.194 131.238 359.891 131.132L359.733 131.081ZM358.804 126.763C358.552 126.849 358.352 126.994 358.202 127.199C358.053 127.404 357.978 127.63 357.978 127.878C357.978 128.104 358.046 128.315 358.183 128.509C358.32 128.703 358.527 128.86 358.804 128.98V126.763Z" fill="#252629"/>
<path d="M359.32 138.8C364.003 138.8 367.8 135.003 367.8 130.32C367.8 125.637 364.003 121.84 359.32 121.84C354.636 121.84 350.84 125.637 350.84 130.32C350.84 135.003 354.636 138.8 359.32 138.8ZM359.32 138.32C354.902 138.32 351.32 134.738 351.32 130.32C351.32 125.902 354.902 122.32 359.32 122.32C363.738 122.32 367.32 125.902 367.32 130.32C367.32 134.738 363.738 138.32 359.32 138.32Z" fill="#FCA904"/>
<path d="M371.104 155.208C373.371 155.208 375.208 153.371 375.208 151.104C375.208 148.837 373.371 147 371.104 147C368.837 147 367 148.837 367 151.104C367 153.371 368.837 155.208 371.104 155.208Z" fill="#FFBF29"/>
<path d="M371.293 148.893V149.147C371.565 149.179 371.781 149.272 371.942 149.425C372.102 149.578 372.205 149.782 372.249 150.039L371.601 150.123C371.562 149.921 371.459 149.785 371.293 149.713V150.715C371.703 150.826 371.983 150.97 372.131 151.147C372.28 151.324 372.354 151.55 372.354 151.827C372.354 152.136 372.261 152.397 372.074 152.609C371.887 152.821 371.627 152.95 371.293 152.998V153.477H370.922V153.011C370.626 152.975 370.386 152.865 370.202 152.68C370.017 152.496 369.899 152.235 369.848 151.899L370.517 151.827C370.544 151.964 370.596 152.082 370.671 152.181C370.746 152.28 370.83 152.352 370.922 152.396V151.322C370.587 151.227 370.341 151.082 370.185 150.888C370.029 150.694 369.951 150.459 369.951 150.182C369.951 149.902 370.039 149.667 370.216 149.476C370.393 149.286 370.628 149.176 370.922 149.147V148.893H371.293ZM371.293 151.433V152.432C371.422 152.408 371.526 152.349 371.606 152.254C371.686 152.159 371.726 152.048 371.726 151.919C371.726 151.805 371.693 151.706 371.625 151.623C371.575 151.561 371.5 151.51 371.401 151.469L371.293 151.433ZM370.922 149.705C370.821 149.74 370.741 149.798 370.681 149.88C370.621 149.962 370.591 150.052 370.591 150.151C370.591 150.242 370.619 150.326 370.673 150.404C370.728 150.481 370.811 150.544 370.922 150.592V149.705Z" fill="black"/>
<path d="M371.293 148.893V149.147C371.565 149.179 371.781 149.272 371.942 149.425C372.102 149.578 372.205 149.782 372.249 150.039L371.601 150.123C371.562 149.921 371.459 149.785 371.293 149.713V150.715C371.703 150.826 371.983 150.97 372.131 151.147C372.28 151.324 372.354 151.55 372.354 151.827C372.354 152.136 372.261 152.397 372.074 152.609C371.887 152.821 371.627 152.95 371.293 152.998V153.477H370.922V153.011C370.626 152.975 370.386 152.865 370.202 152.68C370.017 152.496 369.899 152.235 369.848 151.899L370.517 151.827C370.544 151.964 370.596 152.082 370.671 152.181C370.746 152.28 370.83 152.352 370.922 152.396V151.322C370.587 151.227 370.341 151.082 370.185 150.888C370.029 150.694 369.951 150.459 369.951 150.182C369.951 149.902 370.039 149.667 370.216 149.476C370.393 149.286 370.628 149.176 370.922 149.147V148.893H371.293ZM371.293 151.433V152.432C371.422 152.408 371.526 152.349 371.606 152.254C371.686 152.159 371.726 152.048 371.726 151.919C371.726 151.805 371.693 151.706 371.625 151.623C371.575 151.561 371.5 151.51 371.401 151.469L371.293 151.433ZM370.922 149.705C370.821 149.74 370.741 149.798 370.681 149.88C370.621 149.962 370.591 150.052 370.591 150.151C370.591 150.242 370.619 150.326 370.673 150.404C370.728 150.481 370.811 150.544 370.922 150.592V149.705Z" fill="#252629"/>
<path d="M371.128 154.52C373.001 154.52 374.52 153.001 374.52 151.128C374.52 149.255 373.001 147.736 371.128 147.736C369.254 147.736 367.736 149.255 367.736 151.128C367.736 153.001 369.254 154.52 371.128 154.52ZM371.128 154.328C369.361 154.328 367.928 152.895 367.928 151.128C367.928 149.361 369.361 147.928 371.128 147.928C372.895 147.928 374.328 149.361 374.328 151.128C374.328 152.895 372.895 154.328 371.128 154.328Z" fill="#FCA904"/>
<path d="M350.104 151.208C352.371 151.208 354.208 149.371 354.208 147.104C354.208 144.837 352.371 143 350.104 143C347.837 143 346 144.837 346 147.104C346 149.371 347.837 151.208 350.104 151.208Z" fill="#FFBF29"/>
<path d="M350.293 144.893V145.147C350.565 145.179 350.781 145.272 350.942 145.425C351.102 145.578 351.205 145.782 351.249 146.039L350.601 146.123C350.562 145.921 350.459 145.785 350.293 145.713V146.715C350.703 146.826 350.983 146.97 351.131 147.147C351.28 147.324 351.354 147.55 351.354 147.827C351.354 148.136 351.261 148.397 351.074 148.609C350.887 148.821 350.627 148.95 350.293 148.998V149.477H349.922V149.011C349.626 148.975 349.386 148.865 349.202 148.68C349.017 148.496 348.899 148.235 348.848 147.899L349.517 147.827C349.544 147.964 349.596 148.082 349.671 148.181C349.746 148.28 349.83 148.352 349.922 148.396V147.322C349.587 147.227 349.341 147.082 349.185 146.888C349.029 146.694 348.951 146.459 348.951 146.182C348.951 145.902 349.039 145.667 349.216 145.476C349.393 145.286 349.628 145.176 349.922 145.147V144.893H350.293ZM350.293 147.433V148.432C350.422 148.408 350.526 148.349 350.606 148.254C350.686 148.159 350.726 148.048 350.726 147.919C350.726 147.805 350.693 147.706 350.625 147.623C350.575 147.561 350.5 147.51 350.401 147.469L350.293 147.433ZM349.922 145.705C349.821 145.74 349.741 145.798 349.681 145.88C349.621 145.962 349.591 146.052 349.591 146.151C349.591 146.242 349.619 146.326 349.673 146.404C349.728 146.481 349.811 146.544 349.922 146.592V145.705Z" fill="black"/>
<path d="M350.293 144.893V145.147C350.565 145.179 350.781 145.272 350.942 145.425C351.102 145.578 351.205 145.782 351.249 146.039L350.601 146.123C350.562 145.921 350.459 145.785 350.293 145.713V146.715C350.703 146.826 350.983 146.97 351.131 147.147C351.28 147.324 351.354 147.55 351.354 147.827C351.354 148.136 351.261 148.397 351.074 148.609C350.887 148.821 350.627 148.95 350.293 148.998V149.477H349.922V149.011C349.626 148.975 349.386 148.865 349.202 148.68C349.017 148.496 348.899 148.235 348.848 147.899L349.517 147.827C349.544 147.964 349.596 148.082 349.671 148.181C349.746 148.28 349.83 148.352 349.922 148.396V147.322C349.587 147.227 349.341 147.082 349.185 146.888C349.029 146.694 348.951 146.459 348.951 146.182C348.951 145.902 349.039 145.667 349.216 145.476C349.393 145.286 349.628 145.176 349.922 145.147V144.893H350.293ZM350.293 147.433V148.432C350.422 148.408 350.526 148.349 350.606 148.254C350.686 148.159 350.726 148.048 350.726 147.919C350.726 147.805 350.693 147.706 350.625 147.623C350.575 147.561 350.5 147.51 350.401 147.469L350.293 147.433ZM349.922 145.705C349.821 145.74 349.741 145.798 349.681 145.88C349.621 145.962 349.591 146.052 349.591 146.151C349.591 146.242 349.619 146.326 349.673 146.404C349.728 146.481 349.811 146.544 349.922 146.592V145.705Z" fill="#252629"/>
<path d="M350.128 150.52C352.001 150.52 353.52 149.001 353.52 147.128C353.52 145.255 352.001 143.736 350.128 143.736C348.254 143.736 346.736 145.255 346.736 147.128C346.736 149.001 348.254 150.52 350.128 150.52ZM350.128 150.328C348.361 150.328 346.928 148.895 346.928 147.128C346.928 145.361 348.361 143.928 350.128 143.928C351.895 143.928 353.328 145.361 353.328 147.128C353.328 148.895 351.895 150.328 350.128 150.328Z" fill="#FCA904"/>
<path d="M349.12 171.1H371.52L368.974 189.533C368.897 190.087 368.424 190.5 367.864 190.5H352.776C352.217 190.5 351.743 190.087 351.667 189.533L349.12 171.1Z" fill="#C4D1FF"/>
<path d="M349.12 171.1H371.52C372.139 171.1 372.64 171.602 372.64 172.22V175.7C372.64 176.319 372.139 176.82 371.52 176.82H349.12C348.501 176.82 348 176.319 348 175.7V172.22C348 171.602 348.501 171.1 349.12 171.1Z" fill="#A1B2F2"/>
<path fill-rule="evenodd" clip-rule="evenodd" d="M369.944 189.823C367.498 188.713 365.825 187.983 364.925 187.632C362.831 186.816 361.511 186.512 361.028 186.516C359.639 186.527 363.222 189.881 362.452 189.884C358.925 189.897 356.352 189.877 354.735 189.823C348.75 189.622 345.814 189.643 345.479 190.593C344.647 192.946 352.31 192.792 352.512 194.931C352.788 197.846 357.928 201.013 361.028 201.568C362.7 201.867 368.353 201.28 377.986 199.805L377.377 189.267L369.944 189.823Z" fill="#FFB294"/>
<path d="M433.439 128.882C436.289 132.748 428.833 185.934 425.142 193.325C421.452 200.716 377.357 202.919 373.705 202.589C372.751 202.503 370.661 188.704 372.409 187.867C374.158 187.031 406.947 182.877 408.076 181.265C408.828 180.19 415.729 131.028 424.337 126.386C427.28 124.799 430.59 125.016 433.439 128.882Z" fill="#182160"/>
<path fill-rule="evenodd" clip-rule="evenodd" d="M205.609 233.578H232.51C244.444 233.578 254.119 243.253 254.119 255.187V269.299C254.119 281.233 244.444 290.908 232.51 290.908H205.609C193.675 290.908 184 281.233 184 269.299V255.187C184 243.253 193.675 233.578 205.609 233.578Z" fill="#FFBF29"/>
<path d="M220.565 246.808V248.492C222.381 248.707 223.826 249.323 224.9 250.337C225.974 251.352 226.659 252.71 226.956 254.411L222.621 254.972C222.358 253.634 221.673 252.727 220.565 252.251V258.901C223.307 259.639 225.174 260.594 226.168 261.767C227.162 262.941 227.659 264.446 227.659 266.283C227.659 268.336 227.033 270.065 225.783 271.471C224.532 272.877 222.793 273.739 220.565 274.056V277.237H218.08V274.141C216.104 273.903 214.499 273.172 213.266 271.947C212.032 270.723 211.244 268.993 210.901 266.76L215.373 266.283C215.556 267.19 215.899 267.973 216.401 268.631C216.904 269.288 217.464 269.765 218.08 270.059V262.933C215.841 262.298 214.199 261.337 213.154 260.05C212.109 258.763 211.586 257.201 211.586 255.364C211.586 253.504 212.177 251.942 213.36 250.678C214.542 249.413 216.116 248.685 218.08 248.492V246.808H220.565ZM220.565 263.664V270.297C221.422 270.139 222.119 269.745 222.655 269.115C223.192 268.486 223.461 267.746 223.461 266.896C223.461 266.136 223.235 265.481 222.784 264.931C222.374 264.431 221.725 264.037 220.838 263.748L220.565 263.664ZM218.08 252.2C217.406 252.427 216.87 252.812 216.47 253.357C216.07 253.901 215.87 254.502 215.87 255.159C215.87 255.76 216.053 256.319 216.418 256.835C216.784 257.351 217.338 257.768 218.08 258.085V252.2Z" fill="black"/>
<path d="M220.565 246.808V248.492C222.381 248.707 223.826 249.323 224.9 250.337C225.974 251.352 226.659 252.71 226.956 254.411L222.621 254.972C222.358 253.634 221.673 252.727 220.565 252.251V258.901C223.307 259.639 225.174 260.594 226.168 261.767C227.162 262.941 227.659 264.446 227.659 266.283C227.659 268.336 227.033 270.065 225.783 271.471C224.532 272.877 222.793 273.739 220.565 274.056V277.237H218.08V274.141C216.104 273.903 214.499 273.172 213.266 271.947C212.032 270.723 211.244 268.993 210.901 266.76L215.373 266.283C215.556 267.19 215.899 267.973 216.401 268.631C216.904 269.288 217.464 269.765 218.08 270.059V262.933C215.841 262.298 214.199 261.337 213.154 260.05C212.109 258.763 211.586 257.201 211.586 255.364C211.586 253.504 212.177 251.942 213.36 250.678C214.542 249.413 216.116 248.685 218.08 248.492V246.808H220.565ZM220.565 263.664V270.297C221.422 270.139 222.119 269.745 222.655 269.115C223.192 268.486 223.461 267.746 223.461 266.896C223.461 266.136 223.235 265.481 222.784 264.931C222.374 264.431 221.725 264.037 220.838 263.748L220.565 263.664ZM218.08 252.2C217.406 252.427 216.87 252.812 216.47 253.357C216.07 253.901 215.87 254.502 215.87 255.159C215.87 255.76 216.053 256.319 216.418 256.835C216.784 257.351 217.338 257.768 218.08 258.085V252.2Z" fill="#252629"/>
<path fill-rule="evenodd" clip-rule="evenodd" d="M202.679 208.926L209.526 212.226C209.768 212.342 210.05 212.342 210.292 212.226L218.676 208.185C218.918 208.068 219.2 208.068 219.442 208.185L227.827 212.226C228.069 212.342 228.351 212.342 228.593 212.226L235.44 208.926C235.878 208.715 236.406 208.899 236.617 209.338C236.719 209.549 236.732 209.792 236.655 210.013L228.541 233.137H209.578L201.464 210.013C201.303 209.553 201.545 209.05 202.004 208.888C202.225 208.811 202.468 208.824 202.679 208.926Z" fill="#FFBF29"/>
<path d="M208.034 229.168H230.084C231.424 229.168 232.51 230.254 232.51 231.593C232.51 232.933 231.424 234.019 230.084 234.019H208.034C206.695 234.019 205.609 232.933 205.609 231.593C205.609 230.254 206.695 229.168 208.034 229.168Z" fill="black"/>
<path d="M208.034 229.168H230.084C231.424 229.168 232.51 230.254 232.51 231.593C232.51 232.933 231.424 234.019 230.084 234.019H208.034C206.695 234.019 205.609 232.933 205.609 231.593C205.609 230.254 206.695 229.168 208.034 229.168Z" fill="#252629"/>
</svg>
