<svg width="592" height="323" viewBox="0 0 592 323" fill="none" xmlns="http://www.w3.org/2000/svg">
<path d="M518.638 287.258L520.812 307.929L536.39 307.16C547.37 306.832 557.061 303.501 565.464 297.169C568.366 294.983 557.166 286.641 561.615 283.287C566.065 279.934 569.833 293.877 575.63 289.509C583.508 283.573 588.964 272.839 592 257.307L590.856 257.047C582.75 255.234 578.057 254.809 576.777 255.774C574.769 257.287 579.193 267.443 574.022 267.944C568.851 268.446 577.565 253.374 569.502 254.737C561.439 256.1 559.415 254.942 558.535 257.822C557.654 260.702 563.564 266.905 558.026 269.904C552.488 272.903 555.083 258.484 552.416 258.702C550.638 258.847 539.379 268.366 518.638 287.258ZM550.357 286.595C552.119 286.565 553.342 288.86 553.09 291.721C552.837 294.581 551.205 296.924 549.443 296.955C547.681 296.985 546.458 294.69 546.711 291.829C546.963 288.969 548.596 286.625 550.357 286.595Z" fill="#76C881"/>
<path d="M530.158 308.558C534.669 308.364 537.161 306.438 537.632 302.78C538.34 297.293 532.313 290.677 535.922 286.472C539.532 282.266 538.998 283.921 542.075 278.318C545.152 272.715 539.568 271.189 543.62 263.905C547.672 256.62 553.68 259.767 560.564 244.83C567.448 229.892 560.443 219.09 558.558 219.09C556.674 219.09 555.015 225.174 549.275 227.957C543.534 230.741 541.609 228.743 533.891 234.895C526.173 241.047 529.806 247.896 526.721 250.686C523.635 253.477 519.909 254.952 516.731 257.188C513.553 259.423 504.411 255.424 503.901 270.407C503.791 273.648 518.797 286.908 508.455 289.337C501.867 290.884 497.925 297.194 496.629 308.267L530.158 308.558Z" fill="#FC60D2"/>
<path d="M482.693 308.558C478.347 295.719 480.108 286.049 487.977 279.55L488.218 279.354C500.327 269.602 487.241 262.931 492.894 255.674L493.197 255.289C498.11 249.13 500.867 249.16 499.64 236.487C498.387 223.556 518.646 219.094 518.646 219.094L519.64 221.023C522.235 226.115 527.667 237.786 522.841 244.463L522.666 244.697C516.702 252.413 529.122 265.607 523.054 273.313C516.985 281.018 519.809 286.161 521.616 292.63C522.821 296.943 520.487 302.252 514.614 308.558H482.693Z" fill="#FFBF29"/>
<path d="M96.2007 0.605957H489.805C500.934 0.605957 509.956 9.6276 509.956 20.7564V265.92C509.956 277.048 500.934 286.07 489.805 286.07H96.2007C85.0719 286.07 76.0503 277.048 76.0503 265.92V20.7564C76.0503 9.6276 85.0719 0.605957 96.2007 0.605957Z" fill="#182160"/>
<path d="M90.1555 0.605957H483.76C494.889 0.605957 503.91 9.6276 503.91 20.7564V265.92C503.91 277.048 494.889 286.07 483.76 286.07H90.1555C79.0268 286.07 70.0051 277.048 70.0051 265.92V20.7564C70.0051 9.6276 79.0268 0.605957 90.1555 0.605957Z" fill="#A1B2F2"/>
<path d="M92.4027 10.0095H480.841C487.647 10.0095 493.164 15.5264 493.164 22.3319V263.672C493.164 270.478 487.647 275.995 480.841 275.995H92.4027C85.5972 275.995 80.0803 270.478 80.0803 263.672V22.3319C80.0803 15.5264 85.5972 10.0095 92.4027 10.0095Z" fill="#D1E2FB"/>
<path d="M336.904 171.884H414.282C415.231 171.884 416.001 172.654 416.001 173.604V247.542C416.001 248.492 415.231 249.262 414.282 249.262H336.904C335.954 249.262 335.185 248.492 335.185 247.542V173.604C335.185 172.654 335.954 171.884 336.904 171.884Z" fill="#C4D1FF"/>
<path d="M328.978 163.824H406.356C407.305 163.824 408.075 164.594 408.075 165.544V239.482C408.075 240.432 407.305 241.202 406.356 241.202H328.978C328.028 241.202 327.259 240.432 327.259 239.482V165.544C327.259 164.594 328.028 163.824 328.978 163.824Z" fill="white" stroke="#C4D1FF" stroke-width="1.6"/>
<path fill-rule="evenodd" clip-rule="evenodd" d="M328.978 163.824H406.356C407.305 163.824 408.075 164.594 408.075 165.544V180.374C408.075 181.324 407.305 182.094 406.356 182.094H328.978C328.028 182.094 327.259 181.324 327.259 180.374V165.544C327.259 164.594 328.028 163.824 328.978 163.824Z" fill="#FF5D8E"/>
<path fill-rule="evenodd" clip-rule="evenodd" d="M355.845 230.455H379.703C380.653 230.455 381.423 231.225 381.423 232.174V232.604C381.423 233.554 380.653 234.324 379.703 234.324H355.845C354.896 234.324 354.126 233.554 354.126 232.604V232.174C354.126 231.225 354.896 230.455 355.845 230.455Z" fill="#252629"/>
<path d="M367.828 225.081C378.363 225.081 386.904 216.541 386.904 206.006C386.904 195.47 378.363 186.93 367.828 186.93C357.293 186.93 348.752 195.47 348.752 206.006C348.752 216.541 357.293 225.081 367.828 225.081Z" fill="#DFE6FF"/>
<path d="M107.619 170.541H312.482C313.966 170.541 315.168 171.744 315.168 173.228V245.098C315.168 246.581 313.966 247.784 312.482 247.784H107.619C106.136 247.784 104.933 246.581 104.933 245.098V173.228C104.933 171.744 106.136 170.541 107.619 170.541Z" fill="#C4D1FF"/>
<path d="M99.559 162.481H304.421C305.905 162.481 307.108 163.684 307.108 165.167V237.037C307.108 238.521 305.905 239.724 304.421 239.724H99.559C98.0752 239.724 96.8723 238.521 96.8723 237.037V165.167C96.8723 163.684 98.0752 162.481 99.559 162.481Z" fill="white" stroke="#C4D1FF" stroke-width="2"/>
<path d="M265.464 163.152H272.853V239.724H265.464V163.152Z" fill="#DFE6FF"/>
<path fill-rule="evenodd" clip-rule="evenodd" d="M99.559 162.481H109.634C111.118 162.481 112.321 163.684 112.321 165.167V237.037C112.321 238.521 111.118 239.724 109.634 239.724H99.559C98.0752 239.724 96.8723 238.521 96.8723 237.037V165.167C96.8723 163.684 98.0752 162.481 99.559 162.481Z" fill="#FF5D8E"/>
<path fill-rule="evenodd" clip-rule="evenodd" d="M131.8 177.258H190.908C192.391 177.258 193.594 178.461 193.594 179.945V180.616C193.594 182.1 192.391 183.303 190.908 183.303H131.8C130.316 183.303 129.113 182.1 129.113 180.616V179.945C129.113 178.461 130.316 177.258 131.8 177.258Z" fill="#252629"/>
<path fill-rule="evenodd" clip-rule="evenodd" d="M131.8 190.691H177.474C178.958 190.691 180.161 191.894 180.161 193.378V194.05C180.161 195.534 178.958 196.737 177.474 196.737H131.8C130.316 196.737 129.113 195.534 129.113 194.05V193.378C129.113 191.894 130.316 190.691 131.8 190.691Z" fill="#FF5D8E"/>
<path fill-rule="evenodd" clip-rule="evenodd" d="M292.872 184.31C292.872 182.734 291.594 181.456 290.017 181.456C288.306 181.456 287.106 182.41 286.1 183.918C285.416 184.943 284.828 186.189 283.964 188.332L282.402 192.289L282.078 193.089L281.768 193.841C281.565 194.328 281.367 194.788 281.17 195.235L281.022 195.567C277.799 202.745 274.431 206.308 270.002 206.308C265.794 206.308 263.058 204.601 258.247 199.604L256.283 197.538L255.728 196.961C253.199 194.35 251.519 192.865 249.366 191.467C246.042 189.309 242.457 188.173 238.328 188.173C233.931 188.173 229.979 190.094 226.384 193.575C223.704 196.168 221.308 199.504 218.791 203.857L218.376 204.582L217.817 205.594C216.45 208.097 214.186 212.387 213.319 213.977L213.061 214.443C212.285 215.799 211.663 216.741 211.159 217.32C211.036 217.462 210.931 217.568 210.851 217.64C209.492 217.859 208.454 219.037 208.454 220.458C208.454 222.035 209.732 223.313 211.309 223.313C213.948 223.313 215.575 221.507 217.87 217.533L218.166 217.01L218.6 216.214C219.875 213.853 222.53 208.819 223.478 207.158L223.886 206.452C228.769 198.091 233.254 193.882 238.328 193.882C243.644 193.882 246.818 195.889 252.429 201.771L253.59 202.996C256.455 206.015 258.182 207.617 260.369 209.057C263.316 210.997 266.446 212.017 270.002 212.017C274.042 212.017 277.503 210.313 280.407 207.24C282.557 204.966 284.331 202.058 286.034 198.339L286.23 197.906C286.693 196.875 290.026 188.446 290.81 187.149L290.888 187.03C292.039 186.662 292.872 185.583 292.872 184.31Z" fill="#FF5D8E"/>
<path d="M335.873 37.6323H474.155C475.157 37.6323 475.969 38.4443 475.969 39.4459V146.73C475.969 147.732 475.157 148.544 474.155 148.544H335.873C334.871 148.544 334.059 147.732 334.059 146.73V39.4459C334.059 38.4443 334.871 37.6323 335.873 37.6323Z" fill="#C4D1FF"/>
<path d="M329.072 30.8315H467.354C468.356 30.8315 469.168 31.6435 469.168 32.6451V139.929C469.168 140.931 468.356 141.743 467.354 141.743H329.072C328.07 141.743 327.259 140.931 327.259 139.929V32.6451C327.259 31.6435 328.07 30.8315 329.072 30.8315Z" fill="white" stroke="#C4D1FF" stroke-width="2"/>
<path d="M421.164 79.0898L383.669 97.8373C382.056 98.6436 380.095 97.99 379.289 96.3774C379.062 95.9242 378.944 95.4243 378.944 94.9176V57.4226C378.944 55.6197 380.406 54.1582 382.209 54.1582C382.715 54.1582 383.215 54.2762 383.669 54.5028L421.164 73.2503C422.776 74.0566 423.43 76.0174 422.623 77.6299C422.308 78.2617 421.795 78.7739 421.164 79.0898Z" fill="#CF6FFF"/>
<path d="M329.526 112.726H466.901C467.903 112.726 468.715 113.538 468.715 114.54V140.383C468.715 141.384 467.903 142.196 466.901 142.196H329.526C328.524 142.196 327.712 141.384 327.712 140.383V114.54C327.712 113.538 328.524 112.726 329.526 112.726Z" fill="#CF6FFF"/>
<path fill-rule="evenodd" clip-rule="evenodd" d="M354.524 127.657L343.184 133.326C342.701 133.568 342.112 133.372 341.87 132.889C341.802 132.753 341.767 132.603 341.767 132.451V121.111C341.767 120.571 342.206 120.132 342.746 120.132C342.898 120.132 343.048 120.167 343.184 120.235L354.524 125.905C355.007 126.147 355.203 126.735 354.961 127.219C354.867 127.408 354.713 127.562 354.524 127.657Z" fill="#252629"/>
<path d="M366.25 124.967H456.02C457.021 124.967 457.833 125.779 457.833 126.781V127.234C457.833 128.236 457.021 129.048 456.02 129.048H366.25C365.248 129.048 364.436 128.236 364.436 127.234V126.781C364.436 125.779 365.248 124.967 366.25 124.967Z" fill="white"/>
<path d="M106.276 38.22H311.138C312.622 38.22 313.825 39.4229 313.825 40.9067V146.36C313.825 147.844 312.622 149.047 311.138 149.047H106.276C104.792 149.047 103.589 147.844 103.589 146.36V40.9067C103.589 39.4229 104.792 38.22 106.276 38.22Z" fill="#C4D1FF"/>
<path d="M98.2158 29.488H303.078C304.562 29.488 305.765 30.6909 305.765 32.1748V137.629C305.765 139.112 304.562 140.315 303.078 140.315H98.2158C96.7319 140.315 95.5291 139.112 95.5291 137.629V32.1748C95.5291 30.6909 96.7319 29.488 98.2158 29.488Z" fill="white" stroke="#C4D1FF" stroke-width="2"/>
<path fill-rule="evenodd" clip-rule="evenodd" d="M261.434 90.4431C272.099 90.4431 280.745 81.7974 280.745 71.1323C280.745 60.4673 272.099 51.8215 261.434 51.8215C250.769 51.8215 242.123 60.4673 242.123 71.1323C242.123 81.7974 250.769 90.4431 261.434 90.4431ZM261.434 82.7188C255.035 82.7188 249.848 77.5314 249.848 71.1323C249.848 64.7333 255.035 59.5459 261.434 59.5459C267.833 59.5459 273.021 64.7333 273.021 71.1323C273.021 77.5314 267.833 82.7188 261.434 82.7188Z" fill="#252629"/>
<path d="M280.745 71.1323C280.745 60.4673 272.099 51.8215 261.434 51.8215C259.301 51.8215 257.572 53.5507 257.572 55.6837C257.572 57.8167 259.301 59.5459 261.434 59.5459C267.76 59.5459 272.902 64.6161 273.018 70.9147L273.02 71.1323C273.02 73.2653 274.75 74.9945 276.883 74.9945C279.016 74.9945 280.745 73.2653 280.745 71.1323Z" fill="#FFBF29"/>
<path fill-rule="evenodd" clip-rule="evenodd" d="M200.983 90.4431C211.648 90.4431 220.293 81.7974 220.293 71.1323C220.293 60.4673 211.648 51.8215 200.983 51.8215C190.318 51.8215 181.672 60.4673 181.672 71.1323C181.672 81.7974 190.318 90.4431 200.983 90.4431ZM200.983 82.7188C194.584 82.7188 189.396 77.5314 189.396 71.1323C189.396 64.7333 194.584 59.5459 200.983 59.5459C207.382 59.5459 212.569 64.7333 212.569 71.1323C212.569 77.5314 207.382 82.7188 200.983 82.7188Z" fill="#252629"/>
<path d="M200.983 90.4431C211.648 90.4431 220.294 81.7974 220.294 71.1323C220.294 60.4673 211.648 51.8215 200.983 51.8215C198.85 51.8215 197.121 53.5507 197.121 55.6837C197.121 57.8167 198.85 59.5459 200.983 59.5459C207.382 59.5459 212.569 64.7333 212.569 71.1323C212.569 77.4587 207.499 82.6008 201.2 82.7168L200.983 82.7188C198.85 82.7188 197.121 84.448 197.121 86.581C197.121 88.714 198.85 90.4431 200.983 90.4431Z" fill="#CF6FFF"/>
<path fill-rule="evenodd" clip-rule="evenodd" d="M140.532 90.4431C151.197 90.4431 159.842 81.7974 159.842 71.1323C159.842 60.4673 151.197 51.8215 140.532 51.8215C129.866 51.8215 121.221 60.4673 121.221 71.1323C121.221 81.7974 129.866 90.4431 140.532 90.4431ZM140.532 82.7188C134.132 82.7188 128.945 77.5314 128.945 71.1323C128.945 64.7333 134.132 59.5459 140.532 59.5459C146.931 59.5459 152.118 64.7333 152.118 71.1323C152.118 77.5314 146.931 82.7188 140.532 82.7188Z" fill="#252629"/>
<path fill-rule="evenodd" clip-rule="evenodd" d="M121.221 71.1323C121.221 81.7974 129.866 90.4431 140.532 90.4431C151.197 90.4431 159.842 81.7974 159.842 71.1323C159.842 60.4673 151.197 51.8215 140.532 51.8215C138.398 51.8215 136.669 53.5507 136.669 55.6837C136.669 57.8167 138.398 59.5459 140.532 59.5459C146.931 59.5459 152.118 64.7333 152.118 71.1323C152.118 77.5314 146.931 82.7188 140.532 82.7188C134.132 82.7188 128.945 77.5314 128.945 71.1323C128.945 68.9993 127.216 67.2702 125.083 67.2702C122.95 67.2702 121.221 68.9993 121.221 71.1323Z" fill="#FF5D8E"/>
<path fill-rule="evenodd" clip-rule="evenodd" d="M128.441 105.388H147.248C148.732 105.388 149.935 106.591 149.935 108.075V108.746C149.935 110.23 148.732 111.433 147.248 111.433H128.441C126.958 111.433 125.755 110.23 125.755 108.746V108.075C125.755 106.591 126.958 105.388 128.441 105.388Z" fill="#252629"/>
<path fill-rule="evenodd" clip-rule="evenodd" d="M128.441 116.807H160.682C162.166 116.807 163.369 118.01 163.369 119.493V120.165C163.369 121.649 162.166 122.852 160.682 122.852H128.441C126.958 122.852 125.755 121.649 125.755 120.165V119.493C125.755 118.01 126.958 116.807 128.441 116.807Z" fill="#FF5D8E"/>
<path fill-rule="evenodd" clip-rule="evenodd" d="M187.549 105.388H206.356C207.84 105.388 209.043 106.591 209.043 108.075V108.746C209.043 110.23 207.84 111.433 206.356 111.433H187.549C186.065 111.433 184.863 110.23 184.863 108.746V108.075C184.863 106.591 186.065 105.388 187.549 105.388Z" fill="#252629"/>
<path d="M187.549 116.807H219.79C221.274 116.807 222.477 118.01 222.477 119.493V120.165C222.477 121.649 221.274 122.852 219.79 122.852H187.549C186.065 122.852 184.863 121.649 184.863 120.165V119.493C184.863 118.01 186.065 116.807 187.549 116.807Z" fill="#CF6FFF"/>
<path fill-rule="evenodd" clip-rule="evenodd" d="M246.657 105.388H265.464C266.948 105.388 268.151 106.591 268.151 108.075V108.746C268.151 110.23 266.948 111.433 265.464 111.433H246.657C245.173 111.433 243.97 110.23 243.97 108.746V108.075C243.97 106.591 245.173 105.388 246.657 105.388Z" fill="#252629"/>
<path d="M246.657 116.807H278.898C280.381 116.807 281.584 118.01 281.584 119.493V120.165C281.584 121.649 280.381 122.852 278.898 122.852H246.657C245.173 122.852 243.97 121.649 243.97 120.165V119.493C243.97 118.01 245.173 116.807 246.657 116.807Z" fill="#FFBF29"/>
<path d="M7.53882 286.07H499.209C501.063 286.07 502.567 287.573 502.567 289.428V297.824C502.567 304.316 497.304 309.579 490.813 309.579H15.9348C9.44304 309.579 4.18042 304.316 4.18042 297.824V289.428C4.18042 287.573 5.68403 286.07 7.53882 286.07Z" fill="#91A0DA"/>
<path d="M7.53882 286.07H452.191C454.046 286.07 455.549 287.573 455.549 289.428V297.824C455.549 304.316 450.287 309.579 443.795 309.579H15.9348C9.44304 309.579 4.18042 304.316 4.18042 297.824V289.428C4.18042 287.573 5.68403 286.07 7.53882 286.07Z" fill="#C4D1FF"/>
<path d="M443.795 309.579H15.935C10.4884 309.579 5.90704 305.874 4.573 300.848H455.157C453.823 305.874 449.242 309.579 443.795 309.579Z" fill="#91A0DA"/>
<path d="M282.928 286.07V291.443C282.928 293.669 281.123 295.473 278.898 295.473H186.877C184.652 295.473 182.847 293.669 182.847 291.443V286.07H282.928Z" fill="#91A0DA"/>
<path fill-rule="evenodd" clip-rule="evenodd" d="M490.214 273.924V285.363C490.214 285.689 489.949 285.954 489.623 285.954H489.149C488.865 285.954 488.621 285.752 488.568 285.474L487.395 279.348L486.578 280.274C483.207 284.06 481.126 285.954 480.333 285.954H473.415C472.762 285.954 472.233 285.424 472.233 284.772C472.233 284.502 472.325 284.241 472.493 284.032C472.95 283.462 473.422 283.017 473.91 282.697L474.094 282.583C475.076 282.005 477.4 278.904 481.064 273.279C481.282 272.944 481.655 272.742 482.055 272.742H489.031C489.684 272.742 490.214 273.271 490.214 273.924Z" fill="#2A3036"/>
<path fill-rule="evenodd" clip-rule="evenodd" d="M460.069 273.333V285.363C460.069 285.689 459.804 285.954 459.478 285.954H459.004C458.72 285.954 458.476 285.752 458.423 285.474L457.25 279.348L456.433 280.274C453.062 284.06 450.981 285.954 450.188 285.954H441.814C441.161 285.954 440.632 285.424 440.632 284.772C440.632 284.594 440.672 284.419 440.748 284.259C441.067 283.597 441.494 283.089 442.031 282.733L442.18 282.64C443.181 282.051 446.152 278.822 451.091 272.953C451.203 272.819 451.369 272.742 451.543 272.742H459.478C459.804 272.742 460.069 273.007 460.069 273.333Z" fill="#2A3036"/>
<path fill-rule="evenodd" clip-rule="evenodd" d="M488.112 240.974L488.112 240.677C488.112 233.618 486.493 227.453 486.427 223.718C486.361 219.983 490.172 186.904 488.589 178.583C487.579 173.278 486.147 168.431 484.292 164.042L484.036 163.447H457.4L455.431 181.396C452.559 207.753 451.105 222.032 451.071 224.234L451.085 225.71C451.137 229.221 451.328 238.217 451.657 252.697L452.145 273.805L452.116 273.805L451.789 274.257C448.745 278.478 447.758 280.645 448.828 280.758C449.547 280.833 452.921 278.635 458.952 274.161V273.805L459.847 265.14C461.094 253.288 461.997 245.787 462.557 242.635L462.618 242.299C463.58 237.207 463.247 228.781 463.212 226.052L463.21 225.681C463.21 224.191 465.397 212.278 469.772 189.941L470.59 195.859C472.836 212.247 473.997 221.898 474.072 224.812L474.079 225.273C474.179 228.429 476.646 243.645 481.48 270.919L482.105 274.438L481.768 274.884C478.756 278.91 477.76 281.034 478.781 281.256C479.839 281.487 483.108 279.214 488.589 274.438L488.326 258.955C488.188 250.198 488.117 244.205 488.112 240.974Z" fill="#FFA475"/>
<path d="M487.56 209.268L478.394 212.824L473.472 218.174L473.633 219.628C473.645 219.743 473.657 219.856 473.669 219.968L475.213 220.252C480.633 221.272 483.392 222.067 483.489 222.635L483.503 222.887C483.648 225.083 485.168 242.418 488.065 274.892L488.589 274.438L488.326 258.955C488.188 250.199 488.117 244.205 488.112 240.974L488.112 240.677C488.112 233.618 486.493 227.453 486.427 223.718L486.426 223.564C486.438 221.888 486.979 216.167 487.56 209.268Z" fill="black" fill-opacity="0.0964543"/>
<path d="M464.754 216.155L451.675 217.006L451.529 218.525L452.438 218.764C457.843 220.219 460.546 221.52 460.546 222.666L460.53 223.258C460.407 226.724 459.575 243.916 458.036 274.837L458.641 274.391C458.744 274.315 458.848 274.238 458.952 274.161V273.805L459.847 265.14C461.094 253.288 461.997 245.787 462.557 242.635L462.618 242.299C463.58 237.207 463.247 228.781 463.212 226.052L463.209 225.681C463.209 224.958 463.724 221.783 464.754 216.155Z" fill="black" fill-opacity="0.0964543"/>
<path fill-rule="evenodd" clip-rule="evenodd" d="M448.579 122.636V131.717L448.046 132.129C443.395 135.697 440.396 137.337 439.048 137.051C436.95 136.605 424.107 109.719 422.524 107.897C420.94 106.074 419.689 103.68 419.426 102.041C419.25 100.948 420.484 99.8387 423.126 98.7139C422.843 97.0402 422.429 96.0213 421.884 95.6573L421.153 95.1787C420.166 94.528 418.832 93.5928 418.936 93.1012C419.071 92.4663 422.217 93.9593 423.257 94.9056L423.33 94.9775C423.828 95.5026 425.027 97.3507 426.928 100.522C427.359 99.2364 427.777 98.2883 428.183 97.6775C428.777 96.7849 429.805 96.7558 429.483 98.2775L429.455 98.4009C429.05 100.047 429.231 101.64 428.453 103.112C427.701 104.536 426.677 105.438 427.268 106.94L427.332 107.093C427.814 108.156 432.799 114.895 442.285 127.311L448.579 122.636Z" fill="#FFA475"/>
<path d="M422.395 105.356C423.343 105.356 424.937 103.481 425.378 103.546C425.772 103.604 427.109 103.2 426.811 102.708L426.561 102.299C425.94 101.304 424.448 99.0954 423.308 99.2569C421.955 99.4487 419.402 101.109 419.625 102.658C419.848 104.208 421.446 105.356 422.395 105.356Z" fill="black" fill-opacity="0.0964543"/>
<path fill-rule="evenodd" clip-rule="evenodd" d="M422.395 104.765C423.343 104.765 424.937 102.89 425.378 102.955C425.772 103.014 427.109 102.609 426.811 102.117L426.561 101.709C425.94 100.713 424.448 98.5046 423.308 98.6661C421.955 98.8579 419.402 100.518 419.625 102.068C419.848 103.617 421.446 104.765 422.395 104.765Z" fill="#FFA475"/>
<path d="M460.696 109.558C457.907 109.7 441.806 124.606 440.847 124.606C440.208 124.606 436.275 119.233 429.047 108.488L423.941 113.558L425.186 115.973C432.917 130.878 437.605 138.338 439.251 138.352C441.85 138.374 455.376 127.526 458.338 124.289C461.299 121.052 463.486 109.417 460.696 109.558Z" fill="#3C62FF"/>
<path d="M459.791 113.736L441.458 137.462C445.827 135.264 455.786 127.079 458.337 124.289C458.443 124.174 458.548 124.048 458.651 123.912L459.791 113.736Z" fill="black" fill-opacity="0.270405"/>
<path d="M428.886 106.901L430.475 108.961L424.415 115.944L422.474 111.423L428.886 106.901Z" fill="#182160"/>
<path d="M487.889 111.155C484.515 107.025 461.078 109.262 460.55 109.585C456.807 116.489 454.689 121.677 454.195 125.15C453.454 130.359 454.878 135.531 455.66 138.365L457.614 164.121L485.885 164.419C484.428 154.234 483.725 148.223 483.778 146.388C483.856 143.636 491.02 114.988 487.889 111.155Z" fill="#3C62FF"/>
<path d="M485.166 113.558L476.246 140.661L456.113 148.937L456.282 150.639L456.766 151.642L485.123 158.971L484.926 157.507C484.137 151.585 483.754 147.907 483.776 146.472L483.778 146.388C483.844 144.052 489.192 123.173 488.891 114.57L485.166 113.558Z" fill="black" fill-opacity="0.270405"/>
<path d="M470.637 111.946L469.797 111.664L469.523 112.485L469.129 113.686C466.875 120.646 465.135 125.637 465.093 128.683L465.092 128.854C465.092 130.676 465.243 132.705 465.566 135.804L465.975 139.708L466.071 140.689L466.148 141.539C466.26 142.862 466.3 143.742 466.3 144.685V162.017H467.187L467.185 144.349L467.178 143.946L467.158 143.351C467.114 142.334 467.014 141.151 466.823 139.275L466.447 135.712C466.139 132.752 465.99 130.781 465.979 129.046L465.979 128.854C465.979 125.669 467.925 120.021 470.637 111.946Z" fill="#182160"/>
<path d="M454.072 137.853L444.353 137.673C444.052 137.667 443.799 137.888 443.757 138.179L443.751 138.253L443.735 139.169C443.732 139.312 443.782 139.451 443.874 139.56L451.079 148.106C451.189 148.236 451.35 148.313 451.521 148.316L461.527 148.491C461.854 148.496 462.123 148.236 462.129 147.91C462.131 147.773 462.086 147.64 462.001 147.533L454.525 138.078C454.415 137.939 454.249 137.857 454.072 137.853Z" fill="#293061"/>
<path d="M453.929 139.352L461.338 148.487L451.521 148.316C451.379 148.313 451.243 148.26 451.138 148.167L451.079 148.106L443.874 139.56C443.8 139.473 443.754 139.366 443.739 139.254L443.735 139.169L443.736 139.133L453.47 139.134C453.648 139.134 453.817 139.214 453.929 139.352Z" fill="#FFBF29"/>
<path fill-rule="evenodd" clip-rule="evenodd" d="M482.694 130.106L482.113 136.221C481.529 142.202 481.174 145.196 481.048 145.206L471.046 145.964C465.371 146.379 463.288 146.465 462.857 146.223L462.694 146.125C461.69 145.499 459.875 143.926 459.875 144.521L459.889 145.326C459.896 146.038 459.861 146.856 459.565 146.856L459.187 146.868C457.394 146.938 450.102 147.306 450.102 147.713L450.104 147.81C450.118 148.059 450.207 148.358 450.778 148.634L450.898 148.688C451.366 148.888 452.635 149.555 452.794 149.904C453.214 150.822 454.849 152.028 455.48 152.028L455.598 152.024C456.576 151.976 461.287 151.462 462.753 151.437L462.857 151.436C464.255 151.436 482.514 153.749 484.727 152.567C486.202 151.779 487.976 144.658 490.047 131.203C488.909 131.788 487.703 131.962 486.427 131.727C485.152 131.492 483.907 130.951 482.694 130.106Z" fill="#FFA475"/>
<path d="M479.262 144.752L465.551 146.103L465.858 152.162L467.498 152.474C478.615 154.551 485.05 155.023 486.803 153.888C488.893 152.534 491.757 131.969 491.757 120.075C491.757 115.365 489.237 112.55 488.654 111.906C487.42 110.542 486.238 109.875 485.109 109.905L479.262 144.752Z" fill="#3C62FF"/>
<path d="M463.429 145.846L464.227 152.903H468.655L465.858 145.419L463.429 145.846Z" fill="#182160"/>
<path d="M485.335 160.491C486.239 162.072 486.83 163.155 487.111 163.741C487.217 163.963 487.312 164.171 487.396 164.367C488.612 167.193 489.605 170.643 490.376 174.718C492.128 183.986 488.826 212.94 488.899 217.1C488.906 217.475 488.585 217.807 487.996 218.096C487.74 218.222 487.263 216.44 486.563 212.751C485.76 216.832 485.128 218.91 484.668 218.985C474.369 220.647 448.836 219.225 448.836 216.125C448.836 213.534 451.623 194.989 457.197 160.491C460.117 161.477 463.575 161.969 467.569 161.969C471.564 161.969 477.486 161.477 485.335 160.491Z" fill="#182160"/>
<path d="M485.335 160.491L483.791 160.682C476.705 161.54 471.298 161.969 467.569 161.969C464.063 161.969 460.97 161.59 458.292 160.831L456.955 161.992L456.948 162.032L456.925 162.017C462.072 165.118 470.717 166.294 482.859 165.544C484.638 165.434 486.251 165.285 487.699 165.095L487.553 164.739L487.396 164.367C487.312 164.171 487.217 163.963 487.111 163.741L486.971 163.459C486.655 162.835 486.11 161.846 485.335 160.491Z" fill="black" fill-opacity="0.270405"/>
<path d="M489.49 170.857C490.537 174.573 490.108 180.141 488.203 187.561L487.559 190.013C485.729 196.912 483.024 206.745 479.443 219.512C481.417 219.396 483.197 219.222 484.668 218.985C485.128 218.91 485.76 216.833 486.563 212.751L486.703 213.479C487.327 216.674 487.758 218.213 487.996 218.096C488.585 217.807 488.906 217.476 488.899 217.1C488.826 212.94 492.128 183.986 490.376 174.718C490.12 173.368 489.841 172.087 489.536 170.874L489.49 170.857Z" fill="black" fill-opacity="0.270405"/>
<path d="M466.975 81.573C465.892 80.75 464.901 80.6278 464.001 81.2064C462.652 82.0744 460.634 84.3522 459.917 87.6308C459.2 90.9094 458.89 94.7222 458.89 98.7376C458.89 101.415 458.498 104.198 457.712 107.087L458.744 106.977C461.297 106.697 463.215 106.407 464.498 106.109C465.948 105.771 467.501 105.209 469.156 104.422L466.975 81.573Z" fill="#0A0F31"/>
<path fill-rule="evenodd" clip-rule="evenodd" d="M462.175 85.4076C460.398 88.7969 461.437 105.706 466.023 105.706C466.731 105.706 467.437 105.534 468.142 105.19V109.447C468.194 111.019 469.118 111.806 470.913 111.806C472.708 111.806 474.359 111.293 475.866 110.269C475.021 106.851 474.816 104.253 475.252 102.476C475.906 99.8096 482.051 89.6373 478.987 83.9646C475.924 78.292 463.952 82.0183 462.175 85.4076Z" fill="#FFA475"/>
<path d="M462.518 95.5592C462.909 95.5592 463.226 95.2422 463.226 94.8511C463.226 94.4601 462.909 94.1431 462.518 94.1431C462.127 94.1431 461.81 94.4601 461.81 94.8511C461.81 95.2422 462.127 95.5592 462.518 95.5592Z" fill="#372630"/>
<path d="M468.247 95.5592C468.638 95.5592 468.955 95.2422 468.955 94.8511C468.955 94.4601 468.638 94.1431 468.247 94.1431C467.856 94.1431 467.539 94.4601 467.539 94.8511C467.539 95.2422 467.856 95.5592 468.247 95.5592Z" fill="#372630"/>
<path d="M464.296 94.3677C464.265 94.9743 464.152 95.4711 463.958 95.8582C463.668 96.4389 462.827 97.4082 463.06 97.8665C463.215 98.172 463.714 98.2898 464.556 98.2199" stroke="#CA7A50" stroke-width="0.55" stroke-linecap="round"/>
<path fill-rule="evenodd" clip-rule="evenodd" d="M463.704 100.649C463.802 100.224 466.883 100.334 467.242 100.417C467.602 100.5 466.272 101.751 465.215 101.793C464.158 101.835 463.605 101.075 463.704 100.649Z" fill="#CA6750"/>
<path fill-rule="evenodd" clip-rule="evenodd" d="M463.293 92.1536C463.212 92.1591 463.131 92.1662 463.05 92.1749L463.293 92.1536Z" stroke="#4D3544" stroke-width="0.632491" stroke-linecap="round"/>
<path fill-rule="evenodd" clip-rule="evenodd" d="M466.568 92.2572L469.753 92.8475C468.707 92.4212 467.645 92.2244 466.568 92.2572Z" stroke="#4D3544" stroke-width="0.632491" stroke-linecap="round"/>
<path d="M471.849 102.974L468.142 105.19V108.109L471.849 102.974Z" fill="black" fill-opacity="0.0964543"/>
<path d="M463.834 81.2723C464.696 80.7178 465.973 80.9061 467.003 81.6389L467.37 85.5496L466.813 86.456C463.306 91.5746 460.803 94.2442 459.06 94.4122C459.392 91.0272 459.691 88.7255 459.957 87.5072C460.674 84.2286 462.485 82.1402 463.834 81.2723Z" fill="#182160"/>
<path d="M465.016 88.1528C466.185 91.4725 468.643 94.9143 470.578 96.0958L470.722 96.1801C472.026 96.9093 472.344 100.545 471.676 107.087L472.445 106.915C475.336 106.259 477.555 105.617 479.103 104.991C480.786 104.31 481.763 103.435 482.035 102.367L482.118 101.12C482.617 93.2306 482.353 88.2074 481.326 86.0504C479.706 82.6477 476.526 81.0441 474.404 80.7191C470.582 80.1336 467.577 80.3712 465.387 81.432C464.342 83.644 464.218 85.8843 465.016 88.1528Z" fill="#182160"/>
<path fill-rule="evenodd" clip-rule="evenodd" d="M466.961 161.674C463.357 161.674 460.112 161.162 457.226 160.137L456.766 162.674C458.675 163.385 462.073 163.741 466.961 163.741C472.996 163.741 479.432 163.199 486.27 162.114L485.547 160.77L485.111 159.971L484.484 159.971L482.999 160.181C475.859 161.176 470.513 161.674 466.961 161.674Z" fill="white"/>
<path d="M470.217 111.805L475.327 108.778L479.203 108.879L472.629 115.148L470.217 111.805Z" fill="#182160"/>
<path d="M470.217 111.805L466.449 114.4V109.041L468.063 108.961L470.217 111.805Z" fill="#182160"/>
<path d="M57.0563 270.228L64.3115 321.9L60.5077 321.85L53.2524 270.768L57.0563 270.228Z" fill="#A1B2F2"/>
<path d="M45.7308 270.228L38.4756 321.9L42.2794 321.85L49.5347 270.768L45.7308 270.228Z" fill="#91A0DA"/>
<path d="M77.1532 270.228L84.4084 321.9L80.6046 321.85L73.3494 270.768L77.1532 270.228Z" fill="#91A0DA"/>
<path d="M84.9163 267.279C84.9163 263.949 82.217 261.25 78.8873 261.25H56.2423C51.9333 261.25 48.4401 257.757 48.4401 253.448V210.181C48.4401 205.872 44.9469 202.378 40.6379 202.378H27.1088C22.7997 202.378 19.3065 205.872 19.3065 210.181V265.506C19.3065 269.815 22.7997 273.308 27.1088 273.308H78.8873C82.217 273.308 84.9163 270.609 84.9163 267.279Z" fill="#A1B2F2"/>
<path d="M27.1088 202.378C26.5234 202.378 25.953 202.443 25.4044 202.565C25.2818 203.114 25.2173 203.684 25.2173 204.27V259.595C25.2173 263.904 28.7105 267.397 33.0196 267.397H84.798L84.9152 267.395L84.9163 267.279C84.9163 263.949 82.217 261.25 78.8873 261.25H56.2423C51.9333 261.25 48.4401 257.757 48.4401 253.448V210.181C48.4401 205.872 44.9469 202.378 40.6379 202.378H27.1088Z" fill="black" fill-opacity="0.0964543"/>
<path d="M25.6342 270.228L18.3789 321.9L22.1827 321.85L29.438 270.768L25.6342 270.228Z" fill="#A1B2F2"/>
<path fill-rule="evenodd" clip-rule="evenodd" d="M49.2392 181.845L50.0737 190.362H39.8221C40.6128 187.717 41.0082 185.445 41.0082 183.545C41.0082 180.695 35.8589 172.383 35.8589 167.37C35.8589 162.357 40.6562 156.439 47.1169 158.951C53.5777 161.463 53.9158 166.624 53.9158 169.074C53.9158 171.524 53.5243 178.186 52.1945 180.016C51.3079 181.235 50.3228 181.845 49.2392 181.845Z" fill="#C16F60"/>
<path d="M44.7076 180.007L45.0583 180.427C45.9138 181.436 46.6097 182.144 47.146 182.552C47.6805 182.959 48.4442 183.403 49.4373 183.884L49.2452 181.905L48.9937 181.866C48.2296 181.736 47.5887 181.56 47.071 181.338C46.4885 181.088 45.7008 180.645 44.7076 180.007Z" fill="black" fill-opacity="0.0964543"/>
<path fill-rule="evenodd" clip-rule="evenodd" d="M52.5326 171.654C52.1771 171.654 51.8889 171.365 51.8889 171.01C51.8889 170.654 52.1771 170.366 52.5326 170.366C52.8881 170.366 53.1763 170.654 53.1763 171.01C53.1763 171.365 52.8881 171.654 52.5326 171.654Z" fill="#372630"/>
<path fill-rule="evenodd" clip-rule="evenodd" d="M47.3246 171.654C46.9691 171.654 46.6809 171.365 46.6809 171.01C46.6809 170.654 46.9691 170.366 47.3246 170.366C47.6801 170.366 47.9683 170.654 47.9683 171.01C47.9683 171.365 47.6801 171.654 47.3246 171.654Z" fill="#372630"/>
<path fill-rule="evenodd" clip-rule="evenodd" d="M50.7503 176.886L47.5313 176.093C47.3729 176.054 47.2128 176.151 47.1738 176.309C47.1581 176.373 47.1642 176.441 47.191 176.501C47.5012 177.194 48.0349 177.661 48.7922 177.903C49.8847 178.251 50.5963 178.045 50.9269 177.284C50.9919 177.134 50.9233 176.96 50.7735 176.895L50.7503 176.886Z" fill="#904B3D"/>
<path d="M50.8577 169.56C50.5631 169.954 50.5038 170.328 50.6799 170.68C50.9441 171.208 52.252 173.991 52.0401 174.408C51.8989 174.686 51.4455 174.793 50.6799 174.729" stroke="#4D3544" stroke-width="0.574992" stroke-linecap="round"/>
<path fill-rule="evenodd" clip-rule="evenodd" d="M51.7809 168.948L54.1389 168.99C53.3671 168.79 52.5811 168.776 51.7809 168.948Z" stroke="#4D3544" stroke-width="0.574992" stroke-linecap="round"/>
<path fill-rule="evenodd" clip-rule="evenodd" d="M48.2786 168.87C48.1988 168.848 48.1193 168.828 48.04 168.809L48.2786 168.87Z" stroke="#4D3544" stroke-width="0.574992" stroke-linecap="round"/>
<path d="M53.9157 171.706C54.6895 169.806 55.0764 168.346 55.0764 167.326C55.0764 165.797 56.5444 164.996 56.5444 162.807C56.5444 161.347 55.4219 160.051 53.1768 158.917C52.677 156.903 51.7127 155.672 50.2839 155.224C48.1407 154.551 46.9938 156.679 45.9405 156.679C44.8873 156.679 40.0744 155.487 38.7407 156.679C37.407 157.871 38.2514 158.227 37.407 158.917C36.5625 159.607 34.6755 160.208 34.212 161.306C33.7484 162.405 34.9575 164.478 34.7509 165.804C34.5443 167.129 33.3682 168.379 33.7901 170.042C34.212 171.706 35.7467 172.827 36.231 174.044C36.7154 175.26 36.0732 177.634 37.407 177.849C38.2961 177.992 38.8375 177.876 39.0312 177.502C37.1177 172.26 36.7258 169.103 37.8554 168.031C39.5499 166.423 39.7584 170.498 40.5001 170.498C41.2419 170.498 40.4773 166.5 41.757 166.5C43.0366 166.5 44.0566 166.729 45.1219 166.122C46.1873 165.516 45.9405 164.003 47.3254 163.771C48.7103 163.539 49.4339 164.539 50.7175 164.003C52.0011 163.467 52.8903 165.035 53.1768 165.804C53.3678 166.316 53.6141 168.284 53.9157 171.706Z" fill="#182160"/>
<path fill-rule="evenodd" clip-rule="evenodd" d="M91.4561 298.561L89.774 313.887L87.5175 316.14L82.9278 313.887V298.561H91.4561Z" fill="#C16F60"/>
<path d="M101.563 249.264C104.291 252.083 101.338 272.478 92.7044 310.448H82.091L83.2731 266.937C63.7765 266.059 52.2877 264.68 48.8069 262.799C45.326 260.919 42.8207 254.634 41.2908 243.944L63.9341 239.985C87.6103 244.714 100.153 247.808 101.563 249.264Z" fill="#101643"/>
<path fill-rule="evenodd" clip-rule="evenodd" d="M63.6753 299.152L61.9021 314.406L59.1457 316.731L54.7003 313.486L55.147 299.152H63.6753Z" fill="#C16F60"/>
<path fill-rule="evenodd" clip-rule="evenodd" d="M89.7225 313.25H82.8089L82.8213 321.522C82.8218 321.847 83.0843 322.11 83.4091 322.112L104.914 322.231C105.24 322.233 105.506 321.97 105.508 321.643C105.508 321.613 105.506 321.582 105.502 321.552L105.288 320.132C105.258 319.929 105.123 319.756 104.934 319.676L89.7225 313.25Z" fill="#2A3036"/>
<path fill-rule="evenodd" clip-rule="evenodd" d="M61.942 313.25H54.4373L54.4497 321.522C54.4501 321.847 54.7127 322.11 55.0375 322.112L77.1333 322.231C77.4597 322.233 77.7258 321.97 77.7275 321.643C77.7275 321.613 77.7255 321.583 77.721 321.552L77.5077 320.132C77.4771 319.929 77.3428 319.756 77.1532 319.676L61.942 313.25Z" fill="#2A3036"/>
<path d="M76.6252 252.263C79.3533 255.082 75.4529 274.477 64.9238 310.448H54.3103L58.1869 267.568C45.2644 266.612 37.128 264.815 33.7776 262.176C30.4272 259.537 30.4272 252.214 33.7776 240.208C42.595 242.027 48.7626 243.272 52.2804 243.944C65.6166 246.49 74.6704 250.243 76.6252 252.263Z" fill="#182160"/>
<path d="M33.7774 240.208C33.2972 241.928 32.8858 243.553 32.5432 245.082C34.6641 245.785 37.2236 246.328 40.2213 246.709C46.3217 247.486 53.0308 247.165 60.3486 245.747C58.0874 245.162 55.6307 244.6 53.0015 244.084L48.8108 243.267C45.2012 242.55 40.1901 241.531 33.7774 240.208Z" fill="black" fill-opacity="0.270405"/>
<path d="M46.1034 189.07C43.9709 189.07 41.8573 188.308 39.7625 186.784C32.9601 186.589 28.2409 187.351 25.6048 189.07C25.0153 189.455 24.5643 190.032 24.2519 190.8L26.0316 207.673C30.2852 226.191 32.412 236.508 32.412 238.622C32.412 241.794 45.0018 245.079 52.5922 244.173C60.1826 243.266 66.5953 241.221 67.0103 238.513C67.4253 235.805 67.5858 236.665 68.2105 233.4C68.6269 231.223 67.3777 220.985 64.4627 202.688L62.8809 188.14C61.5995 187.279 60.737 186.827 60.2934 186.784C58.2767 186.588 55.0388 186.588 50.5797 186.784C49.728 188.308 48.2359 189.07 46.1034 189.07Z" fill="#182160"/>
<path d="M51.8894 242.334C46.3745 242.618 39.8816 241.355 32.4108 238.545L32.4122 238.622C32.4122 241.794 45.0019 245.08 52.5923 244.173L53.197 244.098C60.5205 243.157 66.6065 241.149 67.0104 238.514C67.0542 238.228 67.1082 237.982 67.1707 237.767C62.8882 240.508 57.7942 242.031 51.8894 242.334Z" fill="white"/>
<path d="M30.2297 194.263L25.2749 200.494L26.0318 207.673L27.549 214.645C29.8124 225.109 31.4168 232.846 32.3621 237.855L33.7537 237.94C36.3113 238.088 38.467 238.162 40.2215 238.162C44.1727 238.162 48.183 237.606 52.2526 236.495L52.8635 236.325L32.134 217.354L30.2297 194.263Z" fill="black" fill-opacity="0.270405"/>
<path fill-rule="evenodd" clip-rule="evenodd" d="M95.3499 191.923C96.0832 190.577 96.6657 189.889 97.0975 189.859C97.7452 189.814 103.778 183.45 104.216 180.243C104.653 177.036 102.029 171.537 101.551 171.36C100.979 171.147 98.9785 173.97 95.5494 179.828L95.4834 179.326C95.0158 175.897 94.4213 174.207 93.6999 174.257C92.5899 174.335 93.0119 179.51 92.7716 180.499L92.7553 180.556C92.4801 181.38 92.8148 183.991 92.5459 184.923L91.3231 189.021L95.3499 191.923Z" fill="#C16F60"/>
<path d="M96.7229 189.97C94.7376 188.259 93.1212 187.25 91.8738 186.943C91.4221 186.832 91.2391 187.728 90.4447 187.735C90.0931 187.739 89.7249 187.844 89.1571 188.015C88.5894 188.186 82.8159 196.605 77.9008 205.554L77.0709 204.425C68.2259 192.445 62.605 186.618 60.2082 186.943C58.842 187.129 61.1337 197.386 65.3237 205.315L65.4513 205.554C69.316 212.757 74.7739 217.506 76.0767 218.309C79.9875 220.718 82.0008 218.592 84.664 215.035L85.1716 214.351C88.0981 210.394 97.0197 194.755 96.952 193.137C96.9456 192.985 96.7685 192.496 96.3201 191.997C96.0857 191.737 97.3304 190.556 96.7229 189.97Z" fill="#3C62FF"/>
<path d="M65.4511 205.554C69.3159 212.757 74.7738 217.506 76.0766 218.309C77.805 219.374 79.1628 219.553 80.3699 219.114L63.5768 201.679C64.1543 202.999 64.782 204.307 65.4511 205.554Z" fill="black" fill-opacity="0.270405"/>
<path d="M90.6272 187.717L96.3008 191.832C96.4058 191.409 97.2426 190.472 96.7227 189.97C94.7374 188.259 93.1211 187.25 91.8736 186.943C91.4832 186.847 91.2935 187.504 90.7362 187.688L90.6272 187.717Z" fill="white"/>
<path d="M24.0169 190.401C21.5756 194.466 5.03244 217.552 10.4278 222.919C14.7015 227.17 32.8314 234.676 33.6683 234.986C34.1081 235.149 35.5068 234.417 35.6378 234.429C35.756 234.439 35.9357 234.877 36.5556 234.211C37.8622 232.807 38.6442 231.507 38.8916 230.95C38.9827 230.745 38.6119 230.46 38.5817 230.185C38.5299 229.712 38.632 228.55 37.9072 226.868C37.1823 225.186 21.2572 218.684 20.7657 217.63C20.4381 216.927 23.1783 212.289 26.574 206.736C29.9697 201.183 31.3148 193.794 29.4615 190.8C26.9525 186.747 24.1977 190.1 24.0169 190.401Z" fill="#3C62FF"/>
<path d="M10.4278 222.919C14.7015 227.17 32.8315 234.676 33.6683 234.986C34.1081 235.149 35.5068 234.417 35.6378 234.429C35.7561 234.439 35.9358 234.877 36.5557 234.211L36.6036 234.158L10.0278 222.431C10.1447 222.607 10.2778 222.77 10.4278 222.919Z" fill="black" fill-opacity="0.270405"/>
<path d="M35.348 228.933C33.5729 229.761 32.7489 231.751 33.5077 233.378C33.7873 233.978 34.2427 234.444 34.7951 234.753L34.8286 234.741L35.4884 234.473C35.5641 234.444 35.6169 234.427 35.6377 234.429C35.756 234.439 35.9356 234.877 36.5555 234.211C37.8621 232.807 38.6441 231.508 38.8915 230.95C38.9826 230.745 38.6118 230.46 38.5816 230.185C38.5548 229.941 38.5692 229.512 38.4892 228.923C37.5659 228.471 36.4073 228.439 35.348 228.933Z" fill="white"/>
<path fill-rule="evenodd" clip-rule="evenodd" d="M35.0794 230.683C33.4268 233.17 35.8007 234.556 36.6254 234.93L36.8662 235.033C37.7931 235.413 39.5498 235.96 40.3904 235.83C41.0043 235.735 41.2184 235.371 41.0328 234.739C41.9168 235.566 42.6676 235.963 43.2853 235.931C43.9031 235.898 44.2097 235.435 44.2052 234.54L44.586 234.788C46.3169 235.894 47.4016 236.328 47.84 236.09C48.3098 235.835 48.1849 235.153 47.4652 234.044L47.8626 234.24C48.6275 234.613 49.2142 234.87 49.6226 235.01L49.7209 235.043C51.6938 235.671 52.4364 236.768 53.6373 236.603C55.3761 236.366 48.7085 232.032 47.5564 231.434C46.4043 230.837 44.7081 229.809 43.2269 229.305C42.106 228.924 37.9995 228.82 36.9959 229.088C35.9923 229.355 35.4814 230.078 35.0794 230.683Z" fill="#C16F60"/>
<path fill-rule="evenodd" clip-rule="evenodd" d="M50.5798 186.784C49.7281 188.308 48.236 189.071 46.1035 189.071C43.971 189.071 41.8573 188.308 39.7625 186.784C39.2149 186.764 38.6809 186.751 38.1604 186.745C38.6703 189.037 41.7508 190.801 45.4749 190.801C49.2229 190.801 52.3191 189.015 52.7988 186.7L51.9381 186.729C51.4987 186.745 51.0459 186.763 50.5798 186.784Z" fill="white"/>
<path d="M104.753 246.45L40.3968 241.95C40.1267 241.931 39.8924 242.135 39.8735 242.405L39.8151 243.241C39.7962 243.511 39.9998 243.745 40.2699 243.764L104.626 248.264C104.896 248.283 105.13 248.08 105.149 247.81L105.208 246.974C105.227 246.704 105.023 246.469 104.753 246.45Z" fill="#FFBF29"/>
<path d="M61.7148 243.441L40.3968 241.95C40.1267 241.931 39.8925 242.135 39.8736 242.405L39.8151 243.241C39.7962 243.511 39.9999 243.745 40.27 243.764L61.5879 245.255C61.858 245.274 62.0923 245.07 62.1112 244.8L62.1697 243.964C62.1885 243.694 61.9849 243.46 61.7148 243.441Z" fill="#FCA904"/>
<path d="M107.9 219.149L68.2878 216.379C67.1011 216.296 66.0376 217.107 65.8044 218.274L61.2971 240.819C61.0411 242.099 61.8716 243.345 63.152 243.601C63.2506 243.62 63.3503 243.634 63.4506 243.641L103.063 246.411C104.25 246.494 105.313 245.682 105.547 244.516L110.054 221.971C110.31 220.69 109.479 219.445 108.199 219.189C108.1 219.169 108.001 219.156 107.9 219.149Z" fill="#FCA904"/>
<path d="M107.9 219.149L69.6963 216.477C68.5096 216.394 67.4461 217.206 67.2129 218.372L62.7056 240.917C62.4496 242.198 63.2801 243.443 64.5605 243.699C64.6591 243.719 64.7588 243.732 64.8591 243.739L103.063 246.411C104.25 246.494 105.313 245.682 105.547 244.516L110.054 221.971C110.31 220.69 109.479 219.445 108.199 219.189C108.1 219.169 108.001 219.156 107.9 219.149Z" fill="#FFBF29"/>
<path d="M85.0167 234.899C83.846 233.882 83.7969 232.021 84.9071 230.744C86.0174 229.467 87.8665 229.257 89.0372 230.274C90.208 231.292 90.257 233.152 89.1468 234.43C88.0366 235.707 86.1875 235.917 85.0167 234.899Z" fill="#FCA904"/>
</svg>
