<svg width="38" height="38" viewBox="0 0 38 38" fill="none" xmlns="http://www.w3.org/2000/svg">
<path d="M26.6044 5.52734H10.771C7.71046 5.52734 5.22937 8.00843 5.22937 11.069V26.9023C5.22937 29.9629 7.71046 32.444 10.771 32.444H26.6044C29.6649 32.444 32.146 29.9629 32.146 26.9023V11.069C32.146 8.00843 29.6649 5.52734 26.6044 5.52734Z" stroke="white" stroke-width="2"/>
<path d="M18.6877 26.1104C22.6227 26.1104 25.8127 22.9204 25.8127 18.9854C25.8127 15.0503 22.6227 11.8604 18.6877 11.8604C14.7527 11.8604 11.5627 15.0503 11.5627 18.9854C11.5627 22.9204 14.7527 26.1104 18.6877 26.1104Z" stroke="white" stroke-width="2"/>
<path d="M9.97933 11.861C10.8538 11.861 11.5627 11.1521 11.5627 10.2777C11.5627 9.40322 10.8538 8.69434 9.97933 8.69434C9.10488 8.69434 8.396 9.40322 8.396 10.2777C8.396 11.1521 9.10488 11.861 9.97933 11.861Z" stroke="white" stroke-width="2"/>
</svg>
