<svg width="39" height="38" viewBox="0 0 39 38" fill="none" xmlns="http://www.w3.org/2000/svg">
<path d="M5.6875 15.8337C5.6875 15.3964 6.05127 15.042 6.5 15.042H11.375C11.8237 15.042 12.1875 15.3964 12.1875 15.8337V31.667C12.1875 32.1041 11.8237 32.4587 11.375 32.4587H6.5C6.05127 32.4587 5.6875 32.1041 5.6875 31.667V15.8337Z" stroke="white" stroke-width="2"/>
<path d="M15.4375 15.8337C15.4375 15.3964 15.8013 15.042 16.25 15.042H21.125C21.5737 15.042 21.9375 15.3964 21.9375 15.8337V31.667C21.9375 32.1041 21.5737 32.4587 21.125 32.4587H16.25C15.8013 32.4587 15.4375 32.1041 15.4375 31.667V15.8337Z" stroke="white" stroke-width="2"/>
<path d="M26.8125 20.583V20.5692L26.8121 20.5556C26.7776 19.5877 26.261 18.3589 24.9599 18.0376C24.0808 17.8204 23.0814 18.0885 21.9874 18.8296C22.0243 18.4398 22.0887 18.0926 22.2005 17.7656C22.4335 17.0848 22.8989 16.4333 23.9701 15.7283C24.7793 15.3469 26.0698 15.0816 27.4702 15.0558C28.8937 15.0295 30.3058 15.2534 31.3242 15.7495C32.6357 16.3884 33.3125 17.6724 33.3125 18.9997V31.6663C33.3125 32.1037 32.9487 32.458 32.5 32.458H27.625C27.1764 32.458 26.8125 32.1037 26.8125 31.6663V20.583Z" stroke="white" stroke-width="2"/>
<path d="M8.9375 11.8753C10.7324 11.8753 12.1875 10.4576 12.1875 8.70866C12.1875 6.95976 10.7324 5.54199 8.9375 5.54199C7.14257 5.54199 5.6875 6.95976 5.6875 8.70866C5.6875 10.4576 7.14257 11.8753 8.9375 11.8753Z" stroke="white" stroke-width="2"/>
</svg>
