<svg width="39" height="38" viewBox="0 0 39 38" fill="none" xmlns="http://www.w3.org/2000/svg">
<path d="M26 18.2087H23.5631C23.5653 17.3693 23.5742 16.6602 23.6117 16.0547C23.6611 15.2601 23.7572 14.7202 23.9106 14.3464C24.0503 14.006 24.2292 13.821 24.4845 13.6967C24.7765 13.5544 25.2384 13.4587 26 13.4587H26.8125V12.667V9.50033V8.70866H26H25.9984H25.9966H25.995H25.993H25.9912H25.9896H25.9878H25.986H25.9839H25.9821H25.9802H25.9781H25.9763H25.9746H25.9729H25.9709H25.9688H25.9668H25.9646H25.9623H25.9607H25.9582H25.9566H25.955H25.9532H25.9514H25.9495H25.9475H25.9456H25.9436H25.9415H25.9394H25.9373H25.9352H25.9329H25.9306H25.9282H25.9257H25.9233H25.9209H25.9183H25.9157H25.9129H25.9103H25.9074H25.9046H25.9017H25.8988H25.8971H25.8942H25.8926H25.8895H25.8879H25.8846H25.8814H25.8797H25.878H25.8763H25.8746H25.8728H25.8693H25.8676H25.8658H25.864H25.862H25.8602H25.8585H25.8565H25.8546H25.8526H25.8508H25.8489H25.8469H25.8448H25.8429H25.8409H25.8388H25.8369H25.8347H25.8326H25.8305H25.8284H25.8263H25.8242H25.8219H25.8198H25.8175H25.8154H25.8131H25.8109H25.8086H25.8063H25.8039H25.8016H25.7993H25.7969H25.7944H25.792H25.7897H25.7871H25.7847H25.7823H25.7798H25.7772H25.7746H25.7722H25.7696H25.767H25.7644H25.7618H25.759H25.7564H25.7537H25.7509H25.7483H25.7455H25.7426H25.7398H25.7371H25.7342H25.7314H25.7285H25.7255H25.7226H25.7197H25.7168H25.7138H25.7107H25.7078H25.7047H25.7016H25.6986H25.6955H25.6924H25.6891H25.686H25.6828H25.6796H25.6763H25.6731H25.6698H25.6665H25.6631H25.6599H25.6565H25.6531H25.6496H25.6462H25.6428H25.6392H25.6358H25.6323H25.6287H25.6251H25.6215H25.618H25.6144H25.6106H25.6069H25.6033H25.5996H25.5959H25.592H25.5882H25.5843H25.5806H25.5767H25.5728H25.5689H25.5648H25.5609H25.557H25.553H25.5489H25.5448H25.5408H25.5365H25.5325H25.5283H25.5242H25.52H25.5157H25.5114H25.5071H25.5029H25.4985H25.4941H25.4897H25.4854H25.481H25.4764H25.4719H25.4675H25.4629H25.4584H25.4537H25.4491H25.4444H25.4399H25.4352H25.4304H25.4257H25.4209H25.4161H25.4113H25.4064H25.4015H25.3966H25.3918H25.3867H25.3817H25.3768H25.3718H25.3666H25.3615H25.3563H25.3513H25.3461H25.3409H25.3357H25.3303H25.3251H25.3198H25.3144H25.309H25.3037H25.2983H25.2928H25.2873H25.2817H25.2762H25.2707H25.2652H25.2595H25.2538H25.2481H25.2424H25.2367H25.2309H25.2252H25.2193H25.2135H25.2076H25.2016H25.1958H25.1898H25.1838H25.1778H25.1716H25.1656H25.1594H25.1532H25.147H25.1409H25.1347H25.1284H25.122H25.1157H25.1093H25.103H25.0965H25.0902H25.0837H25.0772H25.0707H25.064H25.0573H25.0508H25.044H25.0374H25.0307H25.0239H25.017H25.0102H25.0034H24.9966H24.9896H24.9826H24.9756H24.9686H24.9616H24.9545H24.9475H24.9403H24.933H24.9259H24.9187H24.9114H24.9041H24.8968H24.8893H24.882H24.8745H24.8671H24.8596H24.8519H24.8445H24.8368H24.8292H24.8216H24.8139H24.8061H24.7983H24.7905H24.7827H24.7748H24.767H24.759H24.751H24.7431H24.7349H24.7268H24.7189H24.7106H24.7024H24.6943H24.686H24.6777H24.6695H24.661H24.6527H24.6443H24.6358H24.6274H24.6187H24.6101H24.6015H24.5929H24.5843H24.5755H24.5669H24.5581H24.5492H24.5404H24.5315H24.5227H24.5136H24.5047H24.4957H24.4866H24.4775H24.4684H24.4592H24.4499H24.4408H24.4314H24.4221H24.4129H24.4034H24.394H24.3844H24.375C23.4843 8.70866 22.6348 8.84073 21.8735 9.21412C21.1003 9.59338 20.4771 10.1927 19.9997 11.0299C19.1404 12.5362 18.7353 14.8485 18.6912 18.2087H16.25H15.4375V19.0003V22.167V22.9587H16.25H18.6875V32.4587H8.125C6.7788 32.4587 5.6875 31.3953 5.6875 30.0837V7.91699C5.6875 6.60531 6.7788 5.54199 8.125 5.54199H30.875C32.2212 5.54199 33.3125 6.60531 33.3125 7.91699V30.0837C33.3125 31.3953 32.2212 32.4587 30.875 32.4587H23.5625V22.9587H25.1875H25.8219L25.9758 22.3591L26.7883 19.1924L27.0406 18.2087H26Z" stroke="white" stroke-width="2"/>
</svg>
