<svg width="50" height="50" viewBox="0 0 50 50" fill="none" xmlns="http://www.w3.org/2000/svg">
<path d="M35.4167 43.75V39.5833C35.4167 37.3732 34.5387 35.2536 32.9759 33.6908C31.4131 32.128 29.2935 31.25 27.0834 31.25H10.4167C8.20657 31.25 6.08695 32.128 4.52415 33.6908C2.96135 35.2536 2.08337 37.3732 2.08337 39.5833V43.75" stroke="white" stroke-width="3" stroke-linecap="round" stroke-linejoin="round"/>
<path d="M18.75 22.9167C23.3523 22.9167 27.0833 19.1857 27.0833 14.5833C27.0833 9.98096 23.3523 6.25 18.75 6.25C14.1476 6.25 10.4166 9.98096 10.4166 14.5833C10.4166 19.1857 14.1476 22.9167 18.75 22.9167Z" stroke="white" stroke-width="3" stroke-linecap="round" stroke-linejoin="round"/>
<path d="M47.9166 43.7502V39.5835C47.9152 37.7371 47.3007 35.9434 46.1695 34.4842C45.0382 33.0249 43.4544 31.9826 41.6666 31.521" stroke="white" stroke-width="3" stroke-linecap="round" stroke-linejoin="round"/>
<path d="M33.3334 6.521C35.1259 6.97996 36.7147 8.02246 37.8493 9.48414C38.9839 10.9458 39.5997 12.7436 39.5997 14.5939C39.5997 16.4443 38.9839 18.242 37.8493 19.7037C36.7147 21.1654 35.1259 22.2079 33.3334 22.6668" stroke="white" stroke-width="3" stroke-linecap="round" stroke-linejoin="round"/>
</svg>
