<svg width="526" height="128" viewBox="0 0 526 128" fill="none" xmlns="http://www.w3.org/2000/svg">
<path fill-rule="evenodd" clip-rule="evenodd" d="M239.069 101.305C239.874 100.794 240.689 100.288 241.514 99.7864L241.656 100.059C241.699 100.129 241.724 100.18 241.754 100.24C241.795 100.324 241.845 100.426 241.967 100.625C242.277 101.192 242.588 101.702 243.002 102.268L243.312 102.665C243.364 102.693 243.416 102.764 243.493 102.871C243.571 102.977 243.674 103.118 243.83 103.288C244.347 103.855 244.864 104.422 245.485 104.932C245.796 105.186 246.132 105.441 246.469 105.696C246.805 105.951 247.141 106.206 247.452 106.461C247.969 106.858 249.004 107.425 249.832 107.878C250.763 108.331 251.695 108.784 252.73 109.181C253.764 109.577 254.799 109.974 255.834 110.314C256.869 110.654 257.904 110.937 259.56 111.277C262.664 111.957 266.08 112.297 269.495 112.354C271.15 112.354 272.91 112.297 273.738 112.24C274.773 112.184 275.911 112.07 276.946 111.9C279.119 111.617 281.189 111.164 283.155 110.654C283.517 110.541 283.776 110.47 284.009 110.406C284.242 110.342 284.449 110.286 284.708 110.201C284.915 110.116 285.147 110.045 285.38 109.974C285.613 109.903 285.846 109.832 286.053 109.747C286.329 109.634 286.616 109.527 286.903 109.42C287.478 109.206 288.054 108.992 288.537 108.728C288.709 108.652 288.847 108.589 288.962 108.537C289.192 108.432 289.33 108.369 289.468 108.331L289.985 108.048C290.192 107.963 290.373 107.864 290.555 107.764C290.736 107.665 290.917 107.566 291.124 107.481C291.279 107.368 291.46 107.269 291.641 107.17C291.822 107.07 292.003 106.971 292.159 106.858L292.676 106.518C292.786 106.438 292.908 106.358 293.034 106.276C293.266 106.124 293.51 105.965 293.711 105.781L294.332 105.271L294.953 104.818L295.677 104.195C296.217 103.715 296.536 103.38 296.808 103.094C296.953 102.942 297.085 102.803 297.23 102.665L298.057 101.759L298.989 100.625C299.041 100.597 299.066 100.569 299.092 100.54C299.118 100.512 299.144 100.484 299.196 100.455C299.236 100.434 299.26 100.412 299.281 100.394C299.315 100.364 299.339 100.342 299.403 100.342L299.506 100.285L299.713 100.116L299.815 100.004C299.969 100.06 299.983 100.065 299.817 100.002L299.815 100.004C298.438 99.5035 285.923 94.8761 292.159 97.1693H292.262L292.987 97.2825L299.196 98.3025L300.748 98.5858L301.473 98.6991L301.576 98.5858C302.301 98.0758 302.999 97.5517 303.698 97.0275C303.819 96.9368 303.94 96.846 304.061 96.7552C304.129 96.78 304.198 96.8047 304.267 96.8293C306.75 97.6792 309.545 98.3025 312.546 98.7557C315.547 99.1523 318.548 99.2657 321.239 99.2089C321.808 99.1815 322.266 99.1584 322.638 99.1387C324.471 100.81 327.147 102.648 330.863 104.252C332.473 105.029 334.514 105.69 336.661 106.233C336.591 106.446 336.521 106.673 336.452 106.915C336.348 107.198 336.245 107.651 336.245 107.991C336.141 108.331 336.141 108.728 336.141 109.407C336.141 110.087 336.141 110.314 336.245 111.391C336.274 111.543 336.299 111.681 336.323 111.811C336.466 112.603 336.554 113.088 337.176 114.45C337.901 115.923 338.522 117.056 340.902 119.266C342.661 120.966 346.18 123.232 350.423 124.819C354.045 126.292 359.84 127.425 362.841 127.652C366.877 128.048 369.672 128.048 371.741 127.935C373.879 127.848 374.926 127.728 376.042 127.601C376.385 127.561 376.733 127.521 377.123 127.482C378.882 127.255 379.4 127.142 380.434 126.915C380.759 126.844 381.043 126.784 381.299 126.73C381.859 126.612 382.285 126.522 382.711 126.405C383.332 126.292 384.056 126.065 384.367 125.952L385.609 125.612L386.54 125.329C387.023 125.177 387.322 125.077 387.621 124.976C387.77 124.926 387.92 124.875 388.093 124.819C389.748 124.195 390.68 123.799 391.404 123.459C392.128 123.119 392.749 122.836 393.267 122.609C394.302 122.099 395.026 121.703 395.75 121.306C396.004 121.167 396.234 121.034 396.45 120.909C396.851 120.678 397.21 120.47 397.614 120.286C398.406 119.852 399.097 119.419 399.759 119.004C400.047 118.823 400.332 118.645 400.615 118.473L403.098 116.943L404.133 116.32L404.651 116.037C410.549 112.807 416.241 109.577 421.83 106.405C424.623 104.818 427.419 103.231 430.109 101.589C430.781 101.164 431.48 100.753 432.179 100.342C432.877 99.9315 433.576 99.5203 434.248 99.0957C434.762 98.7712 435.306 98.4384 435.868 98.0943C436.779 97.5372 437.739 96.9497 438.698 96.3193C441.596 94.4497 444.183 92.5799 446.564 90.8236C446.995 90.495 447.423 90.1701 447.847 89.8484C449.089 88.9053 450.298 87.9879 451.456 87.0799C451.648 87.4403 451.845 87.8193 452.049 88.2173C452.358 88.6533 452.573 89.0272 452.791 89.4053C453.082 89.9116 453.378 90.4258 453.911 91.1069C453.911 91.3101 453.585 90.9329 453.351 90.6617C453.128 90.404 452.988 90.2422 453.291 90.767C453.614 91.0708 453.979 91.635 454.395 92.2774C454.909 93.0723 455.501 93.987 456.188 94.6764L456.085 94.9597C456.255 95.2635 456.25 95.172 456.243 95.0511C456.233 94.8877 456.221 94.671 456.635 95.3029L455.464 93.4865C455.749 93.6815 455.985 93.9303 456.306 94.2696C456.452 94.4232 456.616 94.5955 456.809 94.7897C456.701 94.5122 456.402 94.0199 456.113 93.5431C455.575 92.6565 455.07 91.8233 455.878 92.5233V92.6366C456.015 92.5612 456.475 93.1151 456.859 93.5768C457.05 93.8075 457.223 94.0153 457.326 94.1098H457.223L458.258 95.0163C457.533 94.3931 458.361 96.0362 458.465 95.8661C458.915 96.0851 458.809 95.9869 458.603 95.7949C458.383 95.5892 458.047 95.2761 458.154 95.1296C458.258 95.0163 459.086 96.0362 459.5 96.6028L459.81 96.4894C460.172 96.9144 460.095 96.9144 460.043 96.9144C459.991 96.9144 459.965 96.9144 460.431 97.3393L460.121 96.3195C461.126 97.3932 461.057 97.1559 460.969 96.8556C460.876 96.5379 460.763 96.1499 461.88 97.1693C461.941 97.5038 462.183 97.7002 462.498 97.9564C462.717 98.1342 462.971 98.3409 463.225 98.6424L464.157 98.3025C464.458 98.5085 464.54 98.8045 464.562 98.8852C464.566 98.8987 464.568 98.9063 464.569 98.9061C464.571 98.9061 464.571 98.8947 464.571 98.8691C465.127 99.25 464.842 98.8369 464.626 98.5253C464.522 98.3736 464.433 98.2459 464.467 98.2459C464.741 98.4601 464.911 98.4798 465.096 98.5014C465.399 98.5366 465.739 98.5762 466.64 99.4924C467.567 99.8801 467.059 99.3413 466.581 98.835C466.152 98.3796 465.747 97.9508 466.433 98.2459C466.928 98.6523 466.879 98.7478 466.84 98.8234C466.797 98.9061 466.766 98.9651 467.468 99.379L467.779 98.8691C467.877 98.976 468.009 99.1116 468.149 99.2546C468.574 99.6894 469.067 100.194 468.861 100.181C468.846 100.178 468.83 100.175 468.814 100.172C468.822 100.174 468.83 100.176 468.836 100.178C468.846 100.18 468.854 100.181 468.861 100.181C469.85 100.37 471.203 100.891 472.609 101.432C473.415 101.742 474.239 102.06 475.023 102.325C477.196 103.118 479.163 103.572 479.266 102.609C480.292 103.1 480.325 103.243 480.373 103.457C480.403 103.588 480.439 103.745 480.715 104.025C480.508 103.118 481.75 103.402 483.302 103.798L483.531 103.861C484.931 104.246 486.537 104.687 487.028 104.365L485.786 103.628C488.58 104.308 489.925 103.968 491.064 103.458C491.289 103.348 491.504 103.229 491.72 103.109C492.497 102.68 493.286 102.244 494.582 102.155L493.444 101.872C492.629 101.345 492.504 101.021 492.384 100.713C492.337 100.591 492.291 100.471 492.202 100.342C492.379 100.411 492.637 100.532 492.924 100.665C493.809 101.078 494.971 101.62 494.893 101.192C494.702 101.14 494.502 101.098 494.298 101.056C493.837 100.961 493.357 100.861 492.926 100.626C495.514 100.965 497.17 100.456 498.722 99.8323C499.446 99.4924 500.171 99.1523 500.895 98.7557C501.62 98.4158 502.344 98.0758 503.379 97.8493C504 96.546 505.449 95.5828 507.001 94.6196C508.553 93.6564 510.002 92.6932 510.209 91.5601C510.106 91.9001 506.173 90.8236 507.208 90.8236C510.934 91.2768 510.83 90.9369 510.52 90.5403C510.498 90.5194 510.476 90.4985 510.453 90.4775C510.05 90.0979 509.626 89.6994 512.175 89.8604C511.576 89.1569 512.394 88.8029 513.222 88.4446C513.395 88.37 513.567 88.2954 513.728 88.2173C514.659 87.764 515.177 87.2541 512.796 86.2343L514.866 86.5741C515.494 86.5741 515.246 86.4701 514.93 86.3373C514.726 86.2514 514.493 86.1534 514.452 86.0643L514.97 86.1775C515.494 86.0339 515.274 85.7445 515.078 85.4868C514.887 85.2364 514.719 85.0157 515.28 84.9878L513.003 84.5912C512.955 84.4596 513.353 84.4869 513.669 84.5085C514.034 84.5332 514.29 84.5507 513.624 84.3079L514.763 84.4778L512.693 83.8547C515.034 84.2491 514.868 83.9761 514.699 83.6994C514.578 83.4991 514.454 83.297 515.28 83.3447C515.206 83.2883 515.114 83.2227 515.013 83.1508C514.401 82.7166 513.461 82.0499 514.349 81.7581C515.754 81.9121 516.348 81.7004 516.973 81.4776C517.269 81.3723 517.572 81.2643 517.971 81.1916C517.764 80.3985 517.557 79.3219 518.695 78.5287L516.004 78.2454L515.901 78.0187C516.029 78.0305 516.144 78.0397 516.247 78.048C516.645 78.0802 516.875 78.0987 517.039 78.1888C518.726 78.2811 518.366 78.0891 518.001 77.8944C517.694 77.7309 517.383 77.5655 518.281 77.5655C516.668 77.4552 516.976 77.5358 517.361 77.6372C517.569 77.6918 517.8 77.7524 517.764 77.7922C516.418 77.8488 513.935 77.3388 515.384 77.2256L516.004 77.2822L514.659 76.9423C515.694 77.0555 516.47 77.0981 517.246 77.1405C518.022 77.183 518.799 77.2256 519.834 77.3388C519.747 77.0075 519.119 76.6563 518.499 76.3102C517.636 75.8277 516.79 75.3551 517.453 74.9592C518.431 75.1052 518.493 75.0109 518.564 74.9004C518.66 74.7538 518.773 74.5794 521.075 74.9026C520.343 74.563 519.425 74.5261 518.291 74.4805C517.342 74.4424 516.242 74.3981 514.97 74.1661C515.004 74.1282 514.912 74.0778 514.828 74.0317C514.659 73.9394 514.521 73.8637 515.487 73.9394C515.925 74.0194 516.502 74.0492 517.021 74.076C517.605 74.1063 518.117 74.1327 518.281 74.2226L518.074 73.8828C518.327 73.8828 518.717 73.9577 519.02 74.0163C519.09 74.0296 519.155 74.0421 519.213 74.0527C518.115 73.6234 518.891 73.411 519.649 73.2037C520.392 73.0004 521.116 72.8022 520.041 72.4096C519.316 72.3245 519.187 72.367 519.057 72.4096C518.928 72.452 518.799 72.4945 518.074 72.4096C516.592 71.9589 517.468 71.9065 518.324 71.8553C519.083 71.81 519.826 71.7657 518.902 71.4464L520.868 71.7297C520.626 71.6786 520.37 71.6295 520.124 71.582C519.003 71.3666 518.081 71.189 519.523 71.0498C521.063 71.1597 521.39 71.2935 521.738 71.4356C521.927 71.5131 522.123 71.5931 522.524 71.6731C522.628 71.503 522.214 70.9364 519.937 70.9364C519.408 70.7296 520.425 70.704 521.253 70.6831C521.559 70.6755 521.839 70.6685 522.007 70.6531C521.789 70.6333 521.52 70.6413 521.218 70.6503C520.66 70.667 519.988 70.687 519.316 70.5398C520.506 70.3537 520.719 70.0146 520.929 69.6797C520.974 69.6069 521.02 69.5341 521.075 69.4632C521.696 69.52 522.524 69.5766 522.835 69.5766C521.417 69.3826 521.956 69.3784 522.816 69.3718C523.714 69.3647 524.962 69.3549 524.697 69.1234C524.479 68.684 523.99 68.1952 523.493 67.6994C522.582 66.7887 521.647 65.8543 522.317 65.1572C519.617 64.8123 519.187 64.5101 518.712 64.1763C518.641 64.1263 518.569 64.0758 518.488 64.0241L522.731 64.194L521.386 63.8541C521.936 63.829 522.141 63.8818 522.342 63.9335C522.595 63.9985 522.843 64.0621 523.766 63.9675L521.179 63.7408C521.759 63.762 522.065 63.6643 522.371 63.5663C522.885 63.4023 523.401 63.2374 525.215 63.6274L525.422 62.4377C525.524 62.2984 524.675 62.2277 523.921 62.1647C523.142 62.0997 522.463 62.0429 523.042 61.9277C523.673 61.9277 523.877 61.957 524.128 61.9933C524.371 62.0283 524.659 62.0699 525.422 62.0977C527.108 61.6808 524.792 61.3578 522.5 61.0383C520.432 60.7498 518.383 60.4642 519.316 60.1147L519.834 60.1713C519.199 60.0766 518.983 59.9643 518.808 59.8737C518.669 59.8016 518.556 59.7432 518.281 59.7181C516.155 59.7181 516.731 59.775 517.523 59.8531C518.312 59.9309 519.313 60.0298 518.074 60.1147C516.172 60.0551 515.754 59.9645 515.381 59.8835C515.044 59.8102 514.744 59.745 513.417 59.7181C514.265 59.6109 513.756 59.5264 513.213 59.4358C512.894 59.3827 512.562 59.3277 512.486 59.2648C513.546 59.1592 513.776 59.0169 514.001 58.8778C514.259 58.718 514.511 58.5625 516.004 58.4716C515.622 58.4145 514.971 58.3574 514.272 58.2961C512.888 58.1747 511.313 58.0365 511.244 57.8484C512.572 57.7676 513.245 57.7891 513.698 57.8036C514.197 57.8196 514.426 57.827 514.97 57.6783L512.9 57.6217C513.155 57.4353 513.621 57.4405 514.297 57.4483C514.442 57.4499 514.598 57.4518 514.763 57.4518C514.806 57.3556 514.293 57.3004 513.796 57.2468C513.121 57.1742 512.479 57.105 513.314 56.9418L515.28 57.1117C514.634 56.9349 514.744 56.827 514.922 56.6533C514.972 56.6046 515.028 56.5506 515.073 56.4886C516.315 56.4886 516.211 56.6585 515.797 56.7151C517.722 56.6449 516.743 56.5529 515.82 56.466C515.254 56.413 514.709 56.3616 514.866 56.3187C514.537 56.3187 514.273 56.3468 513.978 56.3784C513.436 56.4362 512.79 56.5053 511.451 56.4318C511.618 56.3631 511.194 56.2946 510.793 56.2296C510.202 56.1337 509.66 56.0462 511.14 55.9786L513.107 56.1485C512.512 56.0264 512.01 55.9702 511.65 55.9298C511.009 55.8577 510.817 55.8361 511.347 55.582H512.486C510.71 55.4324 511.188 55.2583 511.778 55.043C512.082 54.9322 512.415 54.8104 512.486 54.6755L513.003 54.7321C512.686 54.6824 512.149 54.6328 511.664 54.5878C511.043 54.5304 510.507 54.4807 510.623 54.4488C509.381 54.6188 508.864 54.6188 506.794 54.6188C508.513 54.4763 507.479 54.3768 506.292 54.2624C505.12 54.1497 503.8 54.0226 504.828 53.8255C505.966 53.8255 507.415 53.9389 506.173 54.0522C507.017 54.0795 507.832 54.1 508.605 54.1197C511.054 54.1819 513.09 54.2334 514.349 54.4488C513.521 54.2789 513.003 54.109 514.556 54.109L511.244 54.0522C511.177 53.9786 511.24 53.9289 511.293 53.8877C511.322 53.8653 511.347 53.8454 511.347 53.8255C510.469 53.8016 509.721 53.8387 509.048 53.8722C508.136 53.9175 507.361 53.956 506.587 53.8255C505.884 53.6716 507.665 53.6483 508.425 53.6493L508.45 53.6556C508.914 53.6556 508.783 53.6498 508.425 53.6493C507.812 53.4989 507.036 53.4627 506.468 53.4363C505.787 53.4045 505.405 53.3866 505.966 53.2024C506.064 53.2202 506.181 53.2379 506.288 53.2539C506.415 53.2733 506.526 53.2899 506.565 53.3011C506.539 53.3059 506.512 53.3108 506.484 53.3157C506.579 53.3157 506.596 53.3103 506.565 53.3011C506.973 53.2229 507.026 53.1328 507.078 53.0435C507.177 52.8741 507.274 52.7084 509.795 52.6358C510.726 52.6358 511.865 52.6358 511.554 52.7491H510.934C512.262 52.8529 512.198 52.814 512.089 52.7468C511.983 52.6816 511.833 52.5898 512.866 52.576C513.088 52.5868 513.371 52.5888 513.728 52.579C513.375 52.5736 513.092 52.573 512.866 52.576C511.801 52.5236 512.143 52.2664 512.486 52.1258L510.106 52.1824C506.462 51.983 507.688 51.9698 509.688 51.9485C511.665 51.9272 514.398 51.8979 513.935 51.6726C513.08 51.5262 512.942 51.5613 512.767 51.6061C512.603 51.6478 512.405 51.698 511.554 51.6158C511.703 51.5343 512.08 51.4676 512.448 51.4021C513.103 51.2857 513.732 51.1741 513.003 50.9927C513.139 50.9762 513.284 50.9571 513.44 50.9368C514.356 50.8168 515.673 50.6444 517.971 50.596C517.502 50.526 517.612 50.4077 517.724 50.2892C517.883 50.1197 518.043 49.9495 516.522 49.9161C515.462 50.1007 516.017 50.175 516.558 50.2472C517.179 50.3301 517.781 50.4104 515.901 50.6528L513.21 50.596C513.252 50.483 513.062 50.37 512.879 50.2605C512.603 50.0957 512.34 49.939 512.9 49.8028C512.382 49.8595 511.658 49.9161 511.14 49.8595C510.745 49.7295 510.107 49.6409 509.516 49.5589C508.562 49.4265 507.732 49.3111 508.243 49.0663C510.12 48.9768 510.259 49.0989 510.386 49.2101C510.421 49.2399 510.454 49.2689 510.52 49.293C511.557 49.1352 511.471 49.0828 511.316 48.989C511.193 48.9145 511.027 48.8138 511.347 48.613C512.38 48.5565 512.357 48.6269 512.331 48.7045C512.305 48.7827 512.277 48.868 513.314 48.8396L512.598 48.4478C512.721 48.447 512.856 48.4455 513.003 48.4431H512.589L512.598 48.4478C511.054 48.4583 511.416 48.3495 511.868 48.2134C512.236 48.1027 512.665 47.9739 512.175 47.8764C512.101 47.4264 509.652 47.3605 507.205 47.2945C506.264 47.2692 505.323 47.2438 504.517 47.1965C505.346 47.0957 506.175 47.0397 506.931 46.9886L507.208 46.9699C506.173 47.121 506.38 47.121 506.909 47.121C507.173 47.121 507.518 47.121 507.829 47.1399C507.415 46.9699 511.244 46.5167 512.693 46.5733C512.143 46.4227 511.651 46.4963 511.14 46.5726C510.69 46.64 510.225 46.7096 509.692 46.6299L509.899 46.1767C509.444 46.2206 509.079 46.2646 508.763 46.3027C507.856 46.4118 507.351 46.4728 506.277 46.3466C505.89 46.2198 505.965 46.1245 506.071 45.9901C506.107 45.9444 506.147 45.8942 506.173 45.8368C506.528 45.8368 507.004 45.8038 507.456 45.7725C508.19 45.7216 508.864 45.6749 508.864 45.78C509.485 45.6101 509.588 45.4402 507.829 45.4402C507.104 45.5988 506.695 45.5353 506.191 45.457C505.616 45.3676 504.917 45.2589 503.482 45.4402L505.035 45.1001C505.035 45.1232 505.223 45.1276 505.426 45.1321C505.721 45.1389 506.047 45.1463 505.863 45.2135C507.741 45.0553 506.593 45.0351 505.623 45.0181C505.204 45.0107 504.818 45.004 504.724 44.9869C504.902 44.9479 505.043 44.8889 505.194 44.8259C505.482 44.7057 505.804 44.5708 506.484 44.5336C505.759 44.477 506.277 44.2503 507.622 44.1369C507.322 44.0712 506.777 44.1199 506.191 44.1725C505.767 44.2104 505.322 44.2503 504.931 44.2503L505.035 43.7971C505.467 43.7656 506.1 43.7164 506.801 43.662C508.619 43.5208 510.899 43.3438 511.347 43.3438C510.76 43.3208 509.918 43.363 509.13 43.4024C507.976 43.4604 506.939 43.5123 507.001 43.3438C508.373 43.3169 508.933 43.2012 509.516 43.0808C510.164 42.9469 510.84 42.8071 512.693 42.7773C514.763 42.494 514.659 42.0406 513.831 41.8706C512.589 41.9003 512.305 41.9916 511.979 42.0962C511.681 42.1922 511.347 42.2993 510.209 42.3806C509.696 42.0995 507.833 42.0834 506.212 42.0692C505.409 42.0623 504.666 42.0559 504.175 42.018C504.061 41.813 504.03 41.5707 504.001 41.3189C505.912 40.9859 507.428 40.5748 507.001 40.3409C506.411 40.387 505.855 40.4896 505.242 40.6026C504.85 40.6752 504.434 40.7518 503.971 40.8209C503.929 40.5912 503.826 40.3727 503.572 40.1815C504.077 40.0421 504.335 39.9476 503.299 40.0165C503.271 40.0029 503.241 39.9897 503.211 39.9769L504.899 39.6766C504.976 39.6726 505.055 39.6674 505.138 39.661L506.897 39.3211L504.899 39.6766C504.103 39.7182 503.612 39.6345 503.212 39.5665C502.975 39.5261 502.769 39.491 502.551 39.491C500.936 39.3349 501.85 39.1311 503.372 38.7919C503.46 38.7724 503.549 38.7523 503.641 38.732C503.691 38.7207 503.742 38.7094 503.793 38.6978C503.267 38.8024 502.41 38.9555 501.589 39.0675L501.826 38.981L504.31 38.1878C504.476 37.7782 503.44 38.1364 502.222 38.6162C502.307 38.5598 502.321 38.509 502.334 38.4611C502.366 38.3464 502.393 38.2486 503.379 38.1312C503.345 38.0945 503.464 38.034 503.576 37.9768C503.795 37.8648 503.991 37.7649 502.982 37.8782L504.691 37.6778C504.984 37.6465 505.304 37.6089 505.656 37.5646L504.691 37.6778C502.171 37.9471 501.67 37.7624 501.157 37.5729C501.043 37.5309 500.929 37.4888 500.792 37.4513C503.545 37.1101 503.378 37.04 503.156 36.9474C502.937 36.8554 502.664 36.7414 505.138 36.3181C503.211 36.5819 502.807 36.4818 502.422 36.3865C502.062 36.2974 501.719 36.2125 500.171 36.4315C499.933 36.3011 501.943 35.938 503.408 35.6734C503.855 35.5928 504.251 35.5212 504.517 35.4683L503.068 35.5816C504.094 35.3359 504.484 35.0467 504.879 34.7545C505.121 34.575 505.365 34.3943 505.759 34.2218L502.344 34.5617L503.793 34.2218C503.515 34.2599 503.26 34.2723 503.001 34.285C502.489 34.3101 501.962 34.336 501.206 34.5617L501.309 34.3917C499.247 34.757 499.246 34.6942 499.245 34.5795C499.244 34.4985 499.243 34.3917 498.515 34.3917C499.032 34.2218 499.86 34.0517 500.378 34.0517C500.378 33.9757 501.169 33.7979 502.034 33.6034C502.344 33.5336 502.664 33.4617 502.959 33.3918C503.097 33.3651 503.205 33.3395 503.275 33.3152C503.174 33.3403 503.068 33.3659 502.959 33.3918C502.5 33.4811 501.702 33.5847 500.783 33.7037C498.759 33.9661 496.153 34.304 495.307 34.7316C493.858 35.0149 492.719 35.0717 493.34 34.7884L496.445 34.0517L493.03 34.5617C492.671 34.529 493.176 34.3449 493.706 34.1516C494.094 34.0104 494.495 33.8643 494.582 33.7684C494.893 33.8818 500.792 32.862 500.481 32.4088C500.884 32.5191 501.767 32.4384 502.535 32.3682C502.95 32.3303 503.332 32.2954 503.586 32.2954C503.689 32.1821 503.896 32.0687 505.345 31.9554C504.744 31.8732 504.263 31.937 503.846 31.9926C503.401 32.0517 503.028 32.1016 502.654 31.9554C505.449 31.3888 506.277 31.0489 507.001 30.4824L505.138 31.2189C504.828 31.2755 504.517 31.3322 504.31 31.3322C504.103 31.5021 503.689 31.6155 502.654 31.8422C502.654 31.7977 502.083 31.8403 501.487 31.8846C500.831 31.9335 500.144 31.9845 500.161 31.9239C500.297 31.8809 500.438 31.8349 500.585 31.7854C500.292 31.8555 500.167 31.8991 500.161 31.9239C498.207 32.5411 497.346 32.507 496.6 32.4773C495.971 32.4524 495.425 32.4306 494.375 32.8054C493.547 32.9753 493.237 32.8054 494.582 32.4088C495.921 32.2755 496.687 31.9661 497.49 31.6416C497.651 31.5766 497.815 31.5106 497.984 31.4455C498.069 31.4147 498.154 31.3837 498.237 31.3531C498.29 31.3335 498.342 31.3142 498.394 31.2952C498.707 31.187 499.049 31.0838 499.446 30.9922C499.125 31.0363 498.772 31.1571 498.394 31.2952C498.252 31.3445 498.116 31.3949 497.984 31.4455C497.502 31.6199 496.985 31.7883 496.445 31.8422C496.218 31.7593 496.985 31.435 497.697 31.1335C497.96 31.0221 498.216 30.9138 498.411 30.8222L499.032 30.7656L499.964 30.1423C499.453 30.2715 499.031 30.4333 498.654 30.5782C498.038 30.8147 497.54 31.0058 496.963 30.9356C497.182 30.8394 497.141 30.7737 497.1 30.7085C497.044 30.62 496.988 30.532 497.583 30.369C498.298 30.2248 499.067 30.036 499.786 29.8592C501.047 29.5495 502.156 29.277 502.551 29.349C502.522 29.3373 502.491 29.3236 502.457 29.309C502.014 29.1149 501.15 28.7367 499.032 29.6323L498.929 29.4058C498.868 29.4351 498.805 29.4668 498.738 29.5C498.691 29.523 498.643 29.5471 498.593 29.5717C497.623 30.0554 496.158 30.7848 495.514 30.4824L496.031 30.3122L493.754 30.5957L494.996 30.029C494.375 30.2557 493.651 30.369 493.651 30.2557C493.92 30.1506 494.117 30.061 494.312 29.9725C494.643 29.8228 494.967 29.6761 495.617 29.4624C495.155 29.2094 494.115 29.5441 493.382 29.7799C493.294 29.8082 493.211 29.8349 493.133 29.859C492.823 29.7457 493.237 29.5192 494.789 29.0658C494.823 28.9378 494.748 28.8216 494.671 28.7001C494.507 28.445 494.329 28.1666 495.1 27.7061C494.31 27.7349 494.217 27.8077 494.057 27.9318C493.902 28.0517 493.686 28.2198 492.719 28.4426C494.686 27.4794 494.686 26.9694 493.961 26.7429C493.603 26.612 493.003 26.5379 492.421 26.4659C491.994 26.4131 491.577 26.3614 491.271 26.2895C489.657 27.2613 489.553 27.2382 489.375 27.1988C489.223 27.165 489.016 27.1193 487.763 27.6744C488.07 27.5084 488.332 27.2886 488.6 27.0634C488.728 26.9561 488.858 26.8475 488.994 26.7429C489.408 26.3463 489.925 25.9496 490.857 25.9496L489.925 25.8363C490.49 25.2697 491.054 25.1714 491.619 25.073C491.655 25.0666 491.692 25.0604 491.729 25.0538C491.749 25.0503 491.768 25.0467 491.788 25.043C492.409 24.9298 493.133 24.7597 493.961 23.9099C493.547 23.74 492.305 24.0798 491.271 24.3631C490.236 24.6466 489.408 24.8165 489.511 24.2499C490.662 23.6472 490.361 23.6537 490.024 23.6613C489.665 23.6692 489.264 23.6781 490.546 22.9467C491.208 22.6648 491.452 22.7264 491.686 22.7857C491.782 22.8098 491.875 22.8333 491.995 22.8333L492.202 22.4935C491.478 21.8136 490.65 22.2102 489.822 22.7768C489.655 22.8909 489.484 23.0142 489.308 23.1411C488.61 23.6445 487.833 24.205 486.924 24.4765C485.875 24.285 486.969 23.3241 487.77 22.6208C487.917 22.4921 488.054 22.3719 488.166 22.2668C488.27 21.9269 487.235 21.8701 486.51 22.2102C487.442 21.8701 487.649 22.2668 487.338 22.7768C487.028 23.3433 486.303 24.0232 485.579 24.4765C486.303 23.5133 485.786 23.3433 485.061 23.4567C484.337 23.57 483.405 24.0798 482.888 24.4199C482.888 25.5823 482.987 25.6632 483.184 25.8247L483.198 25.8363C483.361 25.925 483.523 26.014 483.287 26.6208C483.095 26.3852 482.893 26.158 482.681 25.9496C481.646 24.8731 480.301 23.8531 478.852 22.9467C477.403 22.0968 475.54 21.1902 473.471 20.4537C471.401 19.7171 469.124 19.1507 466.951 18.8106C465.338 18.5509 464.508 18.4817 463.344 18.3847C463.238 18.3757 463.13 18.3668 463.018 18.3574C461.776 18.244 460.534 18.1874 459.293 18.244C457.947 18.244 456.705 18.3006 456.499 18.3574C456.24 18.3857 455.981 18.3998 455.722 18.414C455.464 18.4281 455.205 18.4423 454.946 18.4706L453.394 18.6407C452.876 18.6973 452.255 18.8106 451.945 18.8672C451.686 18.8957 451.453 18.9381 451.22 18.9805C450.988 19.0232 450.755 19.0656 450.496 19.0939C450.292 19.1385 450.104 19.1744 449.926 19.2084C449.652 19.2606 449.401 19.3086 449.151 19.3772L448.323 19.6039C447.805 19.717 447.288 19.8871 446.978 20.0005L446.15 20.227C445.529 20.4537 445.322 20.5103 444.908 20.6237L444.08 20.9069L443.459 21.1336L443.045 21.3036L442.734 21.4735L441.004 22.1753C439.438 21.2945 437.584 20.431 435.594 19.7172C435.241 19.5779 434.847 19.4408 434.428 19.3076C434.403 19.2551 434.378 19.2027 434.352 19.1505C441.906 13.0882 394.819 0.793259 392.956 6.79899L392.335 6.96893L391.508 7.13902L389.852 7.53548C389.283 7.67712 388.74 7.80463 388.197 7.93196C387.653 8.05946 387.109 8.18711 386.54 8.32875C386.091 8.4517 385.623 8.56404 385.16 8.67487C384.557 8.81937 383.963 8.96168 383.435 9.12202C382.759 9.32783 382.082 9.53179 381.412 9.73373C378.391 10.6444 375.496 11.517 373.294 12.3515C373.113 12.4152 372.934 12.4778 372.756 12.5396C371.773 11.9279 370.705 11.3497 369.568 10.8217C366.153 9.23537 362.427 8.15881 359.219 7.53548C356.427 7.03881 355.801 6.98021 355.213 6.92513C354.929 6.89852 354.654 6.87276 354.148 6.79899C353.01 6.68564 351.872 6.62904 350.733 6.57228C348.456 6.51569 346.076 6.57246 343.8 6.7424C342.662 6.85558 341.522 6.96909 340.488 7.13902C339.246 7.30896 338.418 7.4789 338.522 7.4789C336.969 7.76218 335.417 8.10207 333.864 8.55546L333.14 8.78198L330.967 9.57524C330.812 9.63183 330.632 9.70238 330.451 9.77296L330.448 9.77414C330.267 9.84471 330.087 9.91528 329.932 9.97186L329.725 10.0286C329.001 10.4818 328.587 10.7651 328.483 10.9918C328.173 11.3883 329.001 11.3883 330.035 11.3317C330.129 11.3317 330.242 11.3202 330.368 11.3076C330.522 11.2923 330.693 11.2751 330.863 11.2751L331.277 11.2184H331.381L331.795 11.0484L332.726 10.7651C333.347 10.5384 334.071 10.3119 334.796 10.1418L336.245 9.74518C336.503 9.68859 336.788 9.61786 337.073 9.54695C337.357 9.47622 337.642 9.4053 337.901 9.34871C338.211 9.29195 338.495 9.23536 338.78 9.17877C339.065 9.12202 339.349 9.06542 339.66 9.00867L340.281 8.89532C340.488 8.86703 340.669 8.83874 340.85 8.81044C341.031 8.78214 341.212 8.75368 341.419 8.72539C341.813 8.66375 342.238 8.61893 342.677 8.57245C343.045 8.53371 343.422 8.4938 343.8 8.44209C345.455 8.27216 347.111 8.21541 348.767 8.21541C350.423 8.21541 352.079 8.32874 353.631 8.44209C353.825 8.4687 354.019 8.48286 354.203 8.49617C354.41 8.51116 354.604 8.52531 354.769 8.55546C354.893 8.56674 354.98 8.57348 355.05 8.57904C355.109 8.58359 355.156 8.58729 355.202 8.59184C355.373 8.60901 355.54 8.63933 356.321 8.78198C358.494 9.12185 360.979 9.632 363.566 10.4819C365.852 11.2121 368.227 12.2306 370.205 13.4046C369.882 13.5104 369.567 13.6126 369.258 13.7113C368.886 13.8132 368.514 13.9353 368.164 14.0534C367.094 13.443 365.921 12.8893 364.704 12.4082C362.841 11.6716 360.875 11.105 359.116 10.6518C357.563 10.2552 354.873 9.91528 354.873 9.91528C353.782 9.75225 352.596 9.69347 351.497 9.63907L351.354 9.632C348.87 9.51865 346.283 9.57524 343.903 9.85853C343.282 9.91528 342.661 9.97186 342.143 10.0852C341.73 10.1418 340.695 10.3119 340.695 10.3119L340.074 10.4251C339.823 10.4938 339.573 10.5416 339.299 10.5938C339.121 10.6279 338.933 10.6637 338.729 10.7085C338.235 10.8098 337.705 10.9514 337.203 11.0853C336.864 11.1759 336.537 11.263 336.245 11.3317L334.692 11.8417L334.071 12.0116L333.45 12.2382L333.243 12.2949L333.14 12.3515V12.4082L333.036 12.5214C331.819 13.0029 330.657 13.5448 329.59 14.0424C329.163 14.2413 328.751 14.4332 328.358 14.6114C328.104 14.3491 327.839 14.0869 327.552 13.8247C327.367 13.6731 327.192 13.5217 327.015 13.3686C326.596 13.0066 326.167 12.6365 325.585 12.2382C322.688 10.0852 318.445 8.04547 313.891 6.7424C312.856 6.40236 311.511 6.11907 310.58 5.94913L309.027 5.60925C307.992 5.38256 306.854 5.21263 305.716 5.09929C303.439 4.816 301.162 4.64605 298.885 4.64605H296.091C295.263 4.64605 294.332 4.70264 293.504 4.7594C293.284 4.78938 293.064 4.80353 292.829 4.81869C292.621 4.83199 292.401 4.84597 292.159 4.87258L291.538 4.92934L290.399 5.04269C289.675 5.15588 288.847 5.26922 288.226 5.32597C287.864 5.38256 287.476 5.4533 287.088 5.52404C286.7 5.59495 286.311 5.66584 285.949 5.72243C285.745 5.76723 285.557 5.8031 285.379 5.83713C285.105 5.88934 284.855 5.93718 284.604 6.00573L283.569 6.23241L282.741 6.45911L281.603 6.7424L279.533 7.30896L277.877 7.81878C277.705 7.87553 277.521 7.93213 277.337 7.98888C276.969 8.10207 276.601 8.21558 276.325 8.32875C274.566 8.95208 272.703 9.57523 271.15 10.0852C270.867 10.1938 270.599 10.2941 270.344 10.3891C269.67 10.6413 269.089 10.8583 268.563 11.105C267.943 11.3883 267.425 11.6716 267.115 11.8983C266.39 12.4082 265.976 12.8049 265.562 13.2013L265.551 13.2136C264.286 12.9053 262.958 12.6747 261.63 12.5214C259.663 12.2949 257.8 12.1816 255.834 12.2382C255.576 12.2382 255.343 12.2525 255.11 12.2666C254.877 12.2808 254.644 12.2949 254.385 12.2949L253.764 12.3515C253.571 12.3781 253.376 12.3923 253.193 12.4055C252.985 12.4207 252.791 12.4347 252.626 12.4648C252.111 12.5051 251.544 12.6026 250.999 12.6964C250.777 12.7345 250.559 12.772 250.349 12.8049C249.904 12.8744 249.459 12.9655 249.037 13.0518C248.773 13.1057 248.519 13.1577 248.279 13.2013L248.072 13.2581H247.865L247.555 13.3147C247.141 13.3715 246.753 13.4422 246.365 13.5131C245.977 13.5838 245.589 13.6547 245.175 13.7113C243.519 13.9946 241.863 14.3346 239.897 14.8445C238.042 15.3255 236.096 16.0083 233.709 16.845L233.274 16.9976C232.446 17.1109 231.307 17.2808 230.169 17.4508C229.79 17.5074 229.41 17.5704 229.031 17.6333C228.272 17.7592 227.513 17.8851 226.754 17.9608C224.477 18.244 222.407 18.3574 221.372 17.7908C219.924 18.4707 218.164 19.2072 216.095 20.0005C215.333 20.2924 214.542 20.5767 213.752 20.8618C212.392 21.3512 211.025 21.8432 209.783 22.3801C207.714 23.1734 205.849 23.9665 204.296 24.7597C202.849 25.4962 201.812 26.2329 201.398 26.8561C202.746 26.4594 203.882 26.063 204.816 25.7229C205.747 25.3831 206.677 25.043 207.402 24.6464C208.495 24.1337 209.41 23.6209 210.284 23.1325C210.568 22.9733 210.848 22.8163 211.128 22.6634C212.267 21.9835 213.509 21.3602 215.37 20.6804C216.302 20.3404 217.337 20.0005 218.682 19.6605C219.303 19.4905 220.027 19.3206 220.752 19.1505C221.476 18.9805 222.304 18.8106 223.235 18.6407C222.511 19.4339 221.89 20.227 221.269 21.0769C216.607 22.6956 211.881 24.8786 207.645 26.8367C204.168 28.4428 201.019 29.8974 198.501 30.7655C199.848 30.5389 200.676 30.5955 200.468 31.1055C198.087 32.4086 196.226 33.5419 194.57 34.5617C193.633 35.1773 192.771 35.7721 191.94 36.3463C191.392 36.7234 190.86 37.0919 190.328 37.4513C188.98 38.3577 187.635 39.2643 185.979 40.1709C184.324 41.0774 182.357 42.0972 179.979 43.1737C178.528 43.0038 179.254 42.2673 180.807 41.3041C182.083 40.512 183.919 39.5665 185.625 38.6885C185.992 38.4989 186.356 38.3122 186.705 38.1312C183.514 39.1016 181.918 39.8228 180.287 40.6506C180.511 40.4623 180.723 40.2676 180.931 40.0749C181.261 39.7699 181.585 39.4698 181.943 39.2077C182.151 39.0376 182.357 38.8677 182.462 38.6978C182.668 38.4714 182.876 38.2442 183.082 38.0744L183.393 37.6778C183.496 37.5929 183.574 37.5079 183.651 37.423C183.729 37.3379 183.807 37.2529 183.91 37.168L184.118 36.8847L184.426 36.5447C184.504 36.419 184.594 36.301 184.685 36.1851C184.834 35.9875 184.983 35.7957 185.049 35.5815L185.254 35.2982C185.276 35.2626 185.298 35.2296 185.32 35.1981C185.397 35.0784 185.463 34.9795 185.463 34.845C185.5 34.7239 185.55 34.6098 185.597 34.498C185.687 34.2959 185.774 34.1005 185.774 33.8818C185.774 33.7881 185.805 33.6946 185.833 33.6104C185.855 33.5417 185.877 33.4794 185.877 33.4286V32.6919C185.877 32.0687 185.877 31.3888 185.668 30.7655C185.566 30.4256 185.463 30.1423 185.254 29.859C185.152 29.7458 185.049 29.5193 184.946 29.293C184.84 29.0663 184.635 28.8391 184.426 28.6125C183.701 27.7627 182.771 26.9128 181.631 26.2329C181.323 26.063 181.012 25.8929 180.807 25.7229C180.701 25.6664 180.573 25.6096 180.442 25.553C180.315 25.4962 180.184 25.4397 180.081 25.3829C179.562 25.1564 179.045 24.9297 178.528 24.7597C177.492 24.3631 176.253 24.0232 175.114 23.7965L174.491 23.6266L174.078 23.5698C173.769 23.5133 173.458 23.4567 173.147 23.4567L171.283 23.2866C171.13 23.2866 170.974 23.2724 170.819 23.2583C170.663 23.2441 170.508 23.23 170.352 23.23H168.905C168.578 23.23 168.254 23.2455 167.946 23.2603C167.663 23.2738 167.392 23.2866 167.143 23.2866L165.282 23.5133C165.16 23.5133 165.145 23.5326 165.132 23.5488C165.126 23.5602 165.117 23.5698 165.073 23.5698L164.971 23.6266L164.454 23.7965L163.417 24.0798C163.056 24.1649 162.72 24.2639 162.384 24.3631C162.048 24.4623 161.712 24.5615 161.348 24.6464C160.626 24.8163 160.003 24.9864 159.278 25.213C159.079 25.2677 158.87 25.3283 158.652 25.391C158.192 25.523 157.7 25.6643 157.208 25.7795C156.38 26.0237 155.434 26.2464 154.469 26.4741C153.865 26.6162 153.252 26.7602 152.655 26.9128C150.999 27.3093 149.24 27.7059 147.171 28.1593L151.724 27.4794C149.24 28.2725 147.482 28.8392 146.24 29.2925C144.998 29.7457 144.068 30.0857 143.342 30.4256C142.847 30.6383 142.424 30.8446 141.998 31.0779C142.29 30.114 142.558 29.1651 142.826 28.2162L144.17 27.8193L144.895 27.6494C144.964 27.6305 145.045 27.6116 145.126 27.5926C145.284 27.5549 145.446 27.5171 145.515 27.4794C145.412 27.1961 145.617 26.6294 145.826 26.2329C146.031 25.8363 145.929 25.4962 144.687 25.7229L145.617 25.2697L147.273 24.3631C146.757 23.9665 146.654 23.5698 147.379 22.8333C147.463 22.7629 147.55 22.673 147.65 22.5677C147.793 22.419 147.964 22.2393 148.207 22.0401C148.31 21.9269 148.412 21.8134 148.621 21.7002L148.826 21.5303L149.138 21.247C149.343 21.0203 149.449 20.907 149.757 20.4537C149.81 20.3687 149.863 20.2695 149.913 20.1704C149.966 20.0712 150.018 19.972 150.068 19.8872C150.068 19.8304 150.171 19.6039 150.277 19.4338C150.333 19.3418 150.358 19.2498 150.386 19.1488C150.411 19.0632 150.436 18.9713 150.482 18.8672C150.585 18.6407 150.585 18.4706 150.585 18.3006V17.4508C150.585 17.1109 150.482 16.7709 150.38 16.431C150.277 16.0909 150.171 15.8077 149.757 15.3544C149.449 14.9014 149.035 14.5049 148.621 14.1085C148.518 14.0234 148.388 13.924 148.257 13.8248C148.129 13.7258 147.998 13.6263 147.896 13.5414C147.585 13.3715 147.379 13.2015 147.171 13.0316C146.24 12.465 144.998 12.0116 143.756 11.6716L143.342 11.5584L142.412 11.3883C142.15 11.3528 141.892 11.2948 141.655 11.2426C141.518 11.2118 141.388 11.1828 141.273 11.1618C140.862 11.1052 140.445 11.0482 140.133 10.9918L139.514 10.9351C139.1 10.8785 138.583 10.8785 138.169 10.8785H135.994C135.891 10.8785 135.683 10.8785 135.58 10.9351C135.424 10.9351 135.297 10.9492 135.166 10.9634C135.038 10.9775 134.908 10.9918 134.752 10.9918C134.547 10.9918 134.338 11.0484 134.133 11.105C134.052 11.116 133.968 11.1269 133.88 11.1382C133.519 11.1857 133.099 11.2403 132.682 11.3317C131.649 11.5584 130.51 11.8983 129.268 12.4082C128.231 12.3515 128.751 11.7283 129.785 11.1618C128.337 11.5217 128.353 11.0811 128.372 10.581C128.381 10.3266 128.39 10.0569 128.21 9.86947C128.203 9.83545 128.179 9.81255 128.129 9.80193C128.16 9.82299 128.185 9.84555 128.21 9.86947C128.247 10.1459 126.896 11.1587 125.284 12.3685C124.998 12.5843 124.702 12.8062 124.403 13.0314C124.313 13.1008 124.223 13.1702 124.132 13.2396L124.129 13.2418C122.144 14.7589 120.208 16.2385 123.473 15.7511C123.473 15.8083 123.448 15.8728 123.398 15.9431L121.817 15.8644C121.506 15.8078 121.194 15.7511 121.092 15.6945C120.678 15.7511 120.264 15.6945 119.124 15.4678C119.162 15.4486 118.801 15.3181 118.381 15.1653C117.736 14.9315 116.952 14.6455 117.213 14.626C117.36 14.6427 117.515 14.6589 117.677 14.6745C117.431 14.6349 117.282 14.6208 117.213 14.626C116.389 14.5334 115.785 14.429 115.324 14.3197C115.785 14.0648 116.23 13.8162 116.65 13.5801C116.684 13.5608 116.719 13.5412 116.753 13.522C117.083 13.5518 117.422 13.5929 117.78 13.6547C117.528 13.5757 117.176 13.538 116.778 13.508C116.943 13.4151 117.108 13.3243 117.263 13.2359L117.677 13.3714L119.124 13.2581C118.536 13.1431 118.001 13.1121 117.528 13.0893C117.699 12.9943 117.867 12.9026 118.029 12.8147C118.421 12.8824 118.819 12.947 119.208 13.0098C120.587 13.2325 121.82 13.4314 122.022 13.6547C122.016 13.6359 122.007 13.6135 121.997 13.5882C121.901 13.3096 121.68 12.6821 119.022 12.5782L119.23 12.3517C119.128 12.3517 119.019 12.3522 118.907 12.3532C118.944 12.3335 118.984 12.3139 119.022 12.2949C118.953 12.3176 118.888 12.3373 118.826 12.354C118.748 12.3547 118.67 12.3555 118.586 12.3565C118.508 12.3574 118.424 12.3582 118.343 12.3591C118.353 12.3414 118.371 12.32 118.402 12.2949C118.599 12.078 119.271 11.6532 120.509 10.8714L120.678 10.7651C119.106 11.4759 118.166 11.9645 117.5 12.3611C116.787 12.3545 116.096 12.3197 115.679 12.1991C115.732 12.1265 115.772 12.0608 115.803 12.0012L115.919 12.0116L115.813 11.9828C116 11.5838 115.67 11.4713 115.091 11.445C115.085 11.4528 115.078 11.4605 115.072 11.4685C114.475 11.3944 113.967 11.2578 114.054 11.1618C114.428 11.1845 114.702 11.1889 114.973 11.1934C115.383 11.2003 115.794 11.2071 116.538 11.2751C116.538 10.9405 115.433 10.8076 114.593 10.706C114.434 10.6873 114.288 10.6696 114.157 10.6518C114.054 10.4253 114.677 10.4253 116.333 10.6518C116.491 10.5652 116.572 10.4573 116.653 10.3461C116.843 10.0936 117.045 9.824 118.194 9.74535C117.559 9.48396 117.41 9.50535 117.154 9.54257C116.908 9.57794 116.566 9.62779 115.607 9.46207C118.297 9.46207 118.816 9.06544 118.608 8.61221C118.483 8.36952 118.085 8.08437 117.699 7.80884C117.456 7.63402 117.217 7.4629 117.055 7.30896C114.699 7.45583 114.643 7.38964 114.565 7.29179C114.496 7.21027 114.412 7.10652 112.959 7.08598C113.479 7.05785 114.042 6.9541 114.649 6.84177C114.727 6.82762 114.804 6.8133 114.882 6.79899C115.71 6.62905 116.538 6.57246 117.263 6.85574L116.747 6.45911C117.929 6.24286 118.455 6.38771 119.04 6.54922C119.068 6.55697 119.096 6.5647 119.124 6.57245C119.159 6.57835 119.19 6.58442 119.224 6.59048C119.825 6.70197 120.556 6.83806 122.128 6.5157C122.035 6.25886 120.917 6.09515 119.862 5.94021C119.753 5.92421 119.647 5.90838 119.538 5.89255C118.402 5.72261 117.574 5.55251 118.297 5.15588C119.887 5.12876 119.666 5.03645 119.392 4.92277C119.1 4.79932 118.745 4.6506 120.575 4.53271C121.462 4.53271 121.555 4.67722 121.652 4.82172C121.689 4.87966 121.727 4.93743 121.817 4.98594L122.436 4.81599C122.645 4.02273 121.608 4.02274 120.366 4.19284C120.304 4.20093 120.239 4.20918 120.173 4.21742C118.866 4.38349 117.307 4.58121 116.124 4.41936C115.527 3.90534 117.394 3.58416 118.879 3.32833C119.193 3.27393 119.492 3.22257 119.747 3.17289C120.155 2.99436 119.791 2.71007 119.162 2.56994C119.044 2.53238 118.863 2.5056 118.608 2.49297C118.807 2.50509 118.994 2.53238 119.162 2.56994C119.579 2.70131 119.227 2.96539 118.505 3.22964C117.677 3.51293 116.227 3.7962 115.193 3.85279C116.849 3.39957 116.747 3.05953 116.021 2.94635C115.299 2.77725 114.067 2.83234 113.342 2.88876C113.267 2.84177 113.195 2.79478 113.124 2.74796C112.993 2.6629 112.865 2.57802 112.71 2.49297C112.087 2.15309 111.468 1.81305 110.951 1.64311C110.811 1.59208 110.677 1.54105 110.543 1.49069C110.086 1.31739 109.65 1.15149 109.087 1.01978C108.57 0.849846 108.054 0.736504 107.534 0.623154C106.398 0.396629 105.775 0.283279 104.947 0.16993L104.328 0.113342L103.914 0.0565872C103.758 0.0565872 103.603 0.0424347 103.447 0.0282898C103.292 0.0141449 103.136 0 102.98 0H100.394C99.8772 0 98.4268 0.0565872 97.3935 0.226692C96.9266 0.269135 96.6372 0.311569 96.3446 0.354179C96.2481 0.368324 96.1516 0.382469 96.0489 0.396622C95.8404 0.424911 95.6599 0.453209 95.4794 0.481506C95.2988 0.509972 95.1152 0.538269 94.9098 0.566566C93.6679 0.793259 92.6315 1.01978 91.9094 1.24648L91.2869 1.41643L90.7703 1.58636C90.459 1.69971 90.045 1.81305 89.7338 1.86964C88.4919 2.26627 87.3559 2.6629 86.3194 3.05953C84.2497 3.85279 82.3884 4.70265 80.5241 5.55251C76.0111 7.73692 71.7035 10.1479 67.7103 12.3845C65.3822 13.6864 63.163 14.9295 61.0683 16.0344C64.2773 16.1807 63.3964 16.645 61.8806 17.4427C60.589 18.1228 58.8336 19.0452 58.7651 20.2196C58.7278 20.2105 58.6873 20.2041 58.6407 20.2004L58.1706 19.9439C58.3543 20.0628 58.4601 20.1445 58.5037 20.1965C58.4103 20.1976 58.3013 20.2051 58.18 20.2183C57.7256 20.0967 56.9443 19.7996 56.5989 19.6689C56.353 19.5747 56.3312 19.567 56.826 19.7738C57.0284 19.9175 57.2338 20.0702 57.4455 20.228C57.4828 20.256 57.5201 20.2841 57.5575 20.3124C56.9132 20.429 56.1103 20.6181 55.301 20.8081C52.1979 21.537 49.045 22.2781 54.7563 18.9805L48.7525 22.1534C46.1785 22.5913 47.5666 21.6089 49.1913 20.4618C49.4589 20.2728 49.7328 20.0793 49.9943 19.8872C51.9613 18.5273 53.5144 17.2808 49.1664 18.1307C46.3216 19.548 44.4075 21.0833 42.4715 22.6383C42.0856 22.9484 41.6997 23.2591 41.3013 23.5698C38.9234 25.3829 36.1284 27.2527 31.4722 28.6125C31.8675 27.3672 30.5603 28.0362 29.0912 28.7904L28.8827 28.8958C27.3327 29.6891 25.5711 30.4822 25.5711 29.2925C26.3025 28.4522 27.756 27.8097 29.3495 27.1057C30.0125 26.8126 30.7003 26.5091 31.3664 26.1762L29.5052 26.5162C25.4684 28.046 23.3986 28.9524 22.3653 29.5757C21.3289 30.1989 21.3288 30.5955 21.5374 30.9356C21.6245 31.0511 21.749 31.1618 21.8766 31.276C22.4275 31.7674 23.0469 32.3227 21.1825 33.6087C21.1109 33.4961 21.0238 33.3615 20.9149 33.2019C21.002 33.346 21.0923 33.4826 21.1763 33.6115C21.1172 33.6527 21.0549 33.6948 20.9896 33.7376C20.6721 33.408 20.2955 32.9753 20.2955 32.9753L18.6396 32.5219C17.8117 32.2954 16.9839 32.0687 17.0866 32.1255C17.1893 32.1255 17.1892 32.2954 17.1892 32.5787C17.1674 32.6424 17.1426 32.7117 17.1177 32.788C17.0306 33.0516 16.9123 33.3986 16.6726 33.8818C16.4609 34.3685 16.0938 34.9595 15.5771 35.6704C13.9026 36.0608 12.8848 36.0773 12.2219 35.9781C11.5029 35.8346 11.1543 35.5325 10.8399 35.2579C10.6563 35.0988 10.4851 34.9489 10.2548 34.845C9.42688 34.9016 7.97968 35.2416 6.52924 35.6948C5.20337 36.0579 4.0517 36.4685 3.31091 36.7963C6.60077 35.3666 13.4294 35.6728 11.7052 37.3945C10.2548 37.2246 8.70483 37.3379 7.15173 37.5646C5.70129 37.7912 4.25403 38.0744 3.11493 38.3577C1.97577 38.641 1.25366 38.9243 0.839722 39.151C0.522217 39.3241 0.326111 39.4973 0.161194 39.6451C0.108276 39.6908 0.0584717 39.7342 0.0117798 39.7743C-0.0940552 40.0576 0.528442 40.3409 1.25366 40.5108C1.97571 40.6807 2.90948 40.6808 3.63153 40.6808C4.98547 40.6808 6.09967 40.509 7.11743 40.3523C7.26996 40.3291 7.41937 40.3062 7.56567 40.2841C8.64258 40.0697 9.71948 39.9062 11.4095 39.6494L11.7052 39.6042C11.951 39.5668 12.2094 39.5282 12.4802 39.4882C12.4646 39.508 12.446 39.5277 12.4304 39.5476C12.1596 39.9257 11.9075 40.2413 11.6553 40.5526C11.2289 41.0809 10.815 41.5961 10.3606 42.3806C10.1489 42.5531 10.3388 42.1563 10.4819 41.8572C10.622 41.5668 10.7154 41.3684 10.3606 41.8706C10.261 42.2427 9.82526 42.8389 9.33344 43.5077C8.77637 44.2614 8.15698 45.107 7.88 45.827L7.87073 45.8385L7.46295 46.0067C7.23883 46.3245 7.36334 46.2309 7.50031 46.1265C7.65906 46.0047 7.83954 45.8686 7.51276 46.3503L7.35706 46.5733C7.41931 46.4874 7.47229 46.4135 7.51276 46.3503L7.87073 45.8385L7.87689 45.8368C7.87689 45.8336 7.87689 45.8302 7.88 45.827L8.70477 44.6469C8.70477 44.9868 8.49628 45.4402 8.08234 46.1201C8.26904 45.9146 8.56165 45.5333 8.86664 45.1355C9.56696 44.2168 10.3388 43.2104 10.0494 44.0803L9.84082 44.1937C10.1272 44.1937 9.44556 45.3026 9.1748 45.7415C9.15302 45.7784 9.13428 45.8103 9.11871 45.8368L9.01288 45.78L8.70477 46.8566C8.91022 46.1201 7.56561 47.6499 7.87689 47.5931C7.9267 47.9375 7.97961 47.8023 8.073 47.5626C8.16327 47.3293 8.29083 46.997 8.49628 46.9132C8.64563 46.8724 8.36554 47.3885 8.08234 47.9133C7.97028 48.1182 7.85815 48.3245 7.77106 48.4997H8.185C7.9267 48.9529 7.87689 48.9246 7.83643 48.9034C7.79907 48.8822 7.77106 48.868 7.56567 49.3496C7.72125 49.2079 7.90179 49.0663 8.08234 48.9246C8.26282 48.783 8.44647 48.6413 8.59894 48.4997C8.04803 49.6546 8.27533 49.4482 8.56165 49.189C8.86359 48.9142 9.23395 48.5797 8.80756 49.7462C8.44336 50.0126 8.39972 50.2398 8.34064 50.543C8.30017 50.7555 8.25348 51.0056 8.08234 51.3325L9.11871 51.3893C9.11871 51.6007 8.87598 51.8122 8.74524 51.9283C8.66431 51.9987 8.62384 52.0338 8.70477 52.0125C8.63629 52.4967 8.87915 52.124 9.08453 51.8117C9.19348 51.649 9.28998 51.5026 9.32422 51.5026C9.24329 51.7676 9.35217 51.8432 9.47668 51.9308C9.67279 52.0679 9.9093 52.2343 9.53271 53.2024C9.75055 53.8282 10.0245 53.2468 10.2828 52.7037C10.5131 52.2142 10.731 51.7558 10.8773 52.2392C10.7776 52.732 10.6283 52.7882 10.5007 52.8362C10.3668 52.8874 10.2548 52.9293 10.2548 53.4856C10.3793 53.441 10.5006 53.4051 10.6158 53.3711C10.7963 53.3187 10.9583 53.2709 11.0827 53.2024C11.0453 53.2842 11.0018 53.3881 10.9551 53.5021C10.7404 54.0035 10.4446 54.7011 10.2734 54.5773C10.815 55.0715 11.2259 56.0042 11.6492 56.9703C11.8639 57.4609 12.0849 57.9601 12.3245 58.4148C13.0497 59.7747 13.9804 60.8512 15.2223 60.1713C15.4152 60.9066 15.2502 61.0361 15.0262 61.2148C14.8861 61.3255 14.7211 61.4548 14.6028 61.7578C15.5334 60.9645 16.1559 61.6445 16.7753 62.4943C17.3978 63.3442 18.1199 64.3074 18.9478 64.2508V63.2876C20.1896 64.8173 21.7427 65.0439 23.0873 65.0439C23.4017 65.0439 23.7192 65.0317 24.0398 65.0193C25.1073 64.9784 26.2184 64.9357 27.3327 65.3273L26.813 64.704C26.8814 64.0638 27.1335 63.7741 27.3576 63.5186C27.4696 63.3898 27.5724 63.2696 27.6408 63.1176C27.6938 63.2303 27.7435 63.4166 27.8026 63.6259C27.977 64.2584 28.2104 65.1011 28.6773 64.7606C28.6151 64.6936 28.5497 64.6264 28.4843 64.5585C28.2166 64.2821 27.9334 63.9912 27.8493 63.6274C29.4025 64.7606 31.2637 65.044 33.2307 65.1006H36.1284C37.1617 65.1006 38.0955 65.1572 39.0261 65.2706C40.8469 64.5878 42.9384 64.3919 45.1296 64.1864C45.3008 64.1703 45.475 64.1539 45.6494 64.1374C47.9245 63.9675 50.2028 63.7408 51.7559 63.0043C51.2361 63.2308 49.5803 60.9645 50.4082 61.3612C52.6865 63.0609 52.9977 62.7776 53.2032 62.3244C53.2156 62.2969 53.2281 62.269 53.2406 62.2412C53.4305 61.8085 53.6203 61.3696 55.273 62.381C55.6091 61.6424 56.6331 61.6561 57.6726 61.6864C56.8385 62.3759 56.0044 63.0738 55.1703 63.7974C54.6007 64.3357 54.0062 64.8598 53.4117 65.3839C52.8141 65.908 52.2197 66.432 51.6501 66.9703L49.9943 68.6134L49.1664 69.4067C49.1664 69.4067 48.8582 69.8033 48.6497 70.0298L48.3385 70.3699C48.2887 70.4547 48.2358 70.5256 48.186 70.5964C48.1331 70.6673 48.0802 70.738 48.0304 70.8231L47.9245 71.0498L47.8218 71.2197L47.7191 71.503C47.5106 71.8994 47.4079 72.2959 47.3051 72.6924L47.2025 72.9762V73.8826C47.2025 74.6193 47.5106 75.3558 47.9245 76.0357C48.1331 76.3756 48.3385 76.7156 48.6497 76.9989L48.8583 77.2254C48.8894 77.2598 48.9298 77.2992 48.9734 77.3423C49.0761 77.4417 49.1975 77.5602 49.2722 77.6788C49.4278 77.8205 49.6083 77.9621 49.7889 78.1037C49.9694 78.2454 50.1499 78.387 50.3055 78.5287C51.9613 79.7184 54.445 80.6816 56.826 81.135C57.3427 81.2482 58.068 81.3615 58.2734 81.3615C58.429 81.3898 58.5597 81.404 58.6873 81.4183C58.8181 81.4324 58.9488 81.4466 59.1013 81.4749C59.6211 81.5315 60.2404 81.5882 60.8629 81.5882C61.9989 81.6448 63.2408 81.5882 64.3799 81.5316L64.7939 81.4749L65.4164 81.3615L65.9331 81.3049C66.0887 81.2766 66.2692 81.2482 66.4497 81.2199C66.6302 81.1916 66.8139 81.1633 66.9664 81.135C67.0287 81.124 67.0909 81.1131 67.1562 81.1018C67.4332 81.0543 67.7507 80.9997 68.0028 80.9083L68.5194 80.7949C68.8307 80.7384 69.0361 80.6816 69.3474 80.5684L70.7977 80.1718L71.1059 80.0584L71.6257 79.8885L72.0396 79.6052L74.6261 78.4719L77.1098 77.2822L74.6261 77.9053C74.2339 78.0125 73.8199 78.1194 73.3842 78.2324C72.8955 78.3587 72.3789 78.4925 71.8311 78.642C72.8675 78.1886 73.4869 77.7922 74.1094 77.3955C74.7288 76.9989 75.2455 76.6589 75.6594 76.319C75.868 76.1491 76.1013 75.9931 76.3348 75.8373C76.5651 75.6815 76.7986 75.5257 77.0071 75.3558C77.1098 75.299 77.2125 75.2283 77.3152 75.1574C77.4211 75.0867 77.5237 75.0157 77.6264 74.9592L78.249 74.6193C79.2823 74.1093 80.7326 73.5993 82.4912 73.1461C79.3849 75.5257 81.1466 74.8458 83.9384 73.5993L84.0568 73.5468C86.8455 72.3027 90.7889 70.543 92.2175 70.7665C90.9756 71.503 89.6311 72.2963 88.2865 73.0328C94.1379 70.3348 94.0818 70.3133 92.3638 69.6493L92.3233 69.6333C95.7097 67.8612 97.5616 67.6765 99.1956 67.5134C99.5442 67.4786 99.8834 67.4447 100.226 67.3965C98.9621 68.7695 97.6612 70.1881 96.3571 71.6729C96.0489 72.0128 95.7377 72.353 95.4265 72.7495C95.2708 72.9477 95.1152 73.132 94.9627 73.316C94.8071 73.5001 94.6514 73.6844 94.4958 73.8826C93.8733 74.6191 93.254 75.3558 92.7373 76.149C92.479 76.5455 92.1926 76.9421 91.9094 77.3388C91.623 77.7354 91.3398 78.132 91.0815 78.5287C90.8263 78.8542 90.6395 79.218 90.4684 79.5572C90.431 79.6312 90.3936 79.7041 90.3563 79.7752L88.9059 82.3815L88.3892 83.7411L87.8726 85.1577L87.664 85.8376L87.5613 86.5741L87.2501 88.0473L87.1474 88.7838L87.0446 89.1805V89.917C87.0446 90.436 87.2189 90.9076 87.4057 91.4186L87.4586 91.5601C87.5613 91.8434 87.664 92.1267 87.7698 92.3533L87.9753 92.75C88.022 92.7992 88.0469 92.8483 88.0873 92.9255C88.1371 93.0258 88.2149 93.1734 88.3892 93.4299C89.3199 94.8463 90.9757 96.2627 92.9427 97.3959C93.4594 97.6792 93.9792 97.9624 94.4958 98.1891C94.611 98.2392 94.7231 98.2919 94.8413 98.3461C95.2552 98.5379 95.7128 98.749 96.3571 98.9256C97.8074 99.4356 99.3605 99.8888 101.119 100.229C102.878 100.569 104.636 100.795 106.292 100.852C107.12 100.909 108.156 100.909 108.362 100.909H109.501C111.054 100.852 112.607 100.682 114.157 100.455C114.366 100.427 114.546 100.399 114.727 100.371C114.907 100.342 115.091 100.314 115.296 100.285L115.919 100.172L116.747 100.002C117.263 99.8888 117.883 99.7189 118.402 99.549L119.644 99.2089C120.161 99.039 120.575 98.8691 120.989 98.6991L121.817 98.3591C122.013 98.2725 122.165 98.2024 122.296 98.1427C122.508 98.046 122.66 97.9759 122.85 97.9058L123.264 97.7359C123.317 97.7075 123.342 97.7075 123.357 97.7075C123.361 97.7075 123.364 97.7075 123.364 97.7069C123.37 97.7053 123.37 97.6995 123.37 97.6792L123.575 97.6226C123.784 97.5658 123.989 97.5092 124.198 97.3959C124.251 97.3959 124.568 97.2842 124.963 97.1454C125.312 97.0226 125.72 96.879 126.059 96.7727L128.238 95.9591C128.452 97.1946 129.069 98.4834 129.993 99.6056C130.198 99.8888 130.407 100.172 130.715 100.455L131.129 100.852C131.338 101.022 131.338 101.022 131.649 101.362C132.891 102.495 134.649 103.742 137.03 104.818C139.305 105.895 142.1 106.745 144.895 107.254C146.24 107.538 147.585 107.708 148.826 107.821C149.343 107.878 150.277 107.934 150.482 107.934L151.207 107.991C153.277 108.048 155.347 107.991 157.417 107.821C158.45 107.708 159.486 107.594 160.417 107.425C160.675 107.368 160.909 107.325 161.142 107.283C161.376 107.24 161.609 107.198 161.867 107.141L162.59 106.971C163.626 106.745 164.557 106.461 165.487 106.178L166.212 105.951L166.729 105.725L167.249 105.555C167.401 105.499 167.554 105.429 167.71 105.359C167.728 105.424 167.747 105.489 167.766 105.555C167.853 106.04 168.018 106.483 168.195 106.956C168.223 107.035 168.254 107.116 168.282 107.198C168.696 108.161 169.213 109.067 169.835 109.974L170.041 110.201L170.249 110.541C170.352 110.654 170.43 110.753 170.508 110.852C170.585 110.951 170.663 111.051 170.766 111.164C170.974 111.362 171.18 111.575 171.388 111.787C171.594 111.999 171.802 112.212 172.008 112.41C172.216 112.609 172.45 112.807 172.68 113.005C172.913 113.204 173.147 113.402 173.352 113.6L173.766 113.884L174.286 114.28C174.7 114.563 175.217 114.903 175.733 115.187C177.7 116.376 180.081 117.453 182.668 118.246C185.668 119.209 189.188 119.946 192.705 120.286C194.672 120.456 195.709 120.513 197.053 120.513C198.398 120.513 199.743 120.513 201.09 120.399C201.398 120.371 201.735 120.343 202.071 120.314C202.407 120.286 202.746 120.258 203.054 120.229L203.988 120.116L204.816 120.003L206.988 119.663C208.436 119.379 209.886 119.096 211.231 118.699C212.059 118.473 212.784 118.246 213.506 118.02C213.92 117.906 214.231 117.793 214.645 117.623C214.751 117.585 214.876 117.541 215.003 117.497C215.255 117.409 215.508 117.321 215.577 117.283L216.819 116.773C217.233 116.603 217.647 116.433 218.061 116.207L219.82 115.243L220.027 115.073L221.062 114.45L221.786 113.94C221.993 113.77 222.304 113.6 222.511 113.487C224.063 112.354 224.995 111.561 225.926 110.767C227.685 109.294 229.134 108.104 230.479 107.198L230.169 107.708C230.376 107.509 230.609 107.297 230.842 107.084C231.075 106.872 231.307 106.66 231.514 106.461C231.537 106.424 231.555 106.392 231.571 106.364C231.628 106.261 231.663 106.197 231.825 106.065V106.008C231.825 106.008 231.928 105.895 232.032 105.895L232.446 105.611L233.377 104.988C233.998 104.591 234.619 104.195 235.24 103.742C235.861 103.345 236.508 102.934 237.155 102.523C237.801 102.113 238.448 101.702 239.069 101.305ZM59.3907 61.6121C59.4685 62.0212 59.5526 62.3618 60.2404 62.2676L61.3765 60.947C61.3235 60.9292 61.2582 60.898 61.1711 60.8512L60.035 59.888C60.4707 61.0048 60.0879 61.4477 59.3907 61.6121ZM61.5072 60.7953L61.7002 60.5696C61.6971 60.5691 61.6939 60.5686 61.6908 60.5679L61.3796 60.2846C61.3422 60.368 61.4014 60.5206 61.4574 60.6602C61.476 60.7077 61.4916 60.7539 61.5072 60.7953ZM61.9242 60.5814L61.8962 60.6245C61.9367 60.606 61.9771 60.5874 62.0176 60.5689C61.9896 60.5748 61.9584 60.579 61.9242 60.5814ZM62.2822 60.4468C64.3271 59.4892 65.9611 58.4992 67.3617 57.4929C67.1096 57.391 66.845 57.2509 66.5524 57.0552C65.6062 56.9607 65.5191 57.7314 65.4569 58.2861C65.4444 58.3973 65.4319 58.4997 65.4164 58.5849C64.8499 58.2509 64.685 58.4392 64.5262 58.6255C64.3053 58.8815 64.0874 59.1335 62.8269 58.0184L63.552 59.2081L62.9327 58.6415C63.1007 59.073 62.9327 58.9681 62.693 58.819C62.4938 58.6941 62.2448 58.5383 62.1047 58.6415L63.3466 59.7747C62.8798 59.6045 62.7241 59.8461 62.556 60.1086C62.4782 60.2297 62.3973 60.3554 62.2822 60.4468ZM95.0965 38.1777C95.0125 38.0818 94.9782 38.0069 95.0125 37.9613C95.1058 37.998 95.193 38.0333 95.277 38.0675C95.2148 38.1046 95.1557 38.1413 95.0965 38.1777ZM96.8924 37.0638C96.8986 37.06 96.9017 37.0562 96.908 37.0525C96.8986 37.054 96.8893 37.0546 96.8769 37.0546C96.88 37.0577 96.8862 37.0607 96.8924 37.0638ZM96.9577 37.0228C97.0854 36.9421 97.213 36.8611 97.3437 36.7796L97.0822 36.6014C96.0178 36.1482 96.273 36.3608 96.5874 36.6262C96.771 36.7806 96.9764 36.9529 96.9577 37.0228ZM97.437 36.721C97.4651 36.7032 97.4931 36.6851 97.5211 36.6671C97.6207 36.6045 97.7203 36.5415 97.823 36.4785C97.8199 36.478 97.8199 36.4775 97.8167 36.477C97.7172 36.4315 97.6394 36.3955 97.5989 36.3747C96.9671 36.3747 97.0698 36.4598 97.437 36.721ZM97.9319 36.4099C98.1031 36.3013 98.2774 36.1923 98.4518 36.083C97.9444 36.0497 97.5335 36.0551 97.9319 36.4099ZM98.9715 35.7571C99.1302 35.6594 99.2859 35.5618 99.4446 35.4644C99.0991 35.2734 98.7256 35.0728 98.3272 34.8623L97.739 35.077C97.9164 35.1338 98.1093 35.1877 98.3241 35.2416C98.2058 35.2416 98.5669 35.4853 98.9715 35.7571ZM94.4429 11.5437C94.3931 11.5752 94.3402 11.6076 94.2873 11.6408C94.1908 11.6411 94.0569 11.6332 93.8733 11.615C93.643 11.4471 92.2767 11.1545 91.8378 11.0605C91.8316 11.0589 91.8222 11.0573 91.816 11.0558C91.8129 11.0538 91.8098 11.0518 91.8066 11.0498C92.177 10.9868 92.5848 10.9049 92.9956 10.8227C93.1699 10.7874 93.3474 10.752 93.5216 10.718L94.5985 10.9351C92.84 10.7651 93.254 10.9918 93.7706 11.2184C93.8111 11.2354 93.8484 11.2525 93.8889 11.2697C94.1161 11.3686 94.3557 11.4713 94.4429 11.5437ZM95.4731 10.8125C95.4295 10.8519 95.3798 10.895 95.3206 10.9423C95.0965 10.9041 94.8102 10.8495 94.5114 10.7921C94.2811 10.7481 94.0414 10.7025 93.8173 10.6616C93.9325 10.64 94.0445 10.6194 94.1566 10.6002L95.4731 10.8125ZM91.7974 11.0516C91.8036 11.053 91.8098 11.0543 91.816 11.0558C91.9654 11.1565 92.0152 11.2426 92.0712 11.3337C92.1926 11.5453 92.3358 11.7836 93.7706 12.2949C92.9925 12.1428 92.3638 12.0152 91.8347 11.9077C90.8232 11.7021 90.1727 11.57 89.5346 11.4809C89.7711 11.299 90.0108 11.117 90.2536 10.9351C90.2536 11.2419 90.9196 11.1998 91.7974 11.0516ZM89.2358 11.708C88.688 12.1298 88.1465 12.5518 87.6111 12.9736C87.6547 12.988 87.6982 13.0019 87.7418 13.0158C88.1309 13.1417 88.4577 13.2482 88.9059 13.3714L88.2865 13.0314L88.7005 13.2015C90.5617 13.598 89.9423 13.2581 89.4257 12.9748C88.8032 12.6915 88.2865 12.4082 90.5617 12.8615L89.5284 12.5782C88.9308 12.3872 89.0771 12.3801 89.214 12.3736C89.3634 12.3665 89.5035 12.3599 88.7005 12.125C89.9081 12.4222 89.9517 12.3345 90.0077 12.2319C90.0451 12.1587 90.0886 12.0776 90.5617 12.125C89.9174 11.9368 89.5066 11.8073 89.2358 11.708ZM87.1598 13.33C87.0727 13.3982 86.9886 13.4663 86.9015 13.5345C87.0913 13.6024 87.3403 13.6965 87.664 13.8247C88.4484 13.9677 88.078 13.7952 87.6734 13.6057C87.4555 13.503 87.2252 13.3954 87.1598 13.33ZM84.9034 13.4292C84.2653 13.2659 83.8606 13.1793 84.6636 13.5414L84.8722 13.428C84.8815 13.4304 84.8909 13.4327 84.9002 13.4351C84.7446 13.6655 84.6107 13.8851 84.4955 14.0968C84.2995 14.0322 84.1128 13.968 83.9478 13.9109C83.7828 13.8543 83.6366 13.8046 83.5245 13.7681C84.1377 14.1583 84.0225 14.1645 83.8949 14.1714C83.7642 14.1784 83.6241 14.1861 84.2279 14.603C84.2279 14.6051 84.2248 14.6073 84.2248 14.6097L83.2164 14.2781L84.175 14.7082C84.1719 14.7195 84.1656 14.7306 84.1594 14.7417L81.9745 14.2213L83.3191 14.6179C83.3502 14.6671 83.4218 14.7261 83.4934 14.7833C83.6708 14.9236 83.8327 15.0548 83.3191 15.0146L81.8687 14.448C82.1021 14.701 81.5481 14.6151 81.0221 14.5332C80.9536 14.5224 80.8852 14.5118 80.8167 14.5021C82.5597 13.2659 84.3586 12.2422 85.8028 12.2949C85.5102 12.6146 85.2706 12.913 85.0652 13.1951L84.6636 12.9748C84.6636 13.0045 84.6637 13.0291 84.673 13.0521C84.6979 13.1064 84.7757 13.1539 85.0309 13.2441C84.9874 13.3066 84.9438 13.3683 84.9034 13.4292ZM80.4774 14.7463C80.4587 14.7601 80.4401 14.7739 80.4214 14.7879H80.3716C80.4961 14.8387 80.6206 14.8808 80.7326 14.9012C80.6299 14.8428 80.5459 14.7912 80.4774 14.7463ZM80.2782 14.7879C80.4027 14.893 80.2253 14.8743 79.9514 14.8153L80.0074 14.7879H80.2782ZM79.2542 15.1604L79.2169 15.1796L79.5935 15.2978L79.2542 15.1604ZM77.9781 15.7915L77.5518 16.0027C77.8941 16.0015 78.0809 15.9451 77.9781 15.7915ZM72.6777 17.277C72.4691 17.4451 72.2607 17.6148 72.0645 17.7794C71.6755 17.5892 71.5977 17.5362 71.5199 17.4508C71.4794 17.4508 71.4172 17.444 71.3518 17.4368C71.0872 17.4078 70.7542 17.3715 71.4171 17.7341L70.3745 17.2389C70.4211 17.2138 70.4648 17.1886 70.5114 17.1635C71.0468 16.8717 71.5665 16.588 72.0396 16.3176C72.2388 16.2445 72.4194 16.1794 72.5874 16.1218C72.8396 16.3761 73.0854 16.6459 73.1943 16.8556C73.0512 16.9731 72.9018 17.0947 72.7492 17.2178C72.6652 17.2077 72.5656 17.1912 72.4536 17.1675C72.5128 17.201 72.5937 17.2396 72.6777 17.277ZM73.6705 16.4492C73.5927 16.5174 73.5118 16.5891 73.4247 16.6634C73.2317 16.5642 73.1103 16.4716 72.9827 16.3761C72.8738 16.2937 72.7648 16.2092 72.603 16.1165C72.6839 16.0888 72.7586 16.0626 72.8333 16.0384C72.9204 16.0815 73.0107 16.1243 73.0978 16.1666C73.297 16.2631 73.49 16.3576 73.6705 16.4492ZM73.8822 16.2501C73.8635 16.2685 73.8448 16.2872 73.823 16.3062C73.462 16.1842 73.2068 16.0793 72.9982 15.9847C73.0916 15.9559 73.1757 15.9299 73.2535 15.907L73.8822 16.2501ZM74.0814 16.0251C74.0689 16.0421 74.0534 16.0598 74.0409 16.0781L73.4682 15.8481C73.7826 15.7677 73.9756 15.7462 74.0752 15.7715C73.9787 15.8186 73.9662 15.8989 74.0814 16.0251ZM69.752 17.5794C70.2126 17.795 70.5488 17.9872 70.3839 18.0173C69.9917 17.8627 69.7146 17.7625 69.5248 17.7044C69.6026 17.6627 69.6773 17.621 69.752 17.5794ZM69.2914 17.8346C69.1575 17.9099 69.0237 17.9855 68.8898 18.0613C68.9863 18.1388 69.1295 18.2376 69.3474 18.3574C70.1535 18.5913 69.808 18.2888 69.4843 18.0076C69.4158 17.9471 69.3474 17.8877 69.2914 17.8346ZM68.7373 18.1499C68.2549 18.4271 67.7912 18.7065 67.3741 18.9837C67.3772 18.9827 67.3803 18.9817 67.3803 18.9807C68.2581 19.4104 68.2082 19.2987 68.1429 19.149C68.0588 18.963 67.95 18.7183 69.556 19.3772L68.6222 18.244L69.7613 18.754C69.5652 18.6336 69.3474 18.5069 69.142 18.3867C68.9957 18.3033 68.8587 18.223 68.7373 18.1499ZM67.3492 18.9996C67.1843 19.1094 67.0255 19.2189 66.8761 19.3278L67.0722 19.4339L67.1749 19.264L67.3803 19.3772C68.3327 19.837 68.3172 19.7662 68.2954 19.6851C68.2798 19.6162 68.2612 19.5397 68.8307 19.7738C68.8307 19.5859 68.2923 19.3977 67.8628 19.248C67.5577 19.1409 67.3056 19.0535 67.3492 18.9996ZM66.5773 19.1633C66.6022 19.1405 66.6271 19.1175 66.6583 19.0939C66.6271 19.1146 66.596 19.1353 66.5649 19.1562L66.5773 19.1633ZM66.456 19.2291C66.4653 19.2355 66.4778 19.2419 66.4902 19.2485C66.3315 19.4144 66.2661 19.5577 66.2101 19.6989L65.9673 19.5658C66.126 19.4531 66.291 19.341 66.456 19.2291ZM65.9362 19.5864C65.9113 19.6059 65.8832 19.6253 65.8552 19.6448C65.905 19.6366 65.9331 19.6179 65.9362 19.5864ZM44.2114 27.8164C45.3132 28.6065 45.6929 29.1505 45.0268 28.8392C44.6471 28.4744 44.2239 28.1696 43.7757 27.886C43.9375 27.8516 44.0807 27.8292 44.2114 27.8164ZM43.6978 27.9026C43.5391 27.9389 43.3617 27.986 43.1656 28.046L43.4239 28.5363C43.6854 28.6513 43.8473 28.6887 43.785 28.556L44.1989 28.9526C44.9241 29.2925 44.8214 28.8392 44.0962 28.1593C43.9593 28.0633 43.8286 27.9794 43.6978 27.9026ZM38.7865 29.8723C38.6122 29.7987 38.3569 29.7688 37.9897 29.8023C37.9616 29.823 37.9336 29.8439 37.9025 29.8649C38.1639 29.8419 38.4503 29.8365 38.7865 29.8723ZM34.0338 31.7229C33.8843 31.7866 33.735 31.8498 33.5887 31.9122C33.7816 31.9826 33.9746 32.0547 34.1613 32.1255C34.289 32.1255 34.18 31.9501 34.0524 31.7494C34.0462 31.7406 34.04 31.7319 34.0338 31.7229ZM30.2242 33.9771C30.2024 33.9823 30.1837 33.9877 30.165 33.9931C30.2179 34.0475 30.2739 34.1048 30.3331 34.1651C30.2957 34.1007 30.2584 34.0381 30.2242 33.9771ZM66.3252 19.7629C66.4622 19.6448 66.6115 19.5257 66.7734 19.4058C67.343 19.7194 68.0153 20.0588 68.6222 20.3404C68.1616 20.2024 67.9717 20.2045 67.8005 20.2063C67.5484 20.209 67.3306 20.2114 66.347 19.7738L66.3252 19.7629ZM85.7281 14.4674C85.7935 14.482 85.8526 14.4947 85.9055 14.5046C85.8464 14.4776 85.8028 14.4536 85.7748 14.4322C85.7592 14.4438 85.7437 14.4556 85.7281 14.4674ZM86.2354 14.0647C86.2946 14.0172 86.3537 13.9697 86.4128 13.9222C86.942 14.1251 87.3061 14.304 87.2501 14.3346C87.0353 14.2952 86.5685 14.1733 86.2354 14.0647ZM98.8937 34.6557C99.1738 34.7788 99.4664 34.9154 99.7745 35.0717C99.7372 35.092 99.6718 35.105 99.6064 35.1187C99.4882 35.1429 99.3605 35.169 99.3605 35.2416L99.6064 35.3644C100.114 35.0498 100.627 34.7378 101.138 34.4347C101.026 34.3675 100.883 34.2794 100.705 34.1651L101.119 34.3917C101.396 34.3917 101.069 34.2136 100.637 33.9938C100.051 34.2206 99.4664 34.4429 98.8937 34.6557ZM101.331 33.7229L101.938 33.9671C102.012 33.9229 102.09 33.8787 102.168 33.8348C101.994 33.7598 101.816 33.6817 101.639 33.6024C101.536 33.6426 101.433 33.6829 101.331 33.7229ZM104.717 32.3837C104.758 32.399 104.801 32.4141 104.842 32.4291C104.982 32.3636 105.122 32.3 105.259 32.2387L105.268 32.1651C105.084 32.2376 104.901 32.3106 104.717 32.3837ZM102.716 33.5262C102.579 33.5013 102.457 33.4851 102.361 33.4851C102.429 33.5341 102.495 33.5774 102.554 33.6158C102.61 33.5857 102.663 33.5559 102.716 33.5262ZM108.082 19.9623C108.125 19.9346 108.169 19.907 108.209 19.8794C110.354 20.4894 110.624 20.3742 110.858 20.2759C111.007 20.2127 111.141 20.1565 111.745 20.3047C111.474 20.4808 111.206 20.658 110.936 20.8364C109.934 20.5839 108.614 20.2344 108.082 19.9623ZM105.327 22.1785C105.271 22.1526 105.215 22.1253 105.156 22.0968C105.227 22.1235 105.302 22.1504 105.38 22.1775C105.361 22.1778 105.346 22.1782 105.327 22.1785ZM107.475 21.9784C107.562 21.9606 107.652 21.941 107.745 21.9197C107.621 21.8738 107.512 21.8353 107.431 21.8136L107.475 21.9784ZM109.927 21.2635C110.186 21.1729 110.456 21.0732 110.743 20.9637C110.789 20.9325 110.836 20.9016 110.883 20.8706C109.582 20.6328 108.853 20.5706 109.812 21.1904C109.853 21.213 109.893 21.2376 109.927 21.2635ZM112.165 20.0303C112.414 19.8666 112.663 19.7037 112.912 19.5419C112.588 19.4782 111.978 19.316 110.845 18.9807C110.92 19.0624 110.967 19.1387 111.01 19.215C111.141 19.4385 111.272 19.663 112.165 20.0303ZM113.662 19.0536C113.942 18.8723 114.219 18.6919 114.493 18.5127C114.462 18.5059 114.434 18.4992 114.403 18.4925C113.089 18.1912 111.673 17.867 111.673 18.0173C113.058 18.4236 113.214 18.6098 113.373 18.7986C113.438 18.8776 113.507 18.9573 113.662 19.0536ZM116.049 18.5255C116.544 18.5352 116.946 18.4903 117.354 18.4445C117.736 18.4014 118.125 18.3574 118.608 18.3574L116.314 17.5949C116.326 17.5611 116.336 17.5274 116.348 17.4937L117.161 17.6209C116.946 17.5537 116.765 17.4814 116.588 17.4088C116.526 17.3837 116.463 17.3587 116.398 17.3337C116.41 17.297 116.423 17.2605 116.435 17.2242C116.398 17.2504 116.358 17.2765 116.32 17.3027C115.959 17.1665 115.533 17.036 114.78 16.941L115.091 16.8276C113.061 16.3562 113.152 16.305 113.298 16.2221C113.398 16.1656 113.525 16.0943 113.021 15.8644C113.64 15.921 114.468 16.1477 114.882 16.261C114.941 16.1967 115.533 16.3148 116.261 16.4601C116.799 16.5676 117.413 16.69 117.939 16.7643C117.581 16.7089 116.768 16.4766 115.788 16.196C114.957 15.9582 114.005 15.6855 113.105 15.4568C113.494 15.263 113.877 15.0695 114.25 14.879C115.555 15.1402 116.756 15.3005 116.849 15.0712C116.977 15.2815 117.699 15.5352 118.353 15.7652C118.757 15.9069 119.137 16.0397 119.333 16.1477C119.538 16.0911 119.85 16.0911 121.092 16.4876C120.746 16.2166 120.304 16.0882 119.927 15.9784C119.517 15.8587 119.181 15.761 119.124 15.5245C121.278 15.9613 122.389 16.095 123.305 16.0554C122.915 16.4667 121.891 17.0328 120.678 17.5641C119.124 18.244 117.161 18.924 115.919 19.1505C115.934 19.0481 115.956 18.9442 115.978 18.8392C116.028 18.8493 116.077 18.8588 116.124 18.8674L115.981 18.8152C116.003 18.7193 116.025 18.6225 116.049 18.5255ZM114.484 14.0621C115.019 13.8257 115.408 13.6325 115.735 13.4546C115.685 13.4521 115.632 13.4496 115.583 13.4469C115.215 13.4285 114.851 13.4104 114.484 13.3775C114.325 13.5134 114.148 13.6589 113.955 13.8144C114.107 13.8951 114.272 13.9786 114.484 14.0621ZM112.959 14.5972C113.009 14.6088 113.058 14.6205 113.108 14.6319C112.981 14.6823 112.847 14.7341 112.71 14.7879C112.794 14.723 112.878 14.6595 112.959 14.5972ZM112.461 14.4768C112.28 14.641 112.053 14.8377 111.779 15.0712C111.745 15.0803 111.698 15.0973 111.639 15.1215C111.119 15.0201 110.665 14.9578 110.329 14.9578C108.881 14.6745 108.054 14.2781 108.673 14.2781L111.882 14.8446L108.673 14.0514C108.496 13.8885 109.102 13.9316 109.731 13.9762C110.195 14.0091 110.671 14.0428 110.845 13.9946C110.883 14.0526 111.564 14.2551 112.461 14.4768ZM113.198 13.4552C113.292 13.3991 113.388 13.3416 113.485 13.2822C113.5 13.2728 113.516 13.2632 113.535 13.2537C113.17 13.1892 112.794 13.1005 112.399 12.9748C110.951 12.7483 110.951 13.0314 111.779 13.2015C112.461 13.2568 112.881 13.3457 113.198 13.4552ZM114.876 11.7268C114.932 11.649 114.991 11.5697 115.053 11.489L113.849 11.445L114.876 11.7268ZM114.633 13.2504C114.982 13.3453 115.377 13.3977 115.772 13.4338C115.956 13.3336 116.118 13.2381 116.277 13.1421C115.738 13.1064 115.165 13.0749 114.814 13.0915C114.755 13.1429 114.695 13.1958 114.633 13.2504ZM116.498 13.0068C116.526 12.9895 116.554 12.972 116.585 12.9544L116.641 12.9181C116.771 12.8266 116.908 12.7333 117.058 12.6354C117.061 12.6356 117.058 12.6353 117.058 12.6354C116.389 12.5352 116.326 12.6115 116.261 12.6915C116.217 12.7473 116.174 12.8049 115.919 12.8049C116.077 12.9071 116.273 12.9681 116.498 13.0068ZM116.093 17.4541L115.71 17.3942L116.028 17.4991C116.049 17.4841 116.071 17.4691 116.093 17.4541ZM273.247 95.9949C273.117 96.0061 273.042 96.0125 273.016 96.0145L273.028 96.0128C273.076 96.0083 273.2 95.997 273.394 95.9795H273.427C273.358 95.9853 273.298 95.9906 273.247 95.9949ZM375.881 110.767C375.775 110.748 375.768 110.745 375.843 110.757L375.881 110.767ZM381.78 111.787L381.822 111.764C383.228 112.006 383.799 112.112 381.78 111.787ZM447.588 64.9011C446.668 65.7068 445.624 66.4306 444.311 66.9177C444.958 66.5287 445.606 66.1329 446.253 65.7238C446.708 65.4553 447.152 65.1803 447.588 64.9011ZM455.153 60.0579C455.037 60.0446 454.922 60.0355 454.81 60.0303C455.198 59.7603 455.586 59.4893 455.973 59.2173C455.697 59.4974 455.424 59.7777 455.153 60.0579ZM469.651 53.3597C469.739 53.326 469.827 53.2925 469.916 53.2589C469.855 53.2231 469.818 53.186 470.176 53.1606L470.338 53.0998C470.233 53.0762 470.098 53.0664 469.947 53.0651C469.761 53.1688 469.573 53.2701 469.383 53.3677C469.489 53.3657 469.578 53.363 469.651 53.3597ZM501.309 38.981C501.149 39.0412 500.991 39.1006 500.834 39.1586C500.187 39.2243 499.649 39.2399 499.446 39.151C500.772 38.9932 501.48 38.8662 501.863 38.7589C501.73 38.812 501.596 38.8657 501.463 38.9192L501.309 38.981ZM469.05 52.878C468.819 52.7773 468.684 52.6651 469.921 52.6013C469.994 52.5701 470.07 52.5362 470.148 52.4999L469.042 52.2275C468.648 52.4059 468.256 52.5851 467.863 52.765C468.163 52.9066 468.535 52.9758 469.05 52.878ZM485.889 29.2925C485.735 29.504 485.45 29.6445 485.111 29.761C485.065 29.635 485.016 29.5089 484.964 29.3827C485.261 29.2962 485.424 29.3002 485.584 29.3041C485.678 29.3064 485.771 29.3086 485.889 29.2925ZM485.372 29.1791C485.276 29.2054 485.114 29.268 484.946 29.3391L484.925 29.2886C485.089 29.2434 485.24 29.2062 485.372 29.1791ZM484.622 28.4488C484.593 28.4633 484.563 28.4778 484.534 28.4923L484.495 28.4217C484.55 28.4207 484.633 28.4094 484.751 28.3858C484.707 28.4071 484.664 28.428 484.622 28.4488ZM484.987 27.9764C484.746 28.1234 484.53 28.2551 484.447 28.3365C484.426 28.2984 484.403 28.2599 484.381 28.2208L485.889 27.3095C485.8 27.4808 485.363 27.7472 484.987 27.9764ZM484.542 27.809C484.441 27.8683 484.341 27.9276 484.241 27.9865C484.035 27.6468 483.793 27.2807 483.523 26.9229C483.606 26.8682 483.692 26.8109 483.779 26.7527C484.643 26.1765 485.656 25.5015 485.579 26.1763C484.505 26.5962 484.454 26.8605 484.416 27.0614C484.402 27.1316 484.391 27.1941 484.337 27.2527C484.978 26.6909 485.183 26.7603 485.418 26.8403C485.562 26.8893 485.717 26.9423 485.993 26.8562C485.663 27.15 485.102 27.4799 484.547 27.8063L484.542 27.809ZM469.392 52.0692L469.469 52.0345C469.599 52.0456 469.727 52.0571 469.849 52.0692H469.392ZM468.844 53.6692L468.776 53.6667C468.617 53.7413 468.457 53.8134 468.296 53.8821C468.479 53.8109 468.661 53.7398 468.844 53.6692ZM96.4691 81.811L96.4629 81.8149C93.948 80.2856 94.695 80.7358 96.4691 81.811ZM103.706 86.2341C103.808 86.2936 103.846 86.3138 103.827 86.3003L103.808 86.2909L103.706 86.2341ZM126.268 89.2697C129.069 89.2507 127.665 89.2669 126.268 89.2825V89.2697ZM100.083 66.0638C100.739 65.3972 101.903 64.5917 103.422 63.8986C102.504 64.9243 101.542 65.9672 100.559 67.037L100.357 67.2552C99.2578 67.2975 99.3668 66.736 100.083 66.0638ZM105.464 64.0241C105.676 63.9074 105.89 63.79 106.108 63.6721C105.956 63.7671 105.747 63.8833 105.464 64.0241ZM172.307 41.0253C172.123 40.4916 172.347 41.1117 172.506 41.5554C172.668 41.9992 172.758 42.2661 172.307 41.0253ZM139.159 23.1683C139.212 23.4366 139.228 23.5454 139.047 22.6907C139.019 22.4728 139.109 22.9002 139.159 23.1683ZM129.165 96.0928C129.125 95.9379 129.1 95.7831 129.078 95.6283L129.249 95.5594C129.277 95.7396 129.318 95.918 129.371 96.0928C129.785 97.5092 130.612 98.9824 131.854 100.229C131.913 100.277 131.988 100.351 132.088 100.452C132.343 100.708 132.766 101.132 133.51 101.702C134.338 102.382 135.477 103.062 136.719 103.685C139.203 104.932 142.412 105.951 145.515 106.518C147.068 106.801 148.515 106.971 149.966 107.028C150.691 107.084 151.207 107.084 151.827 107.084C152.963 107.084 154.208 107.084 155.45 107.028C156.692 106.971 157.831 106.801 158.97 106.631C159.228 106.584 159.468 106.547 159.701 106.511C160.022 106.461 160.324 106.414 160.626 106.348C161.245 106.235 161.659 106.121 161.659 106.121C162.281 106.008 162.798 105.838 163.315 105.668C163.573 105.583 163.859 105.498 164.143 105.413C164.429 105.328 164.712 105.243 164.971 105.158L165.901 104.818C166.11 104.733 166.29 104.663 166.471 104.592C166.651 104.521 166.835 104.45 167.04 104.365L167.426 104.184C167.439 104.243 167.454 104.301 167.467 104.359L167.143 104.535C167.04 104.591 166.913 104.648 166.782 104.705C166.654 104.761 166.524 104.818 166.421 104.875C166.368 104.903 166.29 104.932 166.212 104.96C166.135 104.988 166.057 105.016 166.007 105.045L165.798 105.158C165.593 105.215 165.384 105.271 165.282 105.385C164.454 105.668 163.523 105.951 162.487 106.235C162.384 106.263 162.253 106.291 162.126 106.32C161.995 106.348 161.867 106.376 161.762 106.405L161.142 106.574L160.417 106.745C160.159 106.801 159.9 106.844 159.642 106.886C159.384 106.929 159.125 106.971 158.864 107.028C156.691 107.368 154.311 107.481 151.933 107.481H150.691L150.171 107.425C150.05 107.414 149.922 107.404 149.797 107.393C148.543 107.289 147.133 107.172 145.723 106.915C142.617 106.405 139.305 105.385 136.719 104.082C135.477 103.458 134.338 102.722 133.407 102.042L132.166 101.022C132.063 100.937 131.985 100.852 131.907 100.767C131.829 100.682 131.752 100.597 131.649 100.512C131.026 99.8888 130.51 99.1523 130.096 98.4158C129.682 97.6792 129.371 96.8859 129.165 96.0928ZM166.959 102.539C167.003 102.735 167.053 102.933 167.112 103.126C166.9 103.208 166.714 103.276 166.524 103.345C166.43 103.379 166.346 103.413 166.268 103.445C166.082 103.521 165.914 103.589 165.696 103.628C165.385 103.742 165.179 103.798 164.971 103.855C164.728 103.921 164.522 103.988 164.351 104.043C164.23 104.082 164.127 104.115 164.04 104.138L163.004 104.422C162.487 104.535 162.176 104.591 162.384 104.535C162.465 104.491 162.798 104.377 163.333 104.195L163.34 104.193C163.489 104.142 163.654 104.086 163.831 104.025C164.04 103.968 164.245 103.855 164.454 103.742C164.504 103.714 164.557 103.699 164.61 103.685C164.659 103.671 164.712 103.657 164.765 103.628C164.971 103.515 165.179 103.402 165.487 103.288C165.851 103.118 166.057 103.005 166.225 102.913C166.393 102.821 166.524 102.75 166.729 102.665L166.959 102.539ZM133.407 83.9112C133.358 83.8838 133.367 83.8861 133.414 83.907L133.407 83.9112ZM177.71 99.9395C177.716 99.9367 177.722 99.9331 177.728 99.9288L177.803 99.9456H177.7C177.7 99.9456 177.704 99.9434 177.71 99.9395Z" fill="#154F46" fill-opacity="0.5"/>
</svg>
